G04 #@! TF.GenerationSoftware,KiCad,Pcbnew,8.0.3*
G04 #@! TF.CreationDate,2024-07-26T16:49:23+02:00*
G04 #@! TF.ProjectId,ice4pi,69636534-7069-42e6-9b69-6361645f7063,rev?*
G04 #@! TF.SameCoordinates,PX2faf080PY2ebae40*
G04 #@! TF.FileFunction,Copper,L4,Bot*
G04 #@! TF.FilePolarity,Positive*
%FSLAX46Y46*%
G04 Gerber Fmt 4.6, Leading zero omitted, Abs format (unit mm)*
G04 Created by KiCad (PCBNEW 8.0.3) date 2024-07-26 16:49:23*
%MOMM*%
%LPD*%
G01*
G04 APERTURE LIST*
G04 #@! TA.AperFunction,ComponentPad*
%ADD10O,1.000000X2.100000*%
G04 #@! TD*
G04 #@! TA.AperFunction,ComponentPad*
%ADD11O,1.000000X1.800000*%
G04 #@! TD*
G04 #@! TA.AperFunction,ComponentPad*
%ADD12R,1.800000X1.800000*%
G04 #@! TD*
G04 #@! TA.AperFunction,ComponentPad*
%ADD13C,1.800000*%
G04 #@! TD*
G04 #@! TA.AperFunction,ComponentPad*
%ADD14C,2.000000*%
G04 #@! TD*
G04 #@! TA.AperFunction,ComponentPad*
%ADD15C,3.000000*%
G04 #@! TD*
G04 #@! TA.AperFunction,ComponentPad*
%ADD16R,1.700000X1.700000*%
G04 #@! TD*
G04 #@! TA.AperFunction,ComponentPad*
%ADD17O,1.700000X1.700000*%
G04 #@! TD*
G04 #@! TA.AperFunction,ViaPad*
%ADD18C,0.800000*%
G04 #@! TD*
G04 #@! TA.AperFunction,Conductor*
%ADD19C,1.000000*%
G04 #@! TD*
G04 #@! TA.AperFunction,Conductor*
%ADD20C,0.200000*%
G04 #@! TD*
G04 #@! TA.AperFunction,Conductor*
%ADD21C,4.000000*%
G04 #@! TD*
G04 #@! TA.AperFunction,Conductor*
%ADD22C,0.400000*%
G04 #@! TD*
G04 #@! TA.AperFunction,Conductor*
%ADD23C,0.250000*%
G04 #@! TD*
G04 #@! TA.AperFunction,Profile*
%ADD24C,0.050000*%
G04 #@! TD*
G04 APERTURE END LIST*
D10*
X6880000Y-50395000D03*
D11*
X6880000Y-54575000D03*
D10*
X15520000Y-50395000D03*
D11*
X15520000Y-54575000D03*
D12*
X67960000Y-15965000D03*
D13*
X70500000Y-14695000D03*
X67960000Y-13425000D03*
X70500000Y-12155000D03*
X67960000Y-10885000D03*
X70500000Y-9615000D03*
X67960000Y-8345000D03*
X67960000Y-5805000D03*
X70500000Y-4535000D03*
D14*
X80910000Y-16885000D03*
X80910000Y-14345000D03*
X80910000Y-6165000D03*
X80910000Y-3625000D03*
D15*
X73800000Y-18005000D03*
X73800000Y-2505000D03*
D16*
X70160000Y-53770000D03*
D17*
X70160000Y-51230000D03*
X72700000Y-53770000D03*
X72700000Y-51230000D03*
X75240000Y-53770000D03*
X75240000Y-51230000D03*
D16*
X8400000Y-4800000D03*
D17*
X8400000Y-2260000D03*
X10940000Y-4800000D03*
X10940000Y-2260000D03*
X13480000Y-4800000D03*
X13480000Y-2260000D03*
X16020000Y-4800000D03*
X16020000Y-2260000D03*
X18560000Y-4800000D03*
X18560000Y-2260000D03*
X21100000Y-4800000D03*
X21100000Y-2260000D03*
X23640000Y-4800000D03*
X23640000Y-2260000D03*
X26180000Y-4800000D03*
X26180000Y-2260000D03*
X28720000Y-4800000D03*
X28720000Y-2260000D03*
X31260000Y-4800000D03*
X31260000Y-2260000D03*
X33800000Y-4800000D03*
X33800000Y-2260000D03*
X36340000Y-4800000D03*
X36340000Y-2260000D03*
X38880000Y-4800000D03*
X38880000Y-2260000D03*
X41420000Y-4800000D03*
X41420000Y-2260000D03*
X43960000Y-4800000D03*
X43960000Y-2260000D03*
X46500000Y-4800000D03*
X46500000Y-2260000D03*
X49040000Y-4800000D03*
X49040000Y-2260000D03*
X51580000Y-4800000D03*
X51580000Y-2260000D03*
X54120000Y-4800000D03*
X54120000Y-2260000D03*
X56660000Y-4800000D03*
X56660000Y-2260000D03*
D18*
X23800000Y-48000000D03*
X23800000Y-40000000D03*
X41400000Y-48000000D03*
X47000000Y-48000000D03*
X47000000Y-40000000D03*
X55500000Y-41000000D03*
X53250000Y-43500000D03*
X57500000Y-48500000D03*
X44958000Y-14655800D03*
X63900000Y-38700000D03*
X43713400Y-15951200D03*
X46253400Y-13385800D03*
X61569600Y-39954200D03*
X65700000Y-37900000D03*
X42341800Y-17246600D03*
X79100000Y-43400000D03*
X74500000Y-36900000D03*
X74500000Y-40500000D03*
X74500000Y-34900000D03*
X81800000Y-40900000D03*
X78221383Y-25207111D03*
X29400000Y-44000000D03*
X13600000Y-48300000D03*
X8800000Y-48400000D03*
X67400000Y-37000000D03*
X55000000Y-23700000D03*
X55000000Y-31200000D03*
X36300000Y-14200000D03*
X36300000Y-20000000D03*
X39000000Y-17400000D03*
X64800000Y-29700000D03*
X69000000Y-21000000D03*
X69000000Y-19000000D03*
X69500000Y-18000000D03*
X72800000Y-22800000D03*
X74300000Y-22800000D03*
X71328724Y-18671276D03*
X82200000Y-36300000D03*
X82200000Y-23900000D03*
X80200000Y-23900000D03*
X80200000Y-35600000D03*
X65800000Y-40800000D03*
X78000000Y-46800000D03*
X41400000Y-40000000D03*
X49250000Y-24250000D03*
X54000000Y-19500000D03*
X52500000Y-19000000D03*
X48500000Y-27500000D03*
X52500000Y-19000000D03*
X69010001Y-28000000D03*
X66190000Y-28000000D03*
X78221383Y-22407111D03*
D19*
X49250000Y-24250000D02*
X54000000Y-19500000D01*
D20*
X56000000Y-48500000D02*
X53000000Y-45500000D01*
X57500000Y-48500000D02*
X56000000Y-48500000D01*
X53000000Y-45500000D02*
X53000000Y-43750000D01*
X53000000Y-43750000D02*
X53250000Y-43500000D01*
D21*
X11200000Y-46000000D02*
X11200000Y-10000000D01*
D22*
X9790489Y-3650489D02*
X9790489Y-9590489D01*
X8800000Y-48400000D02*
X11200000Y-46000000D01*
X29300000Y-44100000D02*
X29400000Y-44000000D01*
X11200000Y-46000000D02*
X13100000Y-44100000D01*
X13500000Y-48300000D02*
X11200000Y-46000000D01*
X13100000Y-44100000D02*
X29300000Y-44100000D01*
X12089511Y-10110489D02*
X11200000Y-11000000D01*
X10940000Y-2260000D02*
X12089511Y-3409511D01*
X12089511Y-3409511D02*
X12089511Y-10110489D01*
X13600000Y-48300000D02*
X13500000Y-48300000D01*
X8400000Y-2260000D02*
X9790489Y-3650489D01*
X9790489Y-9590489D02*
X11200000Y-11000000D01*
D23*
X67400000Y-37000000D02*
X72700000Y-42300000D01*
X72700000Y-42300000D02*
X72700000Y-51230000D01*
D20*
X55000000Y-31200000D02*
X55000000Y-23700000D01*
D23*
X36300000Y-14200000D02*
X37414511Y-13085489D01*
X70070000Y-53770000D02*
X36300000Y-20000000D01*
X37414511Y-13085489D02*
X37414511Y-3334511D01*
X37414511Y-3334511D02*
X36340000Y-2260000D01*
X70160000Y-53770000D02*
X70070000Y-53770000D01*
X39954511Y-3334511D02*
X38880000Y-2260000D01*
X39000000Y-17400000D02*
X39954511Y-16445489D01*
X39954511Y-16445489D02*
X39954511Y-3334511D01*
X60164359Y-29724521D02*
X58089800Y-27649962D01*
X64775479Y-29724521D02*
X60164359Y-29724521D01*
X58089800Y-27649962D02*
X58089800Y-18929800D01*
X64800000Y-29700000D02*
X64775479Y-29724521D01*
X58089800Y-18929800D02*
X43960000Y-4800000D01*
D20*
X69000000Y-21000000D02*
X69000000Y-19000000D01*
X74300000Y-22800000D02*
X72800000Y-22800000D01*
X72800000Y-22800000D02*
X72800000Y-21300000D01*
X72800000Y-21300000D02*
X69500000Y-18000000D01*
X68622448Y-15965000D02*
X67960000Y-15965000D01*
X71328724Y-18671276D02*
X68622448Y-15965000D01*
X82200000Y-36300000D02*
X82200000Y-23900000D01*
X80200000Y-35600000D02*
X80200000Y-23900000D01*
D23*
X71234511Y-46234511D02*
X71234511Y-52304511D01*
X78000000Y-46800000D02*
X78000000Y-49989589D01*
X78000000Y-49989589D02*
X75489589Y-52500000D01*
X65800000Y-40800000D02*
X71234511Y-46234511D01*
X71234511Y-52304511D02*
X72700000Y-53770000D01*
X73970000Y-52500000D02*
X72700000Y-53770000D01*
X75489589Y-52500000D02*
X73970000Y-52500000D01*
X35265489Y-16335489D02*
X35265489Y-3725489D01*
X70160000Y-51230000D02*
X35265489Y-16335489D01*
X35265489Y-3725489D02*
X33800000Y-2260000D01*
X64483193Y-21700000D02*
X62400000Y-21700000D01*
X75240000Y-51230000D02*
X75240000Y-32456807D01*
X75240000Y-32456807D02*
X64483193Y-21700000D01*
X62400000Y-21700000D02*
X54120000Y-13420000D01*
X54120000Y-13420000D02*
X54120000Y-4800000D01*
X69010001Y-28000000D02*
X66190000Y-28000000D01*
D20*
X72000000Y-13655000D02*
X70500000Y-12155000D01*
X78221383Y-22407111D02*
X75797947Y-22407111D01*
X72000000Y-18609164D02*
X72000000Y-13655000D01*
X75797947Y-22407111D02*
X72000000Y-18609164D01*
D19*
X47400000Y-24100000D02*
X52500000Y-19000000D01*
X47400000Y-26400000D02*
X47400000Y-24100000D01*
X48500000Y-27500000D02*
X47400000Y-26400000D01*
G04 #@! TA.AperFunction,Conductor*
G36*
X82003300Y-25672D02*
G01*
X82304319Y-41449D01*
X82317436Y-42827D01*
X82611911Y-89467D01*
X82624811Y-92209D01*
X82912799Y-169374D01*
X82925332Y-173447D01*
X83203672Y-280292D01*
X83215719Y-285656D01*
X83481368Y-421010D01*
X83492785Y-427601D01*
X83742838Y-589988D01*
X83753495Y-597732D01*
X83981160Y-782091D01*
X83985197Y-785360D01*
X83994998Y-794185D01*
X84205814Y-1005001D01*
X84214639Y-1014802D01*
X84384609Y-1224698D01*
X84402263Y-1246498D01*
X84410015Y-1257167D01*
X84572394Y-1507208D01*
X84578989Y-1518631D01*
X84714343Y-1784280D01*
X84719707Y-1796327D01*
X84826550Y-2074661D01*
X84830626Y-2087205D01*
X84907790Y-2375188D01*
X84910532Y-2388088D01*
X84957172Y-2682563D01*
X84958550Y-2695679D01*
X84967780Y-2871776D01*
X84974136Y-2993064D01*
X84974327Y-2996698D01*
X84974500Y-3003293D01*
X84974500Y-52996706D01*
X84974327Y-53003301D01*
X84958550Y-53304320D01*
X84957172Y-53317436D01*
X84910532Y-53611911D01*
X84907790Y-53624811D01*
X84830626Y-53912794D01*
X84826550Y-53925338D01*
X84719707Y-54203672D01*
X84714343Y-54215719D01*
X84578989Y-54481368D01*
X84572394Y-54492791D01*
X84410015Y-54742832D01*
X84402263Y-54753501D01*
X84214639Y-54985197D01*
X84205814Y-54994998D01*
X83994998Y-55205814D01*
X83985197Y-55214639D01*
X83753501Y-55402263D01*
X83742832Y-55410015D01*
X83492791Y-55572394D01*
X83481368Y-55578989D01*
X83215719Y-55714343D01*
X83203672Y-55719707D01*
X82925338Y-55826550D01*
X82912794Y-55830626D01*
X82624811Y-55907790D01*
X82611911Y-55910532D01*
X82317436Y-55957172D01*
X82304320Y-55958550D01*
X82020488Y-55973426D01*
X82003299Y-55974327D01*
X81996707Y-55974500D01*
X3003293Y-55974500D01*
X2996700Y-55974327D01*
X2978512Y-55973373D01*
X2695679Y-55958550D01*
X2682563Y-55957172D01*
X2388088Y-55910532D01*
X2375188Y-55907790D01*
X2087205Y-55830626D01*
X2074661Y-55826550D01*
X1796327Y-55719707D01*
X1784280Y-55714343D01*
X1518631Y-55578989D01*
X1507208Y-55572394D01*
X1274917Y-55421542D01*
X1257164Y-55410013D01*
X1246498Y-55402263D01*
X1187493Y-55354482D01*
X1014802Y-55214639D01*
X1005001Y-55205814D01*
X794185Y-54994998D01*
X785360Y-54985197D01*
X606685Y-54764552D01*
X597732Y-54753495D01*
X589988Y-54742838D01*
X427601Y-54492785D01*
X421010Y-54481368D01*
X285656Y-54215719D01*
X280292Y-54203672D01*
X192871Y-53975934D01*
X173447Y-53925332D01*
X169373Y-53912794D01*
X134898Y-53784132D01*
X93837Y-53630886D01*
X92209Y-53624811D01*
X89467Y-53611911D01*
X81889Y-53564066D01*
X42826Y-53317435D01*
X41449Y-53304319D01*
X25673Y-53003300D01*
X25500Y-52996706D01*
X25500Y-52325878D01*
X399500Y-52325878D01*
X399500Y-52674121D01*
X438491Y-53020174D01*
X470077Y-53158560D01*
X515982Y-53359681D01*
X515984Y-53359687D01*
X515983Y-53359687D01*
X630991Y-53688361D01*
X631002Y-53688388D01*
X782091Y-54002128D01*
X782096Y-54002137D01*
X967372Y-54297000D01*
X967375Y-54297004D01*
X1184489Y-54569259D01*
X1430740Y-54815510D01*
X1702995Y-55032624D01*
X1703003Y-55032630D01*
X1931357Y-55176115D01*
X1992667Y-55214639D01*
X1997867Y-55217906D01*
X2311621Y-55369002D01*
X2311637Y-55369007D01*
X2311638Y-55369008D01*
X2640312Y-55484016D01*
X2640315Y-55484016D01*
X2640319Y-55484018D01*
X2979829Y-55561509D01*
X3225210Y-55589157D01*
X3325878Y-55600500D01*
X3325880Y-55600500D01*
X3674122Y-55600500D01*
X3762006Y-55590597D01*
X4020171Y-55561509D01*
X4359681Y-55484018D01*
X4688379Y-55369002D01*
X5002133Y-55217906D01*
X5296997Y-55032630D01*
X5455007Y-54906622D01*
X5569259Y-54815510D01*
X5815510Y-54569259D01*
X5954989Y-54394357D01*
X6013100Y-54353569D01*
X6084037Y-54350672D01*
X6145279Y-54386588D01*
X6177382Y-54449912D01*
X6179500Y-54472916D01*
X6179500Y-55043993D01*
X6206420Y-55179328D01*
X6259225Y-55306811D01*
X6300780Y-55369002D01*
X6335885Y-55421541D01*
X6335890Y-55421547D01*
X6433452Y-55519109D01*
X6433458Y-55519114D01*
X6548189Y-55595775D01*
X6675672Y-55648580D01*
X6811007Y-55675500D01*
X6811008Y-55675500D01*
X6948992Y-55675500D01*
X6948993Y-55675500D01*
X7084328Y-55648580D01*
X7211811Y-55595775D01*
X7326542Y-55519114D01*
X7424114Y-55421542D01*
X7500775Y-55306811D01*
X7553580Y-55179328D01*
X7580500Y-55043993D01*
X7580500Y-54106007D01*
X7580499Y-54106004D01*
X14819500Y-54106004D01*
X14819500Y-54106007D01*
X14819500Y-55043993D01*
X14846420Y-55179328D01*
X14899225Y-55306811D01*
X14940780Y-55369002D01*
X14975885Y-55421541D01*
X14975890Y-55421547D01*
X15073452Y-55519109D01*
X15073458Y-55519114D01*
X15188189Y-55595775D01*
X15315672Y-55648580D01*
X15451007Y-55675500D01*
X15451008Y-55675500D01*
X15588992Y-55675500D01*
X15588993Y-55675500D01*
X15724328Y-55648580D01*
X15851811Y-55595775D01*
X15966542Y-55519114D01*
X16064114Y-55421542D01*
X16140775Y-55306811D01*
X16193580Y-55179328D01*
X16220500Y-55043993D01*
X16220500Y-54106007D01*
X16193580Y-53970672D01*
X16140775Y-53843189D01*
X16064114Y-53728458D01*
X16064109Y-53728452D01*
X15966547Y-53630890D01*
X15966541Y-53630885D01*
X15928471Y-53605447D01*
X15851811Y-53554225D01*
X15764911Y-53518230D01*
X15724331Y-53501421D01*
X15724328Y-53501420D01*
X15588995Y-53474500D01*
X15588993Y-53474500D01*
X15451007Y-53474500D01*
X15451004Y-53474500D01*
X15315671Y-53501420D01*
X15315668Y-53501421D01*
X15188189Y-53554225D01*
X15073458Y-53630885D01*
X15073452Y-53630890D01*
X14975890Y-53728452D01*
X14975885Y-53728458D01*
X14899225Y-53843189D01*
X14846421Y-53970668D01*
X14846420Y-53970671D01*
X14819500Y-54106004D01*
X7580499Y-54106004D01*
X7553580Y-53970672D01*
X7500775Y-53843189D01*
X7424114Y-53728458D01*
X7424109Y-53728452D01*
X7326547Y-53630890D01*
X7326541Y-53630885D01*
X7288471Y-53605447D01*
X7211811Y-53554225D01*
X7124911Y-53518230D01*
X7084331Y-53501421D01*
X7084328Y-53501420D01*
X6948995Y-53474500D01*
X6948993Y-53474500D01*
X6811007Y-53474500D01*
X6811004Y-53474500D01*
X6675671Y-53501420D01*
X6675664Y-53501422D01*
X6653403Y-53510643D01*
X6582813Y-53518230D01*
X6519327Y-53486450D01*
X6483101Y-53425391D01*
X6484053Y-53363314D01*
X6483231Y-53363127D01*
X6492615Y-53322017D01*
X6561509Y-53020171D01*
X6599545Y-52682595D01*
X6600500Y-52674121D01*
X6600500Y-52325878D01*
X58399500Y-52325878D01*
X58399500Y-52674121D01*
X58438491Y-53020174D01*
X58470077Y-53158560D01*
X58515982Y-53359681D01*
X58515984Y-53359687D01*
X58515983Y-53359687D01*
X58630991Y-53688361D01*
X58631002Y-53688388D01*
X58782091Y-54002128D01*
X58782096Y-54002137D01*
X58967372Y-54297000D01*
X58967375Y-54297004D01*
X59184489Y-54569259D01*
X59430740Y-54815510D01*
X59702995Y-55032624D01*
X59703003Y-55032630D01*
X59931357Y-55176115D01*
X59992667Y-55214639D01*
X59997867Y-55217906D01*
X60311621Y-55369002D01*
X60311637Y-55369007D01*
X60311638Y-55369008D01*
X60640312Y-55484016D01*
X60640315Y-55484016D01*
X60640319Y-55484018D01*
X60979829Y-55561509D01*
X61225210Y-55589157D01*
X61325878Y-55600500D01*
X61325880Y-55600500D01*
X61674122Y-55600500D01*
X61762006Y-55590597D01*
X62020171Y-55561509D01*
X62359681Y-55484018D01*
X62688379Y-55369002D01*
X63002133Y-55217906D01*
X63296997Y-55032630D01*
X63455007Y-54906622D01*
X63569259Y-54815510D01*
X63815510Y-54569259D01*
X63985220Y-54356447D01*
X64032630Y-54296997D01*
X64217906Y-54002133D01*
X64369002Y-53688379D01*
X64484018Y-53359681D01*
X64561509Y-53020171D01*
X64599545Y-52682595D01*
X64600500Y-52674121D01*
X64600500Y-52325878D01*
X64575915Y-52107685D01*
X64561509Y-51979829D01*
X64484018Y-51640319D01*
X64483204Y-51637993D01*
X64369008Y-51311638D01*
X64369007Y-51311637D01*
X64369002Y-51311621D01*
X64243882Y-51051807D01*
X64217908Y-50997871D01*
X64217903Y-50997862D01*
X64109943Y-50826046D01*
X64032630Y-50703003D01*
X64032624Y-50702995D01*
X63815510Y-50430740D01*
X63569259Y-50184489D01*
X63297004Y-49967375D01*
X63297000Y-49967372D01*
X63002137Y-49782096D01*
X63002128Y-49782091D01*
X62688388Y-49631002D01*
X62688383Y-49631000D01*
X62688379Y-49630998D01*
X62688373Y-49630995D01*
X62688361Y-49630991D01*
X62359687Y-49515983D01*
X62020174Y-49438491D01*
X61674122Y-49399500D01*
X61674120Y-49399500D01*
X61325880Y-49399500D01*
X61325878Y-49399500D01*
X60979825Y-49438491D01*
X60640312Y-49515983D01*
X60311638Y-49630991D01*
X60311611Y-49631002D01*
X59997871Y-49782091D01*
X59997862Y-49782096D01*
X59702999Y-49967372D01*
X59702995Y-49967375D01*
X59430740Y-50184489D01*
X59184489Y-50430740D01*
X58967375Y-50702995D01*
X58967372Y-50702999D01*
X58782096Y-50997862D01*
X58782091Y-50997871D01*
X58631002Y-51311611D01*
X58630991Y-51311638D01*
X58515983Y-51640312D01*
X58438491Y-51979825D01*
X58399500Y-52325878D01*
X6600500Y-52325878D01*
X6575915Y-52107685D01*
X6561509Y-51979829D01*
X6512731Y-51766119D01*
X6517073Y-51695260D01*
X6559038Y-51637993D01*
X6625301Y-51612504D01*
X6672151Y-51617512D01*
X6675666Y-51618578D01*
X6675668Y-51618578D01*
X6675672Y-51618580D01*
X6811007Y-51645500D01*
X6811008Y-51645500D01*
X6948992Y-51645500D01*
X6948993Y-51645500D01*
X7084328Y-51618580D01*
X7211811Y-51565775D01*
X7326542Y-51489114D01*
X7424114Y-51391542D01*
X7500775Y-51276811D01*
X7553580Y-51149328D01*
X7553580Y-51149325D01*
X7555528Y-51144624D01*
X7600076Y-51089343D01*
X7667439Y-51066922D01*
X7736231Y-51084480D01*
X7781054Y-51129840D01*
X7812254Y-51183879D01*
X7849482Y-51248361D01*
X7849490Y-51248371D01*
X7956628Y-51355509D01*
X7956633Y-51355513D01*
X7956635Y-51355515D01*
X7956636Y-51355516D01*
X7956638Y-51355517D01*
X8019035Y-51391542D01*
X8087865Y-51431281D01*
X8234234Y-51470500D01*
X8234236Y-51470500D01*
X8385764Y-51470500D01*
X8385766Y-51470500D01*
X8532135Y-51431281D01*
X8663365Y-51355515D01*
X8770515Y-51248365D01*
X8846281Y-51117135D01*
X8885500Y-50970766D01*
X8885500Y-50819234D01*
X13514500Y-50819234D01*
X13514500Y-50970766D01*
X13536215Y-51051807D01*
X13553718Y-51117132D01*
X13553721Y-51117139D01*
X13629482Y-51248361D01*
X13629490Y-51248371D01*
X13736628Y-51355509D01*
X13736633Y-51355513D01*
X13736635Y-51355515D01*
X13736636Y-51355516D01*
X13736638Y-51355517D01*
X13799035Y-51391542D01*
X13867865Y-51431281D01*
X14014234Y-51470500D01*
X14014236Y-51470500D01*
X14165764Y-51470500D01*
X14165766Y-51470500D01*
X14312135Y-51431281D01*
X14443365Y-51355515D01*
X14550515Y-51248365D01*
X14618946Y-51129838D01*
X14670324Y-51080849D01*
X14740038Y-51067412D01*
X14805949Y-51093799D01*
X14844471Y-51144624D01*
X14846421Y-51149331D01*
X14899225Y-51276811D01*
X14922496Y-51311638D01*
X14975885Y-51391541D01*
X14975890Y-51391547D01*
X15073452Y-51489109D01*
X15073458Y-51489114D01*
X15188189Y-51565775D01*
X15315672Y-51618580D01*
X15451007Y-51645500D01*
X15451008Y-51645500D01*
X15588992Y-51645500D01*
X15588993Y-51645500D01*
X15724328Y-51618580D01*
X15851811Y-51565775D01*
X15966542Y-51489114D01*
X16064114Y-51391542D01*
X16140775Y-51276811D01*
X16193580Y-51149328D01*
X16220500Y-51013993D01*
X16220500Y-49776007D01*
X16193580Y-49640672D01*
X16140775Y-49513189D01*
X16064114Y-49398458D01*
X16064109Y-49398452D01*
X15966547Y-49300890D01*
X15966541Y-49300885D01*
X15928471Y-49275447D01*
X15851811Y-49224225D01*
X15771421Y-49190926D01*
X15724331Y-49171421D01*
X15724328Y-49171420D01*
X15588995Y-49144500D01*
X15588993Y-49144500D01*
X15451007Y-49144500D01*
X15451004Y-49144500D01*
X15315671Y-49171420D01*
X15315668Y-49171421D01*
X15188189Y-49224225D01*
X15073458Y-49300885D01*
X15073452Y-49300890D01*
X14975890Y-49398452D01*
X14975885Y-49398458D01*
X14899225Y-49513189D01*
X14846421Y-49640668D01*
X14846420Y-49640671D01*
X14819500Y-49776004D01*
X14819500Y-50537292D01*
X14799498Y-50605413D01*
X14745842Y-50651906D01*
X14675568Y-50662010D01*
X14610988Y-50632516D01*
X14584381Y-50600292D01*
X14550517Y-50541638D01*
X14550509Y-50541628D01*
X14443371Y-50434490D01*
X14443361Y-50434482D01*
X14312139Y-50358721D01*
X14312136Y-50358720D01*
X14312135Y-50358719D01*
X14312133Y-50358718D01*
X14312132Y-50358718D01*
X14255713Y-50343601D01*
X14165766Y-50319500D01*
X14014234Y-50319500D01*
X13937319Y-50340109D01*
X13867867Y-50358718D01*
X13867860Y-50358721D01*
X13736638Y-50434482D01*
X13736628Y-50434490D01*
X13629490Y-50541628D01*
X13629482Y-50541638D01*
X13553721Y-50672860D01*
X13553718Y-50672867D01*
X13532049Y-50753741D01*
X13514500Y-50819234D01*
X8885500Y-50819234D01*
X8846281Y-50672865D01*
X8770515Y-50541635D01*
X8770513Y-50541633D01*
X8770509Y-50541628D01*
X8663371Y-50434490D01*
X8663361Y-50434482D01*
X8532139Y-50358721D01*
X8532136Y-50358720D01*
X8532135Y-50358719D01*
X8532133Y-50358718D01*
X8532132Y-50358718D01*
X8475713Y-50343601D01*
X8385766Y-50319500D01*
X8234234Y-50319500D01*
X8157319Y-50340109D01*
X8087867Y-50358718D01*
X8087860Y-50358721D01*
X7956638Y-50434482D01*
X7956628Y-50434490D01*
X7849490Y-50541628D01*
X7849482Y-50541638D01*
X7815619Y-50600292D01*
X7764236Y-50649285D01*
X7694523Y-50662721D01*
X7628612Y-50636335D01*
X7587430Y-50578502D01*
X7580500Y-50537292D01*
X7580500Y-49776008D01*
X7580499Y-49776004D01*
X7553580Y-49640672D01*
X7500775Y-49513189D01*
X7424114Y-49398458D01*
X7424109Y-49398452D01*
X7326547Y-49300890D01*
X7326541Y-49300885D01*
X7288471Y-49275447D01*
X7211811Y-49224225D01*
X7131421Y-49190926D01*
X7084331Y-49171421D01*
X7084328Y-49171420D01*
X6948995Y-49144500D01*
X6948993Y-49144500D01*
X6811007Y-49144500D01*
X6811004Y-49144500D01*
X6675671Y-49171420D01*
X6675668Y-49171421D01*
X6548189Y-49224225D01*
X6433458Y-49300885D01*
X6433452Y-49300890D01*
X6335890Y-49398452D01*
X6335885Y-49398458D01*
X6259225Y-49513189D01*
X6206421Y-49640668D01*
X6206420Y-49640671D01*
X6179500Y-49776004D01*
X6179500Y-50527083D01*
X6159498Y-50595204D01*
X6105842Y-50641697D01*
X6035568Y-50651801D01*
X5970988Y-50622307D01*
X5954989Y-50605643D01*
X5815503Y-50430733D01*
X5569259Y-50184489D01*
X5297004Y-49967375D01*
X5297000Y-49967372D01*
X5002137Y-49782096D01*
X5002128Y-49782091D01*
X4688388Y-49631002D01*
X4688383Y-49631000D01*
X4688379Y-49630998D01*
X4688373Y-49630995D01*
X4688361Y-49630991D01*
X4359687Y-49515983D01*
X4020174Y-49438491D01*
X3674122Y-49399500D01*
X3674120Y-49399500D01*
X3325880Y-49399500D01*
X3325878Y-49399500D01*
X2979825Y-49438491D01*
X2640312Y-49515983D01*
X2311638Y-49630991D01*
X2311611Y-49631002D01*
X1997871Y-49782091D01*
X1997862Y-49782096D01*
X1702999Y-49967372D01*
X1702995Y-49967375D01*
X1430740Y-50184489D01*
X1184489Y-50430740D01*
X967375Y-50702995D01*
X967372Y-50702999D01*
X782096Y-50997862D01*
X782091Y-50997871D01*
X631002Y-51311611D01*
X630991Y-51311638D01*
X515983Y-51640312D01*
X438491Y-51979825D01*
X399500Y-52325878D01*
X25500Y-52325878D01*
X25500Y-26325878D01*
X399500Y-26325878D01*
X399500Y-26674121D01*
X438491Y-27020174D01*
X472275Y-27168189D01*
X515982Y-27359681D01*
X515984Y-27359687D01*
X515983Y-27359687D01*
X630991Y-27688361D01*
X631002Y-27688388D01*
X782091Y-28002128D01*
X782096Y-28002137D01*
X967372Y-28297000D01*
X967375Y-28297004D01*
X1184489Y-28569259D01*
X1430740Y-28815510D01*
X1702995Y-29032624D01*
X1703003Y-29032630D01*
X1997867Y-29217906D01*
X2311621Y-29369002D01*
X2311637Y-29369007D01*
X2311638Y-29369008D01*
X2640312Y-29484016D01*
X2640315Y-29484016D01*
X2640319Y-29484018D01*
X2979829Y-29561509D01*
X3225210Y-29589157D01*
X3325878Y-29600500D01*
X3325880Y-29600500D01*
X3674122Y-29600500D01*
X3762006Y-29590597D01*
X4020171Y-29561509D01*
X4359681Y-29484018D01*
X4688379Y-29369002D01*
X5002133Y-29217906D01*
X5296997Y-29032630D01*
X5389625Y-28958761D01*
X5569259Y-28815510D01*
X5815510Y-28569259D01*
X6003975Y-28332929D01*
X6032630Y-28296997D01*
X6217906Y-28002133D01*
X6369002Y-27688379D01*
X6484018Y-27359681D01*
X6561509Y-27020171D01*
X6600500Y-26674120D01*
X6600500Y-26325880D01*
X6561509Y-25979829D01*
X6484018Y-25640319D01*
X6369002Y-25311621D01*
X6217906Y-24997867D01*
X6032630Y-24703003D01*
X5994043Y-24654616D01*
X5815510Y-24430740D01*
X5569259Y-24184489D01*
X5297004Y-23967375D01*
X5297000Y-23967372D01*
X5002137Y-23782096D01*
X5002128Y-23782091D01*
X4688388Y-23631002D01*
X4688383Y-23631000D01*
X4688379Y-23630998D01*
X4688373Y-23630995D01*
X4688361Y-23630991D01*
X4359687Y-23515983D01*
X4020174Y-23438491D01*
X3674122Y-23399500D01*
X3674120Y-23399500D01*
X3325880Y-23399500D01*
X3325878Y-23399500D01*
X2979825Y-23438491D01*
X2640312Y-23515983D01*
X2311638Y-23630991D01*
X2311611Y-23631002D01*
X1997871Y-23782091D01*
X1997862Y-23782096D01*
X1702999Y-23967372D01*
X1702995Y-23967375D01*
X1430740Y-24184489D01*
X1184489Y-24430740D01*
X967375Y-24702995D01*
X967372Y-24702999D01*
X782096Y-24997862D01*
X782091Y-24997871D01*
X631002Y-25311611D01*
X630991Y-25311638D01*
X515983Y-25640312D01*
X438491Y-25979825D01*
X399500Y-26325878D01*
X25500Y-26325878D01*
X25500Y-3325878D01*
X399500Y-3325878D01*
X399500Y-3674121D01*
X438491Y-4020174D01*
X461287Y-4120048D01*
X515982Y-4359681D01*
X515984Y-4359687D01*
X515983Y-4359687D01*
X630991Y-4688361D01*
X631002Y-4688388D01*
X782091Y-5002128D01*
X782096Y-5002137D01*
X967372Y-5297000D01*
X967375Y-5297004D01*
X1184489Y-5569259D01*
X1430740Y-5815510D01*
X1678267Y-6012904D01*
X1703003Y-6032630D01*
X1997867Y-6217906D01*
X2311621Y-6369002D01*
X2311637Y-6369007D01*
X2311638Y-6369008D01*
X2640312Y-6484016D01*
X2640315Y-6484016D01*
X2640319Y-6484018D01*
X2979829Y-6561509D01*
X3225210Y-6589157D01*
X3325878Y-6600500D01*
X3325880Y-6600500D01*
X3674122Y-6600500D01*
X3762006Y-6590597D01*
X4020171Y-6561509D01*
X4359681Y-6484018D01*
X4388743Y-6473849D01*
X4441855Y-6455264D01*
X4688379Y-6369002D01*
X5002133Y-6217906D01*
X5296997Y-6032630D01*
X5426613Y-5929265D01*
X5569259Y-5815510D01*
X5815510Y-5569259D01*
X5991398Y-5348700D01*
X6032630Y-5296997D01*
X6217906Y-5002133D01*
X6369002Y-4688379D01*
X6484018Y-4359681D01*
X6561509Y-4020171D01*
X6574891Y-3901402D01*
X7042000Y-3901402D01*
X7042000Y-4546000D01*
X7946203Y-4546000D01*
X7915437Y-4599288D01*
X7880000Y-4731541D01*
X7880000Y-4868459D01*
X7915437Y-5000712D01*
X7946203Y-5054000D01*
X7042000Y-5054000D01*
X7042000Y-5698597D01*
X7048505Y-5759093D01*
X7099555Y-5895964D01*
X7099555Y-5895965D01*
X7187095Y-6012904D01*
X7304034Y-6100444D01*
X7440906Y-6151494D01*
X7501402Y-6157999D01*
X7501415Y-6158000D01*
X8146000Y-6158000D01*
X8146000Y-5253797D01*
X8199288Y-5284563D01*
X8331541Y-5320000D01*
X8468459Y-5320000D01*
X8600712Y-5284563D01*
X8654000Y-5253797D01*
X8654000Y-6158000D01*
X9263989Y-6158000D01*
X9332110Y-6178002D01*
X9378603Y-6231658D01*
X9389989Y-6284000D01*
X9389989Y-8701363D01*
X9369987Y-8769484D01*
X9368661Y-8771377D01*
X9368716Y-8771414D01*
X9366428Y-8774838D01*
X9222202Y-9024643D01*
X9222197Y-9024653D01*
X9111809Y-9291155D01*
X9037149Y-9569789D01*
X8999500Y-9855769D01*
X8999500Y-46144230D01*
X9037149Y-46430210D01*
X9037151Y-46430217D01*
X9111809Y-46708845D01*
X9222196Y-46975345D01*
X9222197Y-46975346D01*
X9222202Y-46975357D01*
X9333465Y-47168069D01*
X9350203Y-47237064D01*
X9326983Y-47304156D01*
X9313441Y-47320164D01*
X8875489Y-47758116D01*
X8813177Y-47792142D01*
X8802841Y-47793943D01*
X8643239Y-47814955D01*
X8497160Y-47875463D01*
X8497157Y-47875465D01*
X8371718Y-47971718D01*
X8275465Y-48097157D01*
X8275463Y-48097160D01*
X8214955Y-48243239D01*
X8194318Y-48399999D01*
X8194318Y-48400000D01*
X8214955Y-48556760D01*
X8256377Y-48656760D01*
X8275464Y-48702841D01*
X8371718Y-48828282D01*
X8497159Y-48924536D01*
X8643238Y-48985044D01*
X8800000Y-49005682D01*
X8956762Y-48985044D01*
X9102841Y-48924536D01*
X9228282Y-48828282D01*
X9324536Y-48702841D01*
X9385044Y-48556762D01*
X9405682Y-48400000D01*
X9405681Y-48399998D01*
X9406056Y-48397157D01*
X9434778Y-48332230D01*
X9441871Y-48324520D01*
X9879836Y-47886555D01*
X9942146Y-47852531D01*
X10012961Y-47857596D01*
X10031922Y-47866529D01*
X10224655Y-47977804D01*
X10491155Y-48088191D01*
X10769783Y-48162849D01*
X10769787Y-48162849D01*
X10769789Y-48162850D01*
X10843496Y-48172553D01*
X11055772Y-48200500D01*
X11055779Y-48200500D01*
X11344221Y-48200500D01*
X11344228Y-48200500D01*
X11602691Y-48166472D01*
X11630210Y-48162850D01*
X11630210Y-48162849D01*
X11630217Y-48162849D01*
X11908845Y-48088191D01*
X12175345Y-47977804D01*
X12368073Y-47866531D01*
X12437063Y-47849795D01*
X12504155Y-47873015D01*
X12520164Y-47886557D01*
X12973277Y-48339670D01*
X13007303Y-48401982D01*
X13009104Y-48412317D01*
X13014955Y-48456760D01*
X13056377Y-48556760D01*
X13075464Y-48602841D01*
X13171718Y-48728282D01*
X13297159Y-48824536D01*
X13443238Y-48885044D01*
X13600000Y-48905682D01*
X13756762Y-48885044D01*
X13902841Y-48824536D01*
X14028282Y-48728282D01*
X14124536Y-48602841D01*
X14185044Y-48456762D01*
X14205682Y-48300000D01*
X14185044Y-48143238D01*
X14125712Y-47999999D01*
X23194318Y-47999999D01*
X23194318Y-48000000D01*
X23214955Y-48156760D01*
X23250776Y-48243238D01*
X23275464Y-48302841D01*
X23371718Y-48428282D01*
X23497159Y-48524536D01*
X23643238Y-48585044D01*
X23800000Y-48605682D01*
X23956762Y-48585044D01*
X24102841Y-48524536D01*
X24228282Y-48428282D01*
X24324536Y-48302841D01*
X24385044Y-48156762D01*
X24405682Y-48000000D01*
X40494540Y-48000000D01*
X40514325Y-48188256D01*
X40572818Y-48368278D01*
X40572822Y-48368286D01*
X40667465Y-48532214D01*
X40667466Y-48532216D01*
X40794126Y-48672886D01*
X40947267Y-48784149D01*
X40947267Y-48784150D01*
X40983990Y-48800500D01*
X41120197Y-48861144D01*
X41305354Y-48900500D01*
X41494646Y-48900500D01*
X41679803Y-48861144D01*
X41852730Y-48784151D01*
X41852730Y-48784150D01*
X41852732Y-48784150D01*
X41852732Y-48784149D01*
X42005871Y-48672888D01*
X42132533Y-48532216D01*
X42227179Y-48368284D01*
X42248444Y-48302839D01*
X42285674Y-48188256D01*
X42295248Y-48097159D01*
X42305460Y-48000000D01*
X42305460Y-47999999D01*
X46394318Y-47999999D01*
X46394318Y-48000000D01*
X46414955Y-48156760D01*
X46450776Y-48243238D01*
X46475464Y-48302841D01*
X46571718Y-48428282D01*
X46697159Y-48524536D01*
X46843238Y-48585044D01*
X47000000Y-48605682D01*
X47156762Y-48585044D01*
X47302841Y-48524536D01*
X47428282Y-48428282D01*
X47524536Y-48302841D01*
X47585044Y-48156762D01*
X47605682Y-48000000D01*
X47602759Y-47977801D01*
X47585044Y-47843239D01*
X47573329Y-47814955D01*
X47524536Y-47697159D01*
X47428282Y-47571718D01*
X47302841Y-47475464D01*
X47284303Y-47467785D01*
X47156760Y-47414955D01*
X47000000Y-47394318D01*
X46843239Y-47414955D01*
X46697160Y-47475463D01*
X46697157Y-47475465D01*
X46571718Y-47571718D01*
X46475465Y-47697157D01*
X46475463Y-47697160D01*
X46414955Y-47843239D01*
X46394318Y-47999999D01*
X42305460Y-47999999D01*
X42286012Y-47814956D01*
X42285674Y-47811743D01*
X42227181Y-47631721D01*
X42227177Y-47631713D01*
X42132534Y-47467785D01*
X42132533Y-47467783D01*
X42005873Y-47327113D01*
X41852732Y-47215850D01*
X41852732Y-47215849D01*
X41727145Y-47159934D01*
X41679803Y-47138856D01*
X41679801Y-47138855D01*
X41679800Y-47138855D01*
X41494646Y-47099500D01*
X41305354Y-47099500D01*
X41120199Y-47138855D01*
X40947267Y-47215849D01*
X40947267Y-47215850D01*
X40794126Y-47327113D01*
X40667466Y-47467783D01*
X40667465Y-47467785D01*
X40572822Y-47631713D01*
X40572818Y-47631721D01*
X40514325Y-47811743D01*
X40494540Y-48000000D01*
X24405682Y-48000000D01*
X24402759Y-47977801D01*
X24385044Y-47843239D01*
X24373329Y-47814955D01*
X24324536Y-47697159D01*
X24228282Y-47571718D01*
X24102841Y-47475464D01*
X24084303Y-47467785D01*
X23956760Y-47414955D01*
X23800000Y-47394318D01*
X23643239Y-47414955D01*
X23497160Y-47475463D01*
X23497157Y-47475465D01*
X23371718Y-47571718D01*
X23275465Y-47697157D01*
X23275463Y-47697160D01*
X23214955Y-47843239D01*
X23194318Y-47999999D01*
X14125712Y-47999999D01*
X14124536Y-47997159D01*
X14028282Y-47871718D01*
X13902841Y-47775464D01*
X13860960Y-47758116D01*
X13756760Y-47714955D01*
X13600001Y-47694318D01*
X13599997Y-47694318D01*
X13538516Y-47702411D01*
X13468368Y-47691471D01*
X13432977Y-47666584D01*
X13086557Y-47320164D01*
X13052531Y-47257852D01*
X13057596Y-47187037D01*
X13066524Y-47168085D01*
X13177804Y-46975345D01*
X13288191Y-46708845D01*
X13362849Y-46430217D01*
X13400500Y-46144228D01*
X13400500Y-44626500D01*
X13420502Y-44558379D01*
X13474158Y-44511886D01*
X13526500Y-44500500D01*
X29023064Y-44500500D01*
X29091185Y-44520502D01*
X29095824Y-44523764D01*
X29097155Y-44524533D01*
X29097159Y-44524536D01*
X29243238Y-44585044D01*
X29400000Y-44605682D01*
X29556762Y-44585044D01*
X29702841Y-44524536D01*
X29828282Y-44428282D01*
X29924536Y-44302841D01*
X29985044Y-44156762D01*
X30005682Y-44000000D01*
X29985044Y-43843238D01*
X29924536Y-43697159D01*
X29828282Y-43571718D01*
X29734816Y-43499999D01*
X52644318Y-43499999D01*
X52644318Y-43500000D01*
X52664955Y-43656760D01*
X52689909Y-43717003D01*
X52699500Y-43765221D01*
X52699500Y-45539565D01*
X52719977Y-45615985D01*
X52719978Y-45615988D01*
X52719979Y-45615989D01*
X52759540Y-45684511D01*
X52759542Y-45684513D01*
X52759545Y-45684517D01*
X55815482Y-48740454D01*
X55815487Y-48740458D01*
X55815489Y-48740460D01*
X55884012Y-48780022D01*
X55960438Y-48800500D01*
X56911531Y-48800500D01*
X56979652Y-48820502D01*
X57011493Y-48849796D01*
X57071715Y-48928279D01*
X57071716Y-48928280D01*
X57071718Y-48928282D01*
X57197159Y-49024536D01*
X57343238Y-49085044D01*
X57500000Y-49105682D01*
X57656762Y-49085044D01*
X57802841Y-49024536D01*
X57928282Y-48928282D01*
X58024536Y-48802841D01*
X58085044Y-48656762D01*
X58105682Y-48500000D01*
X58085044Y-48343238D01*
X58024536Y-48197159D01*
X57928282Y-48071718D01*
X57802841Y-47975464D01*
X57793798Y-47971718D01*
X57656760Y-47914955D01*
X57500000Y-47894318D01*
X57343239Y-47914955D01*
X57197160Y-47975463D01*
X57197157Y-47975465D01*
X57071715Y-48071720D01*
X57011493Y-48150204D01*
X56954156Y-48192071D01*
X56911531Y-48199500D01*
X56176661Y-48199500D01*
X56108540Y-48179498D01*
X56087566Y-48162595D01*
X53337405Y-45412434D01*
X53303379Y-45350122D01*
X53300500Y-45323339D01*
X53300500Y-44209532D01*
X53320502Y-44141411D01*
X53374158Y-44094918D01*
X53398949Y-44087800D01*
X53398784Y-44087182D01*
X53406757Y-44085045D01*
X53406758Y-44085044D01*
X53406762Y-44085044D01*
X53552841Y-44024536D01*
X53678282Y-43928282D01*
X53774536Y-43802841D01*
X53835044Y-43656762D01*
X53855682Y-43500000D01*
X53835044Y-43343238D01*
X53774536Y-43197159D01*
X53678282Y-43071718D01*
X53552841Y-42975464D01*
X53406762Y-42914956D01*
X53406760Y-42914955D01*
X53250000Y-42894318D01*
X53093239Y-42914955D01*
X52947160Y-42975463D01*
X52947157Y-42975465D01*
X52821718Y-43071718D01*
X52725465Y-43197157D01*
X52725463Y-43197160D01*
X52664955Y-43343239D01*
X52644318Y-43499999D01*
X29734816Y-43499999D01*
X29702841Y-43475464D01*
X29556762Y-43414956D01*
X29556760Y-43414955D01*
X29400000Y-43394318D01*
X29243239Y-43414955D01*
X29097160Y-43475463D01*
X29097157Y-43475465D01*
X28971715Y-43571720D01*
X28911493Y-43650204D01*
X28854156Y-43692071D01*
X28811531Y-43699500D01*
X13526500Y-43699500D01*
X13458379Y-43679498D01*
X13411886Y-43625842D01*
X13400500Y-43573500D01*
X13400500Y-40999999D01*
X54894318Y-40999999D01*
X54894318Y-41000000D01*
X54914955Y-41156760D01*
X54944581Y-41228282D01*
X54975464Y-41302841D01*
X55071718Y-41428282D01*
X55197159Y-41524536D01*
X55343238Y-41585044D01*
X55500000Y-41605682D01*
X55656762Y-41585044D01*
X55802841Y-41524536D01*
X55928282Y-41428282D01*
X56024536Y-41302841D01*
X56085044Y-41156762D01*
X56105682Y-41000000D01*
X56085044Y-40843238D01*
X56024536Y-40697159D01*
X55928282Y-40571718D01*
X55802841Y-40475464D01*
X55688932Y-40428281D01*
X55656760Y-40414955D01*
X55500000Y-40394318D01*
X55343239Y-40414955D01*
X55197160Y-40475463D01*
X55197157Y-40475465D01*
X55071718Y-40571718D01*
X54975465Y-40697157D01*
X54975463Y-40697160D01*
X54914955Y-40843239D01*
X54894318Y-40999999D01*
X13400500Y-40999999D01*
X13400500Y-39999999D01*
X23194318Y-39999999D01*
X23194318Y-40000000D01*
X23214955Y-40156760D01*
X23264124Y-40275463D01*
X23275464Y-40302841D01*
X23371718Y-40428282D01*
X23497159Y-40524536D01*
X23643238Y-40585044D01*
X23800000Y-40605682D01*
X23956762Y-40585044D01*
X24102841Y-40524536D01*
X24228282Y-40428282D01*
X24324536Y-40302841D01*
X24385044Y-40156762D01*
X24405682Y-40000000D01*
X40494540Y-40000000D01*
X40514325Y-40188256D01*
X40572818Y-40368278D01*
X40572822Y-40368286D01*
X40667465Y-40532214D01*
X40667466Y-40532216D01*
X40794126Y-40672886D01*
X40947267Y-40784149D01*
X40947267Y-40784150D01*
X40982865Y-40799999D01*
X41120197Y-40861144D01*
X41305354Y-40900500D01*
X41494646Y-40900500D01*
X41679803Y-40861144D01*
X41852730Y-40784151D01*
X41852730Y-40784150D01*
X41852732Y-40784150D01*
X41852732Y-40784149D01*
X42005871Y-40672888D01*
X42132533Y-40532216D01*
X42227179Y-40368284D01*
X42248444Y-40302839D01*
X42285674Y-40188256D01*
X42288984Y-40156760D01*
X42305460Y-40000000D01*
X42305460Y-39999999D01*
X46394318Y-39999999D01*
X46394318Y-40000000D01*
X46414955Y-40156760D01*
X46464124Y-40275463D01*
X46475464Y-40302841D01*
X46571718Y-40428282D01*
X46697159Y-40524536D01*
X46843238Y-40585044D01*
X47000000Y-40605682D01*
X47156762Y-40585044D01*
X47302841Y-40524536D01*
X47428282Y-40428282D01*
X47524536Y-40302841D01*
X47585044Y-40156762D01*
X47605682Y-40000000D01*
X47585044Y-39843238D01*
X47524536Y-39697159D01*
X47428282Y-39571718D01*
X47302841Y-39475464D01*
X47284303Y-39467785D01*
X47156760Y-39414955D01*
X47000000Y-39394318D01*
X46843239Y-39414955D01*
X46697160Y-39475463D01*
X46697157Y-39475465D01*
X46571718Y-39571718D01*
X46475465Y-39697157D01*
X46475463Y-39697160D01*
X46414955Y-39843239D01*
X46394318Y-39999999D01*
X42305460Y-39999999D01*
X42285674Y-39811744D01*
X42281026Y-39797438D01*
X42227181Y-39631721D01*
X42227177Y-39631713D01*
X42132534Y-39467785D01*
X42132533Y-39467783D01*
X42005873Y-39327113D01*
X41852732Y-39215850D01*
X41852732Y-39215849D01*
X41727145Y-39159934D01*
X41679803Y-39138856D01*
X41679801Y-39138855D01*
X41679800Y-39138855D01*
X41494646Y-39099500D01*
X41305354Y-39099500D01*
X41120199Y-39138855D01*
X40947267Y-39215849D01*
X40947267Y-39215850D01*
X40794126Y-39327113D01*
X40667466Y-39467783D01*
X40667465Y-39467785D01*
X40572822Y-39631713D01*
X40572818Y-39631721D01*
X40514325Y-39811743D01*
X40494540Y-40000000D01*
X24405682Y-40000000D01*
X24385044Y-39843238D01*
X24324536Y-39697159D01*
X24228282Y-39571718D01*
X24102841Y-39475464D01*
X24084303Y-39467785D01*
X23956760Y-39414955D01*
X23800000Y-39394318D01*
X23643239Y-39414955D01*
X23497160Y-39475463D01*
X23497157Y-39475465D01*
X23371718Y-39571718D01*
X23275465Y-39697157D01*
X23275463Y-39697160D01*
X23214955Y-39843239D01*
X23194318Y-39999999D01*
X13400500Y-39999999D01*
X13400500Y-9855779D01*
X13400500Y-9855772D01*
X13362849Y-9569783D01*
X13288191Y-9291155D01*
X13177804Y-9024655D01*
X13033575Y-8774844D01*
X12857974Y-8545996D01*
X12857968Y-8545990D01*
X12857964Y-8545985D01*
X12654016Y-8342037D01*
X12653995Y-8342018D01*
X12539307Y-8254015D01*
X12497440Y-8196677D01*
X12490011Y-8154053D01*
X12490011Y-5601754D01*
X12510013Y-5533633D01*
X12563669Y-5487140D01*
X12633943Y-5477036D01*
X12698523Y-5506530D01*
X12713411Y-5521822D01*
X12733587Y-5546408D01*
X12766825Y-5573685D01*
X12893550Y-5677685D01*
X13076046Y-5775232D01*
X13274066Y-5835300D01*
X13274070Y-5835300D01*
X13274072Y-5835301D01*
X13479997Y-5855583D01*
X13480000Y-5855583D01*
X13480003Y-5855583D01*
X13685927Y-5835301D01*
X13685928Y-5835300D01*
X13685934Y-5835300D01*
X13883954Y-5775232D01*
X14066450Y-5677685D01*
X14226410Y-5546410D01*
X14357685Y-5386450D01*
X14455232Y-5203954D01*
X14515300Y-5005934D01*
X14515355Y-5005382D01*
X14535583Y-4800003D01*
X14535583Y-4799996D01*
X14964417Y-4799996D01*
X14964417Y-4800003D01*
X14984698Y-5005927D01*
X14984699Y-5005933D01*
X14984700Y-5005934D01*
X15004409Y-5070906D01*
X15044768Y-5203954D01*
X15125617Y-5355212D01*
X15142315Y-5386450D01*
X15273590Y-5546410D01*
X15433550Y-5677685D01*
X15616046Y-5775232D01*
X15814066Y-5835300D01*
X15814070Y-5835300D01*
X15814072Y-5835301D01*
X16019997Y-5855583D01*
X16020000Y-5855583D01*
X16020003Y-5855583D01*
X16225927Y-5835301D01*
X16225928Y-5835300D01*
X16225934Y-5835300D01*
X16423954Y-5775232D01*
X16606450Y-5677685D01*
X16766410Y-5546410D01*
X16897685Y-5386450D01*
X16995232Y-5203954D01*
X17055300Y-5005934D01*
X17055355Y-5005382D01*
X17075583Y-4800003D01*
X17075583Y-4799996D01*
X17504417Y-4799996D01*
X17504417Y-4800003D01*
X17524698Y-5005927D01*
X17524699Y-5005933D01*
X17524700Y-5005934D01*
X17544409Y-5070906D01*
X17584768Y-5203954D01*
X17665617Y-5355212D01*
X17682315Y-5386450D01*
X17813590Y-5546410D01*
X17973550Y-5677685D01*
X18156046Y-5775232D01*
X18354066Y-5835300D01*
X18354070Y-5835300D01*
X18354072Y-5835301D01*
X18559997Y-5855583D01*
X18560000Y-5855583D01*
X18560003Y-5855583D01*
X18765927Y-5835301D01*
X18765928Y-5835300D01*
X18765934Y-5835300D01*
X18963954Y-5775232D01*
X19146450Y-5677685D01*
X19306410Y-5546410D01*
X19437685Y-5386450D01*
X19535232Y-5203954D01*
X19595300Y-5005934D01*
X19595355Y-5005382D01*
X19615583Y-4800003D01*
X19615583Y-4799996D01*
X20044417Y-4799996D01*
X20044417Y-4800003D01*
X20064698Y-5005927D01*
X20064699Y-5005933D01*
X20064700Y-5005934D01*
X20084409Y-5070906D01*
X20124768Y-5203954D01*
X20205617Y-5355212D01*
X20222315Y-5386450D01*
X20353590Y-5546410D01*
X20513550Y-5677685D01*
X20696046Y-5775232D01*
X20894066Y-5835300D01*
X20894070Y-5835300D01*
X20894072Y-5835301D01*
X21099997Y-5855583D01*
X21100000Y-5855583D01*
X21100003Y-5855583D01*
X21305927Y-5835301D01*
X21305928Y-5835300D01*
X21305934Y-5835300D01*
X21503954Y-5775232D01*
X21686450Y-5677685D01*
X21846410Y-5546410D01*
X21977685Y-5386450D01*
X22075232Y-5203954D01*
X22135300Y-5005934D01*
X22135355Y-5005382D01*
X22155583Y-4800003D01*
X22155583Y-4799996D01*
X22584417Y-4799996D01*
X22584417Y-4800003D01*
X22604698Y-5005927D01*
X22604699Y-5005933D01*
X22604700Y-5005934D01*
X22624409Y-5070906D01*
X22664768Y-5203954D01*
X22745617Y-5355212D01*
X22762315Y-5386450D01*
X22893590Y-5546410D01*
X23053550Y-5677685D01*
X23236046Y-5775232D01*
X23434066Y-5835300D01*
X23434070Y-5835300D01*
X23434072Y-5835301D01*
X23639997Y-5855583D01*
X23640000Y-5855583D01*
X23640003Y-5855583D01*
X23845927Y-5835301D01*
X23845928Y-5835300D01*
X23845934Y-5835300D01*
X24043954Y-5775232D01*
X24226450Y-5677685D01*
X24386410Y-5546410D01*
X24517685Y-5386450D01*
X24615232Y-5203954D01*
X24675300Y-5005934D01*
X24675355Y-5005382D01*
X24695583Y-4800003D01*
X24695583Y-4799996D01*
X25124417Y-4799996D01*
X25124417Y-4800003D01*
X25144698Y-5005927D01*
X25144699Y-5005933D01*
X25144700Y-5005934D01*
X25164409Y-5070906D01*
X25204768Y-5203954D01*
X25285617Y-5355212D01*
X25302315Y-5386450D01*
X25433590Y-5546410D01*
X25593550Y-5677685D01*
X25776046Y-5775232D01*
X25974066Y-5835300D01*
X25974070Y-5835300D01*
X25974072Y-5835301D01*
X26179997Y-5855583D01*
X26180000Y-5855583D01*
X26180003Y-5855583D01*
X26385927Y-5835301D01*
X26385928Y-5835300D01*
X26385934Y-5835300D01*
X26583954Y-5775232D01*
X26766450Y-5677685D01*
X26926410Y-5546410D01*
X27057685Y-5386450D01*
X27155232Y-5203954D01*
X27168806Y-5159204D01*
X27207720Y-5099823D01*
X27272561Y-5070906D01*
X27342742Y-5081635D01*
X27395981Y-5128604D01*
X27411525Y-5164847D01*
X27431176Y-5242449D01*
X27431179Y-5242456D01*
X27521580Y-5448548D01*
X27644674Y-5636958D01*
X27797097Y-5802534D01*
X27974698Y-5940767D01*
X27974699Y-5940768D01*
X28172628Y-6047882D01*
X28172630Y-6047883D01*
X28385483Y-6120955D01*
X28385492Y-6120957D01*
X28466000Y-6134391D01*
X28466000Y-5253797D01*
X28519288Y-5284563D01*
X28651541Y-5320000D01*
X28788459Y-5320000D01*
X28920712Y-5284563D01*
X28974000Y-5253797D01*
X28974000Y-6134390D01*
X29054507Y-6120957D01*
X29054516Y-6120955D01*
X29267369Y-6047883D01*
X29267371Y-6047882D01*
X29465300Y-5940768D01*
X29465301Y-5940767D01*
X29642902Y-5802534D01*
X29795325Y-5636958D01*
X29918419Y-5448548D01*
X30008820Y-5242457D01*
X30028473Y-5164848D01*
X30064585Y-5103722D01*
X30128012Y-5071822D01*
X30198616Y-5079278D01*
X30253981Y-5123722D01*
X30271192Y-5159200D01*
X30276750Y-5177523D01*
X30284768Y-5203955D01*
X30365618Y-5355213D01*
X30382315Y-5386450D01*
X30513590Y-5546410D01*
X30673550Y-5677685D01*
X30856046Y-5775232D01*
X31054066Y-5835300D01*
X31054070Y-5835300D01*
X31054072Y-5835301D01*
X31259997Y-5855583D01*
X31260000Y-5855583D01*
X31260003Y-5855583D01*
X31465927Y-5835301D01*
X31465928Y-5835300D01*
X31465934Y-5835300D01*
X31663954Y-5775232D01*
X31846450Y-5677685D01*
X32006410Y-5546410D01*
X32137685Y-5386450D01*
X32235232Y-5203954D01*
X32295300Y-5005934D01*
X32295355Y-5005382D01*
X32315583Y-4800003D01*
X32315583Y-4799996D01*
X32295301Y-4594072D01*
X32295300Y-4594070D01*
X32295300Y-4594066D01*
X32235232Y-4396046D01*
X32137685Y-4213550D01*
X32006410Y-4053590D01*
X31846450Y-3922315D01*
X31846448Y-3922314D01*
X31846447Y-3922313D01*
X31663954Y-3824768D01*
X31465927Y-3764698D01*
X31260003Y-3744417D01*
X31259997Y-3744417D01*
X31054072Y-3764698D01*
X30856045Y-3824768D01*
X30673552Y-3922313D01*
X30513590Y-4053590D01*
X30382313Y-4213552D01*
X30284767Y-4396046D01*
X30284765Y-4396051D01*
X30271192Y-4440797D01*
X30232277Y-4500178D01*
X30167435Y-4529094D01*
X30097254Y-4518363D01*
X30044016Y-4471393D01*
X30028473Y-4435151D01*
X30008820Y-4357542D01*
X29918419Y-4151451D01*
X29795325Y-3963041D01*
X29642902Y-3797465D01*
X29465301Y-3659232D01*
X29465300Y-3659231D01*
X29267371Y-3552117D01*
X29267368Y-3552116D01*
X29078769Y-3487370D01*
X29020834Y-3446333D01*
X28994282Y-3380488D01*
X29007544Y-3310741D01*
X29056408Y-3259236D01*
X29083105Y-3247623D01*
X29123954Y-3235232D01*
X29306450Y-3137685D01*
X29466410Y-3006410D01*
X29597685Y-2846450D01*
X29695232Y-2663954D01*
X29755300Y-2465934D01*
X29755355Y-2465383D01*
X29775583Y-2260003D01*
X29775583Y-2259996D01*
X30204417Y-2259996D01*
X30204417Y-2260003D01*
X30224698Y-2465927D01*
X30224699Y-2465933D01*
X30224700Y-2465934D01*
X30283202Y-2658791D01*
X30284768Y-2663954D01*
X30358523Y-2801940D01*
X30382315Y-2846450D01*
X30513590Y-3006410D01*
X30673550Y-3137685D01*
X30856046Y-3235232D01*
X31054066Y-3295300D01*
X31054070Y-3295300D01*
X31054072Y-3295301D01*
X31259997Y-3315583D01*
X31260000Y-3315583D01*
X31260003Y-3315583D01*
X31465927Y-3295301D01*
X31465928Y-3295300D01*
X31465934Y-3295300D01*
X31663954Y-3235232D01*
X31846450Y-3137685D01*
X32006410Y-3006410D01*
X32137685Y-2846450D01*
X32235232Y-2663954D01*
X32295300Y-2465934D01*
X32295355Y-2465383D01*
X32315583Y-2260003D01*
X32315583Y-2259996D01*
X32744417Y-2259996D01*
X32744417Y-2260003D01*
X32764698Y-2465927D01*
X32764699Y-2465933D01*
X32764700Y-2465934D01*
X32823202Y-2658791D01*
X32824768Y-2663954D01*
X32898523Y-2801940D01*
X32922315Y-2846450D01*
X33053590Y-3006410D01*
X33213550Y-3137685D01*
X33396046Y-3235232D01*
X33594066Y-3295300D01*
X33594070Y-3295300D01*
X33594072Y-3295301D01*
X33799997Y-3315583D01*
X33800000Y-3315583D01*
X33800003Y-3315583D01*
X34005927Y-3295301D01*
X34005928Y-3295300D01*
X34005934Y-3295300D01*
X34203954Y-3235232D01*
X34203969Y-3235223D01*
X34204621Y-3234955D01*
X34205002Y-3234913D01*
X34209878Y-3233435D01*
X34210158Y-3234359D01*
X34275211Y-3227363D01*
X34338699Y-3259139D01*
X34341940Y-3262267D01*
X34903084Y-3823411D01*
X34937110Y-3885723D01*
X34939989Y-3912506D01*
X34939989Y-4201265D01*
X34919987Y-4269386D01*
X34866331Y-4315879D01*
X34796057Y-4325983D01*
X34731477Y-4296489D01*
X34702868Y-4260662D01*
X34677688Y-4213555D01*
X34677687Y-4213553D01*
X34677685Y-4213550D01*
X34546410Y-4053590D01*
X34386450Y-3922315D01*
X34386448Y-3922314D01*
X34386447Y-3922313D01*
X34203954Y-3824768D01*
X34005927Y-3764698D01*
X33800003Y-3744417D01*
X33799997Y-3744417D01*
X33594072Y-3764698D01*
X33396045Y-3824768D01*
X33213552Y-3922313D01*
X33053590Y-4053590D01*
X32922313Y-4213552D01*
X32824768Y-4396045D01*
X32764698Y-4594072D01*
X32744417Y-4799996D01*
X32744417Y-4800003D01*
X32764698Y-5005927D01*
X32764699Y-5005933D01*
X32764700Y-5005934D01*
X32784409Y-5070906D01*
X32824768Y-5203954D01*
X32905617Y-5355212D01*
X32922315Y-5386450D01*
X33053590Y-5546410D01*
X33213550Y-5677685D01*
X33396046Y-5775232D01*
X33594066Y-5835300D01*
X33594070Y-5835300D01*
X33594072Y-5835301D01*
X33799997Y-5855583D01*
X33800000Y-5855583D01*
X33800003Y-5855583D01*
X34005927Y-5835301D01*
X34005928Y-5835300D01*
X34005934Y-5835300D01*
X34203954Y-5775232D01*
X34386450Y-5677685D01*
X34546410Y-5546410D01*
X34677685Y-5386450D01*
X34702867Y-5339337D01*
X34752619Y-5288690D01*
X34821856Y-5272980D01*
X34888595Y-5297196D01*
X34931647Y-5353650D01*
X34939989Y-5398734D01*
X34939989Y-16292636D01*
X34939989Y-16378342D01*
X34962171Y-16461128D01*
X34962172Y-16461130D01*
X34962173Y-16461132D01*
X35005021Y-16535347D01*
X35005029Y-16535357D01*
X69157733Y-50688059D01*
X69191759Y-50750371D01*
X69186694Y-50821186D01*
X69185047Y-50825371D01*
X69184769Y-50826040D01*
X69124698Y-51024072D01*
X69104417Y-51229996D01*
X69104417Y-51230003D01*
X69124698Y-51435927D01*
X69184768Y-51633954D01*
X69190939Y-51645500D01*
X69282315Y-51816450D01*
X69413590Y-51976410D01*
X69573550Y-52107685D01*
X69756046Y-52205232D01*
X69954066Y-52265300D01*
X69954070Y-52265300D01*
X69954072Y-52265301D01*
X70159997Y-52285583D01*
X70160000Y-52285583D01*
X70160003Y-52285583D01*
X70365927Y-52265301D01*
X70365928Y-52265300D01*
X70365934Y-52265300D01*
X70563954Y-52205232D01*
X70723617Y-52119889D01*
X70793120Y-52105418D01*
X70859416Y-52130821D01*
X70901455Y-52188034D01*
X70909011Y-52231012D01*
X70909011Y-52261658D01*
X70909011Y-52347364D01*
X70931193Y-52430150D01*
X70931194Y-52430152D01*
X70931195Y-52430154D01*
X70974043Y-52504369D01*
X70974051Y-52504379D01*
X70974077Y-52504405D01*
X70974091Y-52504431D01*
X70979074Y-52510925D01*
X70978061Y-52511701D01*
X71008103Y-52566717D01*
X71003038Y-52637532D01*
X70960491Y-52694368D01*
X70893971Y-52719179D01*
X70884982Y-52719500D01*
X69532017Y-52719500D01*
X69463896Y-52699498D01*
X69442922Y-52682595D01*
X36932708Y-20172381D01*
X36898682Y-20110069D01*
X36896881Y-20066843D01*
X36905682Y-20000000D01*
X36885044Y-19843238D01*
X36824536Y-19697159D01*
X36728282Y-19571718D01*
X36602841Y-19475464D01*
X36456762Y-19414956D01*
X36456760Y-19414955D01*
X36300000Y-19394318D01*
X36143239Y-19414955D01*
X35997160Y-19475463D01*
X35997157Y-19475465D01*
X35871718Y-19571718D01*
X35775465Y-19697157D01*
X35775463Y-19697160D01*
X35714955Y-19843239D01*
X35694318Y-19999999D01*
X35694318Y-20000000D01*
X35714955Y-20156760D01*
X35721426Y-20172381D01*
X35775464Y-20302841D01*
X35871718Y-20428282D01*
X35997159Y-20524536D01*
X36143238Y-20585044D01*
X36300000Y-20605682D01*
X36366841Y-20596881D01*
X36436986Y-20607819D01*
X36472381Y-20632708D01*
X69072595Y-53232922D01*
X69106621Y-53295234D01*
X69109500Y-53322017D01*
X69109500Y-54639750D01*
X69111552Y-54650067D01*
X69121133Y-54698231D01*
X69165448Y-54764552D01*
X69231769Y-54808867D01*
X69290252Y-54820500D01*
X69290253Y-54820500D01*
X71029747Y-54820500D01*
X71029748Y-54820500D01*
X71088231Y-54808867D01*
X71154552Y-54764552D01*
X71198867Y-54698231D01*
X71210500Y-54639748D01*
X71210500Y-53045017D01*
X71230502Y-52976896D01*
X71284158Y-52930403D01*
X71354432Y-52920299D01*
X71419012Y-52949793D01*
X71425595Y-52955922D01*
X71697732Y-53228059D01*
X71731758Y-53290371D01*
X71726693Y-53361186D01*
X71725053Y-53365356D01*
X71724769Y-53366039D01*
X71664698Y-53564072D01*
X71644417Y-53769996D01*
X71644417Y-53770003D01*
X71664698Y-53975927D01*
X71664699Y-53975933D01*
X71664700Y-53975934D01*
X71685181Y-54043452D01*
X71724768Y-54173954D01*
X71819226Y-54350672D01*
X71822315Y-54356450D01*
X71953590Y-54516410D01*
X72113550Y-54647685D01*
X72296046Y-54745232D01*
X72494066Y-54805300D01*
X72494070Y-54805300D01*
X72494072Y-54805301D01*
X72699997Y-54825583D01*
X72700000Y-54825583D01*
X72700003Y-54825583D01*
X72905927Y-54805301D01*
X72905928Y-54805300D01*
X72905934Y-54805300D01*
X73103954Y-54745232D01*
X73286450Y-54647685D01*
X73446410Y-54516410D01*
X73577685Y-54356450D01*
X73675232Y-54173954D01*
X73735300Y-53975934D01*
X73735819Y-53970672D01*
X73755583Y-53770003D01*
X73755583Y-53769996D01*
X73735301Y-53564072D01*
X73735300Y-53564070D01*
X73735300Y-53564066D01*
X73675232Y-53366046D01*
X73675231Y-53366045D01*
X73675230Y-53366040D01*
X73674953Y-53365371D01*
X73674912Y-53364991D01*
X73673435Y-53360122D01*
X73674358Y-53359841D01*
X73667364Y-53294781D01*
X73699144Y-53231295D01*
X73702235Y-53228090D01*
X74067923Y-52862404D01*
X74130235Y-52828379D01*
X74157018Y-52825500D01*
X74389754Y-52825500D01*
X74457875Y-52845502D01*
X74504368Y-52899158D01*
X74514472Y-52969432D01*
X74487154Y-53031431D01*
X74411831Y-53123213D01*
X74362313Y-53183552D01*
X74264768Y-53366045D01*
X74204698Y-53564072D01*
X74184417Y-53769996D01*
X74184417Y-53770003D01*
X74204698Y-53975927D01*
X74204699Y-53975933D01*
X74204700Y-53975934D01*
X74225181Y-54043452D01*
X74264768Y-54173954D01*
X74359226Y-54350672D01*
X74362315Y-54356450D01*
X74493590Y-54516410D01*
X74653550Y-54647685D01*
X74836046Y-54745232D01*
X75034066Y-54805300D01*
X75034070Y-54805300D01*
X75034072Y-54805301D01*
X75239997Y-54825583D01*
X75240000Y-54825583D01*
X75240003Y-54825583D01*
X75445927Y-54805301D01*
X75445928Y-54805300D01*
X75445934Y-54805300D01*
X75643954Y-54745232D01*
X75826450Y-54647685D01*
X75986410Y-54516410D01*
X76117685Y-54356450D01*
X76215232Y-54173954D01*
X76275300Y-53975934D01*
X76275819Y-53970672D01*
X76295583Y-53770003D01*
X76295583Y-53769996D01*
X76275301Y-53564072D01*
X76275300Y-53564070D01*
X76275300Y-53564066D01*
X76215232Y-53366046D01*
X76117685Y-53183550D01*
X75986410Y-53023590D01*
X75826450Y-52892315D01*
X75801076Y-52878752D01*
X75750429Y-52828998D01*
X75734721Y-52759761D01*
X75758939Y-52693023D01*
X75771380Y-52678536D01*
X78260459Y-50189457D01*
X78260465Y-50189451D01*
X78303317Y-50115228D01*
X78303318Y-50115227D01*
X78325500Y-50032442D01*
X78325500Y-47369285D01*
X78345502Y-47301164D01*
X78374797Y-47269322D01*
X78401366Y-47248935D01*
X78428282Y-47228282D01*
X78524536Y-47102841D01*
X78585044Y-46956762D01*
X78605682Y-46800000D01*
X78585044Y-46643238D01*
X78524536Y-46497159D01*
X78428282Y-46371718D01*
X78302841Y-46275464D01*
X78156762Y-46214956D01*
X78156760Y-46214955D01*
X78000000Y-46194318D01*
X77843239Y-46214955D01*
X77697160Y-46275463D01*
X77697157Y-46275465D01*
X77571718Y-46371718D01*
X77475465Y-46497157D01*
X77475463Y-46497160D01*
X77414955Y-46643239D01*
X77394318Y-46799999D01*
X77394318Y-46800000D01*
X77414955Y-46956760D01*
X77414956Y-46956762D01*
X77475464Y-47102841D01*
X77569320Y-47225156D01*
X77571719Y-47228283D01*
X77625203Y-47269322D01*
X77667071Y-47326659D01*
X77674500Y-47369285D01*
X77674500Y-49802571D01*
X77654498Y-49870692D01*
X77637595Y-49891666D01*
X76477453Y-51051807D01*
X76415141Y-51085833D01*
X76344325Y-51080768D01*
X76287490Y-51038221D01*
X76267783Y-50999287D01*
X76215232Y-50826046D01*
X76117685Y-50643550D01*
X75986410Y-50483590D01*
X75826450Y-50352315D01*
X75826448Y-50352314D01*
X75826447Y-50352313D01*
X75643949Y-50254765D01*
X75643270Y-50254484D01*
X75642969Y-50254241D01*
X75638495Y-50251850D01*
X75638948Y-50251000D01*
X75587994Y-50209930D01*
X75565580Y-50142564D01*
X75565500Y-50138080D01*
X75565500Y-32413955D01*
X75565500Y-32413954D01*
X75543318Y-32331169D01*
X75543316Y-32331166D01*
X75543316Y-32331164D01*
X75500467Y-32256948D01*
X75500463Y-32256943D01*
X75439862Y-32196342D01*
X70090061Y-26846541D01*
X67143520Y-23899999D01*
X79594318Y-23899999D01*
X79594318Y-23900000D01*
X79614955Y-24056760D01*
X79669527Y-24188507D01*
X79675464Y-24202841D01*
X79741168Y-24288469D01*
X79771720Y-24328284D01*
X79850204Y-24388507D01*
X79892071Y-24445844D01*
X79899500Y-24488469D01*
X79899500Y-35011531D01*
X79879498Y-35079652D01*
X79850204Y-35111493D01*
X79771720Y-35171715D01*
X79675465Y-35297157D01*
X79675463Y-35297160D01*
X79614955Y-35443239D01*
X79594318Y-35599999D01*
X79594318Y-35600000D01*
X79614955Y-35756760D01*
X79622703Y-35775464D01*
X79675464Y-35902841D01*
X79771718Y-36028282D01*
X79897159Y-36124536D01*
X80043238Y-36185044D01*
X80200000Y-36205682D01*
X80356762Y-36185044D01*
X80502841Y-36124536D01*
X80628282Y-36028282D01*
X80724536Y-35902841D01*
X80785044Y-35756762D01*
X80805682Y-35600000D01*
X80785044Y-35443238D01*
X80724536Y-35297159D01*
X80628282Y-35171718D01*
X80628280Y-35171716D01*
X80628279Y-35171715D01*
X80549796Y-35111493D01*
X80507929Y-35054156D01*
X80500500Y-35011531D01*
X80500500Y-24488469D01*
X80520502Y-24420348D01*
X80549796Y-24388507D01*
X80628279Y-24328284D01*
X80628278Y-24328284D01*
X80628282Y-24328282D01*
X80724536Y-24202841D01*
X80785044Y-24056762D01*
X80805682Y-23900000D01*
X80805682Y-23899999D01*
X81594318Y-23899999D01*
X81594318Y-23900000D01*
X81614955Y-24056760D01*
X81669527Y-24188507D01*
X81675464Y-24202841D01*
X81741168Y-24288469D01*
X81771720Y-24328284D01*
X81850204Y-24388507D01*
X81892071Y-24445844D01*
X81899500Y-24488469D01*
X81899500Y-35711531D01*
X81879498Y-35779652D01*
X81850204Y-35811493D01*
X81771720Y-35871715D01*
X81675465Y-35997157D01*
X81675463Y-35997160D01*
X81614955Y-36143239D01*
X81594318Y-36299999D01*
X81594318Y-36300000D01*
X81614955Y-36456760D01*
X81622703Y-36475464D01*
X81675464Y-36602841D01*
X81771718Y-36728282D01*
X81897159Y-36824536D01*
X82043238Y-36885044D01*
X82200000Y-36905682D01*
X82356762Y-36885044D01*
X82502841Y-36824536D01*
X82628282Y-36728282D01*
X82724536Y-36602841D01*
X82785044Y-36456762D01*
X82805682Y-36300000D01*
X82785044Y-36143238D01*
X82724536Y-35997159D01*
X82628282Y-35871718D01*
X82628280Y-35871716D01*
X82628279Y-35871715D01*
X82549796Y-35811493D01*
X82507929Y-35754156D01*
X82500500Y-35711531D01*
X82500500Y-24488469D01*
X82520502Y-24420348D01*
X82549796Y-24388507D01*
X82628279Y-24328284D01*
X82628278Y-24328284D01*
X82628282Y-24328282D01*
X82724536Y-24202841D01*
X82785044Y-24056762D01*
X82805682Y-23900000D01*
X82805111Y-23895666D01*
X82785044Y-23743239D01*
X82767134Y-23699999D01*
X82724536Y-23597159D01*
X82628282Y-23471718D01*
X82502841Y-23375464D01*
X82379891Y-23324536D01*
X82356760Y-23314955D01*
X82200000Y-23294318D01*
X82043239Y-23314955D01*
X81897160Y-23375463D01*
X81897157Y-23375465D01*
X81771718Y-23471718D01*
X81675465Y-23597157D01*
X81675463Y-23597160D01*
X81614955Y-23743239D01*
X81594318Y-23899999D01*
X80805682Y-23899999D01*
X80805111Y-23895666D01*
X80785044Y-23743239D01*
X80767134Y-23699999D01*
X80724536Y-23597159D01*
X80628282Y-23471718D01*
X80502841Y-23375464D01*
X80379891Y-23324536D01*
X80356760Y-23314955D01*
X80200000Y-23294318D01*
X80043239Y-23314955D01*
X79897160Y-23375463D01*
X79897157Y-23375465D01*
X79771718Y-23471718D01*
X79675465Y-23597157D01*
X79675463Y-23597160D01*
X79614955Y-23743239D01*
X79594318Y-23899999D01*
X67143520Y-23899999D01*
X64683061Y-21439540D01*
X64683051Y-21439532D01*
X64608836Y-21396684D01*
X64608834Y-21396683D01*
X64608832Y-21396682D01*
X64526046Y-21374500D01*
X64526044Y-21374500D01*
X62587017Y-21374500D01*
X62518896Y-21354498D01*
X62497922Y-21337595D01*
X56205576Y-15045249D01*
X66859500Y-15045249D01*
X66859500Y-16884750D01*
X66870584Y-16940474D01*
X66871133Y-16943231D01*
X66915448Y-17009552D01*
X66981769Y-17053867D01*
X67040252Y-17065500D01*
X67040253Y-17065500D01*
X68879747Y-17065500D01*
X68879748Y-17065500D01*
X68938231Y-17053867D01*
X69004552Y-17009552D01*
X69014375Y-16994850D01*
X69068846Y-16949324D01*
X69139289Y-16940474D01*
X69203334Y-16971112D01*
X69208234Y-16975757D01*
X69431376Y-17198899D01*
X69465402Y-17261211D01*
X69460337Y-17332026D01*
X69417790Y-17388862D01*
X69358732Y-17412915D01*
X69343241Y-17414954D01*
X69197160Y-17475463D01*
X69197157Y-17475465D01*
X69071718Y-17571718D01*
X68975465Y-17697157D01*
X68975463Y-17697160D01*
X68914955Y-17843239D01*
X68894318Y-17999999D01*
X68894318Y-18000000D01*
X68914955Y-18156760D01*
X68949825Y-18240943D01*
X68957414Y-18311533D01*
X68925634Y-18375020D01*
X68864576Y-18411247D01*
X68849870Y-18414082D01*
X68843241Y-18414955D01*
X68843238Y-18414955D01*
X68843238Y-18414956D01*
X68800454Y-18432677D01*
X68697160Y-18475463D01*
X68697157Y-18475465D01*
X68571718Y-18571718D01*
X68475465Y-18697157D01*
X68475463Y-18697160D01*
X68414955Y-18843239D01*
X68394318Y-18999999D01*
X68394318Y-19000000D01*
X68414955Y-19156760D01*
X68436247Y-19208162D01*
X68475464Y-19302841D01*
X68502623Y-19338236D01*
X68571720Y-19428284D01*
X68650204Y-19488507D01*
X68692071Y-19545844D01*
X68699500Y-19588469D01*
X68699500Y-20411531D01*
X68679498Y-20479652D01*
X68650204Y-20511493D01*
X68571720Y-20571715D01*
X68475465Y-20697157D01*
X68475463Y-20697160D01*
X68414955Y-20843239D01*
X68394318Y-20999999D01*
X68394318Y-21000000D01*
X68414955Y-21156760D01*
X68449624Y-21240457D01*
X68475464Y-21302841D01*
X68571718Y-21428282D01*
X68697159Y-21524536D01*
X68843238Y-21585044D01*
X69000000Y-21605682D01*
X69156762Y-21585044D01*
X69302841Y-21524536D01*
X69428282Y-21428282D01*
X69524536Y-21302841D01*
X69585044Y-21156762D01*
X69605682Y-21000000D01*
X69585044Y-20843238D01*
X69524536Y-20697159D01*
X69428282Y-20571718D01*
X69428280Y-20571716D01*
X69428279Y-20571715D01*
X69349796Y-20511493D01*
X69307929Y-20454156D01*
X69300500Y-20411531D01*
X69300500Y-19588469D01*
X69320502Y-19520348D01*
X69349796Y-19488507D01*
X69428279Y-19428284D01*
X69428278Y-19428284D01*
X69428282Y-19428282D01*
X69524536Y-19302841D01*
X69585044Y-19156762D01*
X69605682Y-19000000D01*
X69585044Y-18843238D01*
X69585040Y-18843228D01*
X69584783Y-18842267D01*
X69584803Y-18841410D01*
X69583966Y-18835050D01*
X69584957Y-18834919D01*
X69586469Y-18771290D01*
X69626260Y-18712492D01*
X69691523Y-18684541D01*
X69761537Y-18696311D01*
X69795583Y-18720554D01*
X72462595Y-21387566D01*
X72496621Y-21449878D01*
X72499500Y-21476661D01*
X72499500Y-22211531D01*
X72479498Y-22279652D01*
X72450204Y-22311493D01*
X72371720Y-22371715D01*
X72275465Y-22497157D01*
X72275463Y-22497160D01*
X72214955Y-22643239D01*
X72194318Y-22799999D01*
X72194318Y-22800000D01*
X72214955Y-22956760D01*
X72271934Y-23094318D01*
X72275464Y-23102841D01*
X72371718Y-23228282D01*
X72497159Y-23324536D01*
X72643238Y-23385044D01*
X72800000Y-23405682D01*
X72956762Y-23385044D01*
X73102841Y-23324536D01*
X73228282Y-23228282D01*
X73268811Y-23175464D01*
X73288507Y-23149796D01*
X73345844Y-23107929D01*
X73388469Y-23100500D01*
X73711531Y-23100500D01*
X73779652Y-23120502D01*
X73811493Y-23149796D01*
X73871715Y-23228279D01*
X73871716Y-23228280D01*
X73871718Y-23228282D01*
X73997159Y-23324536D01*
X74143238Y-23385044D01*
X74300000Y-23405682D01*
X74456762Y-23385044D01*
X74602841Y-23324536D01*
X74728282Y-23228282D01*
X74824536Y-23102841D01*
X74885044Y-22956762D01*
X74905682Y-22800000D01*
X74885044Y-22643238D01*
X74824536Y-22497159D01*
X74728282Y-22371718D01*
X74602841Y-22275464D01*
X74600500Y-22274494D01*
X74456760Y-22214955D01*
X74300000Y-22194318D01*
X74143239Y-22214955D01*
X73997160Y-22275463D01*
X73997157Y-22275465D01*
X73871715Y-22371720D01*
X73811493Y-22450204D01*
X73754156Y-22492071D01*
X73711531Y-22499500D01*
X73388469Y-22499500D01*
X73320348Y-22479498D01*
X73288507Y-22450204D01*
X73228282Y-22371717D01*
X73149796Y-22311493D01*
X73107929Y-22254156D01*
X73100500Y-22211531D01*
X73100500Y-21260439D01*
X73100499Y-21260435D01*
X73095147Y-21240458D01*
X73095147Y-21240457D01*
X73080024Y-21184019D01*
X73080023Y-21184018D01*
X73080022Y-21184012D01*
X73040460Y-21115489D01*
X73040458Y-21115487D01*
X73040454Y-21115482D01*
X71397347Y-19472376D01*
X71363322Y-19410064D01*
X71368386Y-19339249D01*
X71410933Y-19282413D01*
X71469996Y-19258359D01*
X71485486Y-19256320D01*
X71631565Y-19195812D01*
X71757006Y-19099558D01*
X71803448Y-19039032D01*
X71860786Y-18997165D01*
X71931657Y-18992943D01*
X71992506Y-19026641D01*
X75557487Y-22591622D01*
X75613436Y-22647571D01*
X75681958Y-22687132D01*
X75681960Y-22687132D01*
X75681961Y-22687133D01*
X75758381Y-22707610D01*
X75758385Y-22707611D01*
X75837509Y-22707611D01*
X77632914Y-22707611D01*
X77701035Y-22727613D01*
X77732876Y-22756907D01*
X77793098Y-22835390D01*
X77793099Y-22835391D01*
X77793101Y-22835393D01*
X77918542Y-22931647D01*
X78064621Y-22992155D01*
X78221383Y-23012793D01*
X78378145Y-22992155D01*
X78524224Y-22931647D01*
X78649665Y-22835393D01*
X78745919Y-22709952D01*
X78806427Y-22563873D01*
X78827065Y-22407111D01*
X78822405Y-22371718D01*
X78810285Y-22279652D01*
X78806427Y-22250349D01*
X78745919Y-22104270D01*
X78649665Y-21978829D01*
X78524224Y-21882575D01*
X78378145Y-21822067D01*
X78378143Y-21822066D01*
X78221383Y-21801429D01*
X78064622Y-21822066D01*
X77918543Y-21882574D01*
X77918540Y-21882576D01*
X77793098Y-21978831D01*
X77732876Y-22057315D01*
X77675539Y-22099182D01*
X77632914Y-22106611D01*
X75974608Y-22106611D01*
X75906487Y-22086609D01*
X75885513Y-22069706D01*
X73736402Y-19920595D01*
X73702376Y-19858283D01*
X73707441Y-19787468D01*
X73749988Y-19730632D01*
X73816508Y-19705821D01*
X73825497Y-19705500D01*
X73927430Y-19705500D01*
X73927435Y-19705500D01*
X74179458Y-19667513D01*
X74179468Y-19667510D01*
X74422995Y-19592392D01*
X74422997Y-19592390D01*
X74423004Y-19592389D01*
X74652634Y-19481805D01*
X74863217Y-19338232D01*
X75050050Y-19164877D01*
X75208959Y-18965612D01*
X75279608Y-18843243D01*
X75336391Y-18744892D01*
X75336396Y-18744882D01*
X75393652Y-18598995D01*
X75429508Y-18507637D01*
X75486222Y-18259157D01*
X75505268Y-18005000D01*
X75486222Y-17750843D01*
X75429508Y-17502363D01*
X75429483Y-17502301D01*
X75429481Y-17502276D01*
X75428120Y-17497863D01*
X75429064Y-17497571D01*
X75423214Y-17431583D01*
X75456174Y-17368701D01*
X75517898Y-17333620D01*
X75588790Y-17337479D01*
X75623275Y-17357685D01*
X75623990Y-17356754D01*
X75627260Y-17359263D01*
X75627262Y-17359265D01*
X75813754Y-17502365D01*
X75819714Y-17506938D01*
X76029775Y-17628217D01*
X76029779Y-17628218D01*
X76029788Y-17628224D01*
X76253900Y-17721054D01*
X76488211Y-17783838D01*
X76488215Y-17783838D01*
X76488217Y-17783839D01*
X76550202Y-17791999D01*
X76728712Y-17815500D01*
X76728719Y-17815500D01*
X76971281Y-17815500D01*
X76971288Y-17815500D01*
X77188637Y-17786885D01*
X77211782Y-17783839D01*
X77211782Y-17783838D01*
X77211789Y-17783838D01*
X77446100Y-17721054D01*
X77670212Y-17628224D01*
X77880289Y-17506936D01*
X78072738Y-17359265D01*
X78244265Y-17187738D01*
X78391936Y-16995289D01*
X78513224Y-16785212D01*
X78606054Y-16561100D01*
X78668838Y-16326789D01*
X78700500Y-16086288D01*
X78700500Y-15843712D01*
X78674782Y-15648359D01*
X78668839Y-15603217D01*
X78668838Y-15603215D01*
X78668838Y-15603211D01*
X78606054Y-15368900D01*
X78513224Y-15144788D01*
X78513218Y-15144779D01*
X78513217Y-15144775D01*
X78391938Y-14934714D01*
X78391936Y-14934711D01*
X78244265Y-14742262D01*
X78244259Y-14742256D01*
X78244255Y-14742251D01*
X78072748Y-14570744D01*
X78072742Y-14570739D01*
X78072738Y-14570735D01*
X77880289Y-14423064D01*
X77880288Y-14423063D01*
X77880285Y-14423061D01*
X77745080Y-14345000D01*
X79704357Y-14345000D01*
X79724885Y-14566539D01*
X79785768Y-14780520D01*
X79785774Y-14780537D01*
X79884938Y-14979684D01*
X79884942Y-14979689D01*
X80019017Y-15157235D01*
X80183438Y-15307124D01*
X80183439Y-15307125D01*
X80372587Y-15424240D01*
X80372590Y-15424241D01*
X80372599Y-15424247D01*
X80461568Y-15458714D01*
X80561708Y-15497509D01*
X80618003Y-15540768D01*
X80641973Y-15607596D01*
X80626009Y-15676774D01*
X80575178Y-15726340D01*
X80561708Y-15732491D01*
X80372603Y-15805751D01*
X80372587Y-15805759D01*
X80183439Y-15922874D01*
X80183438Y-15922875D01*
X80019017Y-16072764D01*
X79884942Y-16250310D01*
X79884938Y-16250315D01*
X79785774Y-16449462D01*
X79785768Y-16449479D01*
X79724885Y-16663460D01*
X79704357Y-16885000D01*
X79724885Y-17106539D01*
X79785768Y-17320520D01*
X79785774Y-17320537D01*
X79884938Y-17519684D01*
X79884942Y-17519689D01*
X80019017Y-17697235D01*
X80183438Y-17847124D01*
X80183439Y-17847125D01*
X80372587Y-17964240D01*
X80372590Y-17964241D01*
X80372599Y-17964247D01*
X80462989Y-17999264D01*
X80580053Y-18044616D01*
X80580056Y-18044616D01*
X80580060Y-18044618D01*
X80798757Y-18085500D01*
X80798760Y-18085500D01*
X81021240Y-18085500D01*
X81021243Y-18085500D01*
X81239940Y-18044618D01*
X81239944Y-18044616D01*
X81239946Y-18044616D01*
X81293298Y-18023946D01*
X81447401Y-17964247D01*
X81636562Y-17847124D01*
X81800981Y-17697236D01*
X81801039Y-17697160D01*
X81853098Y-17628222D01*
X81935058Y-17519689D01*
X81935059Y-17519685D01*
X81935061Y-17519684D01*
X82034225Y-17320537D01*
X82034226Y-17320533D01*
X82034229Y-17320528D01*
X82095115Y-17106536D01*
X82115643Y-16885000D01*
X82095115Y-16663464D01*
X82089961Y-16645351D01*
X82034231Y-16449479D01*
X82034225Y-16449462D01*
X81935061Y-16250315D01*
X81935057Y-16250310D01*
X81800982Y-16072764D01*
X81636561Y-15922875D01*
X81636560Y-15922874D01*
X81447412Y-15805759D01*
X81447405Y-15805755D01*
X81447401Y-15805753D01*
X81324196Y-15758023D01*
X81258291Y-15732491D01*
X81201996Y-15689232D01*
X81178026Y-15622404D01*
X81193990Y-15553226D01*
X81244821Y-15503660D01*
X81258291Y-15497509D01*
X81295720Y-15483008D01*
X81447401Y-15424247D01*
X81636562Y-15307124D01*
X81800981Y-15157236D01*
X81935058Y-14979689D01*
X81935059Y-14979685D01*
X81935061Y-14979684D01*
X82034225Y-14780537D01*
X82034226Y-14780533D01*
X82034229Y-14780528D01*
X82095115Y-14566536D01*
X82115643Y-14345000D01*
X82095115Y-14123464D01*
X82034229Y-13909472D01*
X82034227Y-13909468D01*
X82034225Y-13909462D01*
X81935061Y-13710315D01*
X81935057Y-13710310D01*
X81931539Y-13705652D01*
X81908686Y-13675389D01*
X81800982Y-13532764D01*
X81636561Y-13382875D01*
X81636560Y-13382874D01*
X81447412Y-13265759D01*
X81447405Y-13265755D01*
X81447401Y-13265753D01*
X81431947Y-13259766D01*
X81239946Y-13185383D01*
X81200972Y-13178097D01*
X81021243Y-13144500D01*
X80798757Y-13144500D01*
X80657674Y-13170873D01*
X80580053Y-13185383D01*
X80372603Y-13265751D01*
X80372587Y-13265759D01*
X80183439Y-13382874D01*
X80183438Y-13382875D01*
X80019017Y-13532764D01*
X79884942Y-13710310D01*
X79884938Y-13710315D01*
X79785774Y-13909462D01*
X79785768Y-13909479D01*
X79724885Y-14123460D01*
X79704357Y-14345000D01*
X77745080Y-14345000D01*
X77670224Y-14301782D01*
X77670216Y-14301778D01*
X77670212Y-14301776D01*
X77446100Y-14208946D01*
X77446097Y-14208945D01*
X77446095Y-14208944D01*
X77211782Y-14146160D01*
X76971290Y-14114500D01*
X76971288Y-14114500D01*
X76728712Y-14114500D01*
X76728709Y-14114500D01*
X76488217Y-14146160D01*
X76253904Y-14208944D01*
X76253900Y-14208946D01*
X76044327Y-14295754D01*
X76029786Y-14301777D01*
X76029775Y-14301782D01*
X75819714Y-14423061D01*
X75627262Y-14570735D01*
X75627251Y-14570744D01*
X75455744Y-14742251D01*
X75455735Y-14742262D01*
X75308061Y-14934714D01*
X75186782Y-15144775D01*
X75186777Y-15144786D01*
X75186776Y-15144788D01*
X75138440Y-15261482D01*
X75093946Y-15368900D01*
X75093944Y-15368904D01*
X75031160Y-15603217D01*
X74999500Y-15843709D01*
X74999500Y-16086290D01*
X75031160Y-16326782D01*
X75093945Y-16561097D01*
X75094768Y-16563520D01*
X75094799Y-16564286D01*
X75095014Y-16565085D01*
X75094835Y-16565132D01*
X75097726Y-16634455D01*
X75061865Y-16695729D01*
X74998570Y-16727888D01*
X74927936Y-16720721D01*
X74889755Y-16696391D01*
X74863222Y-16671773D01*
X74863217Y-16671768D01*
X74863210Y-16671763D01*
X74652643Y-16528200D01*
X74652636Y-16528196D01*
X74423008Y-16417612D01*
X74422995Y-16417607D01*
X74179468Y-16342489D01*
X74179458Y-16342487D01*
X73927435Y-16304500D01*
X73672565Y-16304500D01*
X73462545Y-16336155D01*
X73420541Y-16342487D01*
X73420531Y-16342489D01*
X73177004Y-16417607D01*
X73176991Y-16417612D01*
X72947363Y-16528196D01*
X72947356Y-16528200D01*
X72736789Y-16671763D01*
X72736777Y-16671773D01*
X72549953Y-16845118D01*
X72525011Y-16876396D01*
X72466900Y-16917184D01*
X72395962Y-16920079D01*
X72334720Y-16884164D01*
X72302618Y-16820840D01*
X72300500Y-16797836D01*
X72300500Y-13615438D01*
X72300499Y-13615434D01*
X72280022Y-13539014D01*
X72280021Y-13539013D01*
X72280021Y-13539011D01*
X72240460Y-13470489D01*
X72184511Y-13414540D01*
X71526089Y-12756118D01*
X71492063Y-12693806D01*
X71497128Y-12622991D01*
X71502394Y-12610860D01*
X71530578Y-12554258D01*
X71530577Y-12554258D01*
X71530582Y-12554250D01*
X71586397Y-12358083D01*
X71605215Y-12155000D01*
X71586397Y-11951917D01*
X71530582Y-11755750D01*
X71439673Y-11573179D01*
X71359358Y-11466824D01*
X71316765Y-11410421D01*
X71166040Y-11273018D01*
X71166039Y-11273017D01*
X70992648Y-11165658D01*
X70992641Y-11165654D01*
X70992637Y-11165652D01*
X70876133Y-11120518D01*
X70802457Y-11091976D01*
X70735629Y-11079484D01*
X70601976Y-11054500D01*
X70398024Y-11054500D01*
X70297784Y-11073238D01*
X70197542Y-11091976D01*
X70050190Y-11149060D01*
X70007363Y-11165652D01*
X70007362Y-11165652D01*
X70007361Y-11165653D01*
X70007351Y-11165658D01*
X69833960Y-11273017D01*
X69833959Y-11273018D01*
X69683234Y-11410421D01*
X69560329Y-11573175D01*
X69469416Y-11755754D01*
X69413603Y-11951915D01*
X69394785Y-12155000D01*
X69413603Y-12358084D01*
X69469416Y-12554245D01*
X69469417Y-12554247D01*
X69469418Y-12554250D01*
X69560327Y-12736821D01*
X69560328Y-12736822D01*
X69560329Y-12736824D01*
X69683234Y-12899578D01*
X69833959Y-13036981D01*
X69833960Y-13036982D01*
X70007351Y-13144341D01*
X70007354Y-13144342D01*
X70007363Y-13144348D01*
X70197544Y-13218024D01*
X70398024Y-13255500D01*
X70398026Y-13255500D01*
X70601974Y-13255500D01*
X70601976Y-13255500D01*
X70802456Y-13218024D01*
X70967789Y-13153973D01*
X71038533Y-13148017D01*
X71101270Y-13181254D01*
X71102399Y-13182370D01*
X71662595Y-13742566D01*
X71696621Y-13804878D01*
X71699500Y-13831661D01*
X71699500Y-14099263D01*
X71679498Y-14167384D01*
X71625842Y-14213877D01*
X71555568Y-14223981D01*
X71490988Y-14194487D01*
X71460710Y-14155426D01*
X71439674Y-14113181D01*
X71439671Y-14113176D01*
X71316765Y-13950421D01*
X71166040Y-13813018D01*
X71166039Y-13813017D01*
X70992648Y-13705658D01*
X70992641Y-13705654D01*
X70992637Y-13705652D01*
X70876133Y-13660518D01*
X70802457Y-13631976D01*
X70713985Y-13615438D01*
X70601976Y-13594500D01*
X70398024Y-13594500D01*
X70308537Y-13611228D01*
X70197542Y-13631976D01*
X70085285Y-13675465D01*
X70007363Y-13705652D01*
X70007362Y-13705652D01*
X70007361Y-13705653D01*
X70007351Y-13705658D01*
X69833960Y-13813017D01*
X69833959Y-13813018D01*
X69683234Y-13950421D01*
X69560329Y-14113175D01*
X69469416Y-14295754D01*
X69413603Y-14491915D01*
X69394785Y-14695000D01*
X69413603Y-14898084D01*
X69469416Y-15094245D01*
X69469417Y-15094247D01*
X69469418Y-15094250D01*
X69560327Y-15276821D01*
X69560328Y-15276822D01*
X69560329Y-15276824D01*
X69683234Y-15439578D01*
X69833959Y-15576981D01*
X69833960Y-15576982D01*
X70007351Y-15684341D01*
X70007354Y-15684342D01*
X70007363Y-15684348D01*
X70197544Y-15758024D01*
X70398024Y-15795500D01*
X70398026Y-15795500D01*
X70601974Y-15795500D01*
X70601976Y-15795500D01*
X70802456Y-15758024D01*
X70992637Y-15684348D01*
X71166041Y-15576981D01*
X71316764Y-15439579D01*
X71328342Y-15424248D01*
X71387795Y-15345518D01*
X71439673Y-15276821D01*
X71460710Y-15234570D01*
X71508978Y-15182510D01*
X71577732Y-15164807D01*
X71645143Y-15187086D01*
X71689807Y-15242273D01*
X71699500Y-15290736D01*
X71699500Y-17986307D01*
X71679498Y-18054428D01*
X71625842Y-18100921D01*
X71555568Y-18111025D01*
X71525283Y-18102716D01*
X71485486Y-18086232D01*
X71328724Y-18065594D01*
X71328722Y-18065594D01*
X71230638Y-18078506D01*
X71160489Y-18067566D01*
X71125098Y-18042679D01*
X69097405Y-16014986D01*
X69063379Y-15952674D01*
X69060500Y-15925891D01*
X69060500Y-15045253D01*
X69060499Y-15045249D01*
X69048867Y-14986771D01*
X69048867Y-14986769D01*
X69004552Y-14920448D01*
X68938231Y-14876133D01*
X68938228Y-14876132D01*
X68879750Y-14864500D01*
X68879748Y-14864500D01*
X67040252Y-14864500D01*
X67040249Y-14864500D01*
X66981771Y-14876132D01*
X66981768Y-14876133D01*
X66915448Y-14920448D01*
X66871133Y-14986768D01*
X66871132Y-14986771D01*
X66859500Y-15045249D01*
X56205576Y-15045249D01*
X54585327Y-13425000D01*
X66854785Y-13425000D01*
X66873603Y-13628084D01*
X66929416Y-13824245D01*
X66929417Y-13824247D01*
X66929418Y-13824250D01*
X67020327Y-14006821D01*
X67020328Y-14006822D01*
X67020329Y-14006824D01*
X67143234Y-14169578D01*
X67293959Y-14306981D01*
X67293960Y-14306982D01*
X67467351Y-14414341D01*
X67467354Y-14414342D01*
X67467363Y-14414348D01*
X67657544Y-14488024D01*
X67858024Y-14525500D01*
X67858026Y-14525500D01*
X68061974Y-14525500D01*
X68061976Y-14525500D01*
X68262456Y-14488024D01*
X68452637Y-14414348D01*
X68626041Y-14306981D01*
X68776764Y-14169579D01*
X68899673Y-14006821D01*
X68990582Y-13824250D01*
X69046397Y-13628083D01*
X69065215Y-13425000D01*
X69046397Y-13221917D01*
X68990582Y-13025750D01*
X68899673Y-12843179D01*
X68819358Y-12736824D01*
X68776765Y-12680421D01*
X68626040Y-12543018D01*
X68626039Y-12543017D01*
X68452648Y-12435658D01*
X68452641Y-12435654D01*
X68452637Y-12435652D01*
X68336133Y-12390518D01*
X68262457Y-12361976D01*
X68195629Y-12349484D01*
X68061976Y-12324500D01*
X67858024Y-12324500D01*
X67757784Y-12343238D01*
X67657542Y-12361976D01*
X67510190Y-12419060D01*
X67467363Y-12435652D01*
X67467362Y-12435652D01*
X67467361Y-12435653D01*
X67467351Y-12435658D01*
X67293960Y-12543017D01*
X67293959Y-12543018D01*
X67143234Y-12680421D01*
X67020329Y-12843175D01*
X66929416Y-13025754D01*
X66873603Y-13221915D01*
X66854785Y-13425000D01*
X54585327Y-13425000D01*
X54482405Y-13322078D01*
X54448379Y-13259766D01*
X54445500Y-13232983D01*
X54445500Y-10885000D01*
X66854785Y-10885000D01*
X66873603Y-11088084D01*
X66929416Y-11284245D01*
X66929417Y-11284247D01*
X66929418Y-11284250D01*
X67020327Y-11466821D01*
X67020328Y-11466822D01*
X67020329Y-11466824D01*
X67143234Y-11629578D01*
X67293959Y-11766981D01*
X67293960Y-11766982D01*
X67467351Y-11874341D01*
X67467354Y-11874342D01*
X67467363Y-11874348D01*
X67657544Y-11948024D01*
X67858024Y-11985500D01*
X67858026Y-11985500D01*
X68061974Y-11985500D01*
X68061976Y-11985500D01*
X68262456Y-11948024D01*
X68452637Y-11874348D01*
X68626041Y-11766981D01*
X68776764Y-11629579D01*
X68899673Y-11466821D01*
X68990582Y-11284250D01*
X69046397Y-11088083D01*
X69065215Y-10885000D01*
X69046397Y-10681917D01*
X68990582Y-10485750D01*
X68899673Y-10303179D01*
X68819358Y-10196824D01*
X68776765Y-10140421D01*
X68626040Y-10003018D01*
X68626039Y-10003017D01*
X68452648Y-9895658D01*
X68452641Y-9895654D01*
X68452637Y-9895652D01*
X68336133Y-9850518D01*
X68262457Y-9821976D01*
X68195629Y-9809484D01*
X68061976Y-9784500D01*
X67858024Y-9784500D01*
X67757784Y-9803238D01*
X67657542Y-9821976D01*
X67510190Y-9879060D01*
X67467363Y-9895652D01*
X67467362Y-9895652D01*
X67467361Y-9895653D01*
X67467351Y-9895658D01*
X67293960Y-10003017D01*
X67293959Y-10003018D01*
X67143234Y-10140421D01*
X67020329Y-10303175D01*
X66929416Y-10485754D01*
X66873603Y-10681915D01*
X66854785Y-10885000D01*
X54445500Y-10885000D01*
X54445500Y-9615000D01*
X69394785Y-9615000D01*
X69413603Y-9818084D01*
X69469416Y-10014245D01*
X69469417Y-10014247D01*
X69469418Y-10014250D01*
X69560327Y-10196821D01*
X69560328Y-10196822D01*
X69560329Y-10196824D01*
X69683234Y-10359578D01*
X69833959Y-10496981D01*
X69833960Y-10496982D01*
X70007351Y-10604341D01*
X70007354Y-10604342D01*
X70007363Y-10604348D01*
X70197544Y-10678024D01*
X70398024Y-10715500D01*
X70398026Y-10715500D01*
X70601974Y-10715500D01*
X70601976Y-10715500D01*
X70802456Y-10678024D01*
X70992637Y-10604348D01*
X71166041Y-10496981D01*
X71316764Y-10359579D01*
X71439673Y-10196821D01*
X71530582Y-10014250D01*
X71586397Y-9818083D01*
X71605215Y-9615000D01*
X71586397Y-9411917D01*
X71530582Y-9215750D01*
X71439673Y-9033179D01*
X71433236Y-9024655D01*
X71316765Y-8870421D01*
X71166040Y-8733018D01*
X71166039Y-8733017D01*
X70992648Y-8625658D01*
X70992641Y-8625654D01*
X70992637Y-8625652D01*
X70876133Y-8580518D01*
X70802457Y-8551976D01*
X70735629Y-8539484D01*
X70601976Y-8514500D01*
X70398024Y-8514500D01*
X70297784Y-8533238D01*
X70197542Y-8551976D01*
X70050190Y-8609060D01*
X70007363Y-8625652D01*
X70007362Y-8625652D01*
X70007361Y-8625653D01*
X70007351Y-8625658D01*
X69833960Y-8733017D01*
X69833959Y-8733018D01*
X69683234Y-8870421D01*
X69560329Y-9033175D01*
X69469416Y-9215754D01*
X69413603Y-9411915D01*
X69394785Y-9615000D01*
X54445500Y-9615000D01*
X54445500Y-5891919D01*
X54465502Y-5823798D01*
X54519158Y-5777305D01*
X54523286Y-5775509D01*
X54523951Y-5775233D01*
X54523951Y-5775232D01*
X54523954Y-5775232D01*
X54706450Y-5677685D01*
X54866410Y-5546410D01*
X54997685Y-5386450D01*
X55095232Y-5203954D01*
X55155300Y-5005934D01*
X55155355Y-5005382D01*
X55175583Y-4800003D01*
X55175583Y-4799996D01*
X55604417Y-4799996D01*
X55604417Y-4800003D01*
X55624698Y-5005927D01*
X55624699Y-5005933D01*
X55624700Y-5005934D01*
X55644409Y-5070906D01*
X55684768Y-5203954D01*
X55765617Y-5355212D01*
X55782315Y-5386450D01*
X55913590Y-5546410D01*
X56073550Y-5677685D01*
X56256046Y-5775232D01*
X56454066Y-5835300D01*
X56454070Y-5835300D01*
X56454072Y-5835301D01*
X56659997Y-5855583D01*
X56660000Y-5855583D01*
X56660003Y-5855583D01*
X56865927Y-5835301D01*
X56865928Y-5835300D01*
X56865934Y-5835300D01*
X57063954Y-5775232D01*
X57246450Y-5677685D01*
X57406410Y-5546410D01*
X57537685Y-5386450D01*
X57635232Y-5203954D01*
X57695300Y-5005934D01*
X57695355Y-5005382D01*
X57715583Y-4800003D01*
X57715583Y-4799996D01*
X57695301Y-4594072D01*
X57695300Y-4594070D01*
X57695300Y-4594066D01*
X57635232Y-4396046D01*
X57537685Y-4213550D01*
X57406410Y-4053590D01*
X57246450Y-3922315D01*
X57246448Y-3922314D01*
X57246447Y-3922313D01*
X57063954Y-3824768D01*
X56865927Y-3764698D01*
X56660003Y-3744417D01*
X56659997Y-3744417D01*
X56454072Y-3764698D01*
X56256045Y-3824768D01*
X56073552Y-3922313D01*
X55913590Y-4053590D01*
X55782313Y-4213552D01*
X55684768Y-4396045D01*
X55624698Y-4594072D01*
X55604417Y-4799996D01*
X55175583Y-4799996D01*
X55155301Y-4594072D01*
X55155300Y-4594070D01*
X55155300Y-4594066D01*
X55095232Y-4396046D01*
X54997685Y-4213550D01*
X54866410Y-4053590D01*
X54706450Y-3922315D01*
X54706448Y-3922314D01*
X54706447Y-3922313D01*
X54523954Y-3824768D01*
X54325927Y-3764698D01*
X54120003Y-3744417D01*
X54119997Y-3744417D01*
X53914072Y-3764698D01*
X53716045Y-3824768D01*
X53533552Y-3922313D01*
X53373590Y-4053590D01*
X53242313Y-4213552D01*
X53144768Y-4396045D01*
X53084698Y-4594072D01*
X53064417Y-4799996D01*
X53064417Y-4800003D01*
X53084698Y-5005927D01*
X53084699Y-5005933D01*
X53084700Y-5005934D01*
X53104409Y-5070906D01*
X53144768Y-5203954D01*
X53225617Y-5355212D01*
X53242315Y-5386450D01*
X53373590Y-5546410D01*
X53533550Y-5677685D01*
X53683316Y-5757737D01*
X53716048Y-5775233D01*
X53716714Y-5775509D01*
X53717009Y-5775747D01*
X53721505Y-5778150D01*
X53721049Y-5779002D01*
X53771997Y-5820055D01*
X53794420Y-5887418D01*
X53794500Y-5891919D01*
X53794500Y-13377147D01*
X53794500Y-13462853D01*
X53816682Y-13545639D01*
X53816683Y-13545641D01*
X53816684Y-13545643D01*
X53859532Y-13619858D01*
X53859540Y-13619868D01*
X58010807Y-17771134D01*
X62139534Y-21899861D01*
X62139535Y-21899862D01*
X62200138Y-21960465D01*
X62200139Y-21960466D01*
X62200141Y-21960467D01*
X62274357Y-22003316D01*
X62274359Y-22003316D01*
X62274362Y-22003318D01*
X62357147Y-22025500D01*
X62442853Y-22025500D01*
X64296176Y-22025500D01*
X64364297Y-22045502D01*
X64385271Y-22062405D01*
X74877595Y-32554729D01*
X74911621Y-32617041D01*
X74914500Y-32643824D01*
X74914500Y-50138080D01*
X74894498Y-50206201D01*
X74840842Y-50252694D01*
X74836730Y-50254484D01*
X74836050Y-50254765D01*
X74653552Y-50352313D01*
X74493590Y-50483590D01*
X74362313Y-50643552D01*
X74264768Y-50826045D01*
X74204698Y-51024072D01*
X74184417Y-51229996D01*
X74184417Y-51230003D01*
X74204698Y-51435927D01*
X74264768Y-51633954D01*
X74270939Y-51645500D01*
X74362315Y-51816450D01*
X74487154Y-51968568D01*
X74514907Y-52033914D01*
X74502925Y-52103892D01*
X74455012Y-52156284D01*
X74389754Y-52174500D01*
X74012853Y-52174500D01*
X73927147Y-52174500D01*
X73844361Y-52196682D01*
X73844359Y-52196683D01*
X73844356Y-52196684D01*
X73770141Y-52239532D01*
X73770135Y-52239537D01*
X73241938Y-52767733D01*
X73179626Y-52801758D01*
X73108810Y-52796693D01*
X73104622Y-52795045D01*
X73103956Y-52794769D01*
X73103954Y-52794768D01*
X72905934Y-52734700D01*
X72905933Y-52734699D01*
X72905927Y-52734698D01*
X72700003Y-52714417D01*
X72699997Y-52714417D01*
X72494072Y-52734698D01*
X72296039Y-52794769D01*
X72295356Y-52795053D01*
X72294969Y-52795094D01*
X72290122Y-52796565D01*
X72289842Y-52795644D01*
X72224765Y-52802632D01*
X72161282Y-52770843D01*
X72158059Y-52767732D01*
X71596916Y-52206589D01*
X71562890Y-52144277D01*
X71560011Y-52117494D01*
X71560011Y-51828734D01*
X71580013Y-51760613D01*
X71633669Y-51714120D01*
X71703943Y-51704016D01*
X71768523Y-51733510D01*
X71797132Y-51769337D01*
X71822315Y-51816450D01*
X71953590Y-51976410D01*
X72113550Y-52107685D01*
X72296046Y-52205232D01*
X72494066Y-52265300D01*
X72494070Y-52265300D01*
X72494072Y-52265301D01*
X72699997Y-52285583D01*
X72700000Y-52285583D01*
X72700003Y-52285583D01*
X72905927Y-52265301D01*
X72905928Y-52265300D01*
X72905934Y-52265300D01*
X73103954Y-52205232D01*
X73286450Y-52107685D01*
X73446410Y-51976410D01*
X73577685Y-51816450D01*
X73675232Y-51633954D01*
X73735300Y-51435934D01*
X73735759Y-51431281D01*
X73755583Y-51230003D01*
X73755583Y-51229996D01*
X73735301Y-51024072D01*
X73735300Y-51024070D01*
X73735300Y-51024066D01*
X73675232Y-50826046D01*
X73577685Y-50643550D01*
X73446410Y-50483590D01*
X73286450Y-50352315D01*
X73286448Y-50352314D01*
X73286447Y-50352313D01*
X73103949Y-50254765D01*
X73103270Y-50254484D01*
X73102969Y-50254241D01*
X73098495Y-50251850D01*
X73098948Y-50251000D01*
X73047994Y-50209930D01*
X73025580Y-50142564D01*
X73025500Y-50138080D01*
X73025500Y-42257148D01*
X73025500Y-42257147D01*
X73003318Y-42174362D01*
X73003318Y-42174361D01*
X72960465Y-42100138D01*
X72960463Y-42100136D01*
X72960459Y-42100131D01*
X68032708Y-37172381D01*
X67998682Y-37110069D01*
X67996881Y-37066843D01*
X68005682Y-37000000D01*
X67985044Y-36843238D01*
X67924536Y-36697159D01*
X67828282Y-36571718D01*
X67702841Y-36475464D01*
X67657691Y-36456762D01*
X67556760Y-36414955D01*
X67400000Y-36394318D01*
X67243239Y-36414955D01*
X67097160Y-36475463D01*
X67097157Y-36475465D01*
X66971718Y-36571718D01*
X66875465Y-36697157D01*
X66875463Y-36697160D01*
X66814955Y-36843239D01*
X66794318Y-36999999D01*
X66794318Y-37000000D01*
X66814955Y-37156760D01*
X66871934Y-37294318D01*
X66875464Y-37302841D01*
X66971718Y-37428282D01*
X67097159Y-37524536D01*
X67243238Y-37585044D01*
X67400000Y-37605682D01*
X67466841Y-37596881D01*
X67536986Y-37607819D01*
X67572381Y-37632708D01*
X72337595Y-42397922D01*
X72371621Y-42460234D01*
X72374500Y-42487017D01*
X72374500Y-50138080D01*
X72354498Y-50206201D01*
X72300842Y-50252694D01*
X72296730Y-50254484D01*
X72296050Y-50254765D01*
X72113552Y-50352313D01*
X71953590Y-50483590D01*
X71822312Y-50643553D01*
X71822311Y-50643555D01*
X71797132Y-50690662D01*
X71747380Y-50741310D01*
X71678143Y-50757019D01*
X71611404Y-50732802D01*
X71568353Y-50676348D01*
X71560011Y-50631265D01*
X71560011Y-46191659D01*
X71560011Y-46191658D01*
X71537829Y-46108873D01*
X71537829Y-46108872D01*
X71494976Y-46034649D01*
X71494974Y-46034647D01*
X71494970Y-46034642D01*
X66432708Y-40972381D01*
X66398682Y-40910069D01*
X66396881Y-40866843D01*
X66405682Y-40800000D01*
X66385044Y-40643238D01*
X66324536Y-40497159D01*
X66228282Y-40371718D01*
X66102841Y-40275464D01*
X66058367Y-40257042D01*
X65956760Y-40214955D01*
X65800000Y-40194318D01*
X65643239Y-40214955D01*
X65497160Y-40275463D01*
X65497157Y-40275465D01*
X65371718Y-40371718D01*
X65275465Y-40497157D01*
X65275463Y-40497160D01*
X65214955Y-40643239D01*
X65194318Y-40799999D01*
X65194318Y-40800000D01*
X65214955Y-40956760D01*
X65221426Y-40972381D01*
X65275464Y-41102841D01*
X65371718Y-41228282D01*
X65497159Y-41324536D01*
X65643238Y-41385044D01*
X65800000Y-41405682D01*
X65866841Y-41396881D01*
X65936986Y-41407819D01*
X65972381Y-41432708D01*
X70872106Y-46332433D01*
X70906132Y-46394745D01*
X70909011Y-46421528D01*
X70909011Y-50228987D01*
X70889009Y-50297108D01*
X70835353Y-50343601D01*
X70765079Y-50353705D01*
X70723615Y-50340109D01*
X70563954Y-50254768D01*
X70365927Y-50194698D01*
X70160003Y-50174417D01*
X70159997Y-50174417D01*
X69954072Y-50194698D01*
X69756040Y-50254769D01*
X69755371Y-50255047D01*
X69754991Y-50255087D01*
X69750122Y-50256565D01*
X69749841Y-50255641D01*
X69684781Y-50262636D01*
X69621295Y-50230856D01*
X69618059Y-50227733D01*
X59344525Y-39954199D01*
X60963918Y-39954199D01*
X60963918Y-39954200D01*
X60984555Y-40110960D01*
X60984556Y-40110962D01*
X61045064Y-40257041D01*
X61141318Y-40382482D01*
X61266759Y-40478736D01*
X61412838Y-40539244D01*
X61569600Y-40559882D01*
X61726362Y-40539244D01*
X61872441Y-40478736D01*
X61997882Y-40382482D01*
X62094136Y-40257041D01*
X62154644Y-40110962D01*
X62175282Y-39954200D01*
X62154644Y-39797438D01*
X62094136Y-39651359D01*
X61997882Y-39525918D01*
X61872441Y-39429664D01*
X61836931Y-39414955D01*
X61726360Y-39369155D01*
X61569600Y-39348518D01*
X61412839Y-39369155D01*
X61266760Y-39429663D01*
X61266757Y-39429665D01*
X61141318Y-39525918D01*
X61045065Y-39651357D01*
X61045063Y-39651360D01*
X60984555Y-39797439D01*
X60963918Y-39954199D01*
X59344525Y-39954199D01*
X58090325Y-38699999D01*
X63294318Y-38699999D01*
X63294318Y-38700000D01*
X63314955Y-38856760D01*
X63314956Y-38856762D01*
X63375464Y-39002841D01*
X63471718Y-39128282D01*
X63597159Y-39224536D01*
X63743238Y-39285044D01*
X63900000Y-39305682D01*
X64056762Y-39285044D01*
X64202841Y-39224536D01*
X64328282Y-39128282D01*
X64424536Y-39002841D01*
X64485044Y-38856762D01*
X64505682Y-38700000D01*
X64485044Y-38543238D01*
X64424536Y-38397159D01*
X64328282Y-38271718D01*
X64202841Y-38175464D01*
X64056762Y-38114956D01*
X64056760Y-38114955D01*
X63900000Y-38094318D01*
X63743239Y-38114955D01*
X63597160Y-38175463D01*
X63597157Y-38175465D01*
X63471718Y-38271718D01*
X63375465Y-38397157D01*
X63375463Y-38397160D01*
X63314955Y-38543239D01*
X63294318Y-38699999D01*
X58090325Y-38699999D01*
X57290325Y-37899999D01*
X65094318Y-37899999D01*
X65094318Y-37900000D01*
X65114955Y-38056760D01*
X65164124Y-38175463D01*
X65175464Y-38202841D01*
X65271718Y-38328282D01*
X65397159Y-38424536D01*
X65543238Y-38485044D01*
X65700000Y-38505682D01*
X65856762Y-38485044D01*
X66002841Y-38424536D01*
X66128282Y-38328282D01*
X66224536Y-38202841D01*
X66285044Y-38056762D01*
X66305682Y-37900000D01*
X66285044Y-37743238D01*
X66224536Y-37597159D01*
X66128282Y-37471718D01*
X66002841Y-37375464D01*
X65856762Y-37314956D01*
X65856760Y-37314955D01*
X65700000Y-37294318D01*
X65543239Y-37314955D01*
X65397160Y-37375463D01*
X65397157Y-37375465D01*
X65271718Y-37471718D01*
X65175465Y-37597157D01*
X65175463Y-37597160D01*
X65114955Y-37743239D01*
X65094318Y-37899999D01*
X57290325Y-37899999D01*
X43421332Y-24031005D01*
X46699500Y-24031005D01*
X46699500Y-26468997D01*
X46726420Y-26604328D01*
X46779225Y-26731811D01*
X46855886Y-26846543D01*
X48053457Y-28044114D01*
X48168189Y-28120775D01*
X48295672Y-28173580D01*
X48431006Y-28200500D01*
X48568994Y-28200500D01*
X48704328Y-28173580D01*
X48831811Y-28120775D01*
X48946543Y-28044114D01*
X49044114Y-27946543D01*
X49120775Y-27831811D01*
X49173580Y-27704328D01*
X49200500Y-27568994D01*
X49200500Y-27431006D01*
X49173580Y-27295672D01*
X49120775Y-27168189D01*
X49044114Y-27053457D01*
X48137405Y-26146748D01*
X48103379Y-26084436D01*
X48100500Y-26057653D01*
X48100500Y-24722737D01*
X48120502Y-24654616D01*
X48174158Y-24608123D01*
X48244432Y-24598019D01*
X48309012Y-24627513D01*
X48342908Y-24674518D01*
X48363369Y-24723914D01*
X48472861Y-24887781D01*
X48612219Y-25027139D01*
X48776086Y-25136631D01*
X48958164Y-25212051D01*
X49151460Y-25250500D01*
X49151461Y-25250500D01*
X49348539Y-25250500D01*
X49348540Y-25250500D01*
X49541836Y-25212051D01*
X49723914Y-25136631D01*
X49887781Y-25027139D01*
X51214921Y-23699999D01*
X54394318Y-23699999D01*
X54394318Y-23700000D01*
X54414955Y-23856760D01*
X54431073Y-23895671D01*
X54475464Y-24002841D01*
X54571718Y-24128282D01*
X54571720Y-24128284D01*
X54650204Y-24188507D01*
X54692071Y-24245844D01*
X54699500Y-24288469D01*
X54699500Y-30611531D01*
X54679498Y-30679652D01*
X54650204Y-30711493D01*
X54571720Y-30771715D01*
X54475465Y-30897157D01*
X54475463Y-30897160D01*
X54414955Y-31043239D01*
X54394318Y-31199999D01*
X54394318Y-31200000D01*
X54414955Y-31356760D01*
X54414956Y-31356762D01*
X54475464Y-31502841D01*
X54571718Y-31628282D01*
X54697159Y-31724536D01*
X54843238Y-31785044D01*
X55000000Y-31805682D01*
X55156762Y-31785044D01*
X55302841Y-31724536D01*
X55428282Y-31628282D01*
X55524536Y-31502841D01*
X55585044Y-31356762D01*
X55605682Y-31200000D01*
X55585044Y-31043238D01*
X55524536Y-30897159D01*
X55428282Y-30771718D01*
X55428280Y-30771716D01*
X55428279Y-30771715D01*
X55349796Y-30711493D01*
X55307929Y-30654156D01*
X55300500Y-30611531D01*
X55300500Y-24288469D01*
X55320502Y-24220348D01*
X55349796Y-24188507D01*
X55428279Y-24128284D01*
X55428278Y-24128284D01*
X55428282Y-24128282D01*
X55524536Y-24002841D01*
X55585044Y-23856762D01*
X55605682Y-23700000D01*
X55585044Y-23543238D01*
X55524536Y-23397159D01*
X55428282Y-23271718D01*
X55302841Y-23175464D01*
X55170152Y-23120502D01*
X55156760Y-23114955D01*
X55000000Y-23094318D01*
X54843239Y-23114955D01*
X54697160Y-23175463D01*
X54697157Y-23175465D01*
X54571718Y-23271718D01*
X54475465Y-23397157D01*
X54475463Y-23397160D01*
X54414955Y-23543239D01*
X54394318Y-23699999D01*
X51214921Y-23699999D01*
X54777139Y-20137782D01*
X54886631Y-19973915D01*
X54962051Y-19791836D01*
X55000500Y-19598541D01*
X55000500Y-19401460D01*
X54962051Y-19208165D01*
X54886631Y-19026086D01*
X54777139Y-18862219D01*
X54637781Y-18722861D01*
X54473914Y-18613369D01*
X54291836Y-18537949D01*
X54098542Y-18499500D01*
X54098540Y-18499500D01*
X53901459Y-18499500D01*
X53901456Y-18499500D01*
X53708162Y-18537949D01*
X53708161Y-18537950D01*
X53526083Y-18613370D01*
X53362216Y-18722862D01*
X53362214Y-18722863D01*
X53340844Y-18744234D01*
X53278531Y-18778258D01*
X53207715Y-18773192D01*
X53150880Y-18730644D01*
X53135341Y-18703355D01*
X53132775Y-18697160D01*
X53120775Y-18668189D01*
X53044114Y-18553457D01*
X52946543Y-18455886D01*
X52831811Y-18379225D01*
X52704328Y-18326420D01*
X52568997Y-18299501D01*
X52568994Y-18299501D01*
X52431006Y-18299501D01*
X52431000Y-18299501D01*
X52315004Y-18322574D01*
X52295671Y-18326420D01*
X52295668Y-18326420D01*
X52295665Y-18326422D01*
X52168189Y-18379225D01*
X52053458Y-18455885D01*
X52053452Y-18455890D01*
X46855890Y-23653452D01*
X46855885Y-23653458D01*
X46779225Y-23768189D01*
X46726422Y-23895666D01*
X46726420Y-23895671D01*
X46705103Y-24002840D01*
X46699500Y-24031005D01*
X43421332Y-24031005D01*
X35627894Y-16237567D01*
X35593868Y-16175255D01*
X35590989Y-16148472D01*
X35590989Y-14633612D01*
X35610991Y-14565491D01*
X35664647Y-14518998D01*
X35734921Y-14508894D01*
X35799501Y-14538388D01*
X35816950Y-14556907D01*
X35871718Y-14628282D01*
X35997159Y-14724536D01*
X36143238Y-14785044D01*
X36300000Y-14805682D01*
X36456762Y-14785044D01*
X36602841Y-14724536D01*
X36728282Y-14628282D01*
X36824536Y-14502841D01*
X36885044Y-14356762D01*
X36905682Y-14200000D01*
X36896881Y-14133156D01*
X36907820Y-14063010D01*
X36932705Y-14027619D01*
X37603996Y-13356328D01*
X37604006Y-13356321D01*
X37674970Y-13285357D01*
X37674976Y-13285351D01*
X37717829Y-13211127D01*
X37740012Y-13128341D01*
X37740012Y-13042636D01*
X37740012Y-13034919D01*
X37740011Y-13034901D01*
X37740011Y-5398734D01*
X37760013Y-5330613D01*
X37813669Y-5284120D01*
X37883943Y-5274016D01*
X37948523Y-5303510D01*
X37977132Y-5339337D01*
X38002315Y-5386450D01*
X38133590Y-5546410D01*
X38293550Y-5677685D01*
X38476046Y-5775232D01*
X38674066Y-5835300D01*
X38674070Y-5835300D01*
X38674072Y-5835301D01*
X38879997Y-5855583D01*
X38880000Y-5855583D01*
X38880003Y-5855583D01*
X39085927Y-5835301D01*
X39085928Y-5835300D01*
X39085934Y-5835300D01*
X39283954Y-5775232D01*
X39443617Y-5689889D01*
X39513120Y-5675418D01*
X39579416Y-5700821D01*
X39621455Y-5758034D01*
X39629011Y-5801012D01*
X39629011Y-16258470D01*
X39609009Y-16326591D01*
X39592106Y-16347566D01*
X39172380Y-16767291D01*
X39110068Y-16801316D01*
X39066839Y-16803117D01*
X39000002Y-16794318D01*
X39000000Y-16794318D01*
X38843239Y-16814955D01*
X38697160Y-16875463D01*
X38697157Y-16875465D01*
X38571718Y-16971718D01*
X38475465Y-17097157D01*
X38475463Y-17097160D01*
X38414955Y-17243239D01*
X38394318Y-17399999D01*
X38394318Y-17400000D01*
X38414955Y-17556760D01*
X38473110Y-17697157D01*
X38475464Y-17702841D01*
X38571718Y-17828282D01*
X38697159Y-17924536D01*
X38843238Y-17985044D01*
X39000000Y-18005682D01*
X39156762Y-17985044D01*
X39302841Y-17924536D01*
X39428282Y-17828282D01*
X39524536Y-17702841D01*
X39585044Y-17556762D01*
X39605682Y-17400000D01*
X39596881Y-17333158D01*
X39607819Y-17263013D01*
X39619360Y-17246599D01*
X41736118Y-17246599D01*
X41736118Y-17246600D01*
X41756755Y-17403360D01*
X41799659Y-17506938D01*
X41817264Y-17549441D01*
X41913518Y-17674882D01*
X42038959Y-17771136D01*
X42185038Y-17831644D01*
X42341800Y-17852282D01*
X42498562Y-17831644D01*
X42644641Y-17771136D01*
X42770082Y-17674882D01*
X42866336Y-17549441D01*
X42926844Y-17403362D01*
X42947482Y-17246600D01*
X42947039Y-17243238D01*
X42927808Y-17097159D01*
X42926844Y-17089838D01*
X42866336Y-16943759D01*
X42770082Y-16818318D01*
X42644641Y-16722064D01*
X42503169Y-16663464D01*
X42498560Y-16661555D01*
X42341800Y-16640918D01*
X42185039Y-16661555D01*
X42038960Y-16722063D01*
X42038957Y-16722065D01*
X41913518Y-16818318D01*
X41817265Y-16943757D01*
X41817263Y-16943760D01*
X41756755Y-17089839D01*
X41736118Y-17246599D01*
X39619360Y-17246599D01*
X39632705Y-17227620D01*
X40214976Y-16645351D01*
X40257828Y-16571128D01*
X40257829Y-16571127D01*
X40280011Y-16488342D01*
X40280011Y-15951199D01*
X43107718Y-15951199D01*
X43107718Y-15951200D01*
X43128355Y-16107960D01*
X43187321Y-16250315D01*
X43188864Y-16254041D01*
X43285118Y-16379482D01*
X43410559Y-16475736D01*
X43556638Y-16536244D01*
X43713400Y-16556882D01*
X43870162Y-16536244D01*
X44016241Y-16475736D01*
X44141682Y-16379482D01*
X44237936Y-16254041D01*
X44298444Y-16107962D01*
X44319082Y-15951200D01*
X44298444Y-15794438D01*
X44237936Y-15648359D01*
X44141682Y-15522918D01*
X44016241Y-15426664D01*
X44010409Y-15424248D01*
X43870160Y-15366155D01*
X43713400Y-15345518D01*
X43556639Y-15366155D01*
X43410560Y-15426663D01*
X43410557Y-15426665D01*
X43285118Y-15522918D01*
X43188865Y-15648357D01*
X43188863Y-15648360D01*
X43128355Y-15794439D01*
X43107718Y-15951199D01*
X40280011Y-15951199D01*
X40280011Y-14655799D01*
X44352318Y-14655799D01*
X44352318Y-14655800D01*
X44372955Y-14812560D01*
X44399288Y-14876132D01*
X44433464Y-14958641D01*
X44529718Y-15084082D01*
X44655159Y-15180336D01*
X44801238Y-15240844D01*
X44958000Y-15261482D01*
X45114762Y-15240844D01*
X45260841Y-15180336D01*
X45386282Y-15084082D01*
X45482536Y-14958641D01*
X45543044Y-14812562D01*
X45563682Y-14655800D01*
X45543044Y-14499038D01*
X45482536Y-14352959D01*
X45386282Y-14227518D01*
X45260841Y-14131264D01*
X45242011Y-14123464D01*
X45114760Y-14070755D01*
X44958000Y-14050118D01*
X44801239Y-14070755D01*
X44655160Y-14131263D01*
X44655157Y-14131265D01*
X44529718Y-14227518D01*
X44433465Y-14352957D01*
X44433463Y-14352960D01*
X44372955Y-14499039D01*
X44352318Y-14655799D01*
X40280011Y-14655799D01*
X40280011Y-13385799D01*
X45647718Y-13385799D01*
X45647718Y-13385800D01*
X45668355Y-13542560D01*
X45705393Y-13631976D01*
X45728864Y-13688641D01*
X45825118Y-13814082D01*
X45950559Y-13910336D01*
X46096638Y-13970844D01*
X46253400Y-13991482D01*
X46410162Y-13970844D01*
X46556241Y-13910336D01*
X46681682Y-13814082D01*
X46777936Y-13688641D01*
X46838444Y-13542562D01*
X46859082Y-13385800D01*
X46855202Y-13356332D01*
X46838444Y-13229039D01*
X46835494Y-13221915D01*
X46777936Y-13082959D01*
X46681682Y-12957518D01*
X46556241Y-12861264D01*
X46512571Y-12843175D01*
X46410160Y-12800755D01*
X46253400Y-12780118D01*
X46096639Y-12800755D01*
X45950560Y-12861263D01*
X45950557Y-12861265D01*
X45825118Y-12957518D01*
X45728865Y-13082957D01*
X45728863Y-13082960D01*
X45668355Y-13229039D01*
X45647718Y-13385799D01*
X40280011Y-13385799D01*
X40280011Y-5398734D01*
X40300013Y-5330613D01*
X40353669Y-5284120D01*
X40423943Y-5274016D01*
X40488523Y-5303510D01*
X40517132Y-5339337D01*
X40542315Y-5386450D01*
X40673590Y-5546410D01*
X40833550Y-5677685D01*
X41016046Y-5775232D01*
X41214066Y-5835300D01*
X41214070Y-5835300D01*
X41214072Y-5835301D01*
X41419997Y-5855583D01*
X41420000Y-5855583D01*
X41420003Y-5855583D01*
X41625927Y-5835301D01*
X41625928Y-5835300D01*
X41625934Y-5835300D01*
X41823954Y-5775232D01*
X42006450Y-5677685D01*
X42166410Y-5546410D01*
X42297685Y-5386450D01*
X42395232Y-5203954D01*
X42455300Y-5005934D01*
X42455355Y-5005382D01*
X42475583Y-4800003D01*
X42475583Y-4799996D01*
X42904417Y-4799996D01*
X42904417Y-4800003D01*
X42924698Y-5005927D01*
X42924699Y-5005933D01*
X42924700Y-5005934D01*
X42944409Y-5070906D01*
X42984768Y-5203954D01*
X43065617Y-5355212D01*
X43082315Y-5386450D01*
X43213590Y-5546410D01*
X43373550Y-5677685D01*
X43556046Y-5775232D01*
X43754066Y-5835300D01*
X43754070Y-5835300D01*
X43754072Y-5835301D01*
X43959997Y-5855583D01*
X43960000Y-5855583D01*
X43960003Y-5855583D01*
X44165927Y-5835301D01*
X44165928Y-5835300D01*
X44165934Y-5835300D01*
X44363954Y-5775232D01*
X44363969Y-5775223D01*
X44364621Y-5774955D01*
X44365002Y-5774913D01*
X44369878Y-5773435D01*
X44370158Y-5774359D01*
X44435211Y-5767363D01*
X44498699Y-5799139D01*
X44501940Y-5802267D01*
X57727395Y-19027721D01*
X57761421Y-19090033D01*
X57764300Y-19116816D01*
X57764300Y-27607109D01*
X57764300Y-27692815D01*
X57786482Y-27775601D01*
X57786483Y-27775603D01*
X57786484Y-27775605D01*
X57829332Y-27849820D01*
X57829340Y-27849830D01*
X59012135Y-29032624D01*
X59903893Y-29924382D01*
X59903894Y-29924383D01*
X59964497Y-29984986D01*
X59964498Y-29984987D01*
X59964500Y-29984988D01*
X60038716Y-30027837D01*
X60038718Y-30027837D01*
X60038721Y-30027839D01*
X60121506Y-30050021D01*
X64249530Y-30050021D01*
X64317651Y-30070023D01*
X64349490Y-30099314D01*
X64371718Y-30128282D01*
X64497159Y-30224536D01*
X64643238Y-30285044D01*
X64800000Y-30305682D01*
X64956762Y-30285044D01*
X65102841Y-30224536D01*
X65228282Y-30128282D01*
X65324536Y-30002841D01*
X65385044Y-29856762D01*
X65405682Y-29700000D01*
X65385044Y-29543238D01*
X65324536Y-29397159D01*
X65228282Y-29271718D01*
X65102841Y-29175464D01*
X65080800Y-29166334D01*
X64956760Y-29114955D01*
X64800000Y-29094318D01*
X64643239Y-29114955D01*
X64497160Y-29175463D01*
X64497157Y-29175465D01*
X64393389Y-29255089D01*
X64371718Y-29271718D01*
X64311860Y-29349726D01*
X64254524Y-29391592D01*
X64211899Y-29399021D01*
X63151245Y-29399021D01*
X63083124Y-29379019D01*
X63036631Y-29325363D01*
X63026527Y-29255089D01*
X63056021Y-29190509D01*
X63084209Y-29166334D01*
X63165976Y-29114956D01*
X63296997Y-29032630D01*
X63389625Y-28958761D01*
X63569259Y-28815510D01*
X63815510Y-28569259D01*
X64003975Y-28332929D01*
X64032630Y-28296997D01*
X64217906Y-28002133D01*
X64218934Y-27999999D01*
X65584318Y-27999999D01*
X65584318Y-28000000D01*
X65604955Y-28156760D01*
X65663045Y-28297000D01*
X65665464Y-28302841D01*
X65761718Y-28428282D01*
X65887159Y-28524536D01*
X66033238Y-28585044D01*
X66190000Y-28605682D01*
X66346762Y-28585044D01*
X66492841Y-28524536D01*
X66618282Y-28428282D01*
X66628118Y-28415462D01*
X66659324Y-28374796D01*
X66716662Y-28332929D01*
X66759286Y-28325500D01*
X68440715Y-28325500D01*
X68508836Y-28345502D01*
X68540677Y-28374796D01*
X68581716Y-28428279D01*
X68581717Y-28428280D01*
X68581719Y-28428282D01*
X68707160Y-28524536D01*
X68853239Y-28585044D01*
X69010001Y-28605682D01*
X69166763Y-28585044D01*
X69312842Y-28524536D01*
X69438283Y-28428282D01*
X69534537Y-28302841D01*
X69595045Y-28156762D01*
X69615683Y-28000000D01*
X69595045Y-27843238D01*
X69534537Y-27697159D01*
X69438283Y-27571718D01*
X69312842Y-27475464D01*
X69205502Y-27431002D01*
X69166761Y-27414955D01*
X69010001Y-27394318D01*
X68853240Y-27414955D01*
X68707161Y-27475463D01*
X68707158Y-27475465D01*
X68581716Y-27571720D01*
X68540677Y-27625204D01*
X68483339Y-27667071D01*
X68440715Y-27674500D01*
X66759286Y-27674500D01*
X66691165Y-27654498D01*
X66659324Y-27625204D01*
X66618284Y-27571720D01*
X66618282Y-27571719D01*
X66618282Y-27571718D01*
X66492841Y-27475464D01*
X66385501Y-27431002D01*
X66346760Y-27414955D01*
X66190000Y-27394318D01*
X66033239Y-27414955D01*
X65887160Y-27475463D01*
X65887157Y-27475465D01*
X65761718Y-27571718D01*
X65665465Y-27697157D01*
X65665463Y-27697160D01*
X65604955Y-27843239D01*
X65584318Y-27999999D01*
X64218934Y-27999999D01*
X64369002Y-27688379D01*
X64484018Y-27359681D01*
X64561509Y-27020171D01*
X64600500Y-26674120D01*
X64600500Y-26325880D01*
X64561509Y-25979829D01*
X64484018Y-25640319D01*
X64369002Y-25311621D01*
X64217906Y-24997867D01*
X64032630Y-24703003D01*
X63994043Y-24654616D01*
X63815510Y-24430740D01*
X63569259Y-24184489D01*
X63297004Y-23967375D01*
X63297000Y-23967372D01*
X63002137Y-23782096D01*
X63002128Y-23782091D01*
X62688388Y-23631002D01*
X62688383Y-23631000D01*
X62688379Y-23630998D01*
X62688373Y-23630995D01*
X62688361Y-23630991D01*
X62359687Y-23515983D01*
X62020174Y-23438491D01*
X61674122Y-23399500D01*
X61674120Y-23399500D01*
X61325880Y-23399500D01*
X61325878Y-23399500D01*
X60979825Y-23438491D01*
X60640312Y-23515983D01*
X60311638Y-23630991D01*
X60311611Y-23631002D01*
X59997871Y-23782091D01*
X59997862Y-23782096D01*
X59702999Y-23967372D01*
X59702995Y-23967375D01*
X59430740Y-24184489D01*
X59184489Y-24430740D01*
X58967375Y-24702995D01*
X58967372Y-24702999D01*
X58782096Y-24997862D01*
X58782091Y-24997871D01*
X58654822Y-25262149D01*
X58607244Y-25314845D01*
X58538730Y-25333454D01*
X58471031Y-25312066D01*
X58425642Y-25257473D01*
X58415300Y-25207480D01*
X58415300Y-18886949D01*
X58415299Y-18886944D01*
X58406951Y-18855787D01*
X58393118Y-18804161D01*
X58358896Y-18744888D01*
X58358897Y-18744887D01*
X58358893Y-18744883D01*
X58350265Y-18729938D01*
X58350260Y-18729932D01*
X58285273Y-18664945D01*
X58285250Y-18664924D01*
X44962267Y-5341940D01*
X44928241Y-5279628D01*
X44933306Y-5208813D01*
X44934955Y-5204621D01*
X44935223Y-5203969D01*
X44935232Y-5203954D01*
X44995300Y-5005934D01*
X44995355Y-5005382D01*
X45015583Y-4800003D01*
X45015583Y-4799996D01*
X45444417Y-4799996D01*
X45444417Y-4800003D01*
X45464698Y-5005927D01*
X45464699Y-5005933D01*
X45464700Y-5005934D01*
X45484409Y-5070906D01*
X45524768Y-5203954D01*
X45605617Y-5355212D01*
X45622315Y-5386450D01*
X45753590Y-5546410D01*
X45913550Y-5677685D01*
X46096046Y-5775232D01*
X46294066Y-5835300D01*
X46294070Y-5835300D01*
X46294072Y-5835301D01*
X46499997Y-5855583D01*
X46500000Y-5855583D01*
X46500003Y-5855583D01*
X46705927Y-5835301D01*
X46705928Y-5835300D01*
X46705934Y-5835300D01*
X46903954Y-5775232D01*
X47086450Y-5677685D01*
X47246410Y-5546410D01*
X47377685Y-5386450D01*
X47475232Y-5203954D01*
X47535300Y-5005934D01*
X47535355Y-5005382D01*
X47555583Y-4800003D01*
X47555583Y-4799996D01*
X47984417Y-4799996D01*
X47984417Y-4800003D01*
X48004698Y-5005927D01*
X48004699Y-5005933D01*
X48004700Y-5005934D01*
X48024409Y-5070906D01*
X48064768Y-5203954D01*
X48145617Y-5355212D01*
X48162315Y-5386450D01*
X48293590Y-5546410D01*
X48453550Y-5677685D01*
X48636046Y-5775232D01*
X48834066Y-5835300D01*
X48834070Y-5835300D01*
X48834072Y-5835301D01*
X49039997Y-5855583D01*
X49040000Y-5855583D01*
X49040003Y-5855583D01*
X49245927Y-5835301D01*
X49245928Y-5835300D01*
X49245934Y-5835300D01*
X49443954Y-5775232D01*
X49626450Y-5677685D01*
X49786410Y-5546410D01*
X49917685Y-5386450D01*
X50015232Y-5203954D01*
X50075300Y-5005934D01*
X50075355Y-5005382D01*
X50095583Y-4800003D01*
X50095583Y-4799996D01*
X50524417Y-4799996D01*
X50524417Y-4800003D01*
X50544698Y-5005927D01*
X50544699Y-5005933D01*
X50544700Y-5005934D01*
X50564409Y-5070906D01*
X50604768Y-5203954D01*
X50685617Y-5355212D01*
X50702315Y-5386450D01*
X50833590Y-5546410D01*
X50993550Y-5677685D01*
X51176046Y-5775232D01*
X51374066Y-5835300D01*
X51374070Y-5835300D01*
X51374072Y-5835301D01*
X51579997Y-5855583D01*
X51580000Y-5855583D01*
X51580003Y-5855583D01*
X51785927Y-5835301D01*
X51785928Y-5835300D01*
X51785934Y-5835300D01*
X51983954Y-5775232D01*
X52166450Y-5677685D01*
X52326410Y-5546410D01*
X52457685Y-5386450D01*
X52555232Y-5203954D01*
X52615300Y-5005934D01*
X52615355Y-5005382D01*
X52635583Y-4800003D01*
X52635583Y-4799996D01*
X52615301Y-4594072D01*
X52615300Y-4594070D01*
X52615300Y-4594066D01*
X52555232Y-4396046D01*
X52457685Y-4213550D01*
X52326410Y-4053590D01*
X52166450Y-3922315D01*
X52166448Y-3922314D01*
X52166447Y-3922313D01*
X51983954Y-3824768D01*
X51785927Y-3764698D01*
X51580003Y-3744417D01*
X51579997Y-3744417D01*
X51374072Y-3764698D01*
X51176045Y-3824768D01*
X50993552Y-3922313D01*
X50833590Y-4053590D01*
X50702313Y-4213552D01*
X50604768Y-4396045D01*
X50544698Y-4594072D01*
X50524417Y-4799996D01*
X50095583Y-4799996D01*
X50075301Y-4594072D01*
X50075300Y-4594070D01*
X50075300Y-4594066D01*
X50015232Y-4396046D01*
X49917685Y-4213550D01*
X49786410Y-4053590D01*
X49626450Y-3922315D01*
X49626448Y-3922314D01*
X49626447Y-3922313D01*
X49443954Y-3824768D01*
X49245927Y-3764698D01*
X49040003Y-3744417D01*
X49039997Y-3744417D01*
X48834072Y-3764698D01*
X48636045Y-3824768D01*
X48453552Y-3922313D01*
X48293590Y-4053590D01*
X48162313Y-4213552D01*
X48064768Y-4396045D01*
X48004698Y-4594072D01*
X47984417Y-4799996D01*
X47555583Y-4799996D01*
X47535301Y-4594072D01*
X47535300Y-4594070D01*
X47535300Y-4594066D01*
X47475232Y-4396046D01*
X47377685Y-4213550D01*
X47246410Y-4053590D01*
X47086450Y-3922315D01*
X47086448Y-3922314D01*
X47086447Y-3922313D01*
X46903954Y-3824768D01*
X46705927Y-3764698D01*
X46500003Y-3744417D01*
X46499997Y-3744417D01*
X46294072Y-3764698D01*
X46096045Y-3824768D01*
X45913552Y-3922313D01*
X45753590Y-4053590D01*
X45622313Y-4213552D01*
X45524768Y-4396045D01*
X45464698Y-4594072D01*
X45444417Y-4799996D01*
X45015583Y-4799996D01*
X44995301Y-4594072D01*
X44995300Y-4594070D01*
X44995300Y-4594066D01*
X44935232Y-4396046D01*
X44837685Y-4213550D01*
X44706410Y-4053590D01*
X44546450Y-3922315D01*
X44546448Y-3922314D01*
X44546447Y-3922313D01*
X44363954Y-3824768D01*
X44165927Y-3764698D01*
X43960003Y-3744417D01*
X43959997Y-3744417D01*
X43754072Y-3764698D01*
X43556045Y-3824768D01*
X43373552Y-3922313D01*
X43213590Y-4053590D01*
X43082313Y-4213552D01*
X42984768Y-4396045D01*
X42924698Y-4594072D01*
X42904417Y-4799996D01*
X42475583Y-4799996D01*
X42455301Y-4594072D01*
X42455300Y-4594070D01*
X42455300Y-4594066D01*
X42395232Y-4396046D01*
X42297685Y-4213550D01*
X42166410Y-4053590D01*
X42006450Y-3922315D01*
X42006448Y-3922314D01*
X42006447Y-3922313D01*
X41823954Y-3824768D01*
X41625927Y-3764698D01*
X41420003Y-3744417D01*
X41419997Y-3744417D01*
X41214072Y-3764698D01*
X41016045Y-3824768D01*
X40833552Y-3922313D01*
X40673590Y-4053590D01*
X40542312Y-4213553D01*
X40542311Y-4213555D01*
X40517132Y-4260662D01*
X40467380Y-4311310D01*
X40398143Y-4327019D01*
X40331404Y-4302802D01*
X40288353Y-4246348D01*
X40280011Y-4201265D01*
X40280011Y-3325878D01*
X58399500Y-3325878D01*
X58399500Y-3674121D01*
X58438491Y-4020174D01*
X58461287Y-4120048D01*
X58515982Y-4359681D01*
X58515984Y-4359687D01*
X58515983Y-4359687D01*
X58630991Y-4688361D01*
X58631002Y-4688388D01*
X58782091Y-5002128D01*
X58782096Y-5002137D01*
X58967372Y-5297000D01*
X58967375Y-5297004D01*
X59184489Y-5569259D01*
X59430740Y-5815510D01*
X59678267Y-6012904D01*
X59703003Y-6032630D01*
X59997867Y-6217906D01*
X60311621Y-6369002D01*
X60311637Y-6369007D01*
X60311638Y-6369008D01*
X60640312Y-6484016D01*
X60640315Y-6484016D01*
X60640319Y-6484018D01*
X60979829Y-6561509D01*
X61225210Y-6589157D01*
X61325878Y-6600500D01*
X61325880Y-6600500D01*
X61674122Y-6600500D01*
X61762006Y-6590597D01*
X62020171Y-6561509D01*
X62359681Y-6484018D01*
X62388743Y-6473849D01*
X62441855Y-6455264D01*
X62688379Y-6369002D01*
X63002133Y-6217906D01*
X63296997Y-6032630D01*
X63426613Y-5929265D01*
X63569259Y-5815510D01*
X63579769Y-5805000D01*
X66554700Y-5805000D01*
X66573866Y-6036308D01*
X66573867Y-6036314D01*
X66630842Y-6261299D01*
X66630844Y-6261303D01*
X66724075Y-6473848D01*
X66730719Y-6484018D01*
X66851021Y-6668153D01*
X67008216Y-6838913D01*
X67191374Y-6981470D01*
X67395497Y-7091936D01*
X67468179Y-7116887D01*
X67526113Y-7157923D01*
X67552666Y-7223767D01*
X67539405Y-7293515D01*
X67490541Y-7345020D01*
X67472792Y-7353548D01*
X67467370Y-7355648D01*
X67467351Y-7355658D01*
X67293960Y-7463017D01*
X67293959Y-7463018D01*
X67143234Y-7600421D01*
X67020329Y-7763175D01*
X66929416Y-7945754D01*
X66873603Y-8141915D01*
X66854785Y-8345000D01*
X66873603Y-8548084D01*
X66929416Y-8744245D01*
X66929417Y-8744247D01*
X66929418Y-8744250D01*
X67020327Y-8926821D01*
X67020328Y-8926822D01*
X67020329Y-8926824D01*
X67143234Y-9089578D01*
X67293959Y-9226981D01*
X67293960Y-9226982D01*
X67467351Y-9334341D01*
X67467354Y-9334342D01*
X67467363Y-9334348D01*
X67657544Y-9408024D01*
X67858024Y-9445500D01*
X67858026Y-9445500D01*
X68061974Y-9445500D01*
X68061976Y-9445500D01*
X68262456Y-9408024D01*
X68452637Y-9334348D01*
X68626041Y-9226981D01*
X68776764Y-9089579D01*
X68899673Y-8926821D01*
X68990582Y-8744250D01*
X69046397Y-8548083D01*
X69065215Y-8345000D01*
X69046397Y-8141917D01*
X68990582Y-7945750D01*
X68899673Y-7763179D01*
X68852880Y-7701215D01*
X68776765Y-7600421D01*
X68626040Y-7463018D01*
X68626039Y-7463017D01*
X68452648Y-7355658D01*
X68452635Y-7355651D01*
X68447211Y-7353550D01*
X68390917Y-7310288D01*
X68366949Y-7243459D01*
X68382917Y-7174281D01*
X68433749Y-7124718D01*
X68451806Y-7116892D01*
X68524503Y-7091936D01*
X68728626Y-6981470D01*
X68911784Y-6838913D01*
X69068979Y-6668153D01*
X69195924Y-6473849D01*
X69289157Y-6261300D01*
X69343202Y-6047883D01*
X69346132Y-6036314D01*
X69346133Y-6036308D01*
X69346134Y-6036305D01*
X69365300Y-5805000D01*
X69346134Y-5573695D01*
X69346133Y-5573691D01*
X69346132Y-5573685D01*
X69289157Y-5348700D01*
X69289155Y-5348696D01*
X69258837Y-5279579D01*
X69195924Y-5136151D01*
X69108366Y-5002133D01*
X69068981Y-4941850D01*
X69068980Y-4941849D01*
X69068979Y-4941847D01*
X68938400Y-4800000D01*
X68911786Y-4771089D01*
X68911785Y-4771088D01*
X68911784Y-4771087D01*
X68728626Y-4628530D01*
X68728625Y-4628529D01*
X68555799Y-4535000D01*
X69394785Y-4535000D01*
X69413603Y-4738084D01*
X69469416Y-4934245D01*
X69469417Y-4934247D01*
X69469418Y-4934250D01*
X69560327Y-5116821D01*
X69560328Y-5116822D01*
X69560329Y-5116824D01*
X69683234Y-5279578D01*
X69833959Y-5416981D01*
X69833960Y-5416982D01*
X70007351Y-5524341D01*
X70007354Y-5524342D01*
X70007363Y-5524348D01*
X70197544Y-5598024D01*
X70398024Y-5635500D01*
X70398026Y-5635500D01*
X70601974Y-5635500D01*
X70601976Y-5635500D01*
X70802456Y-5598024D01*
X70992637Y-5524348D01*
X71166041Y-5416981D01*
X71316764Y-5279579D01*
X71321748Y-5272980D01*
X71370204Y-5208813D01*
X71439673Y-5116821D01*
X71530582Y-4934250D01*
X71586397Y-4738083D01*
X71605215Y-4535000D01*
X71586397Y-4331917D01*
X71530582Y-4135750D01*
X71439673Y-3953179D01*
X71388733Y-3885723D01*
X71316765Y-3790421D01*
X71166040Y-3653018D01*
X71166039Y-3653017D01*
X70992648Y-3545658D01*
X70992641Y-3545654D01*
X70992637Y-3545652D01*
X70842193Y-3487370D01*
X70802457Y-3471976D01*
X70735629Y-3459484D01*
X70601976Y-3434500D01*
X70398024Y-3434500D01*
X70297784Y-3453238D01*
X70197542Y-3471976D01*
X70059059Y-3525625D01*
X70007363Y-3545652D01*
X70007362Y-3545652D01*
X70007361Y-3545653D01*
X70007351Y-3545658D01*
X69833960Y-3653017D01*
X69833959Y-3653018D01*
X69683234Y-3790421D01*
X69560329Y-3953175D01*
X69469416Y-4135754D01*
X69413603Y-4331915D01*
X69394785Y-4535000D01*
X68555799Y-4535000D01*
X68524502Y-4518063D01*
X68524500Y-4518062D01*
X68304985Y-4442703D01*
X68304978Y-4442701D01*
X68207000Y-4426352D01*
X68076049Y-4404500D01*
X67843951Y-4404500D01*
X67729383Y-4423618D01*
X67615021Y-4442701D01*
X67615014Y-4442703D01*
X67395499Y-4518062D01*
X67395497Y-4518063D01*
X67191374Y-4628529D01*
X67191373Y-4628530D01*
X67008213Y-4771089D01*
X66851018Y-4941850D01*
X66724075Y-5136151D01*
X66630844Y-5348696D01*
X66630842Y-5348700D01*
X66573867Y-5573685D01*
X66573866Y-5573691D01*
X66554700Y-5805000D01*
X63579769Y-5805000D01*
X63815510Y-5569259D01*
X63991398Y-5348700D01*
X64032630Y-5296997D01*
X64217906Y-5002133D01*
X64369002Y-4688379D01*
X64484018Y-4359681D01*
X64561509Y-4020171D01*
X64597129Y-3704035D01*
X64600500Y-3674121D01*
X64600500Y-3325878D01*
X64585129Y-3189462D01*
X64561509Y-2979829D01*
X64484018Y-2640319D01*
X64468311Y-2595432D01*
X64436668Y-2505000D01*
X72094732Y-2505000D01*
X72113778Y-2759160D01*
X72170491Y-3007635D01*
X72263605Y-3244884D01*
X72263608Y-3244892D01*
X72391038Y-3465608D01*
X72391040Y-3465611D01*
X72391041Y-3465612D01*
X72414274Y-3494745D01*
X72549953Y-3664881D01*
X72592152Y-3704035D01*
X72736783Y-3838232D01*
X72736789Y-3838236D01*
X72947356Y-3981799D01*
X72947363Y-3981803D01*
X72947366Y-3981805D01*
X73027034Y-4020171D01*
X73176991Y-4092387D01*
X73177004Y-4092392D01*
X73420531Y-4167510D01*
X73420534Y-4167510D01*
X73420542Y-4167513D01*
X73672565Y-4205500D01*
X73672570Y-4205500D01*
X73927430Y-4205500D01*
X73927435Y-4205500D01*
X74179458Y-4167513D01*
X74231530Y-4151451D01*
X74422995Y-4092392D01*
X74422997Y-4092390D01*
X74423004Y-4092389D01*
X74652634Y-3981805D01*
X74863217Y-3838232D01*
X74885585Y-3817477D01*
X74949124Y-3785806D01*
X75019701Y-3793513D01*
X75074907Y-3838155D01*
X75097214Y-3905556D01*
X75092994Y-3942452D01*
X75031160Y-4173217D01*
X74999500Y-4413709D01*
X74999500Y-4656290D01*
X75031160Y-4896782D01*
X75093944Y-5131095D01*
X75093945Y-5131097D01*
X75093946Y-5131100D01*
X75186776Y-5355212D01*
X75186777Y-5355213D01*
X75186782Y-5355224D01*
X75308061Y-5565285D01*
X75308063Y-5565288D01*
X75308064Y-5565289D01*
X75455735Y-5757738D01*
X75455739Y-5757742D01*
X75455744Y-5757748D01*
X75627251Y-5929255D01*
X75627256Y-5929259D01*
X75627262Y-5929265D01*
X75819711Y-6076936D01*
X75819714Y-6076938D01*
X76029775Y-6198217D01*
X76029779Y-6198218D01*
X76029788Y-6198224D01*
X76253900Y-6291054D01*
X76488211Y-6353838D01*
X76488215Y-6353838D01*
X76488217Y-6353839D01*
X76550202Y-6361999D01*
X76728712Y-6385500D01*
X76728719Y-6385500D01*
X76971281Y-6385500D01*
X76971288Y-6385500D01*
X77188637Y-6356885D01*
X77211782Y-6353839D01*
X77211782Y-6353838D01*
X77211789Y-6353838D01*
X77446100Y-6291054D01*
X77670212Y-6198224D01*
X77880289Y-6076936D01*
X78072738Y-5929265D01*
X78244265Y-5757738D01*
X78391936Y-5565289D01*
X78513224Y-5355212D01*
X78606054Y-5131100D01*
X78668838Y-4896789D01*
X78700500Y-4656288D01*
X78700500Y-4413712D01*
X78668838Y-4173211D01*
X78606054Y-3938900D01*
X78513224Y-3714788D01*
X78513218Y-3714779D01*
X78513217Y-3714775D01*
X78461385Y-3625000D01*
X79704357Y-3625000D01*
X79724885Y-3846539D01*
X79785768Y-4060520D01*
X79785774Y-4060537D01*
X79884938Y-4259684D01*
X79884942Y-4259689D01*
X80019017Y-4437235D01*
X80183438Y-4587124D01*
X80183439Y-4587125D01*
X80372587Y-4704240D01*
X80372590Y-4704241D01*
X80372599Y-4704247D01*
X80443053Y-4731541D01*
X80561708Y-4777509D01*
X80618003Y-4820768D01*
X80641973Y-4887596D01*
X80626009Y-4956774D01*
X80575178Y-5006340D01*
X80561708Y-5012491D01*
X80372603Y-5085751D01*
X80372587Y-5085759D01*
X80183439Y-5202874D01*
X80183438Y-5202875D01*
X80019017Y-5352764D01*
X79884942Y-5530310D01*
X79884938Y-5530315D01*
X79785774Y-5729462D01*
X79785768Y-5729479D01*
X79724885Y-5943460D01*
X79704357Y-6165000D01*
X79724885Y-6386539D01*
X79785768Y-6600520D01*
X79785774Y-6600537D01*
X79884938Y-6799684D01*
X79884942Y-6799689D01*
X80019017Y-6977235D01*
X80183438Y-7127124D01*
X80183439Y-7127125D01*
X80372587Y-7244240D01*
X80372590Y-7244241D01*
X80372599Y-7244247D01*
X80462989Y-7279264D01*
X80580053Y-7324616D01*
X80580056Y-7324616D01*
X80580060Y-7324618D01*
X80798757Y-7365500D01*
X80798760Y-7365500D01*
X81021240Y-7365500D01*
X81021243Y-7365500D01*
X81239940Y-7324618D01*
X81239944Y-7324616D01*
X81239946Y-7324616D01*
X81293298Y-7303946D01*
X81447401Y-7244247D01*
X81636562Y-7127124D01*
X81800981Y-6977236D01*
X81935058Y-6799689D01*
X81935059Y-6799685D01*
X81935061Y-6799684D01*
X82034225Y-6600537D01*
X82034226Y-6600533D01*
X82034229Y-6600528D01*
X82095115Y-6386536D01*
X82115643Y-6165000D01*
X82095115Y-5943464D01*
X82034229Y-5729472D01*
X82034227Y-5729468D01*
X82034225Y-5729462D01*
X81935061Y-5530315D01*
X81935057Y-5530310D01*
X81930549Y-5524341D01*
X81873314Y-5448548D01*
X81800982Y-5352764D01*
X81636561Y-5202875D01*
X81636560Y-5202874D01*
X81447412Y-5085759D01*
X81447405Y-5085755D01*
X81447401Y-5085753D01*
X81409077Y-5070906D01*
X81258291Y-5012491D01*
X81201996Y-4969232D01*
X81178026Y-4902404D01*
X81193990Y-4833226D01*
X81244821Y-4783660D01*
X81258291Y-4777509D01*
X81295720Y-4763008D01*
X81447401Y-4704247D01*
X81636562Y-4587124D01*
X81800981Y-4437236D01*
X81818746Y-4413712D01*
X81859543Y-4359687D01*
X81935058Y-4259689D01*
X81935059Y-4259685D01*
X81935061Y-4259684D01*
X82034225Y-4060537D01*
X82034226Y-4060533D01*
X82034229Y-4060528D01*
X82095115Y-3846536D01*
X82115643Y-3625000D01*
X82095115Y-3403464D01*
X82073040Y-3325880D01*
X82034231Y-3189479D01*
X82034225Y-3189462D01*
X81935061Y-2990315D01*
X81935057Y-2990310D01*
X81800982Y-2812764D01*
X81636561Y-2662875D01*
X81636560Y-2662874D01*
X81447412Y-2545759D01*
X81447405Y-2545755D01*
X81447401Y-2545753D01*
X81447396Y-2545751D01*
X81239946Y-2465383D01*
X81200972Y-2458097D01*
X81021243Y-2424500D01*
X80798757Y-2424500D01*
X80657674Y-2450873D01*
X80580053Y-2465383D01*
X80372603Y-2545751D01*
X80372587Y-2545759D01*
X80183439Y-2662874D01*
X80183438Y-2662875D01*
X80019017Y-2812764D01*
X79884942Y-2990310D01*
X79884938Y-2990315D01*
X79785774Y-3189462D01*
X79785768Y-3189479D01*
X79724885Y-3403460D01*
X79704357Y-3625000D01*
X78461385Y-3625000D01*
X78391938Y-3504714D01*
X78391936Y-3504711D01*
X78244265Y-3312262D01*
X78244259Y-3312256D01*
X78244255Y-3312251D01*
X78072748Y-3140744D01*
X78072742Y-3140739D01*
X78072738Y-3140735D01*
X77880289Y-2993064D01*
X77880288Y-2993063D01*
X77880285Y-2993061D01*
X77670224Y-2871782D01*
X77670216Y-2871778D01*
X77670212Y-2871776D01*
X77446100Y-2778946D01*
X77446097Y-2778945D01*
X77446095Y-2778944D01*
X77211782Y-2716160D01*
X76971290Y-2684500D01*
X76971288Y-2684500D01*
X76728712Y-2684500D01*
X76728709Y-2684500D01*
X76488217Y-2716160D01*
X76253904Y-2778944D01*
X76253900Y-2778946D01*
X76198388Y-2801940D01*
X76029786Y-2871777D01*
X76029775Y-2871782D01*
X75819710Y-2993063D01*
X75628021Y-3140151D01*
X75561801Y-3165751D01*
X75492252Y-3151486D01*
X75441457Y-3101884D01*
X75425541Y-3032695D01*
X75428477Y-3012150D01*
X75429505Y-3007642D01*
X75429508Y-3007637D01*
X75486222Y-2759157D01*
X75505268Y-2505000D01*
X75486222Y-2250843D01*
X75429508Y-2002363D01*
X75336393Y-1765112D01*
X75336392Y-1765111D01*
X75336391Y-1765107D01*
X75208961Y-1544391D01*
X75050046Y-1345118D01*
X74863222Y-1171773D01*
X74863217Y-1171768D01*
X74863210Y-1171763D01*
X74652643Y-1028200D01*
X74652636Y-1028196D01*
X74423008Y-917612D01*
X74422995Y-917607D01*
X74179468Y-842489D01*
X74179458Y-842487D01*
X73927435Y-804500D01*
X73672565Y-804500D01*
X73462545Y-836155D01*
X73420541Y-842487D01*
X73420531Y-842489D01*
X73177004Y-917607D01*
X73176991Y-917612D01*
X72947363Y-1028196D01*
X72947356Y-1028200D01*
X72736789Y-1171763D01*
X72736777Y-1171773D01*
X72549953Y-1345118D01*
X72391038Y-1544391D01*
X72263608Y-1765107D01*
X72263605Y-1765115D01*
X72170491Y-2002364D01*
X72113778Y-2250839D01*
X72094732Y-2505000D01*
X64436668Y-2505000D01*
X64369008Y-2311638D01*
X64369007Y-2311637D01*
X64369002Y-2311621D01*
X64217906Y-1997867D01*
X64217905Y-1997866D01*
X64217904Y-1997863D01*
X64217903Y-1997862D01*
X64165378Y-1914270D01*
X64032630Y-1703003D01*
X64009144Y-1673552D01*
X63815510Y-1430740D01*
X63569259Y-1184489D01*
X63297004Y-967375D01*
X63297000Y-967372D01*
X63002137Y-782096D01*
X63002128Y-782091D01*
X62688388Y-631002D01*
X62688383Y-631000D01*
X62688379Y-630998D01*
X62688373Y-630995D01*
X62688361Y-630991D01*
X62359687Y-515983D01*
X62020174Y-438491D01*
X61674122Y-399500D01*
X61674120Y-399500D01*
X61325880Y-399500D01*
X61325878Y-399500D01*
X60979825Y-438491D01*
X60640312Y-515983D01*
X60311638Y-630991D01*
X60311611Y-631002D01*
X59997871Y-782091D01*
X59997862Y-782096D01*
X59702999Y-967372D01*
X59702995Y-967375D01*
X59430740Y-1184489D01*
X59184489Y-1430740D01*
X58967375Y-1702995D01*
X58967372Y-1702999D01*
X58782096Y-1997862D01*
X58782096Y-1997863D01*
X58631002Y-2311611D01*
X58630991Y-2311638D01*
X58515983Y-2640312D01*
X58438491Y-2979825D01*
X58399500Y-3325878D01*
X40280011Y-3325878D01*
X40280011Y-3291659D01*
X40280011Y-3291658D01*
X40257829Y-3208873D01*
X40257829Y-3208872D01*
X40255523Y-3204878D01*
X40214978Y-3134652D01*
X40214973Y-3134646D01*
X40060152Y-2979825D01*
X39882265Y-2801938D01*
X39848242Y-2739628D01*
X39853306Y-2668813D01*
X39854955Y-2664621D01*
X39855223Y-2663969D01*
X39855232Y-2663954D01*
X39915300Y-2465934D01*
X39915355Y-2465383D01*
X39935583Y-2260003D01*
X39935583Y-2259996D01*
X40364417Y-2259996D01*
X40364417Y-2260003D01*
X40384698Y-2465927D01*
X40384699Y-2465933D01*
X40384700Y-2465934D01*
X40443202Y-2658791D01*
X40444768Y-2663954D01*
X40518523Y-2801940D01*
X40542315Y-2846450D01*
X40673590Y-3006410D01*
X40833550Y-3137685D01*
X41016046Y-3235232D01*
X41214066Y-3295300D01*
X41214070Y-3295300D01*
X41214072Y-3295301D01*
X41419997Y-3315583D01*
X41420000Y-3315583D01*
X41420003Y-3315583D01*
X41625927Y-3295301D01*
X41625928Y-3295300D01*
X41625934Y-3295300D01*
X41823954Y-3235232D01*
X42006450Y-3137685D01*
X42166410Y-3006410D01*
X42297685Y-2846450D01*
X42395232Y-2663954D01*
X42455300Y-2465934D01*
X42455355Y-2465383D01*
X42475583Y-2260003D01*
X42475583Y-2259996D01*
X42904417Y-2259996D01*
X42904417Y-2260003D01*
X42924698Y-2465927D01*
X42924699Y-2465933D01*
X42924700Y-2465934D01*
X42983202Y-2658791D01*
X42984768Y-2663954D01*
X43058523Y-2801940D01*
X43082315Y-2846450D01*
X43213590Y-3006410D01*
X43373550Y-3137685D01*
X43556046Y-3235232D01*
X43754066Y-3295300D01*
X43754070Y-3295300D01*
X43754072Y-3295301D01*
X43959997Y-3315583D01*
X43960000Y-3315583D01*
X43960003Y-3315583D01*
X44165927Y-3295301D01*
X44165928Y-3295300D01*
X44165934Y-3295300D01*
X44363954Y-3235232D01*
X44546450Y-3137685D01*
X44706410Y-3006410D01*
X44837685Y-2846450D01*
X44935232Y-2663954D01*
X44995300Y-2465934D01*
X44995355Y-2465383D01*
X45015583Y-2260003D01*
X45015583Y-2259996D01*
X45444417Y-2259996D01*
X45444417Y-2260003D01*
X45464698Y-2465927D01*
X45464699Y-2465933D01*
X45464700Y-2465934D01*
X45523202Y-2658791D01*
X45524768Y-2663954D01*
X45598523Y-2801940D01*
X45622315Y-2846450D01*
X45753590Y-3006410D01*
X45913550Y-3137685D01*
X46096046Y-3235232D01*
X46294066Y-3295300D01*
X46294070Y-3295300D01*
X46294072Y-3295301D01*
X46499997Y-3315583D01*
X46500000Y-3315583D01*
X46500003Y-3315583D01*
X46705927Y-3295301D01*
X46705928Y-3295300D01*
X46705934Y-3295300D01*
X46903954Y-3235232D01*
X47086450Y-3137685D01*
X47246410Y-3006410D01*
X47377685Y-2846450D01*
X47475232Y-2663954D01*
X47535300Y-2465934D01*
X47535355Y-2465383D01*
X47555583Y-2260003D01*
X47555583Y-2259996D01*
X47984417Y-2259996D01*
X47984417Y-2260003D01*
X48004698Y-2465927D01*
X48004699Y-2465933D01*
X48004700Y-2465934D01*
X48063202Y-2658791D01*
X48064768Y-2663954D01*
X48138523Y-2801940D01*
X48162315Y-2846450D01*
X48293590Y-3006410D01*
X48453550Y-3137685D01*
X48636046Y-3235232D01*
X48834066Y-3295300D01*
X48834070Y-3295300D01*
X48834072Y-3295301D01*
X49039997Y-3315583D01*
X49040000Y-3315583D01*
X49040003Y-3315583D01*
X49245927Y-3295301D01*
X49245928Y-3295300D01*
X49245934Y-3295300D01*
X49443954Y-3235232D01*
X49626450Y-3137685D01*
X49786410Y-3006410D01*
X49917685Y-2846450D01*
X50015232Y-2663954D01*
X50075300Y-2465934D01*
X50075355Y-2465383D01*
X50095583Y-2260003D01*
X50095583Y-2259996D01*
X50524417Y-2259996D01*
X50524417Y-2260003D01*
X50544698Y-2465927D01*
X50544699Y-2465933D01*
X50544700Y-2465934D01*
X50603202Y-2658791D01*
X50604768Y-2663954D01*
X50678523Y-2801940D01*
X50702315Y-2846450D01*
X50833590Y-3006410D01*
X50993550Y-3137685D01*
X51176046Y-3235232D01*
X51374066Y-3295300D01*
X51374070Y-3295300D01*
X51374072Y-3295301D01*
X51579997Y-3315583D01*
X51580000Y-3315583D01*
X51580003Y-3315583D01*
X51785927Y-3295301D01*
X51785928Y-3295300D01*
X51785934Y-3295300D01*
X51983954Y-3235232D01*
X52166450Y-3137685D01*
X52326410Y-3006410D01*
X52457685Y-2846450D01*
X52555232Y-2663954D01*
X52615300Y-2465934D01*
X52615355Y-2465383D01*
X52635583Y-2260003D01*
X52635583Y-2259996D01*
X53064417Y-2259996D01*
X53064417Y-2260003D01*
X53084698Y-2465927D01*
X53084699Y-2465933D01*
X53084700Y-2465934D01*
X53143202Y-2658791D01*
X53144768Y-2663954D01*
X53218523Y-2801940D01*
X53242315Y-2846450D01*
X53373590Y-3006410D01*
X53533550Y-3137685D01*
X53716046Y-3235232D01*
X53914066Y-3295300D01*
X53914070Y-3295300D01*
X53914072Y-3295301D01*
X54119997Y-3315583D01*
X54120000Y-3315583D01*
X54120003Y-3315583D01*
X54325927Y-3295301D01*
X54325928Y-3295300D01*
X54325934Y-3295300D01*
X54523954Y-3235232D01*
X54706450Y-3137685D01*
X54866410Y-3006410D01*
X54997685Y-2846450D01*
X55095232Y-2663954D01*
X55155300Y-2465934D01*
X55155355Y-2465383D01*
X55175583Y-2260003D01*
X55175583Y-2259996D01*
X55604417Y-2259996D01*
X55604417Y-2260003D01*
X55624698Y-2465927D01*
X55624699Y-2465933D01*
X55624700Y-2465934D01*
X55683202Y-2658791D01*
X55684768Y-2663954D01*
X55758523Y-2801940D01*
X55782315Y-2846450D01*
X55913590Y-3006410D01*
X56073550Y-3137685D01*
X56256046Y-3235232D01*
X56454066Y-3295300D01*
X56454070Y-3295300D01*
X56454072Y-3295301D01*
X56659997Y-3315583D01*
X56660000Y-3315583D01*
X56660003Y-3315583D01*
X56865927Y-3295301D01*
X56865928Y-3295300D01*
X56865934Y-3295300D01*
X57063954Y-3235232D01*
X57246450Y-3137685D01*
X57406410Y-3006410D01*
X57537685Y-2846450D01*
X57635232Y-2663954D01*
X57695300Y-2465934D01*
X57695355Y-2465383D01*
X57715583Y-2260003D01*
X57715583Y-2259996D01*
X57695301Y-2054072D01*
X57695300Y-2054070D01*
X57695300Y-2054066D01*
X57635232Y-1856046D01*
X57537685Y-1673550D01*
X57406410Y-1513590D01*
X57246450Y-1382315D01*
X57246448Y-1382314D01*
X57246447Y-1382313D01*
X57063954Y-1284768D01*
X56865934Y-1224700D01*
X56865933Y-1224699D01*
X56865927Y-1224698D01*
X56660003Y-1204417D01*
X56659997Y-1204417D01*
X56454072Y-1224698D01*
X56256045Y-1284768D01*
X56073552Y-1382313D01*
X55913590Y-1513590D01*
X55782313Y-1673552D01*
X55684768Y-1856045D01*
X55624698Y-2054072D01*
X55604417Y-2259996D01*
X55175583Y-2259996D01*
X55155301Y-2054072D01*
X55155300Y-2054070D01*
X55155300Y-2054066D01*
X55095232Y-1856046D01*
X54997685Y-1673550D01*
X54866410Y-1513590D01*
X54706450Y-1382315D01*
X54706448Y-1382314D01*
X54706447Y-1382313D01*
X54523954Y-1284768D01*
X54325934Y-1224700D01*
X54325933Y-1224699D01*
X54325927Y-1224698D01*
X54120003Y-1204417D01*
X54119997Y-1204417D01*
X53914072Y-1224698D01*
X53716045Y-1284768D01*
X53533552Y-1382313D01*
X53373590Y-1513590D01*
X53242313Y-1673552D01*
X53144768Y-1856045D01*
X53084698Y-2054072D01*
X53064417Y-2259996D01*
X52635583Y-2259996D01*
X52615301Y-2054072D01*
X52615300Y-2054070D01*
X52615300Y-2054066D01*
X52555232Y-1856046D01*
X52457685Y-1673550D01*
X52326410Y-1513590D01*
X52166450Y-1382315D01*
X52166448Y-1382314D01*
X52166447Y-1382313D01*
X51983954Y-1284768D01*
X51785934Y-1224700D01*
X51785933Y-1224699D01*
X51785927Y-1224698D01*
X51580003Y-1204417D01*
X51579997Y-1204417D01*
X51374072Y-1224698D01*
X51176045Y-1284768D01*
X50993552Y-1382313D01*
X50833590Y-1513590D01*
X50702313Y-1673552D01*
X50604768Y-1856045D01*
X50544698Y-2054072D01*
X50524417Y-2259996D01*
X50095583Y-2259996D01*
X50075301Y-2054072D01*
X50075300Y-2054070D01*
X50075300Y-2054066D01*
X50015232Y-1856046D01*
X49917685Y-1673550D01*
X49786410Y-1513590D01*
X49626450Y-1382315D01*
X49626448Y-1382314D01*
X49626447Y-1382313D01*
X49443954Y-1284768D01*
X49245934Y-1224700D01*
X49245933Y-1224699D01*
X49245927Y-1224698D01*
X49040003Y-1204417D01*
X49039997Y-1204417D01*
X48834072Y-1224698D01*
X48636045Y-1284768D01*
X48453552Y-1382313D01*
X48293590Y-1513590D01*
X48162313Y-1673552D01*
X48064768Y-1856045D01*
X48004698Y-2054072D01*
X47984417Y-2259996D01*
X47555583Y-2259996D01*
X47535301Y-2054072D01*
X47535300Y-2054070D01*
X47535300Y-2054066D01*
X47475232Y-1856046D01*
X47377685Y-1673550D01*
X47246410Y-1513590D01*
X47086450Y-1382315D01*
X47086448Y-1382314D01*
X47086447Y-1382313D01*
X46903954Y-1284768D01*
X46705934Y-1224700D01*
X46705933Y-1224699D01*
X46705927Y-1224698D01*
X46500003Y-1204417D01*
X46499997Y-1204417D01*
X46294072Y-1224698D01*
X46096045Y-1284768D01*
X45913552Y-1382313D01*
X45753590Y-1513590D01*
X45622313Y-1673552D01*
X45524768Y-1856045D01*
X45464698Y-2054072D01*
X45444417Y-2259996D01*
X45015583Y-2259996D01*
X44995301Y-2054072D01*
X44995300Y-2054070D01*
X44995300Y-2054066D01*
X44935232Y-1856046D01*
X44837685Y-1673550D01*
X44706410Y-1513590D01*
X44546450Y-1382315D01*
X44546448Y-1382314D01*
X44546447Y-1382313D01*
X44363954Y-1284768D01*
X44165934Y-1224700D01*
X44165933Y-1224699D01*
X44165927Y-1224698D01*
X43960003Y-1204417D01*
X43959997Y-1204417D01*
X43754072Y-1224698D01*
X43556045Y-1284768D01*
X43373552Y-1382313D01*
X43213590Y-1513590D01*
X43082313Y-1673552D01*
X42984768Y-1856045D01*
X42924698Y-2054072D01*
X42904417Y-2259996D01*
X42475583Y-2259996D01*
X42455301Y-2054072D01*
X42455300Y-2054070D01*
X42455300Y-2054066D01*
X42395232Y-1856046D01*
X42297685Y-1673550D01*
X42166410Y-1513590D01*
X42006450Y-1382315D01*
X42006448Y-1382314D01*
X42006447Y-1382313D01*
X41823954Y-1284768D01*
X41625934Y-1224700D01*
X41625933Y-1224699D01*
X41625927Y-1224698D01*
X41420003Y-1204417D01*
X41419997Y-1204417D01*
X41214072Y-1224698D01*
X41016045Y-1284768D01*
X40833552Y-1382313D01*
X40673590Y-1513590D01*
X40542313Y-1673552D01*
X40444768Y-1856045D01*
X40384698Y-2054072D01*
X40364417Y-2259996D01*
X39935583Y-2259996D01*
X39915301Y-2054072D01*
X39915300Y-2054070D01*
X39915300Y-2054066D01*
X39855232Y-1856046D01*
X39757685Y-1673550D01*
X39626410Y-1513590D01*
X39466450Y-1382315D01*
X39466448Y-1382314D01*
X39466447Y-1382313D01*
X39283954Y-1284768D01*
X39085934Y-1224700D01*
X39085933Y-1224699D01*
X39085927Y-1224698D01*
X38880003Y-1204417D01*
X38879997Y-1204417D01*
X38674072Y-1224698D01*
X38476045Y-1284768D01*
X38293552Y-1382313D01*
X38133590Y-1513590D01*
X38002313Y-1673552D01*
X37904768Y-1856045D01*
X37844698Y-2054072D01*
X37824417Y-2259996D01*
X37824417Y-2260003D01*
X37844698Y-2465927D01*
X37844699Y-2465933D01*
X37844700Y-2465934D01*
X37903202Y-2658791D01*
X37904768Y-2663954D01*
X37978523Y-2801940D01*
X38002315Y-2846450D01*
X38133590Y-3006410D01*
X38293550Y-3137685D01*
X38476046Y-3235232D01*
X38674066Y-3295300D01*
X38674070Y-3295300D01*
X38674072Y-3295301D01*
X38879997Y-3315583D01*
X38880000Y-3315583D01*
X38880003Y-3315583D01*
X39085927Y-3295301D01*
X39085928Y-3295300D01*
X39085934Y-3295300D01*
X39283954Y-3235232D01*
X39283969Y-3235223D01*
X39284621Y-3234955D01*
X39285002Y-3234913D01*
X39289878Y-3233435D01*
X39290158Y-3234359D01*
X39355211Y-3227363D01*
X39418699Y-3259139D01*
X39421940Y-3262267D01*
X39592106Y-3432433D01*
X39626132Y-3494745D01*
X39629011Y-3521528D01*
X39629011Y-3798987D01*
X39609009Y-3867108D01*
X39555353Y-3913601D01*
X39485079Y-3923705D01*
X39443615Y-3910109D01*
X39283954Y-3824768D01*
X39085927Y-3764698D01*
X38880003Y-3744417D01*
X38879997Y-3744417D01*
X38674072Y-3764698D01*
X38476045Y-3824768D01*
X38293552Y-3922313D01*
X38133590Y-4053590D01*
X38002312Y-4213553D01*
X38002311Y-4213555D01*
X37977132Y-4260662D01*
X37927380Y-4311310D01*
X37858143Y-4327019D01*
X37791404Y-4302802D01*
X37748353Y-4246348D01*
X37740011Y-4201265D01*
X37740011Y-3291659D01*
X37740011Y-3291658D01*
X37717829Y-3208873D01*
X37717829Y-3208872D01*
X37715523Y-3204878D01*
X37674978Y-3134652D01*
X37674973Y-3134646D01*
X37520152Y-2979825D01*
X37342265Y-2801938D01*
X37308242Y-2739628D01*
X37313306Y-2668813D01*
X37314955Y-2664621D01*
X37315223Y-2663969D01*
X37315232Y-2663954D01*
X37375300Y-2465934D01*
X37375355Y-2465383D01*
X37395583Y-2260003D01*
X37395583Y-2259996D01*
X37375301Y-2054072D01*
X37375300Y-2054070D01*
X37375300Y-2054066D01*
X37315232Y-1856046D01*
X37217685Y-1673550D01*
X37086410Y-1513590D01*
X36926450Y-1382315D01*
X36926448Y-1382314D01*
X36926447Y-1382313D01*
X36743954Y-1284768D01*
X36545934Y-1224700D01*
X36545933Y-1224699D01*
X36545927Y-1224698D01*
X36340003Y-1204417D01*
X36339997Y-1204417D01*
X36134072Y-1224698D01*
X35936045Y-1284768D01*
X35753552Y-1382313D01*
X35593590Y-1513590D01*
X35462313Y-1673552D01*
X35364768Y-1856045D01*
X35304698Y-2054072D01*
X35284417Y-2259996D01*
X35284417Y-2260003D01*
X35304698Y-2465927D01*
X35304699Y-2465933D01*
X35304700Y-2465934D01*
X35363202Y-2658791D01*
X35364768Y-2663954D01*
X35438523Y-2801940D01*
X35462315Y-2846450D01*
X35593590Y-3006410D01*
X35753550Y-3137685D01*
X35936046Y-3235232D01*
X36134066Y-3295300D01*
X36134070Y-3295300D01*
X36134072Y-3295301D01*
X36339997Y-3315583D01*
X36340000Y-3315583D01*
X36340003Y-3315583D01*
X36545927Y-3295301D01*
X36545928Y-3295300D01*
X36545934Y-3295300D01*
X36743954Y-3235232D01*
X36743969Y-3235223D01*
X36744621Y-3234955D01*
X36745002Y-3234913D01*
X36749878Y-3233435D01*
X36750158Y-3234359D01*
X36815211Y-3227363D01*
X36878699Y-3259139D01*
X36881940Y-3262267D01*
X37052106Y-3432433D01*
X37086132Y-3494745D01*
X37089011Y-3521528D01*
X37089011Y-3798987D01*
X37069009Y-3867108D01*
X37015353Y-3913601D01*
X36945079Y-3923705D01*
X36903615Y-3910109D01*
X36743954Y-3824768D01*
X36545927Y-3764698D01*
X36340003Y-3744417D01*
X36339997Y-3744417D01*
X36134072Y-3764698D01*
X35936045Y-3824768D01*
X35776385Y-3910109D01*
X35706879Y-3924581D01*
X35640583Y-3899177D01*
X35598545Y-3841964D01*
X35590989Y-3798987D01*
X35590989Y-3682637D01*
X35588707Y-3674120D01*
X35568807Y-3599851D01*
X35568805Y-3599848D01*
X35568805Y-3599846D01*
X35525956Y-3525630D01*
X35525952Y-3525625D01*
X35496224Y-3495897D01*
X35465351Y-3465024D01*
X34802267Y-2801940D01*
X34768241Y-2739628D01*
X34773306Y-2668813D01*
X34774955Y-2664621D01*
X34775223Y-2663969D01*
X34775232Y-2663954D01*
X34835300Y-2465934D01*
X34835355Y-2465383D01*
X34855583Y-2260003D01*
X34855583Y-2259996D01*
X34835301Y-2054072D01*
X34835300Y-2054070D01*
X34835300Y-2054066D01*
X34775232Y-1856046D01*
X34677685Y-1673550D01*
X34546410Y-1513590D01*
X34386450Y-1382315D01*
X34386448Y-1382314D01*
X34386447Y-1382313D01*
X34203954Y-1284768D01*
X34005934Y-1224700D01*
X34005933Y-1224699D01*
X34005927Y-1224698D01*
X33800003Y-1204417D01*
X33799997Y-1204417D01*
X33594072Y-1224698D01*
X33396045Y-1284768D01*
X33213552Y-1382313D01*
X33053590Y-1513590D01*
X32922313Y-1673552D01*
X32824768Y-1856045D01*
X32764698Y-2054072D01*
X32744417Y-2259996D01*
X32315583Y-2259996D01*
X32295301Y-2054072D01*
X32295300Y-2054070D01*
X32295300Y-2054066D01*
X32235232Y-1856046D01*
X32137685Y-1673550D01*
X32006410Y-1513590D01*
X31846450Y-1382315D01*
X31846448Y-1382314D01*
X31846447Y-1382313D01*
X31663954Y-1284768D01*
X31465934Y-1224700D01*
X31465933Y-1224699D01*
X31465927Y-1224698D01*
X31260003Y-1204417D01*
X31259997Y-1204417D01*
X31054072Y-1224698D01*
X30856045Y-1284768D01*
X30673552Y-1382313D01*
X30513590Y-1513590D01*
X30382313Y-1673552D01*
X30284768Y-1856045D01*
X30224698Y-2054072D01*
X30204417Y-2259996D01*
X29775583Y-2259996D01*
X29755301Y-2054072D01*
X29755300Y-2054070D01*
X29755300Y-2054066D01*
X29695232Y-1856046D01*
X29597685Y-1673550D01*
X29466410Y-1513590D01*
X29306450Y-1382315D01*
X29306448Y-1382314D01*
X29306447Y-1382313D01*
X29123954Y-1284768D01*
X28925934Y-1224700D01*
X28925933Y-1224699D01*
X28925927Y-1224698D01*
X28720003Y-1204417D01*
X28719997Y-1204417D01*
X28514072Y-1224698D01*
X28316045Y-1284768D01*
X28133552Y-1382313D01*
X27973590Y-1513590D01*
X27842313Y-1673552D01*
X27744768Y-1856045D01*
X27684698Y-2054072D01*
X27664417Y-2259996D01*
X27664417Y-2260003D01*
X27684698Y-2465927D01*
X27684699Y-2465933D01*
X27684700Y-2465934D01*
X27743202Y-2658791D01*
X27744768Y-2663954D01*
X27818523Y-2801940D01*
X27842315Y-2846450D01*
X27973590Y-3006410D01*
X28133550Y-3137685D01*
X28316046Y-3235232D01*
X28356893Y-3247622D01*
X28416274Y-3286536D01*
X28445190Y-3351377D01*
X28434461Y-3421558D01*
X28387492Y-3474798D01*
X28361231Y-3487370D01*
X28172628Y-3552118D01*
X27974699Y-3659231D01*
X27974698Y-3659232D01*
X27797097Y-3797465D01*
X27644674Y-3963041D01*
X27521580Y-4151451D01*
X27431179Y-4357543D01*
X27431177Y-4357547D01*
X27411525Y-4435153D01*
X27375412Y-4496279D01*
X27311985Y-4528177D01*
X27241381Y-4520720D01*
X27186017Y-4476276D01*
X27168806Y-4440795D01*
X27167726Y-4437236D01*
X27155232Y-4396046D01*
X27057685Y-4213550D01*
X26926410Y-4053590D01*
X26766450Y-3922315D01*
X26766448Y-3922314D01*
X26766447Y-3922313D01*
X26583954Y-3824768D01*
X26385927Y-3764698D01*
X26180003Y-3744417D01*
X26179997Y-3744417D01*
X25974072Y-3764698D01*
X25776045Y-3824768D01*
X25593552Y-3922313D01*
X25433590Y-4053590D01*
X25302313Y-4213552D01*
X25204768Y-4396045D01*
X25144698Y-4594072D01*
X25124417Y-4799996D01*
X24695583Y-4799996D01*
X24675301Y-4594072D01*
X24675300Y-4594070D01*
X24675300Y-4594066D01*
X24615232Y-4396046D01*
X24517685Y-4213550D01*
X24386410Y-4053590D01*
X24226450Y-3922315D01*
X24226448Y-3922314D01*
X24226447Y-3922313D01*
X24043954Y-3824768D01*
X23845927Y-3764698D01*
X23640003Y-3744417D01*
X23639997Y-3744417D01*
X23434072Y-3764698D01*
X23236045Y-3824768D01*
X23053552Y-3922313D01*
X22893590Y-4053590D01*
X22762313Y-4213552D01*
X22664768Y-4396045D01*
X22604698Y-4594072D01*
X22584417Y-4799996D01*
X22155583Y-4799996D01*
X22135301Y-4594072D01*
X22135300Y-4594070D01*
X22135300Y-4594066D01*
X22075232Y-4396046D01*
X21977685Y-4213550D01*
X21846410Y-4053590D01*
X21686450Y-3922315D01*
X21686448Y-3922314D01*
X21686447Y-3922313D01*
X21503954Y-3824768D01*
X21305927Y-3764698D01*
X21100003Y-3744417D01*
X21099997Y-3744417D01*
X20894072Y-3764698D01*
X20696045Y-3824768D01*
X20513552Y-3922313D01*
X20353590Y-4053590D01*
X20222313Y-4213552D01*
X20124768Y-4396045D01*
X20064698Y-4594072D01*
X20044417Y-4799996D01*
X19615583Y-4799996D01*
X19595301Y-4594072D01*
X19595300Y-4594070D01*
X19595300Y-4594066D01*
X19535232Y-4396046D01*
X19437685Y-4213550D01*
X19306410Y-4053590D01*
X19146450Y-3922315D01*
X19146448Y-3922314D01*
X19146447Y-3922313D01*
X18963954Y-3824768D01*
X18765927Y-3764698D01*
X18560003Y-3744417D01*
X18559997Y-3744417D01*
X18354072Y-3764698D01*
X18156045Y-3824768D01*
X17973552Y-3922313D01*
X17813590Y-4053590D01*
X17682313Y-4213552D01*
X17584768Y-4396045D01*
X17524698Y-4594072D01*
X17504417Y-4799996D01*
X17075583Y-4799996D01*
X17055301Y-4594072D01*
X17055300Y-4594070D01*
X17055300Y-4594066D01*
X16995232Y-4396046D01*
X16897685Y-4213550D01*
X16766410Y-4053590D01*
X16606450Y-3922315D01*
X16606448Y-3922314D01*
X16606447Y-3922313D01*
X16423954Y-3824768D01*
X16225927Y-3764698D01*
X16020003Y-3744417D01*
X16019997Y-3744417D01*
X15814072Y-3764698D01*
X15616045Y-3824768D01*
X15433552Y-3922313D01*
X15273590Y-4053590D01*
X15142313Y-4213552D01*
X15044768Y-4396045D01*
X14984698Y-4594072D01*
X14964417Y-4799996D01*
X14535583Y-4799996D01*
X14515301Y-4594072D01*
X14515300Y-4594070D01*
X14515300Y-4594066D01*
X14455232Y-4396046D01*
X14357685Y-4213550D01*
X14226410Y-4053590D01*
X14066450Y-3922315D01*
X14066448Y-3922314D01*
X14066447Y-3922313D01*
X13883954Y-3824768D01*
X13685927Y-3764698D01*
X13480003Y-3744417D01*
X13479997Y-3744417D01*
X13274072Y-3764698D01*
X13076045Y-3824768D01*
X12893552Y-3922313D01*
X12733589Y-4053590D01*
X12713410Y-4078179D01*
X12654733Y-4118148D01*
X12583762Y-4120048D01*
X12523029Y-4083277D01*
X12491818Y-4019509D01*
X12490011Y-3998245D01*
X12490011Y-3356784D01*
X12490010Y-3356782D01*
X12482836Y-3330010D01*
X12478971Y-3315583D01*
X12473537Y-3295301D01*
X12462720Y-3254930D01*
X12462719Y-3254928D01*
X12462718Y-3254923D01*
X12424934Y-3189479D01*
X12409993Y-3163601D01*
X12409988Y-3163595D01*
X12226218Y-2979825D01*
X11967494Y-2721101D01*
X11933471Y-2658791D01*
X11936016Y-2595434D01*
X11975300Y-2465934D01*
X11975300Y-2465932D01*
X11975301Y-2465930D01*
X11995583Y-2260003D01*
X11995583Y-2259996D01*
X12424417Y-2259996D01*
X12424417Y-2260003D01*
X12444698Y-2465927D01*
X12444699Y-2465933D01*
X12444700Y-2465934D01*
X12503202Y-2658791D01*
X12504768Y-2663954D01*
X12578523Y-2801940D01*
X12602315Y-2846450D01*
X12733590Y-3006410D01*
X12893550Y-3137685D01*
X13076046Y-3235232D01*
X13274066Y-3295300D01*
X13274070Y-3295300D01*
X13274072Y-3295301D01*
X13479997Y-3315583D01*
X13480000Y-3315583D01*
X13480003Y-3315583D01*
X13685927Y-3295301D01*
X13685928Y-3295300D01*
X13685934Y-3295300D01*
X13883954Y-3235232D01*
X14066450Y-3137685D01*
X14226410Y-3006410D01*
X14357685Y-2846450D01*
X14455232Y-2663954D01*
X14515300Y-2465934D01*
X14515355Y-2465383D01*
X14535583Y-2260003D01*
X14535583Y-2259996D01*
X14964417Y-2259996D01*
X14964417Y-2260003D01*
X14984698Y-2465927D01*
X14984699Y-2465933D01*
X14984700Y-2465934D01*
X15043202Y-2658791D01*
X15044768Y-2663954D01*
X15118523Y-2801940D01*
X15142315Y-2846450D01*
X15273590Y-3006410D01*
X15433550Y-3137685D01*
X15616046Y-3235232D01*
X15814066Y-3295300D01*
X15814070Y-3295300D01*
X15814072Y-3295301D01*
X16019997Y-3315583D01*
X16020000Y-3315583D01*
X16020003Y-3315583D01*
X16225927Y-3295301D01*
X16225928Y-3295300D01*
X16225934Y-3295300D01*
X16423954Y-3235232D01*
X16606450Y-3137685D01*
X16766410Y-3006410D01*
X16897685Y-2846450D01*
X16995232Y-2663954D01*
X17055300Y-2465934D01*
X17055355Y-2465383D01*
X17075583Y-2260003D01*
X17075583Y-2259996D01*
X17504417Y-2259996D01*
X17504417Y-2260003D01*
X17524698Y-2465927D01*
X17524699Y-2465933D01*
X17524700Y-2465934D01*
X17583202Y-2658791D01*
X17584768Y-2663954D01*
X17658523Y-2801940D01*
X17682315Y-2846450D01*
X17813590Y-3006410D01*
X17973550Y-3137685D01*
X18156046Y-3235232D01*
X18354066Y-3295300D01*
X18354070Y-3295300D01*
X18354072Y-3295301D01*
X18559997Y-3315583D01*
X18560000Y-3315583D01*
X18560003Y-3315583D01*
X18765927Y-3295301D01*
X18765928Y-3295300D01*
X18765934Y-3295300D01*
X18963954Y-3235232D01*
X19146450Y-3137685D01*
X19306410Y-3006410D01*
X19437685Y-2846450D01*
X19535232Y-2663954D01*
X19595300Y-2465934D01*
X19595355Y-2465383D01*
X19615583Y-2260003D01*
X19615583Y-2259996D01*
X20044417Y-2259996D01*
X20044417Y-2260003D01*
X20064698Y-2465927D01*
X20064699Y-2465933D01*
X20064700Y-2465934D01*
X20123202Y-2658791D01*
X20124768Y-2663954D01*
X20198523Y-2801940D01*
X20222315Y-2846450D01*
X20353590Y-3006410D01*
X20513550Y-3137685D01*
X20696046Y-3235232D01*
X20894066Y-3295300D01*
X20894070Y-3295300D01*
X20894072Y-3295301D01*
X21099997Y-3315583D01*
X21100000Y-3315583D01*
X21100003Y-3315583D01*
X21305927Y-3295301D01*
X21305928Y-3295300D01*
X21305934Y-3295300D01*
X21503954Y-3235232D01*
X21686450Y-3137685D01*
X21846410Y-3006410D01*
X21977685Y-2846450D01*
X22075232Y-2663954D01*
X22135300Y-2465934D01*
X22135355Y-2465383D01*
X22155583Y-2260003D01*
X22155583Y-2259996D01*
X22584417Y-2259996D01*
X22584417Y-2260003D01*
X22604698Y-2465927D01*
X22604699Y-2465933D01*
X22604700Y-2465934D01*
X22663202Y-2658791D01*
X22664768Y-2663954D01*
X22738523Y-2801940D01*
X22762315Y-2846450D01*
X22893590Y-3006410D01*
X23053550Y-3137685D01*
X23236046Y-3235232D01*
X23434066Y-3295300D01*
X23434070Y-3295300D01*
X23434072Y-3295301D01*
X23639997Y-3315583D01*
X23640000Y-3315583D01*
X23640003Y-3315583D01*
X23845927Y-3295301D01*
X23845928Y-3295300D01*
X23845934Y-3295300D01*
X24043954Y-3235232D01*
X24226450Y-3137685D01*
X24386410Y-3006410D01*
X24517685Y-2846450D01*
X24615232Y-2663954D01*
X24675300Y-2465934D01*
X24675355Y-2465383D01*
X24695583Y-2260003D01*
X24695583Y-2259996D01*
X25124417Y-2259996D01*
X25124417Y-2260003D01*
X25144698Y-2465927D01*
X25144699Y-2465933D01*
X25144700Y-2465934D01*
X25203202Y-2658791D01*
X25204768Y-2663954D01*
X25278523Y-2801940D01*
X25302315Y-2846450D01*
X25433590Y-3006410D01*
X25593550Y-3137685D01*
X25776046Y-3235232D01*
X25974066Y-3295300D01*
X25974070Y-3295300D01*
X25974072Y-3295301D01*
X26179997Y-3315583D01*
X26180000Y-3315583D01*
X26180003Y-3315583D01*
X26385927Y-3295301D01*
X26385928Y-3295300D01*
X26385934Y-3295300D01*
X26583954Y-3235232D01*
X26766450Y-3137685D01*
X26926410Y-3006410D01*
X27057685Y-2846450D01*
X27155232Y-2663954D01*
X27215300Y-2465934D01*
X27215355Y-2465383D01*
X27235583Y-2260003D01*
X27235583Y-2259996D01*
X27215301Y-2054072D01*
X27215300Y-2054070D01*
X27215300Y-2054066D01*
X27155232Y-1856046D01*
X27057685Y-1673550D01*
X26926410Y-1513590D01*
X26766450Y-1382315D01*
X26766448Y-1382314D01*
X26766447Y-1382313D01*
X26583954Y-1284768D01*
X26385934Y-1224700D01*
X26385933Y-1224699D01*
X26385927Y-1224698D01*
X26180003Y-1204417D01*
X26179997Y-1204417D01*
X25974072Y-1224698D01*
X25776045Y-1284768D01*
X25593552Y-1382313D01*
X25433590Y-1513590D01*
X25302313Y-1673552D01*
X25204768Y-1856045D01*
X25144698Y-2054072D01*
X25124417Y-2259996D01*
X24695583Y-2259996D01*
X24675301Y-2054072D01*
X24675300Y-2054070D01*
X24675300Y-2054066D01*
X24615232Y-1856046D01*
X24517685Y-1673550D01*
X24386410Y-1513590D01*
X24226450Y-1382315D01*
X24226448Y-1382314D01*
X24226447Y-1382313D01*
X24043954Y-1284768D01*
X23845934Y-1224700D01*
X23845933Y-1224699D01*
X23845927Y-1224698D01*
X23640003Y-1204417D01*
X23639997Y-1204417D01*
X23434072Y-1224698D01*
X23236045Y-1284768D01*
X23053552Y-1382313D01*
X22893590Y-1513590D01*
X22762313Y-1673552D01*
X22664768Y-1856045D01*
X22604698Y-2054072D01*
X22584417Y-2259996D01*
X22155583Y-2259996D01*
X22135301Y-2054072D01*
X22135300Y-2054070D01*
X22135300Y-2054066D01*
X22075232Y-1856046D01*
X21977685Y-1673550D01*
X21846410Y-1513590D01*
X21686450Y-1382315D01*
X21686448Y-1382314D01*
X21686447Y-1382313D01*
X21503954Y-1284768D01*
X21305934Y-1224700D01*
X21305933Y-1224699D01*
X21305927Y-1224698D01*
X21100003Y-1204417D01*
X21099997Y-1204417D01*
X20894072Y-1224698D01*
X20696045Y-1284768D01*
X20513552Y-1382313D01*
X20353590Y-1513590D01*
X20222313Y-1673552D01*
X20124768Y-1856045D01*
X20064698Y-2054072D01*
X20044417Y-2259996D01*
X19615583Y-2259996D01*
X19595301Y-2054072D01*
X19595300Y-2054070D01*
X19595300Y-2054066D01*
X19535232Y-1856046D01*
X19437685Y-1673550D01*
X19306410Y-1513590D01*
X19146450Y-1382315D01*
X19146448Y-1382314D01*
X19146447Y-1382313D01*
X18963954Y-1284768D01*
X18765934Y-1224700D01*
X18765933Y-1224699D01*
X18765927Y-1224698D01*
X18560003Y-1204417D01*
X18559997Y-1204417D01*
X18354072Y-1224698D01*
X18156045Y-1284768D01*
X17973552Y-1382313D01*
X17813590Y-1513590D01*
X17682313Y-1673552D01*
X17584768Y-1856045D01*
X17524698Y-2054072D01*
X17504417Y-2259996D01*
X17075583Y-2259996D01*
X17055301Y-2054072D01*
X17055300Y-2054070D01*
X17055300Y-2054066D01*
X16995232Y-1856046D01*
X16897685Y-1673550D01*
X16766410Y-1513590D01*
X16606450Y-1382315D01*
X16606448Y-1382314D01*
X16606447Y-1382313D01*
X16423954Y-1284768D01*
X16225934Y-1224700D01*
X16225933Y-1224699D01*
X16225927Y-1224698D01*
X16020003Y-1204417D01*
X16019997Y-1204417D01*
X15814072Y-1224698D01*
X15616045Y-1284768D01*
X15433552Y-1382313D01*
X15273590Y-1513590D01*
X15142313Y-1673552D01*
X15044768Y-1856045D01*
X14984698Y-2054072D01*
X14964417Y-2259996D01*
X14535583Y-2259996D01*
X14515301Y-2054072D01*
X14515300Y-2054070D01*
X14515300Y-2054066D01*
X14455232Y-1856046D01*
X14357685Y-1673550D01*
X14226410Y-1513590D01*
X14066450Y-1382315D01*
X14066448Y-1382314D01*
X14066447Y-1382313D01*
X13883954Y-1284768D01*
X13685934Y-1224700D01*
X13685933Y-1224699D01*
X13685927Y-1224698D01*
X13480003Y-1204417D01*
X13479997Y-1204417D01*
X13274072Y-1224698D01*
X13076045Y-1284768D01*
X12893552Y-1382313D01*
X12733590Y-1513590D01*
X12602313Y-1673552D01*
X12504768Y-1856045D01*
X12444698Y-2054072D01*
X12424417Y-2259996D01*
X11995583Y-2259996D01*
X11975301Y-2054072D01*
X11975300Y-2054070D01*
X11975300Y-2054066D01*
X11915232Y-1856046D01*
X11817685Y-1673550D01*
X11686410Y-1513590D01*
X11526450Y-1382315D01*
X11526448Y-1382314D01*
X11526447Y-1382313D01*
X11343954Y-1284768D01*
X11145934Y-1224700D01*
X11145933Y-1224699D01*
X11145927Y-1224698D01*
X10940003Y-1204417D01*
X10939997Y-1204417D01*
X10734072Y-1224698D01*
X10536045Y-1284768D01*
X10353552Y-1382313D01*
X10193590Y-1513590D01*
X10062313Y-1673552D01*
X9964768Y-1856045D01*
X9904698Y-2054072D01*
X9884417Y-2259996D01*
X9884417Y-2260003D01*
X9904698Y-2465927D01*
X9904699Y-2465933D01*
X9904700Y-2465934D01*
X9963202Y-2658791D01*
X9964768Y-2663954D01*
X10038523Y-2801940D01*
X10062315Y-2846450D01*
X10193590Y-3006410D01*
X10353550Y-3137685D01*
X10536046Y-3235232D01*
X10734066Y-3295300D01*
X10734070Y-3295300D01*
X10734072Y-3295301D01*
X10939997Y-3315583D01*
X10940000Y-3315583D01*
X10940003Y-3315583D01*
X11145930Y-3295301D01*
X11145932Y-3295300D01*
X11145934Y-3295300D01*
X11275434Y-3256016D01*
X11346426Y-3255383D01*
X11401103Y-3287496D01*
X11652106Y-3538499D01*
X11686132Y-3600811D01*
X11689011Y-3627594D01*
X11689011Y-3798987D01*
X11669009Y-3867108D01*
X11615353Y-3913601D01*
X11545079Y-3923705D01*
X11503615Y-3910109D01*
X11343954Y-3824768D01*
X11145927Y-3764698D01*
X10940003Y-3744417D01*
X10939997Y-3744417D01*
X10734072Y-3764698D01*
X10536045Y-3824768D01*
X10376385Y-3910109D01*
X10306879Y-3924581D01*
X10240583Y-3899177D01*
X10198545Y-3841964D01*
X10190989Y-3798987D01*
X10190989Y-3597763D01*
X10184998Y-3575404D01*
X10163696Y-3495902D01*
X10163694Y-3495899D01*
X10163694Y-3495897D01*
X10110971Y-3404579D01*
X10110967Y-3404574D01*
X10086881Y-3380488D01*
X10036402Y-3330009D01*
X9427496Y-2721103D01*
X9393470Y-2658791D01*
X9396016Y-2595434D01*
X9435300Y-2465934D01*
X9435300Y-2465932D01*
X9435301Y-2465930D01*
X9455583Y-2260003D01*
X9455583Y-2259996D01*
X9435301Y-2054072D01*
X9435300Y-2054070D01*
X9435300Y-2054066D01*
X9375232Y-1856046D01*
X9277685Y-1673550D01*
X9146410Y-1513590D01*
X8986450Y-1382315D01*
X8986448Y-1382314D01*
X8986447Y-1382313D01*
X8803954Y-1284768D01*
X8605934Y-1224700D01*
X8605933Y-1224699D01*
X8605927Y-1224698D01*
X8400003Y-1204417D01*
X8399997Y-1204417D01*
X8194072Y-1224698D01*
X7996045Y-1284768D01*
X7813552Y-1382313D01*
X7653590Y-1513590D01*
X7522313Y-1673552D01*
X7424768Y-1856045D01*
X7364698Y-2054072D01*
X7344417Y-2259996D01*
X7344417Y-2260003D01*
X7364698Y-2465927D01*
X7364699Y-2465933D01*
X7364700Y-2465934D01*
X7423202Y-2658791D01*
X7424768Y-2663954D01*
X7498523Y-2801940D01*
X7522315Y-2846450D01*
X7653590Y-3006410D01*
X7813550Y-3137685D01*
X7939260Y-3204878D01*
X7989907Y-3254631D01*
X8005616Y-3323867D01*
X7981400Y-3390606D01*
X7924946Y-3433658D01*
X7879862Y-3442000D01*
X7501402Y-3442000D01*
X7440906Y-3448505D01*
X7304035Y-3499555D01*
X7304034Y-3499555D01*
X7187095Y-3587095D01*
X7099555Y-3704034D01*
X7099555Y-3704035D01*
X7048505Y-3840906D01*
X7042000Y-3901402D01*
X6574891Y-3901402D01*
X6597129Y-3704035D01*
X6600500Y-3674121D01*
X6600500Y-3325878D01*
X6585129Y-3189462D01*
X6561509Y-2979829D01*
X6484018Y-2640319D01*
X6468311Y-2595432D01*
X6369008Y-2311638D01*
X6369007Y-2311637D01*
X6369002Y-2311621D01*
X6217906Y-1997867D01*
X6217905Y-1997866D01*
X6217904Y-1997863D01*
X6217903Y-1997862D01*
X6165378Y-1914270D01*
X6032630Y-1703003D01*
X6009144Y-1673552D01*
X5815510Y-1430740D01*
X5569259Y-1184489D01*
X5297004Y-967375D01*
X5297000Y-967372D01*
X5002137Y-782096D01*
X5002128Y-782091D01*
X4688388Y-631002D01*
X4688383Y-631000D01*
X4688379Y-630998D01*
X4688373Y-630995D01*
X4688361Y-630991D01*
X4359687Y-515983D01*
X4020174Y-438491D01*
X3674122Y-399500D01*
X3674120Y-399500D01*
X3325880Y-399500D01*
X3325878Y-399500D01*
X2979825Y-438491D01*
X2640312Y-515983D01*
X2311638Y-630991D01*
X2311611Y-631002D01*
X1997871Y-782091D01*
X1997862Y-782096D01*
X1702999Y-967372D01*
X1702995Y-967375D01*
X1430740Y-1184489D01*
X1184489Y-1430740D01*
X967375Y-1702995D01*
X967372Y-1702999D01*
X782096Y-1997862D01*
X782096Y-1997863D01*
X631002Y-2311611D01*
X630991Y-2311638D01*
X515983Y-2640312D01*
X438491Y-2979825D01*
X399500Y-3325878D01*
X25500Y-3325878D01*
X25500Y-3003293D01*
X25673Y-2996699D01*
X39146Y-2739628D01*
X41449Y-2695678D01*
X42827Y-2682563D01*
X45775Y-2663954D01*
X89467Y-2388084D01*
X92209Y-2375188D01*
X109242Y-2311621D01*
X169376Y-2087195D01*
X173445Y-2074672D01*
X280295Y-1796319D01*
X285656Y-1784280D01*
X295425Y-1765107D01*
X421014Y-1518623D01*
X427596Y-1507222D01*
X589994Y-1257151D01*
X597725Y-1246512D01*
X785369Y-1014790D01*
X794175Y-1005011D01*
X1005011Y-794175D01*
X1014790Y-785369D01*
X1246512Y-597725D01*
X1257151Y-589994D01*
X1507222Y-427596D01*
X1518623Y-421014D01*
X1784280Y-285655D01*
X1796319Y-280295D01*
X2074672Y-173445D01*
X2087195Y-169376D01*
X2375192Y-92208D01*
X2388084Y-89467D01*
X2682566Y-42826D01*
X2695678Y-41449D01*
X2996699Y-25672D01*
X3003293Y-25500D01*
X3008285Y-25500D01*
X81991715Y-25500D01*
X81996707Y-25500D01*
X82003300Y-25672D01*
G37*
G04 #@! TD.AperFunction*
D24*
X62870328Y-26500000D02*
G75*
G02*
X60129672Y-26500000I-1370328J0D01*
G01*
X60129672Y-26500000D02*
G75*
G02*
X62870328Y-26500000I1370328J0D01*
G01*
X82000000Y0D02*
G75*
G02*
X85000000Y-3000000I0J-3000000D01*
G01*
X85000000Y-53000000D02*
G75*
G02*
X82000000Y-56000000I-3000000J0D01*
G01*
X3000000Y-56000000D02*
G75*
G02*
X0Y-53000000I0J3000000D01*
G01*
X0Y-3000000D02*
G75*
G02*
X3000000Y0I3000000J0D01*
G01*
X0Y-53000000D02*
X0Y-3000000D01*
X82000000Y-56000000D02*
X3000000Y-56000000D01*
X85000000Y-3000000D02*
X85000000Y-53000000D01*
X3000000Y0D02*
X82000000Y0D01*
X62870328Y-3500000D02*
G75*
G02*
X60129672Y-3500000I-1370328J0D01*
G01*
X60129672Y-3500000D02*
G75*
G02*
X62870328Y-3500000I1370328J0D01*
G01*
X4870328Y-26500000D02*
G75*
G02*
X2129672Y-26500000I-1370328J0D01*
G01*
X2129672Y-26500000D02*
G75*
G02*
X4870328Y-26500000I1370328J0D01*
G01*
X4870328Y-3500000D02*
G75*
G02*
X2129672Y-3500000I-1370328J0D01*
G01*
X2129672Y-3500000D02*
G75*
G02*
X4870328Y-3500000I1370328J0D01*
G01*
M02*
