G04 #@! TF.GenerationSoftware,KiCad,Pcbnew,8.0.3*
G04 #@! TF.CreationDate,2024-07-26T16:49:23+02:00*
G04 #@! TF.ProjectId,ice4pi,69636534-7069-42e6-9b69-6361645f7063,rev?*
G04 #@! TF.SameCoordinates,PX2faf080PY2ebae40*
G04 #@! TF.FileFunction,Copper,L2,Inr*
G04 #@! TF.FilePolarity,Positive*
%FSLAX46Y46*%
G04 Gerber Fmt 4.6, Leading zero omitted, Abs format (unit mm)*
G04 Created by KiCad (PCBNEW 8.0.3) date 2024-07-26 16:49:23*
%MOMM*%
%LPD*%
G01*
G04 APERTURE LIST*
G04 #@! TA.AperFunction,ComponentPad*
%ADD10O,1.000000X2.100000*%
G04 #@! TD*
G04 #@! TA.AperFunction,ComponentPad*
%ADD11O,1.000000X1.800000*%
G04 #@! TD*
G04 #@! TA.AperFunction,ComponentPad*
%ADD12R,1.800000X1.800000*%
G04 #@! TD*
G04 #@! TA.AperFunction,ComponentPad*
%ADD13C,1.800000*%
G04 #@! TD*
G04 #@! TA.AperFunction,ComponentPad*
%ADD14C,2.000000*%
G04 #@! TD*
G04 #@! TA.AperFunction,ComponentPad*
%ADD15C,3.000000*%
G04 #@! TD*
G04 #@! TA.AperFunction,ComponentPad*
%ADD16R,1.700000X1.700000*%
G04 #@! TD*
G04 #@! TA.AperFunction,ComponentPad*
%ADD17O,1.700000X1.700000*%
G04 #@! TD*
G04 #@! TA.AperFunction,ViaPad*
%ADD18C,0.800000*%
G04 #@! TD*
G04 #@! TA.AperFunction,Conductor*
%ADD19C,1.000000*%
G04 #@! TD*
G04 #@! TA.AperFunction,Profile*
%ADD20C,0.050000*%
G04 #@! TD*
G04 APERTURE END LIST*
D10*
X6880000Y-50395000D03*
D11*
X6880000Y-54575000D03*
D10*
X15520000Y-50395000D03*
D11*
X15520000Y-54575000D03*
D12*
X67960000Y-15965000D03*
D13*
X70500000Y-14695000D03*
X67960000Y-13425000D03*
X70500000Y-12155000D03*
X67960000Y-10885000D03*
X70500000Y-9615000D03*
X67960000Y-8345000D03*
X67960000Y-5805000D03*
X70500000Y-4535000D03*
D14*
X80910000Y-16885000D03*
X80910000Y-14345000D03*
X80910000Y-6165000D03*
X80910000Y-3625000D03*
D15*
X73800000Y-18005000D03*
X73800000Y-2505000D03*
D16*
X70160000Y-53770000D03*
D17*
X70160000Y-51230000D03*
X72700000Y-53770000D03*
X72700000Y-51230000D03*
X75240000Y-53770000D03*
X75240000Y-51230000D03*
D16*
X8400000Y-4800000D03*
D17*
X8400000Y-2260000D03*
X10940000Y-4800000D03*
X10940000Y-2260000D03*
X13480000Y-4800000D03*
X13480000Y-2260000D03*
X16020000Y-4800000D03*
X16020000Y-2260000D03*
X18560000Y-4800000D03*
X18560000Y-2260000D03*
X21100000Y-4800000D03*
X21100000Y-2260000D03*
X23640000Y-4800000D03*
X23640000Y-2260000D03*
X26180000Y-4800000D03*
X26180000Y-2260000D03*
X28720000Y-4800000D03*
X28720000Y-2260000D03*
X31260000Y-4800000D03*
X31260000Y-2260000D03*
X33800000Y-4800000D03*
X33800000Y-2260000D03*
X36340000Y-4800000D03*
X36340000Y-2260000D03*
X38880000Y-4800000D03*
X38880000Y-2260000D03*
X41420000Y-4800000D03*
X41420000Y-2260000D03*
X43960000Y-4800000D03*
X43960000Y-2260000D03*
X46500000Y-4800000D03*
X46500000Y-2260000D03*
X49040000Y-4800000D03*
X49040000Y-2260000D03*
X51580000Y-4800000D03*
X51580000Y-2260000D03*
X54120000Y-4800000D03*
X54120000Y-2260000D03*
X56660000Y-4800000D03*
X56660000Y-2260000D03*
D18*
X23800000Y-48000000D03*
X23800000Y-40000000D03*
X41400000Y-48000000D03*
X47000000Y-48000000D03*
X47000000Y-40000000D03*
X55500000Y-41000000D03*
X53250000Y-43500000D03*
X57500000Y-48500000D03*
X44958000Y-14655800D03*
X63900000Y-38700000D03*
X43713400Y-15951200D03*
X46253400Y-13385800D03*
X61569600Y-39954200D03*
X65700000Y-37900000D03*
X42341800Y-17246600D03*
X79100000Y-43400000D03*
X74500000Y-36900000D03*
X74500000Y-40500000D03*
X74500000Y-34900000D03*
X81800000Y-40900000D03*
X78221383Y-25207111D03*
X29400000Y-44000000D03*
X13600000Y-48300000D03*
X8800000Y-48400000D03*
X67400000Y-37000000D03*
X55000000Y-23700000D03*
X55000000Y-31200000D03*
X36300000Y-14200000D03*
X36300000Y-20000000D03*
X39000000Y-17400000D03*
X64800000Y-29700000D03*
X69000000Y-21000000D03*
X69000000Y-19000000D03*
X69500000Y-18000000D03*
X72800000Y-22800000D03*
X74300000Y-22800000D03*
X71328724Y-18671276D03*
X82200000Y-36300000D03*
X82200000Y-23900000D03*
X80200000Y-23900000D03*
X80200000Y-35600000D03*
X65800000Y-40800000D03*
X78000000Y-46800000D03*
X41400000Y-40000000D03*
X49250000Y-24250000D03*
X54000000Y-19500000D03*
X52500000Y-19000000D03*
X48500000Y-27500000D03*
X52500000Y-19000000D03*
X69010001Y-28000000D03*
X66190000Y-28000000D03*
X78221383Y-22407111D03*
D19*
X49250000Y-24250000D02*
X49150000Y-24250000D01*
X49150000Y-24250000D02*
X41400000Y-32000000D01*
X41400000Y-32000000D02*
X41400000Y-40000000D01*
X41400000Y-40000000D02*
X41400000Y-48000000D01*
X47000000Y-29000000D02*
X48500000Y-27500000D01*
X47000000Y-35000000D02*
X47000000Y-29000000D01*
X55500000Y-41000000D02*
X53000000Y-41000000D01*
X53000000Y-41000000D02*
X47000000Y-35000000D01*
G04 #@! TA.AperFunction,Conductor*
G36*
X82003300Y-25672D02*
G01*
X82304319Y-41449D01*
X82317436Y-42827D01*
X82611911Y-89467D01*
X82624811Y-92209D01*
X82912799Y-169374D01*
X82925332Y-173447D01*
X83203672Y-280292D01*
X83215719Y-285656D01*
X83481368Y-421010D01*
X83492785Y-427601D01*
X83742838Y-589988D01*
X83753495Y-597732D01*
X83901966Y-717961D01*
X83985197Y-785360D01*
X83994998Y-794185D01*
X84205814Y-1005001D01*
X84214639Y-1014802D01*
X84402263Y-1246498D01*
X84410013Y-1257164D01*
X84541241Y-1459237D01*
X84572394Y-1507208D01*
X84578989Y-1518631D01*
X84714343Y-1784280D01*
X84719707Y-1796327D01*
X84826550Y-2074661D01*
X84830626Y-2087205D01*
X84907790Y-2375188D01*
X84910532Y-2388088D01*
X84957172Y-2682563D01*
X84958550Y-2695679D01*
X84972451Y-2960898D01*
X84974136Y-2993064D01*
X84974327Y-2996698D01*
X84974500Y-3003293D01*
X84974500Y-52996706D01*
X84974327Y-53003301D01*
X84958550Y-53304320D01*
X84957172Y-53317436D01*
X84910532Y-53611911D01*
X84907790Y-53624811D01*
X84830626Y-53912794D01*
X84826550Y-53925338D01*
X84719707Y-54203672D01*
X84714343Y-54215719D01*
X84578989Y-54481368D01*
X84572394Y-54492791D01*
X84410015Y-54742832D01*
X84402263Y-54753501D01*
X84214639Y-54985197D01*
X84205814Y-54994998D01*
X83994998Y-55205814D01*
X83985197Y-55214639D01*
X83753501Y-55402263D01*
X83742832Y-55410015D01*
X83492791Y-55572394D01*
X83481368Y-55578989D01*
X83215719Y-55714343D01*
X83203672Y-55719707D01*
X82925338Y-55826550D01*
X82912794Y-55830626D01*
X82624811Y-55907790D01*
X82611911Y-55910532D01*
X82317436Y-55957172D01*
X82304320Y-55958550D01*
X82020488Y-55973426D01*
X82003299Y-55974327D01*
X81996707Y-55974500D01*
X16250217Y-55974500D01*
X16182096Y-55954498D01*
X16135603Y-55900842D01*
X16125499Y-55830568D01*
X16154993Y-55765988D01*
X16161122Y-55759405D01*
X16302962Y-55617564D01*
X16302967Y-55617557D01*
X16413277Y-55452466D01*
X16489260Y-55269028D01*
X16489262Y-55269023D01*
X16527999Y-55074281D01*
X16528000Y-55074277D01*
X16528000Y-54829000D01*
X15820000Y-54829000D01*
X15820000Y-54321000D01*
X16528000Y-54321000D01*
X16528000Y-54075722D01*
X16527999Y-54075718D01*
X16489262Y-53880976D01*
X16489260Y-53880971D01*
X16413277Y-53697533D01*
X16302967Y-53532442D01*
X16302962Y-53532435D01*
X16162564Y-53392037D01*
X16162557Y-53392032D01*
X15997467Y-53281722D01*
X15814020Y-53205736D01*
X15814015Y-53205735D01*
X15774000Y-53197774D01*
X15774000Y-54014939D01*
X15760060Y-53990795D01*
X15704205Y-53934940D01*
X15635796Y-53895444D01*
X15559496Y-53875000D01*
X15480504Y-53875000D01*
X15404204Y-53895444D01*
X15335795Y-53934940D01*
X15279940Y-53990795D01*
X15266000Y-54014939D01*
X15266000Y-53197775D01*
X15265999Y-53197774D01*
X15225984Y-53205735D01*
X15225979Y-53205736D01*
X15042532Y-53281722D01*
X14877442Y-53392032D01*
X14877435Y-53392037D01*
X14737037Y-53532435D01*
X14737032Y-53532442D01*
X14626722Y-53697533D01*
X14550739Y-53880971D01*
X14550737Y-53880976D01*
X14512000Y-54075718D01*
X14512000Y-54321000D01*
X15220000Y-54321000D01*
X15220000Y-54829000D01*
X14512000Y-54829000D01*
X14512000Y-55074281D01*
X14550737Y-55269023D01*
X14550739Y-55269028D01*
X14626722Y-55452466D01*
X14737032Y-55617557D01*
X14737037Y-55617564D01*
X14878878Y-55759405D01*
X14912904Y-55821717D01*
X14907839Y-55892532D01*
X14865292Y-55949368D01*
X14798772Y-55974179D01*
X14789783Y-55974500D01*
X7610217Y-55974500D01*
X7542096Y-55954498D01*
X7495603Y-55900842D01*
X7485499Y-55830568D01*
X7514993Y-55765988D01*
X7521122Y-55759405D01*
X7662962Y-55617564D01*
X7662967Y-55617557D01*
X7773277Y-55452466D01*
X7849260Y-55269028D01*
X7849262Y-55269023D01*
X7887999Y-55074281D01*
X7888000Y-55074277D01*
X7888000Y-54829000D01*
X7180000Y-54829000D01*
X7180000Y-54321000D01*
X7888000Y-54321000D01*
X7888000Y-54075722D01*
X7887999Y-54075718D01*
X7849262Y-53880976D01*
X7849260Y-53880971D01*
X7773277Y-53697533D01*
X7662967Y-53532442D01*
X7662962Y-53532435D01*
X7522564Y-53392037D01*
X7522557Y-53392032D01*
X7357467Y-53281722D01*
X7174020Y-53205736D01*
X7174015Y-53205735D01*
X7134000Y-53197774D01*
X7134000Y-54014939D01*
X7120060Y-53990795D01*
X7064205Y-53934940D01*
X6995796Y-53895444D01*
X6919496Y-53875000D01*
X6840504Y-53875000D01*
X6764204Y-53895444D01*
X6695795Y-53934940D01*
X6639940Y-53990795D01*
X6626000Y-54014939D01*
X6626000Y-53197775D01*
X6597793Y-53174627D01*
X6557824Y-53115950D01*
X6554886Y-53049187D01*
X6561509Y-53020171D01*
X6600500Y-52674120D01*
X6600500Y-52325880D01*
X6600500Y-52325878D01*
X58399500Y-52325878D01*
X58399500Y-52674121D01*
X58438491Y-53020174D01*
X58461552Y-53121209D01*
X58515982Y-53359681D01*
X58515984Y-53359687D01*
X58515983Y-53359687D01*
X58630991Y-53688361D01*
X58631002Y-53688388D01*
X58782091Y-54002128D01*
X58782096Y-54002137D01*
X58967372Y-54297000D01*
X58967375Y-54297004D01*
X59184489Y-54569259D01*
X59430740Y-54815510D01*
X59702995Y-55032624D01*
X59703003Y-55032630D01*
X59904445Y-55159205D01*
X59993337Y-55215060D01*
X59997867Y-55217906D01*
X60311621Y-55369002D01*
X60311637Y-55369007D01*
X60311638Y-55369008D01*
X60640312Y-55484016D01*
X60640315Y-55484016D01*
X60640319Y-55484018D01*
X60979829Y-55561509D01*
X61225210Y-55589157D01*
X61325878Y-55600500D01*
X61325880Y-55600500D01*
X61674122Y-55600500D01*
X61762006Y-55590597D01*
X62020171Y-55561509D01*
X62359681Y-55484018D01*
X62688379Y-55369002D01*
X63002133Y-55217906D01*
X63296997Y-55032630D01*
X63455007Y-54906622D01*
X63569259Y-54815510D01*
X63815510Y-54569259D01*
X64032624Y-54297004D01*
X64032630Y-54296997D01*
X64217906Y-54002133D01*
X64369002Y-53688379D01*
X64484018Y-53359681D01*
X64561509Y-53020171D01*
X64600500Y-52674120D01*
X64600500Y-52325880D01*
X64561509Y-51979829D01*
X64484018Y-51640319D01*
X64465558Y-51587564D01*
X64369008Y-51311638D01*
X64369007Y-51311637D01*
X64369002Y-51311621D01*
X64329695Y-51230000D01*
X68796844Y-51230000D01*
X68812792Y-51422466D01*
X68815437Y-51454375D01*
X68870702Y-51672612D01*
X68870703Y-51672613D01*
X68961141Y-51878793D01*
X69084275Y-52067265D01*
X69084280Y-52067270D01*
X69227475Y-52222820D01*
X69258896Y-52286485D01*
X69250909Y-52357031D01*
X69206051Y-52412060D01*
X69178807Y-52426213D01*
X69063797Y-52469110D01*
X69063792Y-52469112D01*
X68946738Y-52556738D01*
X68859112Y-52673792D01*
X68859110Y-52673797D01*
X68808011Y-52810795D01*
X68808009Y-52810803D01*
X68801500Y-52871350D01*
X68801500Y-54668649D01*
X68808009Y-54729196D01*
X68808011Y-54729204D01*
X68859110Y-54866202D01*
X68859112Y-54866207D01*
X68946738Y-54983261D01*
X69063792Y-55070887D01*
X69063794Y-55070888D01*
X69063796Y-55070889D01*
X69117168Y-55090796D01*
X69200795Y-55121988D01*
X69200803Y-55121990D01*
X69261350Y-55128499D01*
X69261355Y-55128499D01*
X69261362Y-55128500D01*
X69261368Y-55128500D01*
X71058632Y-55128500D01*
X71058638Y-55128500D01*
X71058645Y-55128499D01*
X71058649Y-55128499D01*
X71119196Y-55121990D01*
X71119199Y-55121989D01*
X71119201Y-55121989D01*
X71256204Y-55070889D01*
X71326399Y-55018342D01*
X71373261Y-54983261D01*
X71460886Y-54866208D01*
X71460885Y-54866208D01*
X71460889Y-54866204D01*
X71504999Y-54747939D01*
X71547545Y-54691107D01*
X71614066Y-54666296D01*
X71683440Y-54681388D01*
X71715753Y-54706635D01*
X71760591Y-54755342D01*
X71776762Y-54772908D01*
X71821811Y-54807971D01*
X71954424Y-54911189D01*
X72152426Y-55018342D01*
X72152427Y-55018342D01*
X72152428Y-55018343D01*
X72264227Y-55056723D01*
X72365365Y-55091444D01*
X72587431Y-55128500D01*
X72587435Y-55128500D01*
X72812565Y-55128500D01*
X72812569Y-55128500D01*
X73034635Y-55091444D01*
X73247574Y-55018342D01*
X73445576Y-54911189D01*
X73623240Y-54772906D01*
X73775722Y-54607268D01*
X73864518Y-54471354D01*
X73918520Y-54425268D01*
X73988868Y-54415692D01*
X74053225Y-54445669D01*
X74075480Y-54471353D01*
X74089487Y-54492791D01*
X74164275Y-54607265D01*
X74164279Y-54607270D01*
X74316762Y-54772908D01*
X74361811Y-54807971D01*
X74494424Y-54911189D01*
X74692426Y-55018342D01*
X74692427Y-55018342D01*
X74692428Y-55018343D01*
X74804227Y-55056723D01*
X74905365Y-55091444D01*
X75127431Y-55128500D01*
X75127435Y-55128500D01*
X75352565Y-55128500D01*
X75352569Y-55128500D01*
X75574635Y-55091444D01*
X75787574Y-55018342D01*
X75985576Y-54911189D01*
X76163240Y-54772906D01*
X76315722Y-54607268D01*
X76438860Y-54418791D01*
X76529296Y-54212616D01*
X76584564Y-53994368D01*
X76603156Y-53770000D01*
X76584564Y-53545632D01*
X76566410Y-53473942D01*
X76529297Y-53327387D01*
X76529296Y-53327386D01*
X76529296Y-53327384D01*
X76438860Y-53121209D01*
X76421500Y-53094637D01*
X76315724Y-52932734D01*
X76315720Y-52932729D01*
X76163237Y-52767091D01*
X76081382Y-52703381D01*
X75985576Y-52628811D01*
X75952319Y-52610813D01*
X75901929Y-52560802D01*
X75886576Y-52491485D01*
X75911136Y-52424872D01*
X75952320Y-52389186D01*
X75985576Y-52371189D01*
X76163240Y-52232906D01*
X76315722Y-52067268D01*
X76438860Y-51878791D01*
X76529296Y-51672616D01*
X76584564Y-51454368D01*
X76603156Y-51230000D01*
X76584564Y-51005632D01*
X76529296Y-50787384D01*
X76438860Y-50581209D01*
X76432140Y-50570924D01*
X76315724Y-50392734D01*
X76315720Y-50392729D01*
X76163237Y-50227091D01*
X76081382Y-50163381D01*
X75985576Y-50088811D01*
X75787574Y-49981658D01*
X75787572Y-49981657D01*
X75787571Y-49981656D01*
X75574639Y-49908557D01*
X75574630Y-49908555D01*
X75530476Y-49901187D01*
X75352569Y-49871500D01*
X75127431Y-49871500D01*
X74979211Y-49896233D01*
X74905369Y-49908555D01*
X74905360Y-49908557D01*
X74692428Y-49981656D01*
X74692426Y-49981658D01*
X74494426Y-50088810D01*
X74494424Y-50088811D01*
X74316762Y-50227091D01*
X74164279Y-50392729D01*
X74075483Y-50528643D01*
X74021479Y-50574731D01*
X73951131Y-50584306D01*
X73886774Y-50554329D01*
X73864517Y-50528643D01*
X73775720Y-50392729D01*
X73623237Y-50227091D01*
X73541382Y-50163381D01*
X73445576Y-50088811D01*
X73247574Y-49981658D01*
X73247572Y-49981657D01*
X73247571Y-49981656D01*
X73034639Y-49908557D01*
X73034630Y-49908555D01*
X72990476Y-49901187D01*
X72812569Y-49871500D01*
X72587431Y-49871500D01*
X72439211Y-49896233D01*
X72365369Y-49908555D01*
X72365360Y-49908557D01*
X72152428Y-49981656D01*
X72152426Y-49981658D01*
X71954426Y-50088810D01*
X71954424Y-50088811D01*
X71776762Y-50227091D01*
X71624279Y-50392729D01*
X71535483Y-50528643D01*
X71481479Y-50574731D01*
X71411131Y-50584306D01*
X71346774Y-50554329D01*
X71324517Y-50528643D01*
X71235720Y-50392729D01*
X71083237Y-50227091D01*
X71001382Y-50163381D01*
X70905576Y-50088811D01*
X70707574Y-49981658D01*
X70707572Y-49981657D01*
X70707571Y-49981656D01*
X70494639Y-49908557D01*
X70494630Y-49908555D01*
X70450476Y-49901187D01*
X70272569Y-49871500D01*
X70047431Y-49871500D01*
X69899211Y-49896233D01*
X69825369Y-49908555D01*
X69825360Y-49908557D01*
X69612428Y-49981656D01*
X69612426Y-49981658D01*
X69414426Y-50088810D01*
X69414424Y-50088811D01*
X69236762Y-50227091D01*
X69084279Y-50392729D01*
X69084275Y-50392734D01*
X68961141Y-50581206D01*
X68870703Y-50787386D01*
X68870702Y-50787387D01*
X68815437Y-51005624D01*
X68815436Y-51005630D01*
X68815436Y-51005632D01*
X68796844Y-51230000D01*
X64329695Y-51230000D01*
X64217906Y-50997867D01*
X64209504Y-50984496D01*
X64176115Y-50931357D01*
X64032630Y-50703003D01*
X64032624Y-50702995D01*
X63815510Y-50430740D01*
X63569259Y-50184489D01*
X63297004Y-49967375D01*
X63297000Y-49967372D01*
X63002137Y-49782096D01*
X63002128Y-49782091D01*
X62688388Y-49631002D01*
X62688383Y-49631000D01*
X62688379Y-49630998D01*
X62688373Y-49630995D01*
X62688361Y-49630991D01*
X62359687Y-49515983D01*
X62020174Y-49438491D01*
X61674122Y-49399500D01*
X61674120Y-49399500D01*
X61325880Y-49399500D01*
X61325878Y-49399500D01*
X60979825Y-49438491D01*
X60640312Y-49515983D01*
X60311638Y-49630991D01*
X60311611Y-49631002D01*
X59997871Y-49782091D01*
X59997862Y-49782096D01*
X59702999Y-49967372D01*
X59702995Y-49967375D01*
X59430740Y-50184489D01*
X59184489Y-50430740D01*
X58967375Y-50702995D01*
X58967372Y-50702999D01*
X58782096Y-50997862D01*
X58782091Y-50997871D01*
X58631002Y-51311611D01*
X58630991Y-51311638D01*
X58515983Y-51640312D01*
X58438491Y-51979825D01*
X58399500Y-52325878D01*
X6600500Y-52325878D01*
X6568694Y-52043601D01*
X6580943Y-51973672D01*
X6613969Y-51932096D01*
X6626000Y-51922222D01*
X6626000Y-51105060D01*
X6639940Y-51129205D01*
X6695795Y-51185060D01*
X6764204Y-51224556D01*
X6840504Y-51245000D01*
X6919496Y-51245000D01*
X6995796Y-51224556D01*
X7064205Y-51185060D01*
X7120060Y-51129205D01*
X7134000Y-51105060D01*
X7134000Y-51922223D01*
X7174023Y-51914262D01*
X7174028Y-51914260D01*
X7357466Y-51838277D01*
X7522557Y-51727967D01*
X7522564Y-51727962D01*
X7662962Y-51587564D01*
X7662967Y-51587557D01*
X7773277Y-51422467D01*
X7776060Y-51415749D01*
X7820606Y-51360466D01*
X7887968Y-51338042D01*
X7955471Y-51354843D01*
X7956635Y-51355515D01*
X8087865Y-51431281D01*
X8234234Y-51470500D01*
X8234236Y-51470500D01*
X8385764Y-51470500D01*
X8385766Y-51470500D01*
X8532135Y-51431281D01*
X8663365Y-51355515D01*
X8770515Y-51248365D01*
X8846281Y-51117135D01*
X8885500Y-50970766D01*
X8885500Y-50819234D01*
X13514500Y-50819234D01*
X13514500Y-50970766D01*
X13534197Y-51044277D01*
X13553718Y-51117132D01*
X13553721Y-51117139D01*
X13629482Y-51248361D01*
X13629490Y-51248371D01*
X13736628Y-51355509D01*
X13736633Y-51355513D01*
X13736635Y-51355515D01*
X13867865Y-51431281D01*
X14014234Y-51470500D01*
X14014236Y-51470500D01*
X14165764Y-51470500D01*
X14165766Y-51470500D01*
X14312135Y-51431281D01*
X14443365Y-51355515D01*
X14443366Y-51355513D01*
X14444528Y-51354843D01*
X14513523Y-51338105D01*
X14580615Y-51361325D01*
X14623936Y-51415741D01*
X14626722Y-51422467D01*
X14737032Y-51587557D01*
X14737037Y-51587564D01*
X14877435Y-51727962D01*
X14877442Y-51727967D01*
X15042533Y-51838277D01*
X15225971Y-51914260D01*
X15225976Y-51914262D01*
X15265999Y-51922223D01*
X15266000Y-51922223D01*
X15266000Y-51105060D01*
X15279940Y-51129205D01*
X15335795Y-51185060D01*
X15404204Y-51224556D01*
X15480504Y-51245000D01*
X15559496Y-51245000D01*
X15635796Y-51224556D01*
X15704205Y-51185060D01*
X15760060Y-51129205D01*
X15774000Y-51105060D01*
X15774000Y-51922223D01*
X15814023Y-51914262D01*
X15814028Y-51914260D01*
X15997466Y-51838277D01*
X16162557Y-51727967D01*
X16162564Y-51727962D01*
X16302962Y-51587564D01*
X16302967Y-51587557D01*
X16413277Y-51422466D01*
X16489260Y-51239028D01*
X16489262Y-51239023D01*
X16527999Y-51044281D01*
X16528000Y-51044277D01*
X16528000Y-50649000D01*
X15820000Y-50649000D01*
X15820000Y-50141000D01*
X16528000Y-50141000D01*
X16528000Y-49745722D01*
X16527999Y-49745718D01*
X16489262Y-49550976D01*
X16489260Y-49550971D01*
X16413277Y-49367533D01*
X16302967Y-49202442D01*
X16302962Y-49202435D01*
X16162564Y-49062037D01*
X16162557Y-49062032D01*
X15997467Y-48951722D01*
X15814020Y-48875736D01*
X15814015Y-48875735D01*
X15774000Y-48867774D01*
X15774000Y-49684939D01*
X15760060Y-49660795D01*
X15704205Y-49604940D01*
X15635796Y-49565444D01*
X15559496Y-49545000D01*
X15480504Y-49545000D01*
X15404204Y-49565444D01*
X15335795Y-49604940D01*
X15279940Y-49660795D01*
X15266000Y-49684939D01*
X15266000Y-48867775D01*
X15265999Y-48867774D01*
X15225984Y-48875735D01*
X15225979Y-48875736D01*
X15042532Y-48951722D01*
X14877442Y-49062032D01*
X14877435Y-49062037D01*
X14737037Y-49202435D01*
X14737032Y-49202442D01*
X14626722Y-49367533D01*
X14550739Y-49550971D01*
X14550737Y-49550976D01*
X14512000Y-49745718D01*
X14512000Y-50255873D01*
X14491998Y-50323994D01*
X14438342Y-50370487D01*
X14368068Y-50380591D01*
X14323003Y-50364993D01*
X14314763Y-50360236D01*
X14312137Y-50358720D01*
X14312132Y-50358718D01*
X14272911Y-50348209D01*
X14165766Y-50319500D01*
X14014234Y-50319500D01*
X13935798Y-50340516D01*
X13867867Y-50358718D01*
X13867860Y-50358721D01*
X13736638Y-50434482D01*
X13736628Y-50434490D01*
X13629490Y-50541628D01*
X13629482Y-50541638D01*
X13553721Y-50672860D01*
X13553718Y-50672867D01*
X13534821Y-50743393D01*
X13514500Y-50819234D01*
X8885500Y-50819234D01*
X8846281Y-50672865D01*
X8793363Y-50581209D01*
X8770517Y-50541638D01*
X8770509Y-50541628D01*
X8663371Y-50434490D01*
X8663361Y-50434482D01*
X8532139Y-50358721D01*
X8532136Y-50358720D01*
X8532135Y-50358719D01*
X8532133Y-50358718D01*
X8532132Y-50358718D01*
X8492911Y-50348209D01*
X8385766Y-50319500D01*
X8234234Y-50319500D01*
X8155798Y-50340516D01*
X8087867Y-50358718D01*
X8087862Y-50358720D01*
X8081328Y-50362492D01*
X8076997Y-50364993D01*
X8008004Y-50381730D01*
X7940912Y-50358509D01*
X7897025Y-50302702D01*
X7888000Y-50255873D01*
X7888000Y-49745722D01*
X7887999Y-49745718D01*
X7849262Y-49550976D01*
X7849260Y-49550971D01*
X7773277Y-49367533D01*
X7662967Y-49202442D01*
X7662962Y-49202435D01*
X7522564Y-49062037D01*
X7522557Y-49062032D01*
X7357467Y-48951722D01*
X7174020Y-48875736D01*
X7174015Y-48875735D01*
X7134000Y-48867774D01*
X7134000Y-49684939D01*
X7120060Y-49660795D01*
X7064205Y-49604940D01*
X6995796Y-49565444D01*
X6919496Y-49545000D01*
X6840504Y-49545000D01*
X6764204Y-49565444D01*
X6695795Y-49604940D01*
X6639940Y-49660795D01*
X6626000Y-49684939D01*
X6626000Y-48867775D01*
X6625999Y-48867774D01*
X6585984Y-48875735D01*
X6585979Y-48875736D01*
X6402532Y-48951722D01*
X6237442Y-49062032D01*
X6237435Y-49062037D01*
X6097037Y-49202435D01*
X6097032Y-49202442D01*
X5986722Y-49367533D01*
X5910739Y-49550971D01*
X5910737Y-49550976D01*
X5872000Y-49745718D01*
X5872000Y-50183040D01*
X5851998Y-50251161D01*
X5798342Y-50297654D01*
X5728068Y-50307758D01*
X5663488Y-50278264D01*
X5656905Y-50272135D01*
X5569259Y-50184489D01*
X5297004Y-49967375D01*
X5297000Y-49967372D01*
X5002137Y-49782096D01*
X5002128Y-49782091D01*
X4688388Y-49631002D01*
X4688383Y-49631000D01*
X4688379Y-49630998D01*
X4688373Y-49630995D01*
X4688361Y-49630991D01*
X4359687Y-49515983D01*
X4020174Y-49438491D01*
X3674122Y-49399500D01*
X3674120Y-49399500D01*
X3325880Y-49399500D01*
X3325878Y-49399500D01*
X2979825Y-49438491D01*
X2640312Y-49515983D01*
X2311638Y-49630991D01*
X2311611Y-49631002D01*
X1997871Y-49782091D01*
X1997862Y-49782096D01*
X1702999Y-49967372D01*
X1702995Y-49967375D01*
X1430740Y-50184489D01*
X1184489Y-50430740D01*
X967375Y-50702995D01*
X967372Y-50702999D01*
X782096Y-50997862D01*
X782091Y-50997871D01*
X631002Y-51311611D01*
X630991Y-51311638D01*
X515983Y-51640312D01*
X438491Y-51979825D01*
X399500Y-52325878D01*
X399500Y-52674121D01*
X438491Y-53020174D01*
X461552Y-53121209D01*
X515982Y-53359681D01*
X515984Y-53359687D01*
X515983Y-53359687D01*
X630991Y-53688361D01*
X631002Y-53688388D01*
X782091Y-54002128D01*
X782096Y-54002137D01*
X967372Y-54297000D01*
X967375Y-54297004D01*
X1184489Y-54569259D01*
X1430740Y-54815510D01*
X1702995Y-55032624D01*
X1703003Y-55032630D01*
X1904445Y-55159205D01*
X1993337Y-55215060D01*
X1997867Y-55217906D01*
X2311621Y-55369002D01*
X2311637Y-55369007D01*
X2311638Y-55369008D01*
X2640312Y-55484016D01*
X2640315Y-55484016D01*
X2640319Y-55484018D01*
X2979829Y-55561509D01*
X3225210Y-55589157D01*
X3325878Y-55600500D01*
X3325880Y-55600500D01*
X3674122Y-55600500D01*
X3762006Y-55590597D01*
X4020171Y-55561509D01*
X4359681Y-55484018D01*
X4688379Y-55369002D01*
X5002133Y-55217906D01*
X5296997Y-55032630D01*
X5455007Y-54906622D01*
X5569259Y-54815510D01*
X5569266Y-54815503D01*
X5656905Y-54727865D01*
X5719217Y-54693839D01*
X5790032Y-54698904D01*
X5846868Y-54741451D01*
X5871679Y-54807971D01*
X5872000Y-54816960D01*
X5872000Y-55074281D01*
X5910737Y-55269023D01*
X5910739Y-55269028D01*
X5986722Y-55452466D01*
X6097032Y-55617557D01*
X6097037Y-55617564D01*
X6238878Y-55759405D01*
X6272904Y-55821717D01*
X6267839Y-55892532D01*
X6225292Y-55949368D01*
X6158772Y-55974179D01*
X6149783Y-55974500D01*
X3003293Y-55974500D01*
X2996700Y-55974327D01*
X2978512Y-55973373D01*
X2695679Y-55958550D01*
X2682563Y-55957172D01*
X2388088Y-55910532D01*
X2375188Y-55907790D01*
X2087205Y-55830626D01*
X2074661Y-55826550D01*
X1796327Y-55719707D01*
X1784280Y-55714343D01*
X1518631Y-55578989D01*
X1507208Y-55572394D01*
X1257167Y-55410015D01*
X1246498Y-55402263D01*
X1187493Y-55354482D01*
X1014802Y-55214639D01*
X1005001Y-55205814D01*
X794185Y-54994998D01*
X785360Y-54985197D01*
X783792Y-54983261D01*
X597732Y-54753495D01*
X589988Y-54742838D01*
X427601Y-54492785D01*
X421010Y-54481368D01*
X285656Y-54215719D01*
X280292Y-54203672D01*
X235018Y-54085730D01*
X173447Y-53925332D01*
X169373Y-53912794D01*
X160847Y-53880976D01*
X92209Y-53624811D01*
X89467Y-53611911D01*
X42826Y-53317435D01*
X41449Y-53304319D01*
X25673Y-53003300D01*
X25500Y-52996706D01*
X25500Y-48400000D01*
X7886496Y-48400000D01*
X7906457Y-48589927D01*
X7923664Y-48642883D01*
X7965473Y-48771556D01*
X7965476Y-48771561D01*
X8060958Y-48936941D01*
X8060965Y-48936951D01*
X8188744Y-49078864D01*
X8188747Y-49078866D01*
X8343248Y-49191118D01*
X8517712Y-49268794D01*
X8704513Y-49308500D01*
X8895487Y-49308500D01*
X9082288Y-49268794D01*
X9256752Y-49191118D01*
X9411253Y-49078866D01*
X9426406Y-49062037D01*
X9539034Y-48936951D01*
X9539035Y-48936949D01*
X9539040Y-48936944D01*
X9634527Y-48771556D01*
X9693542Y-48589928D01*
X9713504Y-48400000D01*
X9702994Y-48300000D01*
X12686496Y-48300000D01*
X12706457Y-48489927D01*
X12736526Y-48582470D01*
X12765473Y-48671556D01*
X12765476Y-48671561D01*
X12860958Y-48836941D01*
X12860965Y-48836951D01*
X12988744Y-48978864D01*
X13049999Y-49023368D01*
X13143248Y-49091118D01*
X13317712Y-49168794D01*
X13504513Y-49208500D01*
X13695487Y-49208500D01*
X13882288Y-49168794D01*
X14056752Y-49091118D01*
X14211253Y-48978866D01*
X14211255Y-48978864D01*
X14339034Y-48836951D01*
X14339035Y-48836949D01*
X14339040Y-48836944D01*
X14434527Y-48671556D01*
X14493542Y-48489928D01*
X14513504Y-48300000D01*
X14493542Y-48110072D01*
X14434527Y-47928444D01*
X14339040Y-47763056D01*
X14339038Y-47763054D01*
X14339034Y-47763048D01*
X14211255Y-47621135D01*
X14056752Y-47508882D01*
X13882288Y-47431206D01*
X13695487Y-47391500D01*
X13504513Y-47391500D01*
X13317711Y-47431206D01*
X13143247Y-47508882D01*
X12988744Y-47621135D01*
X12860965Y-47763048D01*
X12860958Y-47763058D01*
X12765476Y-47928438D01*
X12765473Y-47928445D01*
X12706457Y-48110072D01*
X12686496Y-48300000D01*
X9702994Y-48300000D01*
X9693542Y-48210072D01*
X9634527Y-48028444D01*
X9539040Y-47863056D01*
X9539038Y-47863054D01*
X9539034Y-47863048D01*
X9411255Y-47721135D01*
X9256752Y-47608882D01*
X9082288Y-47531206D01*
X8895487Y-47491500D01*
X8704513Y-47491500D01*
X8517711Y-47531206D01*
X8343247Y-47608882D01*
X8188744Y-47721135D01*
X8060965Y-47863048D01*
X8060958Y-47863058D01*
X7965476Y-48028438D01*
X7965473Y-48028445D01*
X7906457Y-48210072D01*
X7886496Y-48400000D01*
X25500Y-48400000D01*
X25500Y-44000000D01*
X28486496Y-44000000D01*
X28506457Y-44189927D01*
X28532083Y-44268793D01*
X28565473Y-44371556D01*
X28565476Y-44371561D01*
X28660958Y-44536941D01*
X28660965Y-44536951D01*
X28788744Y-44678864D01*
X28788747Y-44678866D01*
X28943248Y-44791118D01*
X29117712Y-44868794D01*
X29304513Y-44908500D01*
X29495487Y-44908500D01*
X29682288Y-44868794D01*
X29856752Y-44791118D01*
X30011253Y-44678866D01*
X30139040Y-44536944D01*
X30234527Y-44371556D01*
X30293542Y-44189928D01*
X30313504Y-44000000D01*
X30293542Y-43810072D01*
X30234527Y-43628444D01*
X30139040Y-43463056D01*
X30139038Y-43463054D01*
X30139034Y-43463048D01*
X30011255Y-43321135D01*
X29856752Y-43208882D01*
X29682288Y-43131206D01*
X29495487Y-43091500D01*
X29304513Y-43091500D01*
X29117711Y-43131206D01*
X28943247Y-43208882D01*
X28788744Y-43321135D01*
X28660965Y-43463048D01*
X28660958Y-43463058D01*
X28565476Y-43628438D01*
X28565473Y-43628445D01*
X28506457Y-43810072D01*
X28486496Y-44000000D01*
X25500Y-44000000D01*
X25500Y-31900668D01*
X40391500Y-31900668D01*
X40391500Y-48099331D01*
X40413528Y-48210072D01*
X40430256Y-48294169D01*
X40506279Y-48477704D01*
X40616647Y-48642881D01*
X40757119Y-48783353D01*
X40922296Y-48893721D01*
X41105831Y-48969744D01*
X41300671Y-49008500D01*
X41300672Y-49008500D01*
X41499328Y-49008500D01*
X41499329Y-49008500D01*
X41694169Y-48969744D01*
X41877704Y-48893721D01*
X42042881Y-48783353D01*
X42183353Y-48642881D01*
X42278823Y-48500000D01*
X56586496Y-48500000D01*
X56606457Y-48689927D01*
X56632980Y-48771554D01*
X56665473Y-48871556D01*
X56665476Y-48871561D01*
X56760958Y-49036941D01*
X56760965Y-49036951D01*
X56888744Y-49178864D01*
X56949999Y-49223368D01*
X57043248Y-49291118D01*
X57217712Y-49368794D01*
X57404513Y-49408500D01*
X57595487Y-49408500D01*
X57782288Y-49368794D01*
X57956752Y-49291118D01*
X58111253Y-49178866D01*
X58190262Y-49091118D01*
X58239034Y-49036951D01*
X58239035Y-49036949D01*
X58239040Y-49036944D01*
X58334527Y-48871556D01*
X58393542Y-48689928D01*
X58413504Y-48500000D01*
X58393542Y-48310072D01*
X58334527Y-48128444D01*
X58239040Y-47963056D01*
X58239038Y-47963054D01*
X58239034Y-47963048D01*
X58111255Y-47821135D01*
X57956752Y-47708882D01*
X57782288Y-47631206D01*
X57595487Y-47591500D01*
X57404513Y-47591500D01*
X57217711Y-47631206D01*
X57043247Y-47708882D01*
X56888744Y-47821135D01*
X56760965Y-47963048D01*
X56760958Y-47963058D01*
X56665476Y-48128438D01*
X56665473Y-48128445D01*
X56606457Y-48310072D01*
X56586496Y-48500000D01*
X42278823Y-48500000D01*
X42293721Y-48477704D01*
X42369744Y-48294169D01*
X42408500Y-48099329D01*
X42408500Y-46800000D01*
X77086496Y-46800000D01*
X77106457Y-46989927D01*
X77136526Y-47082470D01*
X77165473Y-47171556D01*
X77165476Y-47171561D01*
X77260958Y-47336941D01*
X77260965Y-47336951D01*
X77388744Y-47478864D01*
X77388747Y-47478866D01*
X77543248Y-47591118D01*
X77717712Y-47668794D01*
X77904513Y-47708500D01*
X78095487Y-47708500D01*
X78282288Y-47668794D01*
X78456752Y-47591118D01*
X78611253Y-47478866D01*
X78739040Y-47336944D01*
X78834527Y-47171556D01*
X78893542Y-46989928D01*
X78913504Y-46800000D01*
X78893542Y-46610072D01*
X78834527Y-46428444D01*
X78739040Y-46263056D01*
X78739038Y-46263054D01*
X78739034Y-46263048D01*
X78611255Y-46121135D01*
X78456752Y-46008882D01*
X78282288Y-45931206D01*
X78095487Y-45891500D01*
X77904513Y-45891500D01*
X77717711Y-45931206D01*
X77543247Y-46008882D01*
X77388744Y-46121135D01*
X77260965Y-46263048D01*
X77260958Y-46263058D01*
X77165476Y-46428438D01*
X77165473Y-46428445D01*
X77106457Y-46610072D01*
X77086496Y-46800000D01*
X42408500Y-46800000D01*
X42408500Y-43500000D01*
X52336496Y-43500000D01*
X52356457Y-43689927D01*
X52382980Y-43771554D01*
X52415473Y-43871556D01*
X52415476Y-43871561D01*
X52510958Y-44036941D01*
X52510965Y-44036951D01*
X52638744Y-44178864D01*
X52638747Y-44178866D01*
X52793248Y-44291118D01*
X52967712Y-44368794D01*
X53154513Y-44408500D01*
X53345487Y-44408500D01*
X53532288Y-44368794D01*
X53706752Y-44291118D01*
X53861253Y-44178866D01*
X53861255Y-44178864D01*
X53989034Y-44036951D01*
X53989035Y-44036949D01*
X53989040Y-44036944D01*
X54084527Y-43871556D01*
X54143542Y-43689928D01*
X54163504Y-43500000D01*
X54152994Y-43400000D01*
X78186496Y-43400000D01*
X78206457Y-43589927D01*
X78218973Y-43628445D01*
X78265473Y-43771556D01*
X78265476Y-43771561D01*
X78360958Y-43936941D01*
X78360965Y-43936951D01*
X78488744Y-44078864D01*
X78488747Y-44078866D01*
X78643248Y-44191118D01*
X78817712Y-44268794D01*
X79004513Y-44308500D01*
X79195487Y-44308500D01*
X79382288Y-44268794D01*
X79556752Y-44191118D01*
X79711253Y-44078866D01*
X79711255Y-44078864D01*
X79839034Y-43936951D01*
X79839035Y-43936949D01*
X79839040Y-43936944D01*
X79934527Y-43771556D01*
X79993542Y-43589928D01*
X80013504Y-43400000D01*
X79993542Y-43210072D01*
X79934527Y-43028444D01*
X79839040Y-42863056D01*
X79839038Y-42863054D01*
X79839034Y-42863048D01*
X79711255Y-42721135D01*
X79556752Y-42608882D01*
X79382288Y-42531206D01*
X79195487Y-42491500D01*
X79004513Y-42491500D01*
X78817711Y-42531206D01*
X78643247Y-42608882D01*
X78488744Y-42721135D01*
X78360965Y-42863048D01*
X78360958Y-42863058D01*
X78265476Y-43028438D01*
X78265473Y-43028445D01*
X78206457Y-43210072D01*
X78186496Y-43400000D01*
X54152994Y-43400000D01*
X54143542Y-43310072D01*
X54084527Y-43128444D01*
X53989040Y-42963056D01*
X53989038Y-42963054D01*
X53989034Y-42963048D01*
X53861255Y-42821135D01*
X53706752Y-42708882D01*
X53532288Y-42631206D01*
X53345487Y-42591500D01*
X53154513Y-42591500D01*
X52967711Y-42631206D01*
X52793247Y-42708882D01*
X52638744Y-42821135D01*
X52510965Y-42963048D01*
X52510958Y-42963058D01*
X52415476Y-43128438D01*
X52415473Y-43128445D01*
X52356457Y-43310072D01*
X52336496Y-43500000D01*
X42408500Y-43500000D01*
X42408500Y-39900671D01*
X42408500Y-32469923D01*
X42428502Y-32401802D01*
X42445400Y-32380833D01*
X45776405Y-29049827D01*
X45838717Y-29015802D01*
X45909532Y-29020867D01*
X45966368Y-29063414D01*
X45991179Y-29129934D01*
X45991500Y-29138923D01*
X45991500Y-35099329D01*
X46030256Y-35294169D01*
X46087019Y-35431206D01*
X46106279Y-35477704D01*
X46216647Y-35642881D01*
X52216647Y-41642881D01*
X52357119Y-41783353D01*
X52522296Y-41893721D01*
X52705831Y-41969744D01*
X52900671Y-42008500D01*
X52900672Y-42008500D01*
X55599328Y-42008500D01*
X55599329Y-42008500D01*
X55794169Y-41969744D01*
X55977704Y-41893721D01*
X56142881Y-41783353D01*
X56283353Y-41642881D01*
X56393721Y-41477704D01*
X56469744Y-41294169D01*
X56508500Y-41099329D01*
X56508500Y-40900671D01*
X56488475Y-40800000D01*
X64886496Y-40800000D01*
X64906457Y-40989927D01*
X64936526Y-41082470D01*
X64965473Y-41171556D01*
X64993841Y-41220691D01*
X65060958Y-41336941D01*
X65060965Y-41336951D01*
X65188744Y-41478864D01*
X65188747Y-41478866D01*
X65343248Y-41591118D01*
X65517712Y-41668794D01*
X65704513Y-41708500D01*
X65895487Y-41708500D01*
X66082288Y-41668794D01*
X66256752Y-41591118D01*
X66411253Y-41478866D01*
X66412300Y-41477703D01*
X66539034Y-41336951D01*
X66539035Y-41336949D01*
X66539040Y-41336944D01*
X66634527Y-41171556D01*
X66693542Y-40989928D01*
X66713504Y-40800000D01*
X66693542Y-40610072D01*
X66657777Y-40500000D01*
X73586496Y-40500000D01*
X73606457Y-40689927D01*
X73611625Y-40705831D01*
X73665473Y-40871556D01*
X73665476Y-40871561D01*
X73760958Y-41036941D01*
X73760965Y-41036951D01*
X73888744Y-41178864D01*
X73888747Y-41178866D01*
X74043248Y-41291118D01*
X74217712Y-41368794D01*
X74404513Y-41408500D01*
X74595487Y-41408500D01*
X74782288Y-41368794D01*
X74956752Y-41291118D01*
X75111253Y-41178866D01*
X75111255Y-41178864D01*
X75239034Y-41036951D01*
X75239035Y-41036949D01*
X75239040Y-41036944D01*
X75318105Y-40900000D01*
X80886496Y-40900000D01*
X80906457Y-41089927D01*
X80909513Y-41099331D01*
X80965473Y-41271556D01*
X80965476Y-41271561D01*
X81060958Y-41436941D01*
X81060965Y-41436951D01*
X81188744Y-41578864D01*
X81188747Y-41578866D01*
X81343248Y-41691118D01*
X81517712Y-41768794D01*
X81704513Y-41808500D01*
X81895487Y-41808500D01*
X82082288Y-41768794D01*
X82256752Y-41691118D01*
X82411253Y-41578866D01*
X82411255Y-41578864D01*
X82539034Y-41436951D01*
X82539035Y-41436949D01*
X82539040Y-41436944D01*
X82634527Y-41271556D01*
X82693542Y-41089928D01*
X82713504Y-40900000D01*
X82693542Y-40710072D01*
X82634527Y-40528444D01*
X82539040Y-40363056D01*
X82539038Y-40363054D01*
X82539034Y-40363048D01*
X82411255Y-40221135D01*
X82256752Y-40108882D01*
X82082288Y-40031206D01*
X81895487Y-39991500D01*
X81704513Y-39991500D01*
X81517711Y-40031206D01*
X81343247Y-40108882D01*
X81188744Y-40221135D01*
X81060965Y-40363048D01*
X81060958Y-40363058D01*
X80965476Y-40528438D01*
X80965473Y-40528445D01*
X80906457Y-40710072D01*
X80886496Y-40900000D01*
X75318105Y-40900000D01*
X75334527Y-40871556D01*
X75393542Y-40689928D01*
X75413504Y-40500000D01*
X75393542Y-40310072D01*
X75334527Y-40128444D01*
X75239040Y-39963056D01*
X75239038Y-39963054D01*
X75239034Y-39963048D01*
X75111255Y-39821135D01*
X74956752Y-39708882D01*
X74782288Y-39631206D01*
X74595487Y-39591500D01*
X74404513Y-39591500D01*
X74217711Y-39631206D01*
X74043247Y-39708882D01*
X73888744Y-39821135D01*
X73760965Y-39963048D01*
X73760958Y-39963058D01*
X73665476Y-40128438D01*
X73665473Y-40128445D01*
X73606457Y-40310072D01*
X73586496Y-40500000D01*
X66657777Y-40500000D01*
X66634527Y-40428444D01*
X66539040Y-40263056D01*
X66539038Y-40263054D01*
X66539034Y-40263048D01*
X66411255Y-40121135D01*
X66256752Y-40008882D01*
X66082288Y-39931206D01*
X65895487Y-39891500D01*
X65704513Y-39891500D01*
X65517711Y-39931206D01*
X65343247Y-40008882D01*
X65188744Y-40121135D01*
X65060965Y-40263048D01*
X65060958Y-40263058D01*
X64965476Y-40428438D01*
X64965473Y-40428445D01*
X64906457Y-40610072D01*
X64886496Y-40800000D01*
X56488475Y-40800000D01*
X56469744Y-40705831D01*
X56393721Y-40522296D01*
X56283353Y-40357119D01*
X56142881Y-40216647D01*
X55977704Y-40106279D01*
X55821053Y-40041392D01*
X55794174Y-40030258D01*
X55794169Y-40030256D01*
X55599331Y-39991500D01*
X55599329Y-39991500D01*
X53469924Y-39991500D01*
X53401803Y-39971498D01*
X53380829Y-39954595D01*
X50426234Y-37000000D01*
X66486496Y-37000000D01*
X66506457Y-37189927D01*
X66512492Y-37208500D01*
X66565473Y-37371556D01*
X66565476Y-37371561D01*
X66660958Y-37536941D01*
X66660965Y-37536951D01*
X66788744Y-37678864D01*
X66788747Y-37678866D01*
X66943248Y-37791118D01*
X67117712Y-37868794D01*
X67304513Y-37908500D01*
X67495487Y-37908500D01*
X67682288Y-37868794D01*
X67856752Y-37791118D01*
X68011253Y-37678866D01*
X68011255Y-37678864D01*
X68139034Y-37536951D01*
X68139035Y-37536949D01*
X68139040Y-37536944D01*
X68234527Y-37371556D01*
X68293542Y-37189928D01*
X68313504Y-37000000D01*
X68293542Y-36810072D01*
X68234527Y-36628444D01*
X68139040Y-36463056D01*
X68139038Y-36463054D01*
X68139034Y-36463048D01*
X68011255Y-36321135D01*
X67856752Y-36208882D01*
X67682288Y-36131206D01*
X67495487Y-36091500D01*
X67304513Y-36091500D01*
X67117711Y-36131206D01*
X66943247Y-36208882D01*
X66788744Y-36321135D01*
X66660965Y-36463048D01*
X66660958Y-36463058D01*
X66565476Y-36628438D01*
X66565473Y-36628445D01*
X66506457Y-36810072D01*
X66486496Y-37000000D01*
X50426234Y-37000000D01*
X48326234Y-34900000D01*
X73586496Y-34900000D01*
X73606457Y-35089927D01*
X73609513Y-35099331D01*
X73665473Y-35271556D01*
X73665476Y-35271561D01*
X73760958Y-35436941D01*
X73760965Y-35436951D01*
X73888744Y-35578864D01*
X73888747Y-35578866D01*
X74043248Y-35691118D01*
X74217712Y-35768794D01*
X74255156Y-35776753D01*
X74317630Y-35810482D01*
X74351951Y-35872631D01*
X74347223Y-35943470D01*
X74304947Y-36000508D01*
X74255156Y-36023247D01*
X74217711Y-36031206D01*
X74043247Y-36108882D01*
X73888744Y-36221135D01*
X73760965Y-36363048D01*
X73760958Y-36363058D01*
X73665476Y-36528438D01*
X73665473Y-36528445D01*
X73606457Y-36710072D01*
X73586496Y-36900000D01*
X73606457Y-37089927D01*
X73632083Y-37168793D01*
X73665473Y-37271556D01*
X73665476Y-37271561D01*
X73760958Y-37436941D01*
X73760965Y-37436951D01*
X73888744Y-37578864D01*
X73888747Y-37578866D01*
X74043248Y-37691118D01*
X74217712Y-37768794D01*
X74404513Y-37808500D01*
X74595487Y-37808500D01*
X74782288Y-37768794D01*
X74956752Y-37691118D01*
X75111253Y-37578866D01*
X75111255Y-37578864D01*
X75239034Y-37436951D01*
X75239035Y-37436949D01*
X75239040Y-37436944D01*
X75334527Y-37271556D01*
X75393542Y-37089928D01*
X75413504Y-36900000D01*
X75393542Y-36710072D01*
X75334527Y-36528444D01*
X75239040Y-36363056D01*
X75239038Y-36363054D01*
X75239034Y-36363048D01*
X75111255Y-36221135D01*
X74956752Y-36108882D01*
X74782288Y-36031206D01*
X74744842Y-36023246D01*
X74682370Y-35989519D01*
X74648048Y-35927369D01*
X74652776Y-35856530D01*
X74695052Y-35799493D01*
X74744842Y-35776753D01*
X74782288Y-35768794D01*
X74956752Y-35691118D01*
X75082165Y-35600000D01*
X79286496Y-35600000D01*
X79306457Y-35789927D01*
X79312492Y-35808500D01*
X79365473Y-35971556D01*
X79393841Y-36020691D01*
X79460958Y-36136941D01*
X79460965Y-36136951D01*
X79588744Y-36278864D01*
X79588747Y-36278866D01*
X79743248Y-36391118D01*
X79917712Y-36468794D01*
X80104513Y-36508500D01*
X80295487Y-36508500D01*
X80482288Y-36468794D01*
X80656752Y-36391118D01*
X80782165Y-36300000D01*
X81286496Y-36300000D01*
X81306457Y-36489927D01*
X81318973Y-36528445D01*
X81365473Y-36671556D01*
X81365476Y-36671561D01*
X81460958Y-36836941D01*
X81460965Y-36836951D01*
X81588744Y-36978864D01*
X81588747Y-36978866D01*
X81743248Y-37091118D01*
X81917712Y-37168794D01*
X82104513Y-37208500D01*
X82295487Y-37208500D01*
X82482288Y-37168794D01*
X82656752Y-37091118D01*
X82811253Y-36978866D01*
X82939040Y-36836944D01*
X83034527Y-36671556D01*
X83093542Y-36489928D01*
X83113504Y-36300000D01*
X83093542Y-36110072D01*
X83034527Y-35928444D01*
X82939040Y-35763056D01*
X82939038Y-35763054D01*
X82939034Y-35763048D01*
X82811255Y-35621135D01*
X82656752Y-35508882D01*
X82482288Y-35431206D01*
X82295487Y-35391500D01*
X82104513Y-35391500D01*
X81917711Y-35431206D01*
X81743247Y-35508882D01*
X81588744Y-35621135D01*
X81460965Y-35763048D01*
X81460958Y-35763058D01*
X81365476Y-35928438D01*
X81365473Y-35928445D01*
X81306457Y-36110072D01*
X81286496Y-36300000D01*
X80782165Y-36300000D01*
X80811253Y-36278866D01*
X80939040Y-36136944D01*
X81034527Y-35971556D01*
X81093542Y-35789928D01*
X81113504Y-35600000D01*
X81093542Y-35410072D01*
X81034527Y-35228444D01*
X80939040Y-35063056D01*
X80939038Y-35063054D01*
X80939034Y-35063048D01*
X80811255Y-34921135D01*
X80656752Y-34808882D01*
X80482288Y-34731206D01*
X80295487Y-34691500D01*
X80104513Y-34691500D01*
X79917711Y-34731206D01*
X79743247Y-34808882D01*
X79588744Y-34921135D01*
X79460965Y-35063048D01*
X79460958Y-35063058D01*
X79365476Y-35228438D01*
X79365473Y-35228445D01*
X79306457Y-35410072D01*
X79286496Y-35600000D01*
X75082165Y-35600000D01*
X75111253Y-35578866D01*
X75202340Y-35477704D01*
X75239034Y-35436951D01*
X75239035Y-35436949D01*
X75239040Y-35436944D01*
X75334527Y-35271556D01*
X75393542Y-35089928D01*
X75413504Y-34900000D01*
X75393542Y-34710072D01*
X75334527Y-34528444D01*
X75239040Y-34363056D01*
X75239038Y-34363054D01*
X75239034Y-34363048D01*
X75111255Y-34221135D01*
X74956752Y-34108882D01*
X74782288Y-34031206D01*
X74595487Y-33991500D01*
X74404513Y-33991500D01*
X74217711Y-34031206D01*
X74043247Y-34108882D01*
X73888744Y-34221135D01*
X73760965Y-34363048D01*
X73760958Y-34363058D01*
X73665476Y-34528438D01*
X73665473Y-34528445D01*
X73606457Y-34710072D01*
X73586496Y-34900000D01*
X48326234Y-34900000D01*
X48045405Y-34619171D01*
X48011379Y-34556859D01*
X48008500Y-34530076D01*
X48008500Y-31200000D01*
X54086496Y-31200000D01*
X54106457Y-31389927D01*
X54136526Y-31482470D01*
X54165473Y-31571556D01*
X54165476Y-31571561D01*
X54260958Y-31736941D01*
X54260965Y-31736951D01*
X54388744Y-31878864D01*
X54388747Y-31878866D01*
X54543248Y-31991118D01*
X54717712Y-32068794D01*
X54904513Y-32108500D01*
X55095487Y-32108500D01*
X55282288Y-32068794D01*
X55456752Y-31991118D01*
X55611253Y-31878866D01*
X55739040Y-31736944D01*
X55834527Y-31571556D01*
X55893542Y-31389928D01*
X55913504Y-31200000D01*
X55893542Y-31010072D01*
X55834527Y-30828444D01*
X55739040Y-30663056D01*
X55739038Y-30663054D01*
X55739034Y-30663048D01*
X55611255Y-30521135D01*
X55456752Y-30408882D01*
X55282288Y-30331206D01*
X55095487Y-30291500D01*
X54904513Y-30291500D01*
X54717711Y-30331206D01*
X54543247Y-30408882D01*
X54388744Y-30521135D01*
X54260965Y-30663048D01*
X54260958Y-30663058D01*
X54165476Y-30828438D01*
X54165473Y-30828445D01*
X54106457Y-31010072D01*
X54086496Y-31200000D01*
X48008500Y-31200000D01*
X48008500Y-29700000D01*
X63886496Y-29700000D01*
X63906457Y-29889927D01*
X63936526Y-29982470D01*
X63965473Y-30071556D01*
X63965476Y-30071561D01*
X64060958Y-30236941D01*
X64060965Y-30236951D01*
X64188744Y-30378864D01*
X64188747Y-30378866D01*
X64343248Y-30491118D01*
X64517712Y-30568794D01*
X64704513Y-30608500D01*
X64895487Y-30608500D01*
X65082288Y-30568794D01*
X65256752Y-30491118D01*
X65411253Y-30378866D01*
X65539040Y-30236944D01*
X65634527Y-30071556D01*
X65693542Y-29889928D01*
X65713504Y-29700000D01*
X65693542Y-29510072D01*
X65634527Y-29328444D01*
X65539040Y-29163056D01*
X65539038Y-29163054D01*
X65539034Y-29163048D01*
X65411255Y-29021135D01*
X65256752Y-28908882D01*
X65082288Y-28831206D01*
X64895487Y-28791500D01*
X64704513Y-28791500D01*
X64517711Y-28831206D01*
X64343247Y-28908882D01*
X64188744Y-29021135D01*
X64060965Y-29163048D01*
X64060958Y-29163058D01*
X63965476Y-29328438D01*
X63965473Y-29328445D01*
X63906457Y-29510072D01*
X63886496Y-29700000D01*
X48008500Y-29700000D01*
X48008500Y-29469924D01*
X48028502Y-29401803D01*
X48045405Y-29380829D01*
X48635117Y-28791117D01*
X49283353Y-28142881D01*
X49393721Y-27977704D01*
X49469744Y-27794169D01*
X49508499Y-27599329D01*
X49508499Y-27400672D01*
X49469744Y-27205832D01*
X49393721Y-27022297D01*
X49283353Y-26857119D01*
X49142881Y-26716647D01*
X48977703Y-26606279D01*
X48794168Y-26530256D01*
X48609830Y-26493589D01*
X48546921Y-26460681D01*
X48511789Y-26398986D01*
X48515589Y-26328091D01*
X48516983Y-26325878D01*
X58399500Y-26325878D01*
X58399500Y-26674121D01*
X58438491Y-27020174D01*
X58438976Y-27022297D01*
X58515982Y-27359681D01*
X58515984Y-27359687D01*
X58515983Y-27359687D01*
X58630991Y-27688361D01*
X58631002Y-27688388D01*
X58782091Y-28002128D01*
X58782096Y-28002137D01*
X58967372Y-28297000D01*
X58967375Y-28297004D01*
X59184489Y-28569259D01*
X59430740Y-28815510D01*
X59702995Y-29032624D01*
X59703003Y-29032630D01*
X59997867Y-29217906D01*
X60311621Y-29369002D01*
X60311637Y-29369007D01*
X60311638Y-29369008D01*
X60640312Y-29484016D01*
X60640315Y-29484016D01*
X60640319Y-29484018D01*
X60979829Y-29561509D01*
X61225210Y-29589157D01*
X61325878Y-29600500D01*
X61325880Y-29600500D01*
X61674122Y-29600500D01*
X61762006Y-29590597D01*
X62020171Y-29561509D01*
X62359681Y-29484018D01*
X62399960Y-29469924D01*
X62549110Y-29417734D01*
X62688379Y-29369002D01*
X63002133Y-29217906D01*
X63296997Y-29032630D01*
X63502442Y-28868794D01*
X63569259Y-28815510D01*
X63815510Y-28569259D01*
X64032624Y-28297004D01*
X64032630Y-28296997D01*
X64217906Y-28002133D01*
X64218933Y-28000000D01*
X65276496Y-28000000D01*
X65296457Y-28189927D01*
X65326526Y-28282470D01*
X65355473Y-28371556D01*
X65355476Y-28371561D01*
X65450958Y-28536941D01*
X65450965Y-28536951D01*
X65578744Y-28678864D01*
X65578747Y-28678866D01*
X65733248Y-28791118D01*
X65907712Y-28868794D01*
X66094513Y-28908500D01*
X66285487Y-28908500D01*
X66472288Y-28868794D01*
X66646752Y-28791118D01*
X66801253Y-28678866D01*
X66899940Y-28569263D01*
X66929034Y-28536951D01*
X66929035Y-28536949D01*
X66929040Y-28536944D01*
X67024527Y-28371556D01*
X67083542Y-28189928D01*
X67103504Y-28000000D01*
X68096497Y-28000000D01*
X68116458Y-28189927D01*
X68146527Y-28282470D01*
X68175474Y-28371556D01*
X68175477Y-28371561D01*
X68270959Y-28536941D01*
X68270966Y-28536951D01*
X68398745Y-28678864D01*
X68398748Y-28678866D01*
X68553249Y-28791118D01*
X68727713Y-28868794D01*
X68914514Y-28908500D01*
X69105488Y-28908500D01*
X69292289Y-28868794D01*
X69466753Y-28791118D01*
X69621254Y-28678866D01*
X69719941Y-28569263D01*
X69749035Y-28536951D01*
X69749036Y-28536949D01*
X69749041Y-28536944D01*
X69844528Y-28371556D01*
X69903543Y-28189928D01*
X69923505Y-28000000D01*
X69903543Y-27810072D01*
X69844528Y-27628444D01*
X69749041Y-27463056D01*
X69749039Y-27463054D01*
X69749035Y-27463048D01*
X69621256Y-27321135D01*
X69466753Y-27208882D01*
X69292289Y-27131206D01*
X69105488Y-27091500D01*
X68914514Y-27091500D01*
X68727712Y-27131206D01*
X68553248Y-27208882D01*
X68398745Y-27321135D01*
X68270966Y-27463048D01*
X68270959Y-27463058D01*
X68175477Y-27628438D01*
X68175474Y-27628445D01*
X68116458Y-27810072D01*
X68096497Y-28000000D01*
X67103504Y-28000000D01*
X67083542Y-27810072D01*
X67024527Y-27628444D01*
X66929040Y-27463056D01*
X66929038Y-27463054D01*
X66929034Y-27463048D01*
X66801255Y-27321135D01*
X66646752Y-27208882D01*
X66472288Y-27131206D01*
X66285487Y-27091500D01*
X66094513Y-27091500D01*
X65907711Y-27131206D01*
X65733247Y-27208882D01*
X65578744Y-27321135D01*
X65450965Y-27463048D01*
X65450958Y-27463058D01*
X65355476Y-27628438D01*
X65355473Y-27628445D01*
X65296457Y-27810072D01*
X65276496Y-28000000D01*
X64218933Y-28000000D01*
X64369002Y-27688379D01*
X64484018Y-27359681D01*
X64561509Y-27020171D01*
X64600500Y-26674120D01*
X64600500Y-26325880D01*
X64561509Y-25979829D01*
X64484018Y-25640319D01*
X64462444Y-25578665D01*
X64369008Y-25311638D01*
X64369007Y-25311637D01*
X64369002Y-25311621D01*
X64318673Y-25207111D01*
X77307879Y-25207111D01*
X77327840Y-25397038D01*
X77357909Y-25489581D01*
X77386856Y-25578667D01*
X77386859Y-25578672D01*
X77482341Y-25744052D01*
X77482348Y-25744062D01*
X77610127Y-25885975D01*
X77610130Y-25885977D01*
X77764631Y-25998229D01*
X77939095Y-26075905D01*
X78125896Y-26115611D01*
X78316870Y-26115611D01*
X78503671Y-26075905D01*
X78678135Y-25998229D01*
X78832636Y-25885977D01*
X78960423Y-25744055D01*
X79055910Y-25578667D01*
X79114925Y-25397039D01*
X79134887Y-25207111D01*
X79114925Y-25017183D01*
X79055910Y-24835555D01*
X78960423Y-24670167D01*
X78960421Y-24670165D01*
X78960417Y-24670159D01*
X78832638Y-24528246D01*
X78678135Y-24415993D01*
X78503671Y-24338317D01*
X78316870Y-24298611D01*
X78125896Y-24298611D01*
X77939094Y-24338317D01*
X77764630Y-24415993D01*
X77610127Y-24528246D01*
X77482348Y-24670159D01*
X77482341Y-24670169D01*
X77386859Y-24835549D01*
X77386856Y-24835556D01*
X77327840Y-25017183D01*
X77307879Y-25207111D01*
X64318673Y-25207111D01*
X64217906Y-24997867D01*
X64032630Y-24703003D01*
X64032624Y-24702995D01*
X63815510Y-24430740D01*
X63569259Y-24184489D01*
X63297004Y-23967375D01*
X63297000Y-23967372D01*
X63189779Y-23900000D01*
X79286496Y-23900000D01*
X79306457Y-24089927D01*
X79326194Y-24150668D01*
X79365473Y-24271556D01*
X79365476Y-24271561D01*
X79460958Y-24436941D01*
X79460965Y-24436951D01*
X79588744Y-24578864D01*
X79649999Y-24623368D01*
X79743248Y-24691118D01*
X79917712Y-24768794D01*
X80104513Y-24808500D01*
X80295487Y-24808500D01*
X80482288Y-24768794D01*
X80656752Y-24691118D01*
X80811253Y-24578866D01*
X80842490Y-24544174D01*
X80939034Y-24436951D01*
X80939035Y-24436949D01*
X80939040Y-24436944D01*
X81034527Y-24271556D01*
X81080167Y-24131090D01*
X81120241Y-24072486D01*
X81185638Y-24044849D01*
X81255594Y-24056956D01*
X81307900Y-24104962D01*
X81319832Y-24131089D01*
X81365473Y-24271556D01*
X81365476Y-24271561D01*
X81460958Y-24436941D01*
X81460965Y-24436951D01*
X81588744Y-24578864D01*
X81649999Y-24623368D01*
X81743248Y-24691118D01*
X81917712Y-24768794D01*
X82104513Y-24808500D01*
X82295487Y-24808500D01*
X82482288Y-24768794D01*
X82656752Y-24691118D01*
X82811253Y-24578866D01*
X82842490Y-24544174D01*
X82939034Y-24436951D01*
X82939035Y-24436949D01*
X82939040Y-24436944D01*
X83034527Y-24271556D01*
X83093542Y-24089928D01*
X83113504Y-23900000D01*
X83093542Y-23710072D01*
X83034527Y-23528444D01*
X82939040Y-23363056D01*
X82939038Y-23363054D01*
X82939034Y-23363048D01*
X82811255Y-23221135D01*
X82656752Y-23108882D01*
X82482288Y-23031206D01*
X82295487Y-22991500D01*
X82104513Y-22991500D01*
X81917711Y-23031206D01*
X81743247Y-23108882D01*
X81588744Y-23221135D01*
X81460965Y-23363048D01*
X81460958Y-23363058D01*
X81372667Y-23515983D01*
X81365473Y-23528444D01*
X81332153Y-23630991D01*
X81319833Y-23668908D01*
X81279759Y-23727513D01*
X81214362Y-23755150D01*
X81144405Y-23743043D01*
X81092100Y-23695036D01*
X81080167Y-23668908D01*
X81067847Y-23630991D01*
X81034527Y-23528444D01*
X80939040Y-23363056D01*
X80939038Y-23363054D01*
X80939034Y-23363048D01*
X80811255Y-23221135D01*
X80656752Y-23108882D01*
X80482288Y-23031206D01*
X80295487Y-22991500D01*
X80104513Y-22991500D01*
X79917711Y-23031206D01*
X79743247Y-23108882D01*
X79588744Y-23221135D01*
X79460965Y-23363048D01*
X79460958Y-23363058D01*
X79365476Y-23528438D01*
X79365473Y-23528445D01*
X79306457Y-23710072D01*
X79286496Y-23900000D01*
X63189779Y-23900000D01*
X63002137Y-23782096D01*
X63002128Y-23782091D01*
X62688388Y-23631002D01*
X62688383Y-23631000D01*
X62688379Y-23630998D01*
X62688373Y-23630995D01*
X62688361Y-23630991D01*
X62359687Y-23515983D01*
X62020174Y-23438491D01*
X61674122Y-23399500D01*
X61674120Y-23399500D01*
X61325880Y-23399500D01*
X61325878Y-23399500D01*
X60979825Y-23438491D01*
X60640312Y-23515983D01*
X60311638Y-23630991D01*
X60311611Y-23631002D01*
X59997871Y-23782091D01*
X59997862Y-23782096D01*
X59702999Y-23967372D01*
X59702995Y-23967375D01*
X59430740Y-24184489D01*
X59184489Y-24430740D01*
X58967375Y-24702995D01*
X58967372Y-24702999D01*
X58782096Y-24997862D01*
X58782091Y-24997871D01*
X58631002Y-25311611D01*
X58630991Y-25311638D01*
X58515983Y-25640312D01*
X58438491Y-25979825D01*
X58399500Y-26325878D01*
X48516983Y-26325878D01*
X48545315Y-26280917D01*
X49632836Y-25193396D01*
X49673709Y-25166086D01*
X49727704Y-25143721D01*
X49892881Y-25033353D01*
X50033353Y-24892881D01*
X50143721Y-24727704D01*
X50219744Y-24544169D01*
X50258500Y-24349329D01*
X50258500Y-24150671D01*
X50219744Y-23955831D01*
X50143721Y-23772296D01*
X50095414Y-23700000D01*
X54086496Y-23700000D01*
X54106457Y-23889927D01*
X54127869Y-23955825D01*
X54165473Y-24071556D01*
X54165476Y-24071561D01*
X54260958Y-24236941D01*
X54260965Y-24236951D01*
X54388744Y-24378864D01*
X54388747Y-24378866D01*
X54543248Y-24491118D01*
X54717712Y-24568794D01*
X54904513Y-24608500D01*
X55095487Y-24608500D01*
X55282288Y-24568794D01*
X55456752Y-24491118D01*
X55611253Y-24378866D01*
X55611255Y-24378864D01*
X55739034Y-24236951D01*
X55739035Y-24236949D01*
X55739040Y-24236944D01*
X55834527Y-24071556D01*
X55893542Y-23889928D01*
X55913504Y-23700000D01*
X55893542Y-23510072D01*
X55834527Y-23328444D01*
X55739040Y-23163056D01*
X55739038Y-23163054D01*
X55739034Y-23163048D01*
X55611255Y-23021135D01*
X55456752Y-22908882D01*
X55282288Y-22831206D01*
X55135476Y-22800000D01*
X71886496Y-22800000D01*
X71906457Y-22989927D01*
X71919870Y-23031206D01*
X71965473Y-23171556D01*
X71965476Y-23171561D01*
X72060958Y-23336941D01*
X72060965Y-23336951D01*
X72188744Y-23478864D01*
X72188747Y-23478866D01*
X72343248Y-23591118D01*
X72517712Y-23668794D01*
X72704513Y-23708500D01*
X72895487Y-23708500D01*
X73082288Y-23668794D01*
X73256752Y-23591118D01*
X73411253Y-23478866D01*
X73456363Y-23428765D01*
X73516809Y-23391526D01*
X73587793Y-23392877D01*
X73643636Y-23428765D01*
X73688747Y-23478866D01*
X73843248Y-23591118D01*
X74017712Y-23668794D01*
X74204513Y-23708500D01*
X74395487Y-23708500D01*
X74582288Y-23668794D01*
X74756752Y-23591118D01*
X74911253Y-23478866D01*
X74956363Y-23428766D01*
X75039034Y-23336951D01*
X75039035Y-23336949D01*
X75039040Y-23336944D01*
X75134527Y-23171556D01*
X75193542Y-22989928D01*
X75213504Y-22800000D01*
X75193542Y-22610072D01*
X75134527Y-22428444D01*
X75122210Y-22407111D01*
X77307879Y-22407111D01*
X77327840Y-22597038D01*
X77357909Y-22689581D01*
X77386856Y-22778667D01*
X77386859Y-22778672D01*
X77482341Y-22944052D01*
X77482348Y-22944062D01*
X77610127Y-23085975D01*
X77610130Y-23085977D01*
X77764631Y-23198229D01*
X77939095Y-23275905D01*
X78125896Y-23315611D01*
X78316870Y-23315611D01*
X78503671Y-23275905D01*
X78678135Y-23198229D01*
X78832636Y-23085977D01*
X78891021Y-23021134D01*
X78960417Y-22944062D01*
X78960418Y-22944060D01*
X78960423Y-22944055D01*
X79055910Y-22778667D01*
X79114925Y-22597039D01*
X79134887Y-22407111D01*
X79114925Y-22217183D01*
X79055910Y-22035555D01*
X78960423Y-21870167D01*
X78960421Y-21870165D01*
X78960417Y-21870159D01*
X78832638Y-21728246D01*
X78678135Y-21615993D01*
X78503671Y-21538317D01*
X78316870Y-21498611D01*
X78125896Y-21498611D01*
X77939094Y-21538317D01*
X77764630Y-21615993D01*
X77610127Y-21728246D01*
X77482348Y-21870159D01*
X77482341Y-21870169D01*
X77386859Y-22035549D01*
X77386856Y-22035556D01*
X77327840Y-22217183D01*
X77307879Y-22407111D01*
X75122210Y-22407111D01*
X75039040Y-22263056D01*
X75039038Y-22263054D01*
X75039034Y-22263048D01*
X74911255Y-22121135D01*
X74756752Y-22008882D01*
X74582288Y-21931206D01*
X74395487Y-21891500D01*
X74204513Y-21891500D01*
X74017711Y-21931206D01*
X73843247Y-22008882D01*
X73688746Y-22121134D01*
X73643636Y-22171234D01*
X73583190Y-22208473D01*
X73512206Y-22207121D01*
X73456364Y-22171234D01*
X73411253Y-22121134D01*
X73256752Y-22008882D01*
X73082288Y-21931206D01*
X72895487Y-21891500D01*
X72704513Y-21891500D01*
X72517711Y-21931206D01*
X72343247Y-22008882D01*
X72188744Y-22121135D01*
X72060965Y-22263048D01*
X72060958Y-22263058D01*
X71965476Y-22428438D01*
X71965473Y-22428445D01*
X71906457Y-22610072D01*
X71886496Y-22800000D01*
X55135476Y-22800000D01*
X55095487Y-22791500D01*
X54904513Y-22791500D01*
X54717711Y-22831206D01*
X54543247Y-22908882D01*
X54388744Y-23021135D01*
X54260965Y-23163048D01*
X54260958Y-23163058D01*
X54165476Y-23328438D01*
X54165473Y-23328445D01*
X54106457Y-23510072D01*
X54086496Y-23700000D01*
X50095414Y-23700000D01*
X50033353Y-23607119D01*
X49892881Y-23466647D01*
X49727704Y-23356279D01*
X49544169Y-23280256D01*
X49522290Y-23275904D01*
X49349331Y-23241500D01*
X49349329Y-23241500D01*
X49249329Y-23241500D01*
X49050671Y-23241500D01*
X49050668Y-23241500D01*
X48855830Y-23280256D01*
X48855825Y-23280258D01*
X48672296Y-23356279D01*
X48507123Y-23466644D01*
X48507116Y-23466649D01*
X40616649Y-31357116D01*
X40616644Y-31357123D01*
X40506279Y-31522296D01*
X40430258Y-31705825D01*
X40430256Y-31705830D01*
X40391500Y-31900668D01*
X25500Y-31900668D01*
X25500Y-26325878D01*
X399500Y-26325878D01*
X399500Y-26674121D01*
X438491Y-27020174D01*
X438976Y-27022297D01*
X515982Y-27359681D01*
X515984Y-27359687D01*
X515983Y-27359687D01*
X630991Y-27688361D01*
X631002Y-27688388D01*
X782091Y-28002128D01*
X782096Y-28002137D01*
X967372Y-28297000D01*
X967375Y-28297004D01*
X1184489Y-28569259D01*
X1430740Y-28815510D01*
X1702995Y-29032624D01*
X1703003Y-29032630D01*
X1997867Y-29217906D01*
X2311621Y-29369002D01*
X2311637Y-29369007D01*
X2311638Y-29369008D01*
X2640312Y-29484016D01*
X2640315Y-29484016D01*
X2640319Y-29484018D01*
X2979829Y-29561509D01*
X3225210Y-29589157D01*
X3325878Y-29600500D01*
X3325880Y-29600500D01*
X3674122Y-29600500D01*
X3762006Y-29590597D01*
X4020171Y-29561509D01*
X4359681Y-29484018D01*
X4399960Y-29469924D01*
X4549110Y-29417734D01*
X4688379Y-29369002D01*
X5002133Y-29217906D01*
X5296997Y-29032630D01*
X5502442Y-28868794D01*
X5569259Y-28815510D01*
X5815510Y-28569259D01*
X6032624Y-28297004D01*
X6032630Y-28296997D01*
X6217906Y-28002133D01*
X6369002Y-27688379D01*
X6484018Y-27359681D01*
X6561509Y-27020171D01*
X6600500Y-26674120D01*
X6600500Y-26325880D01*
X6561509Y-25979829D01*
X6484018Y-25640319D01*
X6462444Y-25578665D01*
X6369008Y-25311638D01*
X6369007Y-25311637D01*
X6369002Y-25311621D01*
X6217906Y-24997867D01*
X6032630Y-24703003D01*
X6032624Y-24702995D01*
X5815510Y-24430740D01*
X5569259Y-24184489D01*
X5297004Y-23967375D01*
X5297000Y-23967372D01*
X5002137Y-23782096D01*
X5002128Y-23782091D01*
X4688388Y-23631002D01*
X4688383Y-23631000D01*
X4688379Y-23630998D01*
X4688373Y-23630995D01*
X4688361Y-23630991D01*
X4359687Y-23515983D01*
X4020174Y-23438491D01*
X3674122Y-23399500D01*
X3674120Y-23399500D01*
X3325880Y-23399500D01*
X3325878Y-23399500D01*
X2979825Y-23438491D01*
X2640312Y-23515983D01*
X2311638Y-23630991D01*
X2311611Y-23631002D01*
X1997871Y-23782091D01*
X1997862Y-23782096D01*
X1702999Y-23967372D01*
X1702995Y-23967375D01*
X1430740Y-24184489D01*
X1184489Y-24430740D01*
X967375Y-24702995D01*
X967372Y-24702999D01*
X782096Y-24997862D01*
X782091Y-24997871D01*
X631002Y-25311611D01*
X630991Y-25311638D01*
X515983Y-25640312D01*
X438491Y-25979825D01*
X399500Y-26325878D01*
X25500Y-26325878D01*
X25500Y-20000000D01*
X35386496Y-20000000D01*
X35406457Y-20189927D01*
X35436526Y-20282470D01*
X35465473Y-20371556D01*
X35465476Y-20371561D01*
X35560958Y-20536941D01*
X35560965Y-20536951D01*
X35688744Y-20678864D01*
X35688747Y-20678866D01*
X35843248Y-20791118D01*
X36017712Y-20868794D01*
X36204513Y-20908500D01*
X36395487Y-20908500D01*
X36582288Y-20868794D01*
X36756752Y-20791118D01*
X36911253Y-20678866D01*
X37039040Y-20536944D01*
X37134527Y-20371556D01*
X37193542Y-20189928D01*
X37213504Y-20000000D01*
X37193542Y-19810072D01*
X37134527Y-19628444D01*
X37039040Y-19463056D01*
X37039038Y-19463054D01*
X37039034Y-19463048D01*
X36911255Y-19321135D01*
X36756752Y-19208882D01*
X36582288Y-19131206D01*
X36395487Y-19091500D01*
X36204513Y-19091500D01*
X36017711Y-19131206D01*
X35843247Y-19208882D01*
X35688744Y-19321135D01*
X35560965Y-19463048D01*
X35560958Y-19463058D01*
X35485651Y-19593494D01*
X35465473Y-19628444D01*
X35450999Y-19672986D01*
X35406457Y-19810072D01*
X35386496Y-20000000D01*
X25500Y-20000000D01*
X25500Y-19000000D01*
X51586496Y-19000000D01*
X51606457Y-19189927D01*
X51621183Y-19235247D01*
X51665473Y-19371556D01*
X51665476Y-19371561D01*
X51760958Y-19536941D01*
X51760965Y-19536951D01*
X51888744Y-19678864D01*
X51888747Y-19678866D01*
X52043248Y-19791118D01*
X52217712Y-19868794D01*
X52404513Y-19908500D01*
X52595487Y-19908500D01*
X52782288Y-19868794D01*
X52956752Y-19791118D01*
X52964163Y-19785733D01*
X53031028Y-19761875D01*
X53100180Y-19777954D01*
X53149661Y-19828867D01*
X53158056Y-19848731D01*
X53165470Y-19871548D01*
X53165473Y-19871556D01*
X53182750Y-19901480D01*
X53260958Y-20036941D01*
X53260965Y-20036951D01*
X53388744Y-20178864D01*
X53388747Y-20178866D01*
X53543248Y-20291118D01*
X53717712Y-20368794D01*
X53904513Y-20408500D01*
X54095487Y-20408500D01*
X54282288Y-20368794D01*
X54456752Y-20291118D01*
X54611253Y-20178866D01*
X54689918Y-20091500D01*
X54739034Y-20036951D01*
X54739035Y-20036949D01*
X54739040Y-20036944D01*
X54834527Y-19871556D01*
X54893542Y-19689928D01*
X54913504Y-19500000D01*
X54893542Y-19310072D01*
X54834527Y-19128444D01*
X54739040Y-18963056D01*
X54739038Y-18963054D01*
X54739034Y-18963048D01*
X54611255Y-18821135D01*
X54456752Y-18708882D01*
X54282288Y-18631206D01*
X54095487Y-18591500D01*
X53904513Y-18591500D01*
X53717711Y-18631206D01*
X53543246Y-18708882D01*
X53543240Y-18708886D01*
X53535830Y-18714270D01*
X53468961Y-18738125D01*
X53399811Y-18722041D01*
X53350333Y-18671124D01*
X53341942Y-18651266D01*
X53335424Y-18631206D01*
X53334527Y-18628444D01*
X53239040Y-18463056D01*
X53239038Y-18463054D01*
X53239034Y-18463048D01*
X53111255Y-18321135D01*
X52956752Y-18208882D01*
X52782288Y-18131206D01*
X52595487Y-18091500D01*
X52404513Y-18091500D01*
X52217711Y-18131206D01*
X52043247Y-18208882D01*
X51888744Y-18321135D01*
X51760965Y-18463048D01*
X51760958Y-18463058D01*
X51665476Y-18628438D01*
X51665473Y-18628445D01*
X51606457Y-18810072D01*
X51586496Y-19000000D01*
X25500Y-19000000D01*
X25500Y-17400000D01*
X38086496Y-17400000D01*
X38106457Y-17589927D01*
X38118973Y-17628445D01*
X38165473Y-17771556D01*
X38165476Y-17771561D01*
X38260958Y-17936941D01*
X38260965Y-17936951D01*
X38388744Y-18078864D01*
X38402307Y-18088718D01*
X38543248Y-18191118D01*
X38717712Y-18268794D01*
X38904513Y-18308500D01*
X39095487Y-18308500D01*
X39282288Y-18268794D01*
X39456752Y-18191118D01*
X39611253Y-18078866D01*
X39611255Y-18078864D01*
X39739034Y-17936951D01*
X39739035Y-17936949D01*
X39739040Y-17936944D01*
X39834527Y-17771556D01*
X39893542Y-17589928D01*
X39913504Y-17400000D01*
X39893542Y-17210072D01*
X39834527Y-17028444D01*
X39739040Y-16863056D01*
X39739038Y-16863054D01*
X39739034Y-16863048D01*
X39611255Y-16721135D01*
X39456752Y-16608882D01*
X39282288Y-16531206D01*
X39095487Y-16491500D01*
X38904513Y-16491500D01*
X38717711Y-16531206D01*
X38543247Y-16608882D01*
X38388744Y-16721135D01*
X38260965Y-16863048D01*
X38260958Y-16863058D01*
X38165476Y-17028438D01*
X38165473Y-17028445D01*
X38106457Y-17210072D01*
X38086496Y-17400000D01*
X25500Y-17400000D01*
X25500Y-14200000D01*
X35386496Y-14200000D01*
X35406457Y-14389927D01*
X35425733Y-14449251D01*
X35465473Y-14571556D01*
X35465476Y-14571561D01*
X35560958Y-14736941D01*
X35560965Y-14736951D01*
X35688744Y-14878864D01*
X35688747Y-14878866D01*
X35843248Y-14991118D01*
X36017712Y-15068794D01*
X36204513Y-15108500D01*
X36395487Y-15108500D01*
X36582288Y-15068794D01*
X36756752Y-14991118D01*
X36911253Y-14878866D01*
X36941746Y-14845000D01*
X37039034Y-14736951D01*
X37039035Y-14736949D01*
X37039040Y-14736944D01*
X37134527Y-14571556D01*
X37193542Y-14389928D01*
X37213504Y-14200000D01*
X37193542Y-14010072D01*
X37134527Y-13828444D01*
X37039040Y-13663056D01*
X37039038Y-13663054D01*
X37039034Y-13663048D01*
X36911255Y-13521135D01*
X36756752Y-13408882D01*
X36582288Y-13331206D01*
X36395487Y-13291500D01*
X36204513Y-13291500D01*
X36017711Y-13331206D01*
X35843247Y-13408882D01*
X35688744Y-13521135D01*
X35560965Y-13663048D01*
X35560958Y-13663058D01*
X35465476Y-13828438D01*
X35465473Y-13828445D01*
X35406457Y-14010072D01*
X35386496Y-14200000D01*
X25500Y-14200000D01*
X25500Y-3325878D01*
X399500Y-3325878D01*
X399500Y-3674121D01*
X438491Y-4020174D01*
X468455Y-4151451D01*
X515982Y-4359681D01*
X515984Y-4359687D01*
X515983Y-4359687D01*
X630991Y-4688361D01*
X631002Y-4688388D01*
X782091Y-5002128D01*
X782096Y-5002137D01*
X967372Y-5297000D01*
X967375Y-5297004D01*
X1184489Y-5569259D01*
X1430740Y-5815510D01*
X1702995Y-6032624D01*
X1703003Y-6032630D01*
X1997867Y-6217906D01*
X2311621Y-6369002D01*
X2311637Y-6369007D01*
X2311638Y-6369008D01*
X2640312Y-6484016D01*
X2640315Y-6484016D01*
X2640319Y-6484018D01*
X2979829Y-6561509D01*
X3225210Y-6589157D01*
X3325878Y-6600500D01*
X3325880Y-6600500D01*
X3674122Y-6600500D01*
X3762006Y-6590597D01*
X4020171Y-6561509D01*
X4359681Y-6484018D01*
X4377826Y-6477669D01*
X4441855Y-6455264D01*
X4688379Y-6369002D01*
X5002133Y-6217906D01*
X5296997Y-6032630D01*
X5426613Y-5929265D01*
X5569259Y-5815510D01*
X5815510Y-5569259D01*
X5993477Y-5346093D01*
X6032630Y-5296997D01*
X6217906Y-5002133D01*
X6369002Y-4688379D01*
X6484018Y-4359681D01*
X6561509Y-4020171D01*
X6600500Y-3674120D01*
X6600500Y-3325880D01*
X6599611Y-3317993D01*
X6574742Y-3097277D01*
X6561509Y-2979829D01*
X6484018Y-2640319D01*
X6444036Y-2526058D01*
X6369008Y-2311638D01*
X6369007Y-2311637D01*
X6369002Y-2311621D01*
X6344143Y-2260000D01*
X7036844Y-2260000D01*
X7053095Y-2456121D01*
X7055437Y-2484375D01*
X7110702Y-2702612D01*
X7110703Y-2702613D01*
X7110704Y-2702616D01*
X7199580Y-2905235D01*
X7201141Y-2908793D01*
X7324275Y-3097265D01*
X7324280Y-3097270D01*
X7467475Y-3252820D01*
X7498896Y-3316485D01*
X7490909Y-3387031D01*
X7446051Y-3442060D01*
X7418807Y-3456213D01*
X7303797Y-3499110D01*
X7303792Y-3499112D01*
X7186738Y-3586738D01*
X7099112Y-3703792D01*
X7099110Y-3703797D01*
X7048011Y-3840795D01*
X7048009Y-3840803D01*
X7041500Y-3901350D01*
X7041500Y-5698649D01*
X7048009Y-5759196D01*
X7048011Y-5759204D01*
X7099110Y-5896202D01*
X7099112Y-5896207D01*
X7186738Y-6013261D01*
X7303792Y-6100887D01*
X7303794Y-6100888D01*
X7303796Y-6100889D01*
X7357600Y-6120957D01*
X7440795Y-6151988D01*
X7440803Y-6151990D01*
X7501350Y-6158499D01*
X7501355Y-6158499D01*
X7501362Y-6158500D01*
X7501368Y-6158500D01*
X9298632Y-6158500D01*
X9298638Y-6158500D01*
X9298645Y-6158499D01*
X9298649Y-6158499D01*
X9359196Y-6151990D01*
X9359199Y-6151989D01*
X9359201Y-6151989D01*
X9496204Y-6100889D01*
X9528202Y-6076936D01*
X9613261Y-6013261D01*
X9700886Y-5896208D01*
X9700885Y-5896208D01*
X9700889Y-5896204D01*
X9744999Y-5777939D01*
X9787545Y-5721107D01*
X9854066Y-5696296D01*
X9923440Y-5711388D01*
X9955753Y-5736635D01*
X9976529Y-5759204D01*
X10016762Y-5802908D01*
X10050654Y-5829287D01*
X10194424Y-5941189D01*
X10392426Y-6048342D01*
X10392427Y-6048342D01*
X10392428Y-6048343D01*
X10475723Y-6076938D01*
X10605365Y-6121444D01*
X10827431Y-6158500D01*
X10827435Y-6158500D01*
X11052565Y-6158500D01*
X11052569Y-6158500D01*
X11274635Y-6121444D01*
X11487574Y-6048342D01*
X11685576Y-5941189D01*
X11863240Y-5802906D01*
X12015722Y-5637268D01*
X12015927Y-5636955D01*
X12043730Y-5594399D01*
X12104518Y-5501354D01*
X12158520Y-5455268D01*
X12228868Y-5445692D01*
X12293225Y-5475669D01*
X12315480Y-5501353D01*
X12348607Y-5552058D01*
X12404275Y-5637265D01*
X12404279Y-5637270D01*
X12556762Y-5802908D01*
X12590654Y-5829287D01*
X12734424Y-5941189D01*
X12932426Y-6048342D01*
X12932427Y-6048342D01*
X12932428Y-6048343D01*
X13015723Y-6076938D01*
X13145365Y-6121444D01*
X13367431Y-6158500D01*
X13367435Y-6158500D01*
X13592565Y-6158500D01*
X13592569Y-6158500D01*
X13814635Y-6121444D01*
X14027574Y-6048342D01*
X14225576Y-5941189D01*
X14403240Y-5802906D01*
X14555722Y-5637268D01*
X14555927Y-5636955D01*
X14583730Y-5594399D01*
X14644518Y-5501354D01*
X14698520Y-5455268D01*
X14768868Y-5445692D01*
X14833225Y-5475669D01*
X14855480Y-5501353D01*
X14888607Y-5552058D01*
X14944275Y-5637265D01*
X14944279Y-5637270D01*
X15096762Y-5802908D01*
X15130654Y-5829287D01*
X15274424Y-5941189D01*
X15472426Y-6048342D01*
X15472427Y-6048342D01*
X15472428Y-6048343D01*
X15555723Y-6076938D01*
X15685365Y-6121444D01*
X15907431Y-6158500D01*
X15907435Y-6158500D01*
X16132565Y-6158500D01*
X16132569Y-6158500D01*
X16354635Y-6121444D01*
X16567574Y-6048342D01*
X16765576Y-5941189D01*
X16943240Y-5802906D01*
X17095722Y-5637268D01*
X17095927Y-5636955D01*
X17130568Y-5583932D01*
X17184816Y-5500898D01*
X17238819Y-5454810D01*
X17309167Y-5445235D01*
X17373524Y-5475212D01*
X17395782Y-5500898D01*
X17484674Y-5636958D01*
X17637097Y-5802534D01*
X17814698Y-5940767D01*
X17814699Y-5940768D01*
X18012628Y-6047882D01*
X18012630Y-6047883D01*
X18225483Y-6120955D01*
X18225492Y-6120957D01*
X18306000Y-6134391D01*
X18306000Y-5253797D01*
X18359288Y-5284563D01*
X18491541Y-5320000D01*
X18628459Y-5320000D01*
X18760712Y-5284563D01*
X18814000Y-5253797D01*
X18814000Y-6134390D01*
X18894507Y-6120957D01*
X18894516Y-6120955D01*
X19107369Y-6047883D01*
X19107371Y-6047882D01*
X19305300Y-5940768D01*
X19305301Y-5940767D01*
X19482902Y-5802534D01*
X19635327Y-5636955D01*
X19724217Y-5500899D01*
X19778220Y-5454810D01*
X19848568Y-5445235D01*
X19912925Y-5475212D01*
X19935183Y-5500898D01*
X20024279Y-5637270D01*
X20176762Y-5802908D01*
X20210654Y-5829287D01*
X20354424Y-5941189D01*
X20552426Y-6048342D01*
X20552427Y-6048342D01*
X20552428Y-6048343D01*
X20635723Y-6076938D01*
X20765365Y-6121444D01*
X20987431Y-6158500D01*
X20987435Y-6158500D01*
X21212565Y-6158500D01*
X21212569Y-6158500D01*
X21434635Y-6121444D01*
X21647574Y-6048342D01*
X21845576Y-5941189D01*
X22023240Y-5802906D01*
X22175722Y-5637268D01*
X22175927Y-5636955D01*
X22203730Y-5594399D01*
X22264518Y-5501354D01*
X22318520Y-5455268D01*
X22388868Y-5445692D01*
X22453225Y-5475669D01*
X22475480Y-5501353D01*
X22508607Y-5552058D01*
X22564275Y-5637265D01*
X22564279Y-5637270D01*
X22716762Y-5802908D01*
X22750654Y-5829287D01*
X22894424Y-5941189D01*
X23092426Y-6048342D01*
X23092427Y-6048342D01*
X23092428Y-6048343D01*
X23175723Y-6076938D01*
X23305365Y-6121444D01*
X23527431Y-6158500D01*
X23527435Y-6158500D01*
X23752565Y-6158500D01*
X23752569Y-6158500D01*
X23974635Y-6121444D01*
X24187574Y-6048342D01*
X24385576Y-5941189D01*
X24563240Y-5802906D01*
X24715722Y-5637268D01*
X24715927Y-5636955D01*
X24743730Y-5594399D01*
X24804518Y-5501354D01*
X24858520Y-5455268D01*
X24928868Y-5445692D01*
X24993225Y-5475669D01*
X25015480Y-5501353D01*
X25048607Y-5552058D01*
X25104275Y-5637265D01*
X25104279Y-5637270D01*
X25256762Y-5802908D01*
X25290654Y-5829287D01*
X25434424Y-5941189D01*
X25632426Y-6048342D01*
X25632427Y-6048342D01*
X25632428Y-6048343D01*
X25715723Y-6076938D01*
X25845365Y-6121444D01*
X26067431Y-6158500D01*
X26067435Y-6158500D01*
X26292565Y-6158500D01*
X26292569Y-6158500D01*
X26514635Y-6121444D01*
X26727574Y-6048342D01*
X26925576Y-5941189D01*
X27103240Y-5802906D01*
X27255722Y-5637268D01*
X27255927Y-5636955D01*
X27283730Y-5594399D01*
X27344518Y-5501354D01*
X27398520Y-5455268D01*
X27468868Y-5445692D01*
X27533225Y-5475669D01*
X27555480Y-5501353D01*
X27588607Y-5552058D01*
X27644275Y-5637265D01*
X27644279Y-5637270D01*
X27796762Y-5802908D01*
X27830654Y-5829287D01*
X27974424Y-5941189D01*
X28172426Y-6048342D01*
X28172427Y-6048342D01*
X28172428Y-6048343D01*
X28255723Y-6076938D01*
X28385365Y-6121444D01*
X28607431Y-6158500D01*
X28607435Y-6158500D01*
X28832565Y-6158500D01*
X28832569Y-6158500D01*
X29054635Y-6121444D01*
X29267574Y-6048342D01*
X29465576Y-5941189D01*
X29643240Y-5802906D01*
X29795722Y-5637268D01*
X29795927Y-5636955D01*
X29823730Y-5594399D01*
X29884518Y-5501354D01*
X29938520Y-5455268D01*
X30008868Y-5445692D01*
X30073225Y-5475669D01*
X30095480Y-5501353D01*
X30128607Y-5552058D01*
X30184275Y-5637265D01*
X30184279Y-5637270D01*
X30336762Y-5802908D01*
X30370654Y-5829287D01*
X30514424Y-5941189D01*
X30712426Y-6048342D01*
X30712427Y-6048342D01*
X30712428Y-6048343D01*
X30795723Y-6076938D01*
X30925365Y-6121444D01*
X31147431Y-6158500D01*
X31147435Y-6158500D01*
X31372565Y-6158500D01*
X31372569Y-6158500D01*
X31594635Y-6121444D01*
X31807574Y-6048342D01*
X32005576Y-5941189D01*
X32183240Y-5802906D01*
X32335722Y-5637268D01*
X32335927Y-5636955D01*
X32363730Y-5594399D01*
X32424518Y-5501354D01*
X32478520Y-5455268D01*
X32548868Y-5445692D01*
X32613225Y-5475669D01*
X32635480Y-5501353D01*
X32668607Y-5552058D01*
X32724275Y-5637265D01*
X32724279Y-5637270D01*
X32876762Y-5802908D01*
X32910654Y-5829287D01*
X33054424Y-5941189D01*
X33252426Y-6048342D01*
X33252427Y-6048342D01*
X33252428Y-6048343D01*
X33335723Y-6076938D01*
X33465365Y-6121444D01*
X33687431Y-6158500D01*
X33687435Y-6158500D01*
X33912565Y-6158500D01*
X33912569Y-6158500D01*
X34134635Y-6121444D01*
X34347574Y-6048342D01*
X34545576Y-5941189D01*
X34723240Y-5802906D01*
X34875722Y-5637268D01*
X34875927Y-5636955D01*
X34903730Y-5594399D01*
X34964518Y-5501354D01*
X35018520Y-5455268D01*
X35088868Y-5445692D01*
X35153225Y-5475669D01*
X35175480Y-5501353D01*
X35208607Y-5552058D01*
X35264275Y-5637265D01*
X35264279Y-5637270D01*
X35416762Y-5802908D01*
X35450654Y-5829287D01*
X35594424Y-5941189D01*
X35792426Y-6048342D01*
X35792427Y-6048342D01*
X35792428Y-6048343D01*
X35875723Y-6076938D01*
X36005365Y-6121444D01*
X36227431Y-6158500D01*
X36227435Y-6158500D01*
X36452565Y-6158500D01*
X36452569Y-6158500D01*
X36674635Y-6121444D01*
X36887574Y-6048342D01*
X37085576Y-5941189D01*
X37263240Y-5802906D01*
X37415722Y-5637268D01*
X37415927Y-5636955D01*
X37450568Y-5583932D01*
X37504816Y-5500898D01*
X37558819Y-5454810D01*
X37629167Y-5445235D01*
X37693524Y-5475212D01*
X37715782Y-5500898D01*
X37804674Y-5636958D01*
X37957097Y-5802534D01*
X38134698Y-5940767D01*
X38134699Y-5940768D01*
X38332628Y-6047882D01*
X38332630Y-6047883D01*
X38545483Y-6120955D01*
X38545492Y-6120957D01*
X38626000Y-6134391D01*
X38626000Y-5253797D01*
X38679288Y-5284563D01*
X38811541Y-5320000D01*
X38948459Y-5320000D01*
X39080712Y-5284563D01*
X39134000Y-5253797D01*
X39134000Y-6134391D01*
X39214507Y-6120957D01*
X39214516Y-6120955D01*
X39427369Y-6047883D01*
X39427371Y-6047882D01*
X39625300Y-5940768D01*
X39625301Y-5940767D01*
X39802902Y-5802534D01*
X39955327Y-5636955D01*
X40044217Y-5500899D01*
X40098220Y-5454810D01*
X40168568Y-5445235D01*
X40232925Y-5475212D01*
X40255183Y-5500898D01*
X40344279Y-5637270D01*
X40496762Y-5802908D01*
X40530654Y-5829287D01*
X40674424Y-5941189D01*
X40872426Y-6048342D01*
X40872427Y-6048342D01*
X40872428Y-6048343D01*
X40955723Y-6076938D01*
X41085365Y-6121444D01*
X41307431Y-6158500D01*
X41307435Y-6158500D01*
X41532565Y-6158500D01*
X41532569Y-6158500D01*
X41754635Y-6121444D01*
X41967574Y-6048342D01*
X42165576Y-5941189D01*
X42343240Y-5802906D01*
X42495722Y-5637268D01*
X42495927Y-5636955D01*
X42523730Y-5594399D01*
X42584518Y-5501354D01*
X42638520Y-5455268D01*
X42708868Y-5445692D01*
X42773225Y-5475669D01*
X42795480Y-5501353D01*
X42828607Y-5552058D01*
X42884275Y-5637265D01*
X42884279Y-5637270D01*
X43036762Y-5802908D01*
X43070654Y-5829287D01*
X43214424Y-5941189D01*
X43412426Y-6048342D01*
X43412427Y-6048342D01*
X43412428Y-6048343D01*
X43495723Y-6076938D01*
X43625365Y-6121444D01*
X43847431Y-6158500D01*
X43847435Y-6158500D01*
X44072565Y-6158500D01*
X44072569Y-6158500D01*
X44294635Y-6121444D01*
X44507574Y-6048342D01*
X44705576Y-5941189D01*
X44883240Y-5802906D01*
X45035722Y-5637268D01*
X45035927Y-5636955D01*
X45063730Y-5594399D01*
X45124518Y-5501354D01*
X45178520Y-5455268D01*
X45248868Y-5445692D01*
X45313225Y-5475669D01*
X45335480Y-5501353D01*
X45368607Y-5552058D01*
X45424275Y-5637265D01*
X45424279Y-5637270D01*
X45576762Y-5802908D01*
X45610654Y-5829287D01*
X45754424Y-5941189D01*
X45952426Y-6048342D01*
X45952427Y-6048342D01*
X45952428Y-6048343D01*
X46035723Y-6076938D01*
X46165365Y-6121444D01*
X46387431Y-6158500D01*
X46387435Y-6158500D01*
X46612565Y-6158500D01*
X46612569Y-6158500D01*
X46834635Y-6121444D01*
X47047574Y-6048342D01*
X47245576Y-5941189D01*
X47423240Y-5802906D01*
X47575722Y-5637268D01*
X47575927Y-5636955D01*
X47603730Y-5594399D01*
X47664518Y-5501354D01*
X47718520Y-5455268D01*
X47788868Y-5445692D01*
X47853225Y-5475669D01*
X47875480Y-5501353D01*
X47908607Y-5552058D01*
X47964275Y-5637265D01*
X47964279Y-5637270D01*
X48116762Y-5802908D01*
X48150654Y-5829287D01*
X48294424Y-5941189D01*
X48492426Y-6048342D01*
X48492427Y-6048342D01*
X48492428Y-6048343D01*
X48575723Y-6076938D01*
X48705365Y-6121444D01*
X48927431Y-6158500D01*
X48927435Y-6158500D01*
X49152565Y-6158500D01*
X49152569Y-6158500D01*
X49374635Y-6121444D01*
X49587574Y-6048342D01*
X49785576Y-5941189D01*
X49963240Y-5802906D01*
X50115722Y-5637268D01*
X50115927Y-5636955D01*
X50143730Y-5594399D01*
X50204518Y-5501354D01*
X50258520Y-5455268D01*
X50328868Y-5445692D01*
X50393225Y-5475669D01*
X50415480Y-5501353D01*
X50448607Y-5552058D01*
X50504275Y-5637265D01*
X50504279Y-5637270D01*
X50656762Y-5802908D01*
X50690654Y-5829287D01*
X50834424Y-5941189D01*
X51032426Y-6048342D01*
X51032427Y-6048342D01*
X51032428Y-6048343D01*
X51115723Y-6076938D01*
X51245365Y-6121444D01*
X51467431Y-6158500D01*
X51467435Y-6158500D01*
X51692565Y-6158500D01*
X51692569Y-6158500D01*
X51914635Y-6121444D01*
X52127574Y-6048342D01*
X52325576Y-5941189D01*
X52503240Y-5802906D01*
X52655722Y-5637268D01*
X52655927Y-5636955D01*
X52683730Y-5594399D01*
X52744518Y-5501354D01*
X52798520Y-5455268D01*
X52868868Y-5445692D01*
X52933225Y-5475669D01*
X52955480Y-5501353D01*
X52988607Y-5552058D01*
X53044275Y-5637265D01*
X53044279Y-5637270D01*
X53196762Y-5802908D01*
X53230654Y-5829287D01*
X53374424Y-5941189D01*
X53572426Y-6048342D01*
X53572427Y-6048342D01*
X53572428Y-6048343D01*
X53655723Y-6076938D01*
X53785365Y-6121444D01*
X54007431Y-6158500D01*
X54007435Y-6158500D01*
X54232565Y-6158500D01*
X54232569Y-6158500D01*
X54454635Y-6121444D01*
X54667574Y-6048342D01*
X54865576Y-5941189D01*
X55043240Y-5802906D01*
X55195722Y-5637268D01*
X55195927Y-5636955D01*
X55230568Y-5583932D01*
X55284816Y-5500898D01*
X55338819Y-5454810D01*
X55409167Y-5445235D01*
X55473524Y-5475212D01*
X55495782Y-5500898D01*
X55584674Y-5636958D01*
X55737097Y-5802534D01*
X55914698Y-5940767D01*
X55914699Y-5940768D01*
X56112628Y-6047882D01*
X56112630Y-6047883D01*
X56325483Y-6120955D01*
X56325492Y-6120957D01*
X56406000Y-6134391D01*
X56406000Y-5253797D01*
X56459288Y-5284563D01*
X56591541Y-5320000D01*
X56728459Y-5320000D01*
X56860712Y-5284563D01*
X56914000Y-5253797D01*
X56914000Y-6134390D01*
X56994507Y-6120957D01*
X56994516Y-6120955D01*
X57207369Y-6047883D01*
X57207371Y-6047882D01*
X57405300Y-5940768D01*
X57405301Y-5940767D01*
X57582902Y-5802534D01*
X57735325Y-5636958D01*
X57858419Y-5448548D01*
X57948820Y-5242456D01*
X57948823Y-5242449D01*
X57996544Y-5054000D01*
X57113797Y-5054000D01*
X57144563Y-5000712D01*
X57180000Y-4868459D01*
X57180000Y-4731541D01*
X57144563Y-4599288D01*
X57113797Y-4546000D01*
X57996544Y-4546000D01*
X57996544Y-4545999D01*
X57948823Y-4357550D01*
X57948820Y-4357543D01*
X57858419Y-4151451D01*
X57735325Y-3963041D01*
X57582902Y-3797465D01*
X57405301Y-3659232D01*
X57405300Y-3659231D01*
X57371791Y-3641097D01*
X57321401Y-3591083D01*
X57306050Y-3521766D01*
X57330612Y-3455153D01*
X57371790Y-3419472D01*
X57405576Y-3401189D01*
X57502334Y-3325878D01*
X58399500Y-3325878D01*
X58399500Y-3674121D01*
X58438491Y-4020174D01*
X58468455Y-4151451D01*
X58515982Y-4359681D01*
X58515984Y-4359687D01*
X58515983Y-4359687D01*
X58630991Y-4688361D01*
X58631002Y-4688388D01*
X58782091Y-5002128D01*
X58782096Y-5002137D01*
X58967372Y-5297000D01*
X58967375Y-5297004D01*
X59184489Y-5569259D01*
X59430740Y-5815510D01*
X59702995Y-6032624D01*
X59703003Y-6032630D01*
X59997867Y-6217906D01*
X60311621Y-6369002D01*
X60311637Y-6369007D01*
X60311638Y-6369008D01*
X60640312Y-6484016D01*
X60640315Y-6484016D01*
X60640319Y-6484018D01*
X60979829Y-6561509D01*
X61225210Y-6589157D01*
X61325878Y-6600500D01*
X61325880Y-6600500D01*
X61674122Y-6600500D01*
X61762006Y-6590597D01*
X62020171Y-6561509D01*
X62359681Y-6484018D01*
X62377826Y-6477669D01*
X62441855Y-6455264D01*
X62688379Y-6369002D01*
X63002133Y-6217906D01*
X63296997Y-6032630D01*
X63426613Y-5929265D01*
X63569259Y-5815510D01*
X63579769Y-5805000D01*
X66546673Y-5805000D01*
X66558149Y-5943500D01*
X66565950Y-6037633D01*
X66623249Y-6263903D01*
X66623252Y-6263910D01*
X66717015Y-6477668D01*
X66844685Y-6673083D01*
X67002774Y-6844813D01*
X67002785Y-6844823D01*
X67170766Y-6975569D01*
X67212237Y-7033194D01*
X67215970Y-7104092D01*
X67180780Y-7165754D01*
X67170766Y-7174431D01*
X67002785Y-7305176D01*
X67002774Y-7305186D01*
X66844685Y-7476916D01*
X66717015Y-7672331D01*
X66623252Y-7886089D01*
X66623249Y-7886096D01*
X66565950Y-8112366D01*
X66565949Y-8112372D01*
X66565949Y-8112374D01*
X66546673Y-8345000D01*
X66565746Y-8575182D01*
X66565950Y-8577633D01*
X66623249Y-8803903D01*
X66623252Y-8803910D01*
X66717015Y-9017668D01*
X66844685Y-9213083D01*
X67002774Y-9384813D01*
X67002785Y-9384823D01*
X67170766Y-9515569D01*
X67212237Y-9573194D01*
X67215970Y-9644092D01*
X67180780Y-9705754D01*
X67170766Y-9714431D01*
X67002785Y-9845176D01*
X67002774Y-9845186D01*
X66844685Y-10016916D01*
X66717015Y-10212331D01*
X66623252Y-10426089D01*
X66623249Y-10426096D01*
X66565950Y-10652366D01*
X66565949Y-10652372D01*
X66565949Y-10652374D01*
X66546673Y-10885000D01*
X66565746Y-11115182D01*
X66565950Y-11117633D01*
X66623249Y-11343903D01*
X66623252Y-11343910D01*
X66717015Y-11557668D01*
X66844685Y-11753083D01*
X67002774Y-11924813D01*
X67002785Y-11924823D01*
X67170766Y-12055569D01*
X67212237Y-12113194D01*
X67215970Y-12184092D01*
X67180780Y-12245754D01*
X67170766Y-12254431D01*
X67002785Y-12385176D01*
X67002774Y-12385186D01*
X66844685Y-12556916D01*
X66717015Y-12752331D01*
X66623252Y-12966089D01*
X66623249Y-12966096D01*
X66565950Y-13192366D01*
X66565949Y-13192372D01*
X66565949Y-13192374D01*
X66546673Y-13425000D01*
X66565746Y-13655182D01*
X66565950Y-13657633D01*
X66623249Y-13883903D01*
X66623252Y-13883910D01*
X66717015Y-14097668D01*
X66835598Y-14279174D01*
X66844686Y-14293083D01*
X66929842Y-14385587D01*
X66961263Y-14449251D01*
X66953276Y-14519797D01*
X66908417Y-14574826D01*
X66881175Y-14588979D01*
X66813795Y-14614111D01*
X66813792Y-14614112D01*
X66696738Y-14701738D01*
X66609112Y-14818792D01*
X66609110Y-14818797D01*
X66558011Y-14955795D01*
X66558009Y-14955803D01*
X66551500Y-15016350D01*
X66551500Y-16913649D01*
X66558009Y-16974196D01*
X66558011Y-16974204D01*
X66609110Y-17111202D01*
X66609112Y-17111207D01*
X66696738Y-17228261D01*
X66813792Y-17315887D01*
X66813794Y-17315888D01*
X66813796Y-17315889D01*
X66872875Y-17337924D01*
X66950795Y-17366988D01*
X66950803Y-17366990D01*
X67011350Y-17373499D01*
X67011355Y-17373499D01*
X67011362Y-17373500D01*
X68594426Y-17373500D01*
X68662547Y-17393502D01*
X68709040Y-17447158D01*
X68719144Y-17517432D01*
X68703546Y-17562499D01*
X68665474Y-17628441D01*
X68665473Y-17628445D01*
X68606457Y-17810072D01*
X68586496Y-18000000D01*
X68596220Y-18092525D01*
X68583447Y-18162363D01*
X68544971Y-18207630D01*
X68388744Y-18321135D01*
X68260965Y-18463048D01*
X68260958Y-18463058D01*
X68165476Y-18628438D01*
X68165473Y-18628445D01*
X68106457Y-18810072D01*
X68086496Y-19000000D01*
X68106457Y-19189927D01*
X68121183Y-19235247D01*
X68165473Y-19371556D01*
X68165476Y-19371561D01*
X68260958Y-19536941D01*
X68260965Y-19536951D01*
X68388744Y-19678864D01*
X68388747Y-19678866D01*
X68543248Y-19791118D01*
X68717712Y-19868794D01*
X68755156Y-19876753D01*
X68817630Y-19910482D01*
X68851951Y-19972631D01*
X68847223Y-20043470D01*
X68804947Y-20100508D01*
X68755156Y-20123247D01*
X68717711Y-20131206D01*
X68543247Y-20208882D01*
X68388744Y-20321135D01*
X68260965Y-20463048D01*
X68260958Y-20463058D01*
X68165476Y-20628438D01*
X68165473Y-20628445D01*
X68106457Y-20810072D01*
X68086496Y-21000000D01*
X68106457Y-21189927D01*
X68136526Y-21282470D01*
X68165473Y-21371556D01*
X68165476Y-21371561D01*
X68260958Y-21536941D01*
X68260965Y-21536951D01*
X68388744Y-21678864D01*
X68388747Y-21678866D01*
X68543248Y-21791118D01*
X68717712Y-21868794D01*
X68904513Y-21908500D01*
X69095487Y-21908500D01*
X69282288Y-21868794D01*
X69456752Y-21791118D01*
X69611253Y-21678866D01*
X69739040Y-21536944D01*
X69834527Y-21371556D01*
X69893542Y-21189928D01*
X69913504Y-21000000D01*
X69893542Y-20810072D01*
X69834527Y-20628444D01*
X69739040Y-20463056D01*
X69739038Y-20463054D01*
X69739034Y-20463048D01*
X69611255Y-20321135D01*
X69456752Y-20208882D01*
X69282288Y-20131206D01*
X69244842Y-20123246D01*
X69182370Y-20089519D01*
X69148048Y-20027369D01*
X69152776Y-19956530D01*
X69195052Y-19899493D01*
X69244842Y-19876753D01*
X69282288Y-19868794D01*
X69456752Y-19791118D01*
X69611253Y-19678866D01*
X69700474Y-19579776D01*
X69739034Y-19536951D01*
X69739035Y-19536949D01*
X69739040Y-19536944D01*
X69834527Y-19371556D01*
X69893542Y-19189928D01*
X69913504Y-19000000D01*
X69903779Y-18907476D01*
X69916551Y-18837640D01*
X69955028Y-18792371D01*
X70051828Y-18722041D01*
X70111253Y-18678866D01*
X70195584Y-18585205D01*
X70256029Y-18547967D01*
X70327013Y-18549318D01*
X70385998Y-18588832D01*
X70414256Y-18653962D01*
X70415220Y-18669517D01*
X70415220Y-18671274D01*
X70435181Y-18861203D01*
X70450217Y-18907478D01*
X70494197Y-19042832D01*
X70494200Y-19042837D01*
X70589682Y-19208217D01*
X70589689Y-19208227D01*
X70717468Y-19350140D01*
X70778723Y-19394644D01*
X70871972Y-19462394D01*
X71046436Y-19540070D01*
X71233237Y-19579776D01*
X71424211Y-19579776D01*
X71611012Y-19540070D01*
X71785476Y-19462394D01*
X71939977Y-19350142D01*
X72031522Y-19248469D01*
X72091967Y-19211230D01*
X72162950Y-19212581D01*
X72194773Y-19233898D01*
X72210540Y-19235247D01*
X73044227Y-18401560D01*
X73046740Y-18407626D01*
X73139762Y-18546844D01*
X73258156Y-18665238D01*
X73397374Y-18758260D01*
X73403436Y-18760771D01*
X72570715Y-19593492D01*
X72570715Y-19593494D01*
X72639313Y-19649304D01*
X72639318Y-19649307D01*
X72874030Y-19792038D01*
X73125989Y-19901480D01*
X73390509Y-19975595D01*
X73662635Y-20012999D01*
X73662649Y-20013000D01*
X73937351Y-20013000D01*
X73937364Y-20012999D01*
X74209490Y-19975595D01*
X74474010Y-19901480D01*
X74725969Y-19792038D01*
X74960679Y-19649309D01*
X75029283Y-19593493D01*
X75029283Y-19593492D01*
X74196562Y-18760771D01*
X74202626Y-18758260D01*
X74341844Y-18665238D01*
X74460238Y-18546844D01*
X74553260Y-18407626D01*
X74555771Y-18401561D01*
X75389457Y-19235247D01*
X75519682Y-19050762D01*
X75519685Y-19050756D01*
X75646061Y-18806865D01*
X75738055Y-18548019D01*
X75738057Y-18548011D01*
X75793946Y-18279054D01*
X75793947Y-18279048D01*
X75812692Y-18005004D01*
X75812692Y-18004995D01*
X75793947Y-17730951D01*
X75793361Y-17726686D01*
X75793653Y-17726645D01*
X75793653Y-17726643D01*
X75793694Y-17726640D01*
X75795523Y-17726388D01*
X75800372Y-17664428D01*
X75843299Y-17607879D01*
X75909984Y-17583515D01*
X75979255Y-17599071D01*
X75981130Y-17600132D01*
X76029775Y-17628217D01*
X76029779Y-17628218D01*
X76029788Y-17628224D01*
X76253900Y-17721054D01*
X76488211Y-17783838D01*
X76488215Y-17783838D01*
X76488217Y-17783839D01*
X76550202Y-17791999D01*
X76728712Y-17815500D01*
X76728719Y-17815500D01*
X76971281Y-17815500D01*
X76971288Y-17815500D01*
X77199317Y-17785480D01*
X77211782Y-17783839D01*
X77211782Y-17783838D01*
X77211789Y-17783838D01*
X77446100Y-17721054D01*
X77670212Y-17628224D01*
X77880289Y-17506936D01*
X78072738Y-17359265D01*
X78244265Y-17187738D01*
X78391936Y-16995289D01*
X78455611Y-16885000D01*
X79396835Y-16885000D01*
X79415465Y-17121710D01*
X79470894Y-17352592D01*
X79516650Y-17463056D01*
X79561760Y-17571963D01*
X79684074Y-17771561D01*
X79685825Y-17774417D01*
X79685826Y-17774419D01*
X79840030Y-17954969D01*
X79999888Y-18091500D01*
X80020584Y-18109176D01*
X80223037Y-18233240D01*
X80442406Y-18324105D01*
X80673289Y-18379535D01*
X80910000Y-18398165D01*
X81146711Y-18379535D01*
X81377594Y-18324105D01*
X81596963Y-18233240D01*
X81799416Y-18109176D01*
X81979969Y-17954969D01*
X82134176Y-17774416D01*
X82258240Y-17571963D01*
X82349105Y-17352594D01*
X82404535Y-17121711D01*
X82423165Y-16885000D01*
X82404535Y-16648289D01*
X82349105Y-16417406D01*
X82258240Y-16198037D01*
X82134176Y-15995584D01*
X82128797Y-15989286D01*
X81979969Y-15815030D01*
X81827636Y-15684926D01*
X81788826Y-15625476D01*
X81784748Y-15578959D01*
X81034947Y-14829158D01*
X81102993Y-14810925D01*
X81217007Y-14745099D01*
X81310099Y-14652007D01*
X81375925Y-14537993D01*
X81394158Y-14469947D01*
X82143102Y-15218891D01*
X82143102Y-15218890D01*
X82257791Y-15031738D01*
X82348628Y-14812437D01*
X82404039Y-14581632D01*
X82422662Y-14345000D01*
X82404039Y-14108367D01*
X82348628Y-13877562D01*
X82257791Y-13658261D01*
X82143102Y-13471108D01*
X82143101Y-13471107D01*
X81394157Y-14220051D01*
X81375925Y-14152007D01*
X81310099Y-14037993D01*
X81217007Y-13944901D01*
X81102993Y-13879075D01*
X81034946Y-13860841D01*
X81783890Y-13111897D01*
X81783890Y-13111896D01*
X81596738Y-12997208D01*
X81377437Y-12906371D01*
X81146632Y-12850960D01*
X80910000Y-12832337D01*
X80673367Y-12850960D01*
X80442562Y-12906371D01*
X80223266Y-12997206D01*
X80036108Y-13111897D01*
X80036108Y-13111898D01*
X80785052Y-13860842D01*
X80717007Y-13879075D01*
X80602993Y-13944901D01*
X80509901Y-14037993D01*
X80444075Y-14152007D01*
X80425842Y-14220052D01*
X79676898Y-13471108D01*
X79676897Y-13471108D01*
X79562206Y-13658266D01*
X79471371Y-13877562D01*
X79415960Y-14108367D01*
X79397337Y-14345000D01*
X79415960Y-14581632D01*
X79471371Y-14812437D01*
X79562208Y-15031738D01*
X79676896Y-15218890D01*
X79676897Y-15218890D01*
X80425841Y-14469946D01*
X80444075Y-14537993D01*
X80509901Y-14652007D01*
X80602993Y-14745099D01*
X80717007Y-14810925D01*
X80785051Y-14829157D01*
X80034793Y-15579415D01*
X80023802Y-15644306D01*
X79992363Y-15684927D01*
X79840028Y-15815033D01*
X79685826Y-15995580D01*
X79685825Y-15995582D01*
X79561759Y-16198038D01*
X79470894Y-16417407D01*
X79415465Y-16648289D01*
X79396835Y-16885000D01*
X78455611Y-16885000D01*
X78513224Y-16785212D01*
X78606054Y-16561100D01*
X78668838Y-16326789D01*
X78700500Y-16086288D01*
X78700500Y-15843712D01*
X78668838Y-15603211D01*
X78606054Y-15368900D01*
X78513224Y-15144788D01*
X78513218Y-15144779D01*
X78513217Y-15144775D01*
X78391938Y-14934714D01*
X78386499Y-14927626D01*
X78244265Y-14742262D01*
X78244259Y-14742256D01*
X78244255Y-14742251D01*
X78072748Y-14570744D01*
X78072742Y-14570739D01*
X78072738Y-14570735D01*
X77880289Y-14423064D01*
X77880288Y-14423063D01*
X77880285Y-14423061D01*
X77670224Y-14301782D01*
X77670216Y-14301778D01*
X77670212Y-14301776D01*
X77446100Y-14208946D01*
X77446097Y-14208945D01*
X77446095Y-14208944D01*
X77211782Y-14146160D01*
X76971290Y-14114500D01*
X76971288Y-14114500D01*
X76728712Y-14114500D01*
X76728709Y-14114500D01*
X76488217Y-14146160D01*
X76253904Y-14208944D01*
X76253900Y-14208946D01*
X76050785Y-14293079D01*
X76029786Y-14301777D01*
X76029775Y-14301782D01*
X75819714Y-14423061D01*
X75627262Y-14570735D01*
X75627251Y-14570744D01*
X75455744Y-14742251D01*
X75455735Y-14742262D01*
X75308061Y-14934714D01*
X75186782Y-15144775D01*
X75186777Y-15144786D01*
X75186776Y-15144788D01*
X75182999Y-15153907D01*
X75093946Y-15368900D01*
X75093944Y-15368904D01*
X75031160Y-15603217D01*
X74999500Y-15843709D01*
X74999500Y-16086294D01*
X75007818Y-16149477D01*
X74996878Y-16219625D01*
X74949749Y-16272723D01*
X74881395Y-16291912D01*
X74817429Y-16273578D01*
X74725969Y-16217961D01*
X74474010Y-16108519D01*
X74209490Y-16034404D01*
X73937364Y-15997000D01*
X73662635Y-15997000D01*
X73390509Y-16034404D01*
X73125989Y-16108519D01*
X72874030Y-16217961D01*
X72639325Y-16360687D01*
X72570715Y-16416505D01*
X72570714Y-16416505D01*
X73403437Y-17249228D01*
X73397374Y-17251740D01*
X73258156Y-17344762D01*
X73139762Y-17463156D01*
X73046740Y-17602374D01*
X73044228Y-17608437D01*
X72210541Y-16774750D01*
X72080317Y-16959236D01*
X71953938Y-17203134D01*
X71861944Y-17461980D01*
X71861943Y-17461985D01*
X71807734Y-17722854D01*
X71774290Y-17785480D01*
X71712297Y-17820084D01*
X71641438Y-17815679D01*
X71633121Y-17812325D01*
X71611014Y-17802482D01*
X71424211Y-17762776D01*
X71233237Y-17762776D01*
X71046435Y-17802482D01*
X70871971Y-17880158D01*
X70717468Y-17992411D01*
X70633140Y-18086068D01*
X70572694Y-18123308D01*
X70501711Y-18121956D01*
X70442726Y-18082443D01*
X70414468Y-18017312D01*
X70413504Y-18001758D01*
X70413504Y-18000001D01*
X70405230Y-17921282D01*
X70393542Y-17810072D01*
X70334527Y-17628444D01*
X70239040Y-17463056D01*
X70239038Y-17463054D01*
X70239034Y-17463048D01*
X70111255Y-17321135D01*
X69956752Y-17208882D01*
X69782288Y-17131206D01*
X69595487Y-17091500D01*
X69489651Y-17091500D01*
X69421530Y-17071498D01*
X69375037Y-17017842D01*
X69364373Y-16952033D01*
X69368498Y-16913652D01*
X69368500Y-16913638D01*
X69368500Y-15856908D01*
X69388502Y-15788787D01*
X69442158Y-15742294D01*
X69512432Y-15732190D01*
X69571890Y-15757475D01*
X69726983Y-15878190D01*
X69932273Y-15989287D01*
X70153049Y-16065080D01*
X70383288Y-16103500D01*
X70383292Y-16103500D01*
X70616708Y-16103500D01*
X70616712Y-16103500D01*
X70846951Y-16065080D01*
X71067727Y-15989287D01*
X71273017Y-15878190D01*
X71457220Y-15734818D01*
X71459640Y-15732190D01*
X71615314Y-15563083D01*
X71632512Y-15536760D01*
X71742984Y-15367669D01*
X71836749Y-15153907D01*
X71894051Y-14927626D01*
X71913327Y-14695000D01*
X71894051Y-14462374D01*
X71853384Y-14301782D01*
X71836750Y-14236096D01*
X71836747Y-14236089D01*
X71797300Y-14146160D01*
X71742984Y-14022331D01*
X71692397Y-13944901D01*
X71615314Y-13826916D01*
X71457225Y-13655186D01*
X71457221Y-13655183D01*
X71457220Y-13655182D01*
X71289229Y-13524429D01*
X71247761Y-13466807D01*
X71244027Y-13395909D01*
X71279217Y-13334247D01*
X71289217Y-13325580D01*
X71457220Y-13194818D01*
X71459478Y-13192366D01*
X71615314Y-13023083D01*
X71652550Y-12966089D01*
X71742984Y-12827669D01*
X71836749Y-12613907D01*
X71894051Y-12387626D01*
X71913327Y-12155000D01*
X71894051Y-11922374D01*
X71836749Y-11696093D01*
X71742984Y-11482331D01*
X71615314Y-11286916D01*
X71457225Y-11115186D01*
X71457221Y-11115183D01*
X71457220Y-11115182D01*
X71289229Y-10984429D01*
X71247761Y-10926807D01*
X71244027Y-10855909D01*
X71279217Y-10794247D01*
X71289217Y-10785580D01*
X71457220Y-10654818D01*
X71459478Y-10652366D01*
X71615314Y-10483083D01*
X71652550Y-10426089D01*
X71742984Y-10287669D01*
X71836749Y-10073907D01*
X71894051Y-9847626D01*
X71913327Y-9615000D01*
X71894051Y-9382374D01*
X71836749Y-9156093D01*
X71742984Y-8942331D01*
X71615314Y-8746916D01*
X71457225Y-8575186D01*
X71457221Y-8575182D01*
X71365118Y-8503496D01*
X71273017Y-8431810D01*
X71067727Y-8320713D01*
X71067724Y-8320712D01*
X71067723Y-8320711D01*
X70846955Y-8244921D01*
X70846948Y-8244919D01*
X70748411Y-8228476D01*
X70616712Y-8206500D01*
X70383288Y-8206500D01*
X70268066Y-8225727D01*
X70153051Y-8244919D01*
X70153044Y-8244921D01*
X69932276Y-8320711D01*
X69932273Y-8320713D01*
X69726985Y-8431809D01*
X69726976Y-8431814D01*
X69567936Y-8555600D01*
X69501894Y-8581656D01*
X69432249Y-8567870D01*
X69381112Y-8518620D01*
X69364720Y-8449542D01*
X69364968Y-8445867D01*
X69373327Y-8345000D01*
X69354051Y-8112374D01*
X69296749Y-7886093D01*
X69202984Y-7672331D01*
X69099045Y-7513240D01*
X69075314Y-7476916D01*
X68917225Y-7305186D01*
X68917221Y-7305183D01*
X68917212Y-7305176D01*
X68749229Y-7174429D01*
X68707761Y-7116807D01*
X68704027Y-7045909D01*
X68739217Y-6984247D01*
X68749217Y-6975580D01*
X68917220Y-6844818D01*
X69075314Y-6673083D01*
X69202984Y-6477669D01*
X69296749Y-6263907D01*
X69354051Y-6037626D01*
X69373327Y-5805000D01*
X69364977Y-5704231D01*
X69379284Y-5634697D01*
X69428917Y-5583932D01*
X69498116Y-5568059D01*
X69564912Y-5592117D01*
X69567937Y-5594399D01*
X69726983Y-5718190D01*
X69932273Y-5829287D01*
X70153049Y-5905080D01*
X70383288Y-5943500D01*
X70383292Y-5943500D01*
X70616708Y-5943500D01*
X70616712Y-5943500D01*
X70846951Y-5905080D01*
X71067727Y-5829287D01*
X71273017Y-5718190D01*
X71457220Y-5574818D01*
X71459478Y-5572366D01*
X71615314Y-5403083D01*
X71646589Y-5355213D01*
X71742984Y-5207669D01*
X71836749Y-4993907D01*
X71894051Y-4767626D01*
X71913327Y-4535000D01*
X71894051Y-4302374D01*
X71855289Y-4149304D01*
X71836750Y-4076096D01*
X71836747Y-4076089D01*
X71812220Y-4020174D01*
X71742984Y-3862331D01*
X71728919Y-3840803D01*
X71615314Y-3666916D01*
X71457225Y-3495186D01*
X71457221Y-3495182D01*
X71352490Y-3413667D01*
X71273017Y-3351810D01*
X71067727Y-3240713D01*
X71067724Y-3240712D01*
X71067723Y-3240711D01*
X70846955Y-3164921D01*
X70846948Y-3164919D01*
X70748411Y-3148476D01*
X70616712Y-3126500D01*
X70383288Y-3126500D01*
X70268066Y-3145727D01*
X70153051Y-3164919D01*
X70153044Y-3164921D01*
X69932276Y-3240711D01*
X69932273Y-3240713D01*
X69726985Y-3351809D01*
X69726983Y-3351810D01*
X69542778Y-3495182D01*
X69542774Y-3495186D01*
X69384685Y-3666916D01*
X69257015Y-3862331D01*
X69163252Y-4076089D01*
X69163249Y-4076096D01*
X69105950Y-4302366D01*
X69105949Y-4302372D01*
X69105949Y-4302374D01*
X69086673Y-4535000D01*
X69095022Y-4635764D01*
X69080714Y-4705303D01*
X69031081Y-4756068D01*
X68961882Y-4771940D01*
X68895086Y-4747881D01*
X68892062Y-4745600D01*
X68733017Y-4621810D01*
X68527727Y-4510713D01*
X68527724Y-4510712D01*
X68527723Y-4510711D01*
X68306955Y-4434921D01*
X68306948Y-4434919D01*
X68208411Y-4418476D01*
X68076712Y-4396500D01*
X67843288Y-4396500D01*
X67740190Y-4413704D01*
X67613051Y-4434919D01*
X67613044Y-4434921D01*
X67392276Y-4510711D01*
X67392273Y-4510713D01*
X67186985Y-4621809D01*
X67186983Y-4621810D01*
X67002778Y-4765182D01*
X67002774Y-4765186D01*
X66844685Y-4936916D01*
X66717015Y-5132331D01*
X66623252Y-5346089D01*
X66623249Y-5346096D01*
X66565950Y-5572366D01*
X66565949Y-5572372D01*
X66565949Y-5572374D01*
X66546673Y-5805000D01*
X63579769Y-5805000D01*
X63815510Y-5569259D01*
X63993477Y-5346093D01*
X64032630Y-5296997D01*
X64217906Y-5002133D01*
X64369002Y-4688379D01*
X64484018Y-4359681D01*
X64561509Y-4020171D01*
X64600500Y-3674120D01*
X64600500Y-3325880D01*
X64599611Y-3317993D01*
X64574742Y-3097277D01*
X64561509Y-2979829D01*
X64484018Y-2640319D01*
X64444036Y-2526058D01*
X64436666Y-2504995D01*
X71787308Y-2504995D01*
X71787308Y-2505004D01*
X71806052Y-2779048D01*
X71806053Y-2779054D01*
X71861942Y-3048011D01*
X71861944Y-3048019D01*
X71953938Y-3306865D01*
X72080314Y-3550756D01*
X72080316Y-3550759D01*
X72210541Y-3735248D01*
X73044228Y-2901561D01*
X73046740Y-2907626D01*
X73139762Y-3046844D01*
X73258156Y-3165238D01*
X73397374Y-3258260D01*
X73403438Y-3260771D01*
X72570715Y-4093493D01*
X72570715Y-4093494D01*
X72639313Y-4149304D01*
X72639318Y-4149307D01*
X72874030Y-4292038D01*
X73125989Y-4401480D01*
X73390509Y-4475595D01*
X73662635Y-4512999D01*
X73662649Y-4513000D01*
X73937351Y-4513000D01*
X73937364Y-4512999D01*
X74209490Y-4475595D01*
X74474010Y-4401480D01*
X74725968Y-4292039D01*
X74815996Y-4237291D01*
X74884593Y-4218986D01*
X74952196Y-4240673D01*
X74997343Y-4295466D01*
X75006387Y-4361391D01*
X74999500Y-4413704D01*
X74999500Y-4656290D01*
X75031160Y-4896782D01*
X75093944Y-5131095D01*
X75093945Y-5131097D01*
X75093946Y-5131100D01*
X75186776Y-5355212D01*
X75186777Y-5355213D01*
X75186782Y-5355224D01*
X75308061Y-5565285D01*
X75308063Y-5565288D01*
X75308064Y-5565289D01*
X75455735Y-5757738D01*
X75455739Y-5757742D01*
X75455744Y-5757748D01*
X75627251Y-5929255D01*
X75627256Y-5929259D01*
X75627262Y-5929265D01*
X75782448Y-6048343D01*
X75819714Y-6076938D01*
X76029775Y-6198217D01*
X76029779Y-6198218D01*
X76029788Y-6198224D01*
X76253900Y-6291054D01*
X76488211Y-6353838D01*
X76488215Y-6353838D01*
X76488217Y-6353839D01*
X76550202Y-6361999D01*
X76728712Y-6385500D01*
X76728719Y-6385500D01*
X76971281Y-6385500D01*
X76971288Y-6385500D01*
X77188637Y-6356885D01*
X77211782Y-6353839D01*
X77211782Y-6353838D01*
X77211789Y-6353838D01*
X77446100Y-6291054D01*
X77670212Y-6198224D01*
X77727758Y-6165000D01*
X79396835Y-6165000D01*
X79415465Y-6401710D01*
X79470894Y-6632592D01*
X79558803Y-6844823D01*
X79561760Y-6851963D01*
X79645240Y-6988190D01*
X79685825Y-7054417D01*
X79685826Y-7054419D01*
X79840030Y-7234969D01*
X79922244Y-7305186D01*
X80020584Y-7389176D01*
X80223037Y-7513240D01*
X80442406Y-7604105D01*
X80673289Y-7659535D01*
X80910000Y-7678165D01*
X81146711Y-7659535D01*
X81377594Y-7604105D01*
X81596963Y-7513240D01*
X81799416Y-7389176D01*
X81979969Y-7234969D01*
X82134176Y-7054416D01*
X82258240Y-6851963D01*
X82349105Y-6632594D01*
X82404535Y-6401711D01*
X82423165Y-6165000D01*
X82404535Y-5928289D01*
X82349105Y-5697406D01*
X82258240Y-5478037D01*
X82134176Y-5275584D01*
X82105882Y-5242456D01*
X81979969Y-5095030D01*
X81827636Y-4964926D01*
X81788826Y-4905476D01*
X81784748Y-4858959D01*
X81034947Y-4109158D01*
X81102993Y-4090925D01*
X81217007Y-4025099D01*
X81310099Y-3932007D01*
X81375925Y-3817993D01*
X81394158Y-3749947D01*
X82143102Y-4498891D01*
X82143102Y-4498890D01*
X82257791Y-4311738D01*
X82348628Y-4092437D01*
X82404039Y-3861632D01*
X82422662Y-3625000D01*
X82404039Y-3388367D01*
X82348628Y-3157562D01*
X82257791Y-2938261D01*
X82143102Y-2751108D01*
X82143101Y-2751107D01*
X81394157Y-3500051D01*
X81375925Y-3432007D01*
X81310099Y-3317993D01*
X81217007Y-3224901D01*
X81102993Y-3159075D01*
X81034946Y-3140841D01*
X81783890Y-2391897D01*
X81783890Y-2391896D01*
X81596738Y-2277208D01*
X81377437Y-2186371D01*
X81146632Y-2130960D01*
X80910000Y-2112337D01*
X80673367Y-2130960D01*
X80442562Y-2186371D01*
X80223266Y-2277206D01*
X80036108Y-2391897D01*
X80036108Y-2391898D01*
X80785052Y-3140842D01*
X80717007Y-3159075D01*
X80602993Y-3224901D01*
X80509901Y-3317993D01*
X80444075Y-3432007D01*
X80425842Y-3500052D01*
X79676898Y-2751108D01*
X79676897Y-2751108D01*
X79562206Y-2938266D01*
X79471371Y-3157562D01*
X79415960Y-3388367D01*
X79397337Y-3625000D01*
X79415960Y-3861632D01*
X79471371Y-4092437D01*
X79562208Y-4311738D01*
X79676896Y-4498890D01*
X79676897Y-4498890D01*
X80425841Y-3749946D01*
X80444075Y-3817993D01*
X80509901Y-3932007D01*
X80602993Y-4025099D01*
X80717007Y-4090925D01*
X80785051Y-4109157D01*
X80034793Y-4859415D01*
X80023802Y-4924306D01*
X79992363Y-4964927D01*
X79840028Y-5095033D01*
X79685826Y-5275580D01*
X79685825Y-5275582D01*
X79561759Y-5478038D01*
X79470894Y-5697407D01*
X79415465Y-5928289D01*
X79396835Y-6165000D01*
X77727758Y-6165000D01*
X77880289Y-6076936D01*
X78072738Y-5929265D01*
X78244265Y-5757738D01*
X78391936Y-5565289D01*
X78513224Y-5355212D01*
X78606054Y-5131100D01*
X78668838Y-4896789D01*
X78700500Y-4656288D01*
X78700500Y-4413712D01*
X78668838Y-4173211D01*
X78606054Y-3938900D01*
X78513224Y-3714788D01*
X78513218Y-3714779D01*
X78513217Y-3714775D01*
X78391938Y-3504714D01*
X78391936Y-3504711D01*
X78244265Y-3312262D01*
X78244259Y-3312256D01*
X78244255Y-3312251D01*
X78072748Y-3140744D01*
X78072742Y-3140739D01*
X78072738Y-3140735D01*
X77880289Y-2993064D01*
X77880288Y-2993063D01*
X77880285Y-2993061D01*
X77670224Y-2871782D01*
X77670216Y-2871778D01*
X77670212Y-2871776D01*
X77446100Y-2778946D01*
X77446097Y-2778945D01*
X77446095Y-2778944D01*
X77211782Y-2716160D01*
X76971290Y-2684500D01*
X76971288Y-2684500D01*
X76728712Y-2684500D01*
X76728709Y-2684500D01*
X76488217Y-2716160D01*
X76253904Y-2778944D01*
X76253900Y-2778946D01*
X76029786Y-2871777D01*
X76029780Y-2871780D01*
X75982494Y-2899080D01*
X75913498Y-2915817D01*
X75846406Y-2892596D01*
X75802520Y-2836788D01*
X75793789Y-2781362D01*
X75812692Y-2505004D01*
X75812692Y-2504995D01*
X75793947Y-2230951D01*
X75793946Y-2230945D01*
X75738057Y-1961988D01*
X75738055Y-1961980D01*
X75646061Y-1703134D01*
X75519685Y-1459243D01*
X75519681Y-1459237D01*
X75389457Y-1274751D01*
X74555771Y-2108437D01*
X74553260Y-2102374D01*
X74460238Y-1963156D01*
X74341844Y-1844762D01*
X74202626Y-1751740D01*
X74196561Y-1749227D01*
X75029283Y-916504D01*
X74960680Y-860691D01*
X74725969Y-717961D01*
X74474010Y-608519D01*
X74209490Y-534404D01*
X73937364Y-497000D01*
X73662635Y-497000D01*
X73390509Y-534404D01*
X73125989Y-608519D01*
X72874030Y-717961D01*
X72639325Y-860687D01*
X72570715Y-916505D01*
X72570714Y-916505D01*
X73403437Y-1749228D01*
X73397374Y-1751740D01*
X73258156Y-1844762D01*
X73139762Y-1963156D01*
X73046740Y-2102374D01*
X73044228Y-2108437D01*
X72210541Y-1274750D01*
X72080317Y-1459236D01*
X71953938Y-1703134D01*
X71861944Y-1961980D01*
X71861942Y-1961988D01*
X71806053Y-2230945D01*
X71806052Y-2230951D01*
X71787308Y-2504995D01*
X64436666Y-2504995D01*
X64369008Y-2311638D01*
X64369007Y-2311637D01*
X64369002Y-2311621D01*
X64217906Y-1997867D01*
X64032630Y-1703003D01*
X64032624Y-1702995D01*
X63815510Y-1430740D01*
X63569259Y-1184489D01*
X63297004Y-967375D01*
X63297000Y-967372D01*
X63002137Y-782096D01*
X63002128Y-782091D01*
X62688388Y-631002D01*
X62688383Y-631000D01*
X62688379Y-630998D01*
X62688373Y-630995D01*
X62688361Y-630991D01*
X62359687Y-515983D01*
X62020174Y-438491D01*
X61674122Y-399500D01*
X61674120Y-399500D01*
X61325880Y-399500D01*
X61325878Y-399500D01*
X60979825Y-438491D01*
X60640312Y-515983D01*
X60311638Y-630991D01*
X60311611Y-631002D01*
X59997871Y-782091D01*
X59997862Y-782096D01*
X59702999Y-967372D01*
X59702995Y-967375D01*
X59430740Y-1184489D01*
X59184489Y-1430740D01*
X58967375Y-1702995D01*
X58967372Y-1702999D01*
X58782096Y-1997862D01*
X58782091Y-1997871D01*
X58631002Y-2311611D01*
X58630991Y-2311638D01*
X58515983Y-2640312D01*
X58438491Y-2979825D01*
X58399500Y-3325878D01*
X57502334Y-3325878D01*
X57583240Y-3262906D01*
X57735722Y-3097268D01*
X57735927Y-3096955D01*
X57767903Y-3048011D01*
X57858860Y-2908791D01*
X57949296Y-2702616D01*
X58004564Y-2484368D01*
X58023156Y-2260000D01*
X58004564Y-2035632D01*
X57949296Y-1817384D01*
X57858860Y-1611209D01*
X57841597Y-1584786D01*
X57735724Y-1422734D01*
X57735720Y-1422729D01*
X57619570Y-1296559D01*
X57583240Y-1257094D01*
X57583239Y-1257093D01*
X57583237Y-1257091D01*
X57501382Y-1193381D01*
X57405576Y-1118811D01*
X57207574Y-1011658D01*
X57207572Y-1011657D01*
X57207571Y-1011656D01*
X56994639Y-938557D01*
X56994630Y-938555D01*
X56917029Y-925606D01*
X56772569Y-901500D01*
X56547431Y-901500D01*
X56402971Y-925606D01*
X56325369Y-938555D01*
X56325360Y-938557D01*
X56112428Y-1011656D01*
X56112426Y-1011658D01*
X55914426Y-1118810D01*
X55914424Y-1118811D01*
X55736762Y-1257091D01*
X55584279Y-1422729D01*
X55495483Y-1558643D01*
X55441479Y-1604731D01*
X55371131Y-1614306D01*
X55306774Y-1584329D01*
X55284517Y-1558643D01*
X55195720Y-1422729D01*
X55079570Y-1296559D01*
X55043240Y-1257094D01*
X55043239Y-1257093D01*
X55043237Y-1257091D01*
X54961382Y-1193381D01*
X54865576Y-1118811D01*
X54667574Y-1011658D01*
X54667572Y-1011657D01*
X54667571Y-1011656D01*
X54454639Y-938557D01*
X54454630Y-938555D01*
X54377029Y-925606D01*
X54232569Y-901500D01*
X54007431Y-901500D01*
X53862971Y-925606D01*
X53785369Y-938555D01*
X53785360Y-938557D01*
X53572428Y-1011656D01*
X53572426Y-1011658D01*
X53374426Y-1118810D01*
X53374424Y-1118811D01*
X53196762Y-1257091D01*
X53044279Y-1422729D01*
X52955483Y-1558643D01*
X52901479Y-1604731D01*
X52831131Y-1614306D01*
X52766774Y-1584329D01*
X52744517Y-1558643D01*
X52655720Y-1422729D01*
X52539570Y-1296559D01*
X52503240Y-1257094D01*
X52503239Y-1257093D01*
X52503237Y-1257091D01*
X52421382Y-1193381D01*
X52325576Y-1118811D01*
X52127574Y-1011658D01*
X52127572Y-1011657D01*
X52127571Y-1011656D01*
X51914639Y-938557D01*
X51914630Y-938555D01*
X51837029Y-925606D01*
X51692569Y-901500D01*
X51467431Y-901500D01*
X51322971Y-925606D01*
X51245369Y-938555D01*
X51245360Y-938557D01*
X51032428Y-1011656D01*
X51032426Y-1011658D01*
X50834426Y-1118810D01*
X50834424Y-1118811D01*
X50656762Y-1257091D01*
X50504279Y-1422729D01*
X50415183Y-1559101D01*
X50361179Y-1605189D01*
X50290831Y-1614764D01*
X50226474Y-1584786D01*
X50204217Y-1559100D01*
X50115327Y-1423044D01*
X49962902Y-1257465D01*
X49785301Y-1119232D01*
X49785300Y-1119231D01*
X49587371Y-1012117D01*
X49587369Y-1012116D01*
X49374512Y-939043D01*
X49374501Y-939040D01*
X49294000Y-925606D01*
X49294000Y-1806202D01*
X49240712Y-1775437D01*
X49108459Y-1740000D01*
X48971541Y-1740000D01*
X48839288Y-1775437D01*
X48786000Y-1806202D01*
X48786000Y-925607D01*
X48785999Y-925606D01*
X48705498Y-939040D01*
X48705487Y-939043D01*
X48492630Y-1012116D01*
X48492628Y-1012117D01*
X48294699Y-1119231D01*
X48294698Y-1119232D01*
X48117097Y-1257465D01*
X47964670Y-1423045D01*
X47875780Y-1559101D01*
X47821776Y-1605189D01*
X47751428Y-1614764D01*
X47687071Y-1584786D01*
X47664816Y-1559101D01*
X47599572Y-1459237D01*
X47575724Y-1422734D01*
X47575720Y-1422729D01*
X47459570Y-1296559D01*
X47423240Y-1257094D01*
X47423239Y-1257093D01*
X47423237Y-1257091D01*
X47341382Y-1193381D01*
X47245576Y-1118811D01*
X47047574Y-1011658D01*
X47047572Y-1011657D01*
X47047571Y-1011656D01*
X46834639Y-938557D01*
X46834630Y-938555D01*
X46757029Y-925606D01*
X46612569Y-901500D01*
X46387431Y-901500D01*
X46242971Y-925606D01*
X46165369Y-938555D01*
X46165360Y-938557D01*
X45952428Y-1011656D01*
X45952426Y-1011658D01*
X45754426Y-1118810D01*
X45754424Y-1118811D01*
X45576762Y-1257091D01*
X45424279Y-1422729D01*
X45335183Y-1559101D01*
X45281179Y-1605189D01*
X45210831Y-1614764D01*
X45146474Y-1584786D01*
X45124217Y-1559100D01*
X45035327Y-1423044D01*
X44882902Y-1257465D01*
X44705301Y-1119232D01*
X44705300Y-1119231D01*
X44507371Y-1012117D01*
X44507369Y-1012116D01*
X44294512Y-939043D01*
X44294501Y-939040D01*
X44214000Y-925606D01*
X44214000Y-1806202D01*
X44160712Y-1775437D01*
X44028459Y-1740000D01*
X43891541Y-1740000D01*
X43759288Y-1775437D01*
X43706000Y-1806202D01*
X43706000Y-925607D01*
X43705999Y-925606D01*
X43625498Y-939040D01*
X43625487Y-939043D01*
X43412630Y-1012116D01*
X43412628Y-1012117D01*
X43214699Y-1119231D01*
X43214698Y-1119232D01*
X43037097Y-1257465D01*
X42884670Y-1423045D01*
X42795780Y-1559101D01*
X42741776Y-1605189D01*
X42671428Y-1614764D01*
X42607071Y-1584786D01*
X42584816Y-1559101D01*
X42519572Y-1459237D01*
X42495724Y-1422734D01*
X42495720Y-1422729D01*
X42379570Y-1296559D01*
X42343240Y-1257094D01*
X42343239Y-1257093D01*
X42343237Y-1257091D01*
X42261382Y-1193381D01*
X42165576Y-1118811D01*
X41967574Y-1011658D01*
X41967572Y-1011657D01*
X41967571Y-1011656D01*
X41754639Y-938557D01*
X41754630Y-938555D01*
X41677029Y-925606D01*
X41532569Y-901500D01*
X41307431Y-901500D01*
X41162971Y-925606D01*
X41085369Y-938555D01*
X41085360Y-938557D01*
X40872428Y-1011656D01*
X40872426Y-1011658D01*
X40674426Y-1118810D01*
X40674424Y-1118811D01*
X40496762Y-1257091D01*
X40344279Y-1422729D01*
X40255483Y-1558643D01*
X40201479Y-1604731D01*
X40131131Y-1614306D01*
X40066774Y-1584329D01*
X40044517Y-1558643D01*
X39955720Y-1422729D01*
X39839570Y-1296559D01*
X39803240Y-1257094D01*
X39803239Y-1257093D01*
X39803237Y-1257091D01*
X39721382Y-1193381D01*
X39625576Y-1118811D01*
X39427574Y-1011658D01*
X39427572Y-1011657D01*
X39427571Y-1011656D01*
X39214639Y-938557D01*
X39214630Y-938555D01*
X39137029Y-925606D01*
X38992569Y-901500D01*
X38767431Y-901500D01*
X38622971Y-925606D01*
X38545369Y-938555D01*
X38545360Y-938557D01*
X38332428Y-1011656D01*
X38332426Y-1011658D01*
X38134426Y-1118810D01*
X38134424Y-1118811D01*
X37956762Y-1257091D01*
X37804279Y-1422729D01*
X37715483Y-1558643D01*
X37661479Y-1604731D01*
X37591131Y-1614306D01*
X37526774Y-1584329D01*
X37504517Y-1558643D01*
X37415720Y-1422729D01*
X37299570Y-1296559D01*
X37263240Y-1257094D01*
X37263239Y-1257093D01*
X37263237Y-1257091D01*
X37181382Y-1193381D01*
X37085576Y-1118811D01*
X36887574Y-1011658D01*
X36887572Y-1011657D01*
X36887571Y-1011656D01*
X36674639Y-938557D01*
X36674630Y-938555D01*
X36597029Y-925606D01*
X36452569Y-901500D01*
X36227431Y-901500D01*
X36082971Y-925606D01*
X36005369Y-938555D01*
X36005360Y-938557D01*
X35792428Y-1011656D01*
X35792426Y-1011658D01*
X35594426Y-1118810D01*
X35594424Y-1118811D01*
X35416762Y-1257091D01*
X35264279Y-1422729D01*
X35175483Y-1558643D01*
X35121479Y-1604731D01*
X35051131Y-1614306D01*
X34986774Y-1584329D01*
X34964517Y-1558643D01*
X34875720Y-1422729D01*
X34759570Y-1296559D01*
X34723240Y-1257094D01*
X34723239Y-1257093D01*
X34723237Y-1257091D01*
X34641382Y-1193381D01*
X34545576Y-1118811D01*
X34347574Y-1011658D01*
X34347572Y-1011657D01*
X34347571Y-1011656D01*
X34134639Y-938557D01*
X34134630Y-938555D01*
X34057029Y-925606D01*
X33912569Y-901500D01*
X33687431Y-901500D01*
X33542971Y-925606D01*
X33465369Y-938555D01*
X33465360Y-938557D01*
X33252428Y-1011656D01*
X33252426Y-1011658D01*
X33054426Y-1118810D01*
X33054424Y-1118811D01*
X32876762Y-1257091D01*
X32724279Y-1422729D01*
X32635183Y-1559101D01*
X32581179Y-1605189D01*
X32510831Y-1614764D01*
X32446474Y-1584786D01*
X32424217Y-1559100D01*
X32335327Y-1423044D01*
X32182902Y-1257465D01*
X32005301Y-1119232D01*
X32005300Y-1119231D01*
X31807371Y-1012117D01*
X31807369Y-1012116D01*
X31594512Y-939043D01*
X31594501Y-939040D01*
X31514000Y-925606D01*
X31514000Y-1806202D01*
X31460712Y-1775437D01*
X31328459Y-1740000D01*
X31191541Y-1740000D01*
X31059288Y-1775437D01*
X31006000Y-1806202D01*
X31006000Y-925607D01*
X31005999Y-925606D01*
X30925498Y-939040D01*
X30925487Y-939043D01*
X30712630Y-1012116D01*
X30712628Y-1012117D01*
X30514699Y-1119231D01*
X30514698Y-1119232D01*
X30337097Y-1257465D01*
X30184670Y-1423045D01*
X30095780Y-1559101D01*
X30041776Y-1605189D01*
X29971428Y-1614764D01*
X29907071Y-1584786D01*
X29884816Y-1559101D01*
X29819572Y-1459237D01*
X29795724Y-1422734D01*
X29795720Y-1422729D01*
X29679570Y-1296559D01*
X29643240Y-1257094D01*
X29643239Y-1257093D01*
X29643237Y-1257091D01*
X29561382Y-1193381D01*
X29465576Y-1118811D01*
X29267574Y-1011658D01*
X29267572Y-1011657D01*
X29267571Y-1011656D01*
X29054639Y-938557D01*
X29054630Y-938555D01*
X28977029Y-925606D01*
X28832569Y-901500D01*
X28607431Y-901500D01*
X28462971Y-925606D01*
X28385369Y-938555D01*
X28385360Y-938557D01*
X28172428Y-1011656D01*
X28172426Y-1011658D01*
X27974426Y-1118810D01*
X27974424Y-1118811D01*
X27796762Y-1257091D01*
X27644279Y-1422729D01*
X27555483Y-1558643D01*
X27501479Y-1604731D01*
X27431131Y-1614306D01*
X27366774Y-1584329D01*
X27344517Y-1558643D01*
X27255720Y-1422729D01*
X27139570Y-1296559D01*
X27103240Y-1257094D01*
X27103239Y-1257093D01*
X27103237Y-1257091D01*
X27021382Y-1193381D01*
X26925576Y-1118811D01*
X26727574Y-1011658D01*
X26727572Y-1011657D01*
X26727571Y-1011656D01*
X26514639Y-938557D01*
X26514630Y-938555D01*
X26437029Y-925606D01*
X26292569Y-901500D01*
X26067431Y-901500D01*
X25922971Y-925606D01*
X25845369Y-938555D01*
X25845360Y-938557D01*
X25632428Y-1011656D01*
X25632426Y-1011658D01*
X25434426Y-1118810D01*
X25434424Y-1118811D01*
X25256762Y-1257091D01*
X25104279Y-1422729D01*
X25015183Y-1559101D01*
X24961179Y-1605189D01*
X24890831Y-1614764D01*
X24826474Y-1584786D01*
X24804217Y-1559100D01*
X24715327Y-1423044D01*
X24562902Y-1257465D01*
X24385301Y-1119232D01*
X24385300Y-1119231D01*
X24187371Y-1012117D01*
X24187369Y-1012116D01*
X23974512Y-939043D01*
X23974501Y-939040D01*
X23894000Y-925606D01*
X23894000Y-1806202D01*
X23840712Y-1775437D01*
X23708459Y-1740000D01*
X23571541Y-1740000D01*
X23439288Y-1775437D01*
X23386000Y-1806202D01*
X23386000Y-925607D01*
X23385999Y-925606D01*
X23305498Y-939040D01*
X23305487Y-939043D01*
X23092630Y-1012116D01*
X23092628Y-1012117D01*
X22894699Y-1119231D01*
X22894698Y-1119232D01*
X22717097Y-1257465D01*
X22564670Y-1423045D01*
X22475780Y-1559101D01*
X22421776Y-1605189D01*
X22351428Y-1614764D01*
X22287071Y-1584786D01*
X22264816Y-1559101D01*
X22199572Y-1459237D01*
X22175724Y-1422734D01*
X22175720Y-1422729D01*
X22059570Y-1296559D01*
X22023240Y-1257094D01*
X22023239Y-1257093D01*
X22023237Y-1257091D01*
X21941382Y-1193381D01*
X21845576Y-1118811D01*
X21647574Y-1011658D01*
X21647572Y-1011657D01*
X21647571Y-1011656D01*
X21434639Y-938557D01*
X21434630Y-938555D01*
X21357029Y-925606D01*
X21212569Y-901500D01*
X20987431Y-901500D01*
X20842971Y-925606D01*
X20765369Y-938555D01*
X20765360Y-938557D01*
X20552428Y-1011656D01*
X20552426Y-1011658D01*
X20354426Y-1118810D01*
X20354424Y-1118811D01*
X20176762Y-1257091D01*
X20024279Y-1422729D01*
X19935483Y-1558643D01*
X19881479Y-1604731D01*
X19811131Y-1614306D01*
X19746774Y-1584329D01*
X19724517Y-1558643D01*
X19635720Y-1422729D01*
X19519570Y-1296559D01*
X19483240Y-1257094D01*
X19483239Y-1257093D01*
X19483237Y-1257091D01*
X19401382Y-1193381D01*
X19305576Y-1118811D01*
X19107574Y-1011658D01*
X19107572Y-1011657D01*
X19107571Y-1011656D01*
X18894639Y-938557D01*
X18894630Y-938555D01*
X18817029Y-925606D01*
X18672569Y-901500D01*
X18447431Y-901500D01*
X18302971Y-925606D01*
X18225369Y-938555D01*
X18225360Y-938557D01*
X18012428Y-1011656D01*
X18012426Y-1011658D01*
X17814426Y-1118810D01*
X17814424Y-1118811D01*
X17636762Y-1257091D01*
X17484279Y-1422729D01*
X17395483Y-1558643D01*
X17341479Y-1604731D01*
X17271131Y-1614306D01*
X17206774Y-1584329D01*
X17184517Y-1558643D01*
X17095720Y-1422729D01*
X16979570Y-1296559D01*
X16943240Y-1257094D01*
X16943239Y-1257093D01*
X16943237Y-1257091D01*
X16861382Y-1193381D01*
X16765576Y-1118811D01*
X16567574Y-1011658D01*
X16567572Y-1011657D01*
X16567571Y-1011656D01*
X16354639Y-938557D01*
X16354630Y-938555D01*
X16277029Y-925606D01*
X16132569Y-901500D01*
X15907431Y-901500D01*
X15762971Y-925606D01*
X15685369Y-938555D01*
X15685360Y-938557D01*
X15472428Y-1011656D01*
X15472426Y-1011658D01*
X15274426Y-1118810D01*
X15274424Y-1118811D01*
X15096762Y-1257091D01*
X14944279Y-1422729D01*
X14855183Y-1559101D01*
X14801179Y-1605189D01*
X14730831Y-1614764D01*
X14666474Y-1584786D01*
X14644217Y-1559100D01*
X14555327Y-1423044D01*
X14402902Y-1257465D01*
X14225301Y-1119232D01*
X14225300Y-1119231D01*
X14027371Y-1012117D01*
X14027369Y-1012116D01*
X13814512Y-939043D01*
X13814501Y-939040D01*
X13734000Y-925606D01*
X13734000Y-1806202D01*
X13680712Y-1775437D01*
X13548459Y-1740000D01*
X13411541Y-1740000D01*
X13279288Y-1775437D01*
X13226000Y-1806202D01*
X13226000Y-925607D01*
X13225999Y-925606D01*
X13145498Y-939040D01*
X13145487Y-939043D01*
X12932630Y-1012116D01*
X12932628Y-1012117D01*
X12734699Y-1119231D01*
X12734698Y-1119232D01*
X12557097Y-1257465D01*
X12404670Y-1423045D01*
X12315780Y-1559101D01*
X12261776Y-1605189D01*
X12191428Y-1614764D01*
X12127071Y-1584786D01*
X12104816Y-1559101D01*
X12039572Y-1459237D01*
X12015724Y-1422734D01*
X12015720Y-1422729D01*
X11899570Y-1296559D01*
X11863240Y-1257094D01*
X11863239Y-1257093D01*
X11863237Y-1257091D01*
X11781382Y-1193381D01*
X11685576Y-1118811D01*
X11487574Y-1011658D01*
X11487572Y-1011657D01*
X11487571Y-1011656D01*
X11274639Y-938557D01*
X11274630Y-938555D01*
X11197029Y-925606D01*
X11052569Y-901500D01*
X10827431Y-901500D01*
X10682971Y-925606D01*
X10605369Y-938555D01*
X10605360Y-938557D01*
X10392428Y-1011656D01*
X10392426Y-1011658D01*
X10194426Y-1118810D01*
X10194424Y-1118811D01*
X10016762Y-1257091D01*
X9864279Y-1422729D01*
X9775483Y-1558643D01*
X9721479Y-1604731D01*
X9651131Y-1614306D01*
X9586774Y-1584329D01*
X9564517Y-1558643D01*
X9475720Y-1422729D01*
X9359570Y-1296559D01*
X9323240Y-1257094D01*
X9323239Y-1257093D01*
X9323237Y-1257091D01*
X9241382Y-1193381D01*
X9145576Y-1118811D01*
X8947574Y-1011658D01*
X8947572Y-1011657D01*
X8947571Y-1011656D01*
X8734639Y-938557D01*
X8734630Y-938555D01*
X8657029Y-925606D01*
X8512569Y-901500D01*
X8287431Y-901500D01*
X8142971Y-925606D01*
X8065369Y-938555D01*
X8065360Y-938557D01*
X7852428Y-1011656D01*
X7852426Y-1011658D01*
X7654426Y-1118810D01*
X7654424Y-1118811D01*
X7476762Y-1257091D01*
X7324279Y-1422729D01*
X7324275Y-1422734D01*
X7201141Y-1611206D01*
X7110703Y-1817386D01*
X7110702Y-1817387D01*
X7055437Y-2035624D01*
X7055436Y-2035630D01*
X7055436Y-2035632D01*
X7036844Y-2260000D01*
X6344143Y-2260000D01*
X6217906Y-1997867D01*
X6032630Y-1703003D01*
X6032624Y-1702995D01*
X5815510Y-1430740D01*
X5569259Y-1184489D01*
X5297004Y-967375D01*
X5297000Y-967372D01*
X5002137Y-782096D01*
X5002128Y-782091D01*
X4688388Y-631002D01*
X4688383Y-631000D01*
X4688379Y-630998D01*
X4688373Y-630995D01*
X4688361Y-630991D01*
X4359687Y-515983D01*
X4020174Y-438491D01*
X3674122Y-399500D01*
X3674120Y-399500D01*
X3325880Y-399500D01*
X3325878Y-399500D01*
X2979825Y-438491D01*
X2640312Y-515983D01*
X2311638Y-630991D01*
X2311611Y-631002D01*
X1997871Y-782091D01*
X1997862Y-782096D01*
X1702999Y-967372D01*
X1702995Y-967375D01*
X1430740Y-1184489D01*
X1184489Y-1430740D01*
X967375Y-1702995D01*
X967372Y-1702999D01*
X782096Y-1997862D01*
X782091Y-1997871D01*
X631002Y-2311611D01*
X630991Y-2311638D01*
X515983Y-2640312D01*
X438491Y-2979825D01*
X399500Y-3325878D01*
X25500Y-3325878D01*
X25500Y-3003293D01*
X25673Y-2996699D01*
X37030Y-2780000D01*
X41449Y-2695678D01*
X42827Y-2682563D01*
X70950Y-2505004D01*
X89467Y-2388084D01*
X92209Y-2375188D01*
X109242Y-2311621D01*
X169376Y-2087195D01*
X173445Y-2074672D01*
X280295Y-1796319D01*
X285656Y-1784280D01*
X327002Y-1703134D01*
X421014Y-1518623D01*
X427596Y-1507222D01*
X589994Y-1257151D01*
X597725Y-1246512D01*
X785369Y-1014790D01*
X794175Y-1005011D01*
X1005011Y-794175D01*
X1014790Y-785369D01*
X1246512Y-597725D01*
X1257151Y-589994D01*
X1507222Y-427596D01*
X1518623Y-421014D01*
X1784280Y-285655D01*
X1796319Y-280295D01*
X2074672Y-173445D01*
X2087195Y-169376D01*
X2375192Y-92208D01*
X2388084Y-89467D01*
X2682566Y-42826D01*
X2695678Y-41449D01*
X2996699Y-25672D01*
X3003293Y-25500D01*
X3008285Y-25500D01*
X81991715Y-25500D01*
X81996707Y-25500D01*
X82003300Y-25672D01*
G37*
G04 #@! TD.AperFunction*
D20*
X62870328Y-26500000D02*
G75*
G02*
X60129672Y-26500000I-1370328J0D01*
G01*
X60129672Y-26500000D02*
G75*
G02*
X62870328Y-26500000I1370328J0D01*
G01*
X82000000Y0D02*
G75*
G02*
X85000000Y-3000000I0J-3000000D01*
G01*
X85000000Y-53000000D02*
G75*
G02*
X82000000Y-56000000I-3000000J0D01*
G01*
X3000000Y-56000000D02*
G75*
G02*
X0Y-53000000I0J3000000D01*
G01*
X0Y-3000000D02*
G75*
G02*
X3000000Y0I3000000J0D01*
G01*
X0Y-53000000D02*
X0Y-3000000D01*
X82000000Y-56000000D02*
X3000000Y-56000000D01*
X85000000Y-3000000D02*
X85000000Y-53000000D01*
X3000000Y0D02*
X82000000Y0D01*
X62870328Y-3500000D02*
G75*
G02*
X60129672Y-3500000I-1370328J0D01*
G01*
X60129672Y-3500000D02*
G75*
G02*
X62870328Y-3500000I1370328J0D01*
G01*
X4870328Y-26500000D02*
G75*
G02*
X2129672Y-26500000I-1370328J0D01*
G01*
X2129672Y-26500000D02*
G75*
G02*
X4870328Y-26500000I1370328J0D01*
G01*
X4870328Y-3500000D02*
G75*
G02*
X2129672Y-3500000I-1370328J0D01*
G01*
X2129672Y-3500000D02*
G75*
G02*
X4870328Y-3500000I1370328J0D01*
G01*
M02*
