G04 #@! TF.GenerationSoftware,KiCad,Pcbnew,8.0.3*
G04 #@! TF.CreationDate,2024-07-26T16:49:24+02:00*
G04 #@! TF.ProjectId,ice4pi,69636534-7069-42e6-9b69-6361645f7063,rev?*
G04 #@! TF.SameCoordinates,PX2faf080PY2ebae40*
G04 #@! TF.FileFunction,Paste,Top*
G04 #@! TF.FilePolarity,Positive*
%FSLAX46Y46*%
G04 Gerber Fmt 4.6, Leading zero omitted, Abs format (unit mm)*
G04 Created by KiCad (PCBNEW 8.0.3) date 2024-07-26 16:49:24*
%MOMM*%
%LPD*%
G01*
G04 APERTURE LIST*
G04 Aperture macros list*
%AMRoundRect*
0 Rectangle with rounded corners*
0 $1 Rounding radius*
0 $2 $3 $4 $5 $6 $7 $8 $9 X,Y pos of 4 corners*
0 Add a 4 corners polygon primitive as box body*
4,1,4,$2,$3,$4,$5,$6,$7,$8,$9,$2,$3,0*
0 Add four circle primitives for the rounded corners*
1,1,$1+$1,$2,$3*
1,1,$1+$1,$4,$5*
1,1,$1+$1,$6,$7*
1,1,$1+$1,$8,$9*
0 Add four rect primitives between the rounded corners*
20,1,$1+$1,$2,$3,$4,$5,0*
20,1,$1+$1,$4,$5,$6,$7,0*
20,1,$1+$1,$6,$7,$8,$9,0*
20,1,$1+$1,$8,$9,$2,$3,0*%
G04 Aperture macros list end*
%ADD10RoundRect,0.135000X0.135000X0.185000X-0.135000X0.185000X-0.135000X-0.185000X0.135000X-0.185000X0*%
%ADD11RoundRect,0.140000X0.170000X-0.140000X0.170000X0.140000X-0.170000X0.140000X-0.170000X-0.140000X0*%
%ADD12RoundRect,0.100000X-0.100000X0.637500X-0.100000X-0.637500X0.100000X-0.637500X0.100000X0.637500X0*%
%ADD13RoundRect,0.135000X0.185000X-0.135000X0.185000X0.135000X-0.185000X0.135000X-0.185000X-0.135000X0*%
%ADD14RoundRect,0.135000X-0.185000X0.135000X-0.185000X-0.135000X0.185000X-0.135000X0.185000X0.135000X0*%
%ADD15RoundRect,0.250000X-0.650000X1.000000X-0.650000X-1.000000X0.650000X-1.000000X0.650000X1.000000X0*%
%ADD16R,0.850000X0.650000*%
%ADD17RoundRect,0.135000X-0.135000X-0.185000X0.135000X-0.185000X0.135000X0.185000X-0.135000X0.185000X0*%
%ADD18R,0.600000X1.150000*%
%ADD19R,0.300000X1.150000*%
%ADD20RoundRect,0.140000X0.140000X0.170000X-0.140000X0.170000X-0.140000X-0.170000X0.140000X-0.170000X0*%
%ADD21RoundRect,0.140000X-0.170000X0.140000X-0.170000X-0.140000X0.170000X-0.140000X0.170000X0.140000X0*%
%ADD22R,1.750000X0.450000*%
%ADD23RoundRect,0.140000X-0.140000X-0.170000X0.140000X-0.170000X0.140000X0.170000X-0.140000X0.170000X0*%
%ADD24R,3.200000X1.000000*%
%ADD25RoundRect,0.250000X1.075000X-0.375000X1.075000X0.375000X-1.075000X0.375000X-1.075000X-0.375000X0*%
G04 #@! TA.AperFunction,Profile*
%ADD26C,0.050000*%
G04 #@! TD*
G04 APERTURE END LIST*
D10*
X10000000Y-46500000D03*
X8980000Y-46500000D03*
D11*
X56500000Y-49960000D03*
X56500000Y-49000000D03*
D12*
X55000000Y-45000000D03*
X54350000Y-45000000D03*
X53700000Y-45000000D03*
X53050000Y-45000000D03*
X53050000Y-50725000D03*
X53700000Y-50725000D03*
X54350000Y-50725000D03*
X55000000Y-50725000D03*
D13*
X57500000Y-44010000D03*
X57500000Y-42990000D03*
X56500000Y-44020000D03*
X56500000Y-43000000D03*
D14*
X56500000Y-46490000D03*
X56500000Y-47510000D03*
D15*
X54000000Y-41500000D03*
X54000000Y-37500000D03*
D16*
X81775000Y-39825000D03*
X81775000Y-38175000D03*
X80225000Y-38175000D03*
X80225000Y-39825000D03*
D11*
X78000000Y-40680000D03*
X78000000Y-39720000D03*
D17*
X80290732Y-22491962D03*
X81310732Y-22491962D03*
X13090000Y-46500000D03*
X14110000Y-46500000D03*
X82339536Y-22499999D03*
X83359536Y-22499999D03*
D18*
X8000000Y-49820000D03*
X8800000Y-49820000D03*
D19*
X9950000Y-49820000D03*
X10950000Y-49820000D03*
X11450000Y-49820000D03*
X12450000Y-49820000D03*
D18*
X13600000Y-49820000D03*
X14400000Y-49820000D03*
X14400000Y-49820000D03*
X13600000Y-49820000D03*
D19*
X12950000Y-49820000D03*
X11950000Y-49820000D03*
X10450000Y-49820000D03*
X9450000Y-49820000D03*
D18*
X8800000Y-49820000D03*
X8000000Y-49820000D03*
D10*
X76110000Y-22800000D03*
X75090000Y-22800000D03*
D20*
X77980000Y-20500000D03*
X77020000Y-20500000D03*
D21*
X78000000Y-44420000D03*
X78000000Y-45380000D03*
D14*
X67000000Y-30680000D03*
X67000000Y-31700000D03*
D10*
X76110000Y-21800000D03*
X75090000Y-21800000D03*
D11*
X78000000Y-43380000D03*
X78000000Y-42420000D03*
X78100000Y-34980000D03*
X78100000Y-34020000D03*
D14*
X67400000Y-44490000D03*
X67400000Y-45510000D03*
D22*
X69100000Y-34975000D03*
X69100000Y-35625000D03*
X69100000Y-36275000D03*
X69100000Y-36925000D03*
X69100000Y-37575000D03*
X69100000Y-38225000D03*
X69100000Y-38875000D03*
X69100000Y-39525000D03*
X69100000Y-40175000D03*
X69100000Y-40825000D03*
X69100000Y-41475000D03*
X69100000Y-42125000D03*
X69100000Y-42775000D03*
X69100000Y-43425000D03*
X76300000Y-43425000D03*
X76300000Y-42775000D03*
X76300000Y-42125000D03*
X76300000Y-41475000D03*
X76300000Y-40825000D03*
X76300000Y-40175000D03*
X76300000Y-39525000D03*
X76300000Y-38875000D03*
X76300000Y-38225000D03*
X76300000Y-37575000D03*
X76300000Y-36925000D03*
X76300000Y-36275000D03*
X76300000Y-35625000D03*
X76300000Y-34975000D03*
D11*
X83000000Y-39480000D03*
X83000000Y-38520000D03*
D23*
X69020000Y-28500000D03*
X69980000Y-28500000D03*
D21*
X78000000Y-37720000D03*
X78000000Y-38680000D03*
D17*
X66190000Y-28700000D03*
X67210000Y-28700000D03*
D24*
X47000000Y-49000000D03*
X47000000Y-47000000D03*
X47000000Y-45000000D03*
X47000000Y-43000000D03*
X47000000Y-41000000D03*
X47000000Y-39000000D03*
X41400000Y-49000000D03*
X41400000Y-47000000D03*
X41400000Y-45000000D03*
X41400000Y-43000000D03*
X41400000Y-41000000D03*
X41400000Y-39000000D03*
X29400000Y-49000000D03*
X29400000Y-47000000D03*
X29400000Y-45000000D03*
X29400000Y-43000000D03*
X29400000Y-41000000D03*
X29400000Y-39000000D03*
X23800000Y-49000000D03*
X23800000Y-47000000D03*
X23800000Y-45000000D03*
X23800000Y-43000000D03*
X23800000Y-41000000D03*
X23800000Y-39000000D03*
X47000000Y-51000000D03*
X41400000Y-51000000D03*
X29400000Y-51000000D03*
X23800000Y-51000000D03*
D10*
X70010000Y-29500000D03*
X68990000Y-29500000D03*
D11*
X67000000Y-34680000D03*
X67000000Y-33720000D03*
D25*
X78221383Y-25207111D03*
X78221383Y-22407111D03*
D26*
X62870328Y-26500000D02*
G75*
G02*
X60129672Y-26500000I-1370328J0D01*
G01*
X60129672Y-26500000D02*
G75*
G02*
X62870328Y-26500000I1370328J0D01*
G01*
X82000000Y0D02*
G75*
G02*
X85000000Y-3000000I0J-3000000D01*
G01*
X85000000Y-53000000D02*
G75*
G02*
X82000000Y-56000000I-3000000J0D01*
G01*
X3000000Y-56000000D02*
G75*
G02*
X0Y-53000000I0J3000000D01*
G01*
X0Y-3000000D02*
G75*
G02*
X3000000Y0I3000000J0D01*
G01*
X0Y-53000000D02*
X0Y-3000000D01*
X82000000Y-56000000D02*
X3000000Y-56000000D01*
X85000000Y-3000000D02*
X85000000Y-53000000D01*
X3000000Y0D02*
X82000000Y0D01*
X62870328Y-3500000D02*
G75*
G02*
X60129672Y-3500000I-1370328J0D01*
G01*
X60129672Y-3500000D02*
G75*
G02*
X62870328Y-3500000I1370328J0D01*
G01*
X4870328Y-26500000D02*
G75*
G02*
X2129672Y-26500000I-1370328J0D01*
G01*
X2129672Y-26500000D02*
G75*
G02*
X4870328Y-26500000I1370328J0D01*
G01*
X4870328Y-3500000D02*
G75*
G02*
X2129672Y-3500000I-1370328J0D01*
G01*
X2129672Y-3500000D02*
G75*
G02*
X4870328Y-3500000I1370328J0D01*
G01*
M02*
