G04 #@! TF.GenerationSoftware,KiCad,Pcbnew,8.0.3*
G04 #@! TF.CreationDate,2024-07-26T16:49:23+02:00*
G04 #@! TF.ProjectId,ice4pi,69636534-7069-42e6-9b69-6361645f7063,rev?*
G04 #@! TF.SameCoordinates,PX2faf080PY2ebae40*
G04 #@! TF.FileFunction,Copper,L3,Inr*
G04 #@! TF.FilePolarity,Positive*
%FSLAX46Y46*%
G04 Gerber Fmt 4.6, Leading zero omitted, Abs format (unit mm)*
G04 Created by KiCad (PCBNEW 8.0.3) date 2024-07-26 16:49:23*
%MOMM*%
%LPD*%
G01*
G04 APERTURE LIST*
G04 #@! TA.AperFunction,ComponentPad*
%ADD10O,1.000000X2.100000*%
G04 #@! TD*
G04 #@! TA.AperFunction,ComponentPad*
%ADD11O,1.000000X1.800000*%
G04 #@! TD*
G04 #@! TA.AperFunction,ComponentPad*
%ADD12R,1.800000X1.800000*%
G04 #@! TD*
G04 #@! TA.AperFunction,ComponentPad*
%ADD13C,1.800000*%
G04 #@! TD*
G04 #@! TA.AperFunction,ComponentPad*
%ADD14C,2.000000*%
G04 #@! TD*
G04 #@! TA.AperFunction,ComponentPad*
%ADD15C,3.000000*%
G04 #@! TD*
G04 #@! TA.AperFunction,ComponentPad*
%ADD16R,1.700000X1.700000*%
G04 #@! TD*
G04 #@! TA.AperFunction,ComponentPad*
%ADD17O,1.700000X1.700000*%
G04 #@! TD*
G04 #@! TA.AperFunction,ViaPad*
%ADD18C,0.800000*%
G04 #@! TD*
G04 #@! TA.AperFunction,Profile*
%ADD19C,0.050000*%
G04 #@! TD*
G04 APERTURE END LIST*
D10*
X6880000Y-50395000D03*
D11*
X6880000Y-54575000D03*
D10*
X15520000Y-50395000D03*
D11*
X15520000Y-54575000D03*
D12*
X67960000Y-15965000D03*
D13*
X70500000Y-14695000D03*
X67960000Y-13425000D03*
X70500000Y-12155000D03*
X67960000Y-10885000D03*
X70500000Y-9615000D03*
X67960000Y-8345000D03*
X67960000Y-5805000D03*
X70500000Y-4535000D03*
D14*
X80910000Y-16885000D03*
X80910000Y-14345000D03*
X80910000Y-6165000D03*
X80910000Y-3625000D03*
D15*
X73800000Y-18005000D03*
X73800000Y-2505000D03*
D16*
X70160000Y-53770000D03*
D17*
X70160000Y-51230000D03*
X72700000Y-53770000D03*
X72700000Y-51230000D03*
X75240000Y-53770000D03*
X75240000Y-51230000D03*
D16*
X8400000Y-4800000D03*
D17*
X8400000Y-2260000D03*
X10940000Y-4800000D03*
X10940000Y-2260000D03*
X13480000Y-4800000D03*
X13480000Y-2260000D03*
X16020000Y-4800000D03*
X16020000Y-2260000D03*
X18560000Y-4800000D03*
X18560000Y-2260000D03*
X21100000Y-4800000D03*
X21100000Y-2260000D03*
X23640000Y-4800000D03*
X23640000Y-2260000D03*
X26180000Y-4800000D03*
X26180000Y-2260000D03*
X28720000Y-4800000D03*
X28720000Y-2260000D03*
X31260000Y-4800000D03*
X31260000Y-2260000D03*
X33800000Y-4800000D03*
X33800000Y-2260000D03*
X36340000Y-4800000D03*
X36340000Y-2260000D03*
X38880000Y-4800000D03*
X38880000Y-2260000D03*
X41420000Y-4800000D03*
X41420000Y-2260000D03*
X43960000Y-4800000D03*
X43960000Y-2260000D03*
X46500000Y-4800000D03*
X46500000Y-2260000D03*
X49040000Y-4800000D03*
X49040000Y-2260000D03*
X51580000Y-4800000D03*
X51580000Y-2260000D03*
X54120000Y-4800000D03*
X54120000Y-2260000D03*
X56660000Y-4800000D03*
X56660000Y-2260000D03*
D18*
X23800000Y-48000000D03*
X23800000Y-40000000D03*
X41400000Y-48000000D03*
X47000000Y-48000000D03*
X47000000Y-40000000D03*
X55500000Y-41000000D03*
X53250000Y-43500000D03*
X57500000Y-48500000D03*
X44958000Y-14655800D03*
X63900000Y-38700000D03*
X43713400Y-15951200D03*
X46253400Y-13385800D03*
X61569600Y-39954200D03*
X65700000Y-37900000D03*
X42341800Y-17246600D03*
X79100000Y-43400000D03*
X74500000Y-36900000D03*
X74500000Y-40500000D03*
X74500000Y-34900000D03*
X81800000Y-40900000D03*
X78221383Y-25207111D03*
X29400000Y-44000000D03*
X13600000Y-48300000D03*
X8800000Y-48400000D03*
X67400000Y-37000000D03*
X55000000Y-23700000D03*
X55000000Y-31200000D03*
X36300000Y-14200000D03*
X36300000Y-20000000D03*
X39000000Y-17400000D03*
X64800000Y-29700000D03*
X69000000Y-21000000D03*
X69000000Y-19000000D03*
X69500000Y-18000000D03*
X72800000Y-22800000D03*
X74300000Y-22800000D03*
X71328724Y-18671276D03*
X82200000Y-36300000D03*
X82200000Y-23900000D03*
X80200000Y-23900000D03*
X80200000Y-35600000D03*
X65800000Y-40800000D03*
X78000000Y-46800000D03*
X41400000Y-40000000D03*
X49250000Y-24250000D03*
X54000000Y-19500000D03*
X52500000Y-19000000D03*
X48500000Y-27500000D03*
X52500000Y-19000000D03*
X69010001Y-28000000D03*
X66190000Y-28000000D03*
X78221383Y-22407111D03*
G04 #@! TA.AperFunction,Conductor*
G36*
X82003300Y-25672D02*
G01*
X82304319Y-41449D01*
X82317436Y-42827D01*
X82611911Y-89467D01*
X82624811Y-92209D01*
X82912799Y-169374D01*
X82925332Y-173447D01*
X83203672Y-280292D01*
X83215719Y-285656D01*
X83481368Y-421010D01*
X83492785Y-427601D01*
X83742838Y-589988D01*
X83753495Y-597732D01*
X83981160Y-782091D01*
X83985197Y-785360D01*
X83994998Y-794185D01*
X84205814Y-1005001D01*
X84214639Y-1014802D01*
X84392545Y-1234498D01*
X84402263Y-1246498D01*
X84410013Y-1257164D01*
X84517534Y-1422732D01*
X84572394Y-1507208D01*
X84578989Y-1518631D01*
X84714343Y-1784280D01*
X84719707Y-1796327D01*
X84826550Y-2074661D01*
X84830626Y-2087205D01*
X84907790Y-2375188D01*
X84910532Y-2388088D01*
X84957172Y-2682563D01*
X84958550Y-2695679D01*
X84971253Y-2938038D01*
X84974136Y-2993064D01*
X84974327Y-2996698D01*
X84974500Y-3003293D01*
X84974500Y-52996706D01*
X84974327Y-53003301D01*
X84958550Y-53304320D01*
X84957172Y-53317436D01*
X84910532Y-53611911D01*
X84907790Y-53624811D01*
X84830626Y-53912794D01*
X84826550Y-53925338D01*
X84719707Y-54203672D01*
X84714343Y-54215719D01*
X84578989Y-54481368D01*
X84572394Y-54492791D01*
X84410015Y-54742832D01*
X84402263Y-54753501D01*
X84214639Y-54985197D01*
X84205814Y-54994998D01*
X83994998Y-55205814D01*
X83985197Y-55214639D01*
X83753501Y-55402263D01*
X83742832Y-55410015D01*
X83492791Y-55572394D01*
X83481368Y-55578989D01*
X83215719Y-55714343D01*
X83203672Y-55719707D01*
X82925338Y-55826550D01*
X82912794Y-55830626D01*
X82624811Y-55907790D01*
X82611911Y-55910532D01*
X82317436Y-55957172D01*
X82304320Y-55958550D01*
X82020488Y-55973426D01*
X82003299Y-55974327D01*
X81996707Y-55974500D01*
X16250924Y-55974500D01*
X16182803Y-55954498D01*
X16136310Y-55900842D01*
X16126206Y-55830568D01*
X16155700Y-55765988D01*
X16161829Y-55759405D01*
X16221794Y-55699440D01*
X16303353Y-55617881D01*
X16413721Y-55452704D01*
X16489744Y-55269169D01*
X16528500Y-55074329D01*
X16528500Y-54075671D01*
X16489744Y-53880831D01*
X16413721Y-53697296D01*
X16303353Y-53532119D01*
X16162881Y-53391647D01*
X15997704Y-53281279D01*
X15814169Y-53205256D01*
X15619331Y-53166500D01*
X15619329Y-53166500D01*
X15420671Y-53166500D01*
X15420668Y-53166500D01*
X15225830Y-53205256D01*
X15225825Y-53205258D01*
X15042296Y-53281279D01*
X14877123Y-53391644D01*
X14877116Y-53391649D01*
X14736649Y-53532116D01*
X14736644Y-53532123D01*
X14626279Y-53697296D01*
X14550258Y-53880825D01*
X14550256Y-53880830D01*
X14511500Y-54075668D01*
X14511500Y-55074331D01*
X14550256Y-55269169D01*
X14626279Y-55452704D01*
X14736647Y-55617881D01*
X14736649Y-55617883D01*
X14878171Y-55759405D01*
X14912197Y-55821717D01*
X14907132Y-55892532D01*
X14864585Y-55949368D01*
X14798065Y-55974179D01*
X14789076Y-55974500D01*
X7610924Y-55974500D01*
X7542803Y-55954498D01*
X7496310Y-55900842D01*
X7486206Y-55830568D01*
X7515700Y-55765988D01*
X7521829Y-55759405D01*
X7581794Y-55699440D01*
X7663353Y-55617881D01*
X7773721Y-55452704D01*
X7849744Y-55269169D01*
X7888500Y-55074329D01*
X7888500Y-54075671D01*
X7849744Y-53880831D01*
X7773721Y-53697296D01*
X7663353Y-53532119D01*
X7522881Y-53391647D01*
X7357704Y-53281279D01*
X7174169Y-53205256D01*
X6979331Y-53166500D01*
X6979329Y-53166500D01*
X6780671Y-53166500D01*
X6780663Y-53166500D01*
X6706782Y-53181196D01*
X6636068Y-53174867D01*
X6580001Y-53131313D01*
X6556383Y-53064360D01*
X6559363Y-53029571D01*
X6561508Y-53020174D01*
X6561509Y-53020171D01*
X6600500Y-52674120D01*
X6600500Y-52325880D01*
X6600500Y-52325878D01*
X58399500Y-52325878D01*
X58399500Y-52674121D01*
X58438491Y-53020174D01*
X58461552Y-53121209D01*
X58515982Y-53359681D01*
X58515984Y-53359687D01*
X58515983Y-53359687D01*
X58630991Y-53688361D01*
X58631002Y-53688388D01*
X58782091Y-54002128D01*
X58782096Y-54002137D01*
X58967372Y-54297000D01*
X58967375Y-54297004D01*
X59184489Y-54569259D01*
X59430740Y-54815510D01*
X59702995Y-55032624D01*
X59703003Y-55032630D01*
X59931357Y-55176115D01*
X59992667Y-55214639D01*
X59997867Y-55217906D01*
X60311621Y-55369002D01*
X60311637Y-55369007D01*
X60311638Y-55369008D01*
X60640312Y-55484016D01*
X60640315Y-55484016D01*
X60640319Y-55484018D01*
X60979829Y-55561509D01*
X61225210Y-55589157D01*
X61325878Y-55600500D01*
X61325880Y-55600500D01*
X61674122Y-55600500D01*
X61762006Y-55590597D01*
X62020171Y-55561509D01*
X62359681Y-55484018D01*
X62688379Y-55369002D01*
X63002133Y-55217906D01*
X63296997Y-55032630D01*
X63455007Y-54906622D01*
X63569259Y-54815510D01*
X63815510Y-54569259D01*
X64032624Y-54297004D01*
X64032630Y-54296997D01*
X64217906Y-54002133D01*
X64369002Y-53688379D01*
X64484018Y-53359681D01*
X64561509Y-53020171D01*
X64600500Y-52674120D01*
X64600500Y-52325880D01*
X64561509Y-51979829D01*
X64484018Y-51640319D01*
X64465669Y-51587881D01*
X64369008Y-51311638D01*
X64369007Y-51311637D01*
X64369002Y-51311621D01*
X64329695Y-51230000D01*
X68796844Y-51230000D01*
X68812812Y-51422704D01*
X68815437Y-51454375D01*
X68870702Y-51672612D01*
X68870703Y-51672613D01*
X68870704Y-51672616D01*
X68943564Y-51838721D01*
X68961141Y-51878793D01*
X69084275Y-52067265D01*
X69084280Y-52067270D01*
X69227475Y-52222820D01*
X69258896Y-52286485D01*
X69250909Y-52357031D01*
X69206051Y-52412060D01*
X69178807Y-52426213D01*
X69063797Y-52469110D01*
X69063792Y-52469112D01*
X68946738Y-52556738D01*
X68859112Y-52673792D01*
X68859110Y-52673797D01*
X68808011Y-52810795D01*
X68808009Y-52810803D01*
X68801500Y-52871350D01*
X68801500Y-54668649D01*
X68808009Y-54729196D01*
X68808011Y-54729204D01*
X68859110Y-54866202D01*
X68859112Y-54866207D01*
X68946738Y-54983261D01*
X69063792Y-55070887D01*
X69063794Y-55070888D01*
X69063796Y-55070889D01*
X69118900Y-55091442D01*
X69200795Y-55121988D01*
X69200803Y-55121990D01*
X69261350Y-55128499D01*
X69261355Y-55128499D01*
X69261362Y-55128500D01*
X69261368Y-55128500D01*
X71058632Y-55128500D01*
X71058638Y-55128500D01*
X71058645Y-55128499D01*
X71058649Y-55128499D01*
X71119196Y-55121990D01*
X71119199Y-55121989D01*
X71119201Y-55121989D01*
X71256204Y-55070889D01*
X71326399Y-55018342D01*
X71373261Y-54983261D01*
X71460886Y-54866208D01*
X71460885Y-54866208D01*
X71460889Y-54866204D01*
X71504999Y-54747939D01*
X71547545Y-54691107D01*
X71614066Y-54666296D01*
X71683440Y-54681388D01*
X71715753Y-54706635D01*
X71776760Y-54772906D01*
X71776762Y-54772908D01*
X71822453Y-54808471D01*
X71954424Y-54911189D01*
X72152426Y-55018342D01*
X72152427Y-55018342D01*
X72152428Y-55018343D01*
X72264227Y-55056723D01*
X72365365Y-55091444D01*
X72587431Y-55128500D01*
X72587435Y-55128500D01*
X72812565Y-55128500D01*
X72812569Y-55128500D01*
X73034635Y-55091444D01*
X73247574Y-55018342D01*
X73445576Y-54911189D01*
X73623240Y-54772906D01*
X73775722Y-54607268D01*
X73864518Y-54471354D01*
X73918520Y-54425268D01*
X73988868Y-54415692D01*
X74053225Y-54445669D01*
X74075480Y-54471353D01*
X74108607Y-54522058D01*
X74164275Y-54607265D01*
X74164279Y-54607270D01*
X74316762Y-54772908D01*
X74362453Y-54808471D01*
X74494424Y-54911189D01*
X74692426Y-55018342D01*
X74692427Y-55018342D01*
X74692428Y-55018343D01*
X74804227Y-55056723D01*
X74905365Y-55091444D01*
X75127431Y-55128500D01*
X75127435Y-55128500D01*
X75352565Y-55128500D01*
X75352569Y-55128500D01*
X75574635Y-55091444D01*
X75787574Y-55018342D01*
X75985576Y-54911189D01*
X76163240Y-54772906D01*
X76315722Y-54607268D01*
X76438860Y-54418791D01*
X76529296Y-54212616D01*
X76584564Y-53994368D01*
X76603156Y-53770000D01*
X76584564Y-53545632D01*
X76529296Y-53327384D01*
X76438860Y-53121209D01*
X76421500Y-53094637D01*
X76315724Y-52932734D01*
X76315720Y-52932729D01*
X76163237Y-52767091D01*
X76081382Y-52703381D01*
X75985576Y-52628811D01*
X75952319Y-52610813D01*
X75901929Y-52560802D01*
X75886576Y-52491485D01*
X75911136Y-52424872D01*
X75952320Y-52389186D01*
X75985576Y-52371189D01*
X76163240Y-52232906D01*
X76315722Y-52067268D01*
X76438860Y-51878791D01*
X76529296Y-51672616D01*
X76584564Y-51454368D01*
X76603156Y-51230000D01*
X76584564Y-51005632D01*
X76529296Y-50787384D01*
X76438860Y-50581209D01*
X76432140Y-50570924D01*
X76315724Y-50392734D01*
X76315720Y-50392729D01*
X76163237Y-50227091D01*
X76081382Y-50163381D01*
X75985576Y-50088811D01*
X75787574Y-49981658D01*
X75787572Y-49981657D01*
X75787571Y-49981656D01*
X75574639Y-49908557D01*
X75574630Y-49908555D01*
X75530476Y-49901187D01*
X75352569Y-49871500D01*
X75127431Y-49871500D01*
X74979211Y-49896233D01*
X74905369Y-49908555D01*
X74905360Y-49908557D01*
X74692428Y-49981656D01*
X74692426Y-49981658D01*
X74494426Y-50088810D01*
X74494424Y-50088811D01*
X74316762Y-50227091D01*
X74164279Y-50392729D01*
X74075483Y-50528643D01*
X74021479Y-50574731D01*
X73951131Y-50584306D01*
X73886774Y-50554329D01*
X73864517Y-50528643D01*
X73775720Y-50392729D01*
X73623237Y-50227091D01*
X73541382Y-50163381D01*
X73445576Y-50088811D01*
X73247574Y-49981658D01*
X73247572Y-49981657D01*
X73247571Y-49981656D01*
X73034639Y-49908557D01*
X73034630Y-49908555D01*
X72990476Y-49901187D01*
X72812569Y-49871500D01*
X72587431Y-49871500D01*
X72439211Y-49896233D01*
X72365369Y-49908555D01*
X72365360Y-49908557D01*
X72152428Y-49981656D01*
X72152426Y-49981658D01*
X71954426Y-50088810D01*
X71954424Y-50088811D01*
X71776762Y-50227091D01*
X71624279Y-50392729D01*
X71535483Y-50528643D01*
X71481479Y-50574731D01*
X71411131Y-50584306D01*
X71346774Y-50554329D01*
X71324517Y-50528643D01*
X71235720Y-50392729D01*
X71083237Y-50227091D01*
X71001382Y-50163381D01*
X70905576Y-50088811D01*
X70707574Y-49981658D01*
X70707572Y-49981657D01*
X70707571Y-49981656D01*
X70494639Y-49908557D01*
X70494630Y-49908555D01*
X70450476Y-49901187D01*
X70272569Y-49871500D01*
X70047431Y-49871500D01*
X69899211Y-49896233D01*
X69825369Y-49908555D01*
X69825360Y-49908557D01*
X69612428Y-49981656D01*
X69612426Y-49981658D01*
X69414426Y-50088810D01*
X69414424Y-50088811D01*
X69236762Y-50227091D01*
X69084279Y-50392729D01*
X69084275Y-50392734D01*
X68961141Y-50581206D01*
X68870703Y-50787386D01*
X68870702Y-50787387D01*
X68815437Y-51005624D01*
X68815436Y-51005630D01*
X68815436Y-51005632D01*
X68796844Y-51230000D01*
X64329695Y-51230000D01*
X64217906Y-50997867D01*
X64032630Y-50703003D01*
X64032624Y-50702995D01*
X63815510Y-50430740D01*
X63569259Y-50184489D01*
X63297004Y-49967375D01*
X63297000Y-49967372D01*
X63002137Y-49782096D01*
X63002128Y-49782091D01*
X62688388Y-49631002D01*
X62688383Y-49631000D01*
X62688379Y-49630998D01*
X62688373Y-49630995D01*
X62688361Y-49630991D01*
X62359687Y-49515983D01*
X62020174Y-49438491D01*
X61674122Y-49399500D01*
X61674120Y-49399500D01*
X61325880Y-49399500D01*
X61325878Y-49399500D01*
X60979825Y-49438491D01*
X60640312Y-49515983D01*
X60311638Y-49630991D01*
X60311611Y-49631002D01*
X59997871Y-49782091D01*
X59997862Y-49782096D01*
X59702999Y-49967372D01*
X59702995Y-49967375D01*
X59430740Y-50184489D01*
X59184489Y-50430740D01*
X58967375Y-50702995D01*
X58967372Y-50702999D01*
X58782096Y-50997862D01*
X58782091Y-50997871D01*
X58631002Y-51311611D01*
X58630991Y-51311638D01*
X58515983Y-51640312D01*
X58438491Y-51979825D01*
X58399500Y-52325878D01*
X6600500Y-52325878D01*
X6572753Y-52079622D01*
X6585002Y-52009692D01*
X6633115Y-51957484D01*
X6701816Y-51939575D01*
X6722534Y-51941935D01*
X6780671Y-51953500D01*
X6780672Y-51953500D01*
X6979328Y-51953500D01*
X6979329Y-51953500D01*
X7174169Y-51914744D01*
X7357704Y-51838721D01*
X7522881Y-51728353D01*
X7663353Y-51587881D01*
X7773721Y-51422704D01*
X7776498Y-51415998D01*
X7821044Y-51360717D01*
X7888407Y-51338294D01*
X7955908Y-51355095D01*
X7956634Y-51355514D01*
X7956635Y-51355515D01*
X8087865Y-51431281D01*
X8234234Y-51470500D01*
X8234236Y-51470500D01*
X8385764Y-51470500D01*
X8385766Y-51470500D01*
X8532135Y-51431281D01*
X8663365Y-51355515D01*
X8770515Y-51248365D01*
X8846281Y-51117135D01*
X8885500Y-50970766D01*
X8885500Y-50819234D01*
X13514500Y-50819234D01*
X13514500Y-50970766D01*
X13543209Y-51077911D01*
X13553718Y-51117132D01*
X13553721Y-51117139D01*
X13629482Y-51248361D01*
X13629490Y-51248371D01*
X13736628Y-51355509D01*
X13736633Y-51355513D01*
X13736635Y-51355515D01*
X13736636Y-51355516D01*
X13736638Y-51355517D01*
X13828877Y-51408771D01*
X13867865Y-51431281D01*
X14014234Y-51470500D01*
X14014236Y-51470500D01*
X14165764Y-51470500D01*
X14165766Y-51470500D01*
X14312135Y-51431281D01*
X14443365Y-51355515D01*
X14443368Y-51355511D01*
X14444090Y-51355095D01*
X14513086Y-51338357D01*
X14580178Y-51361577D01*
X14623498Y-51415991D01*
X14626278Y-51422702D01*
X14626278Y-51422703D01*
X14632010Y-51431281D01*
X14736647Y-51587881D01*
X14877119Y-51728353D01*
X15042296Y-51838721D01*
X15225831Y-51914744D01*
X15420671Y-51953500D01*
X15420672Y-51953500D01*
X15619328Y-51953500D01*
X15619329Y-51953500D01*
X15814169Y-51914744D01*
X15997704Y-51838721D01*
X16162881Y-51728353D01*
X16303353Y-51587881D01*
X16413721Y-51422704D01*
X16489744Y-51239169D01*
X16528500Y-51044329D01*
X16528500Y-49745671D01*
X16489744Y-49550831D01*
X16413721Y-49367296D01*
X16303353Y-49202119D01*
X16162881Y-49061647D01*
X15997704Y-48951279D01*
X15814169Y-48875256D01*
X15795558Y-48871554D01*
X15619331Y-48836500D01*
X15619329Y-48836500D01*
X15420671Y-48836500D01*
X15420668Y-48836500D01*
X15225830Y-48875256D01*
X15225825Y-48875258D01*
X15042296Y-48951279D01*
X14877123Y-49061644D01*
X14877116Y-49061649D01*
X14736649Y-49202116D01*
X14736644Y-49202123D01*
X14626279Y-49367296D01*
X14550258Y-49550825D01*
X14550256Y-49550830D01*
X14511500Y-49745668D01*
X14511500Y-50255584D01*
X14491498Y-50323705D01*
X14437842Y-50370198D01*
X14367568Y-50380302D01*
X14322502Y-50364704D01*
X14312141Y-50358722D01*
X14312137Y-50358720D01*
X14312135Y-50358719D01*
X14312133Y-50358718D01*
X14312132Y-50358718D01*
X14272911Y-50348209D01*
X14165766Y-50319500D01*
X14014234Y-50319500D01*
X13935798Y-50340516D01*
X13867867Y-50358718D01*
X13867860Y-50358721D01*
X13736638Y-50434482D01*
X13736628Y-50434490D01*
X13629490Y-50541628D01*
X13629482Y-50541638D01*
X13553721Y-50672860D01*
X13553718Y-50672867D01*
X13534821Y-50743393D01*
X13514500Y-50819234D01*
X8885500Y-50819234D01*
X8846281Y-50672865D01*
X8793363Y-50581209D01*
X8770517Y-50541638D01*
X8770509Y-50541628D01*
X8663371Y-50434490D01*
X8663361Y-50434482D01*
X8532139Y-50358721D01*
X8532136Y-50358720D01*
X8532135Y-50358719D01*
X8532133Y-50358718D01*
X8532132Y-50358718D01*
X8492911Y-50348209D01*
X8385766Y-50319500D01*
X8234234Y-50319500D01*
X8155798Y-50340516D01*
X8087867Y-50358718D01*
X8087858Y-50358722D01*
X8077498Y-50364704D01*
X8008502Y-50381441D01*
X7941411Y-50358219D01*
X7897525Y-50302411D01*
X7888500Y-50255584D01*
X7888500Y-49745672D01*
X7888499Y-49745668D01*
X7849744Y-49550831D01*
X7773721Y-49367296D01*
X7663353Y-49202119D01*
X7522881Y-49061647D01*
X7357704Y-48951279D01*
X7174169Y-48875256D01*
X7155558Y-48871554D01*
X6979331Y-48836500D01*
X6979329Y-48836500D01*
X6780671Y-48836500D01*
X6780668Y-48836500D01*
X6585830Y-48875256D01*
X6585825Y-48875258D01*
X6402296Y-48951279D01*
X6237123Y-49061644D01*
X6237116Y-49061649D01*
X6096649Y-49202116D01*
X6096644Y-49202123D01*
X5986279Y-49367296D01*
X5910258Y-49550825D01*
X5910256Y-49550830D01*
X5871500Y-49745668D01*
X5871500Y-50182540D01*
X5851498Y-50250661D01*
X5797842Y-50297154D01*
X5727568Y-50307258D01*
X5662988Y-50277764D01*
X5656405Y-50271635D01*
X5569259Y-50184489D01*
X5297004Y-49967375D01*
X5297000Y-49967372D01*
X5002137Y-49782096D01*
X5002128Y-49782091D01*
X4688388Y-49631002D01*
X4688383Y-49631000D01*
X4688379Y-49630998D01*
X4688373Y-49630995D01*
X4688361Y-49630991D01*
X4359687Y-49515983D01*
X4020174Y-49438491D01*
X3674122Y-49399500D01*
X3674120Y-49399500D01*
X3325880Y-49399500D01*
X3325878Y-49399500D01*
X2979825Y-49438491D01*
X2640312Y-49515983D01*
X2311638Y-49630991D01*
X2311611Y-49631002D01*
X1997871Y-49782091D01*
X1997862Y-49782096D01*
X1702999Y-49967372D01*
X1702995Y-49967375D01*
X1430740Y-50184489D01*
X1184489Y-50430740D01*
X967375Y-50702995D01*
X967372Y-50702999D01*
X782096Y-50997862D01*
X782091Y-50997871D01*
X631002Y-51311611D01*
X630991Y-51311638D01*
X515983Y-51640312D01*
X438491Y-51979825D01*
X399500Y-52325878D01*
X399500Y-52674121D01*
X438491Y-53020174D01*
X461552Y-53121209D01*
X515982Y-53359681D01*
X515984Y-53359687D01*
X515983Y-53359687D01*
X630991Y-53688361D01*
X631002Y-53688388D01*
X782091Y-54002128D01*
X782096Y-54002137D01*
X967372Y-54297000D01*
X967375Y-54297004D01*
X1184489Y-54569259D01*
X1430740Y-54815510D01*
X1702995Y-55032624D01*
X1703003Y-55032630D01*
X1931357Y-55176115D01*
X1992667Y-55214639D01*
X1997867Y-55217906D01*
X2311621Y-55369002D01*
X2311637Y-55369007D01*
X2311638Y-55369008D01*
X2640312Y-55484016D01*
X2640315Y-55484016D01*
X2640319Y-55484018D01*
X2979829Y-55561509D01*
X3225210Y-55589157D01*
X3325878Y-55600500D01*
X3325880Y-55600500D01*
X3674122Y-55600500D01*
X3762006Y-55590597D01*
X4020171Y-55561509D01*
X4359681Y-55484018D01*
X4688379Y-55369002D01*
X5002133Y-55217906D01*
X5296997Y-55032630D01*
X5455007Y-54906622D01*
X5569259Y-54815510D01*
X5569266Y-54815503D01*
X5656405Y-54728365D01*
X5718717Y-54694339D01*
X5789532Y-54699404D01*
X5846368Y-54741951D01*
X5871179Y-54808471D01*
X5871500Y-54817460D01*
X5871500Y-55074331D01*
X5910256Y-55269169D01*
X5986279Y-55452704D01*
X6096647Y-55617881D01*
X6096649Y-55617883D01*
X6238171Y-55759405D01*
X6272197Y-55821717D01*
X6267132Y-55892532D01*
X6224585Y-55949368D01*
X6158065Y-55974179D01*
X6149076Y-55974500D01*
X3003293Y-55974500D01*
X2996700Y-55974327D01*
X2978512Y-55973373D01*
X2695679Y-55958550D01*
X2682563Y-55957172D01*
X2388088Y-55910532D01*
X2375188Y-55907790D01*
X2087205Y-55830626D01*
X2074661Y-55826550D01*
X1796327Y-55719707D01*
X1784280Y-55714343D01*
X1518631Y-55578989D01*
X1507208Y-55572394D01*
X1257167Y-55410015D01*
X1246498Y-55402263D01*
X1187493Y-55354482D01*
X1014802Y-55214639D01*
X1005001Y-55205814D01*
X794185Y-54994998D01*
X785360Y-54985197D01*
X783792Y-54983261D01*
X597732Y-54753495D01*
X589988Y-54742838D01*
X427601Y-54492785D01*
X421010Y-54481368D01*
X285656Y-54215719D01*
X280292Y-54203672D01*
X199950Y-53994375D01*
X173447Y-53925332D01*
X169373Y-53912794D01*
X160808Y-53880830D01*
X92209Y-53624811D01*
X89467Y-53611911D01*
X42826Y-53317435D01*
X41449Y-53304319D01*
X25673Y-53003300D01*
X25500Y-52996706D01*
X25500Y-48400000D01*
X7886496Y-48400000D01*
X7906457Y-48589927D01*
X7932980Y-48671554D01*
X7965473Y-48771556D01*
X7965476Y-48771561D01*
X8060958Y-48936941D01*
X8060965Y-48936951D01*
X8188744Y-49078864D01*
X8188747Y-49078866D01*
X8343248Y-49191118D01*
X8517712Y-49268794D01*
X8704513Y-49308500D01*
X8895487Y-49308500D01*
X9082288Y-49268794D01*
X9256752Y-49191118D01*
X9411253Y-49078866D01*
X9426760Y-49061644D01*
X9539034Y-48936951D01*
X9539035Y-48936949D01*
X9539040Y-48936944D01*
X9634527Y-48771556D01*
X9693542Y-48589928D01*
X9713504Y-48400000D01*
X9702994Y-48300000D01*
X12686496Y-48300000D01*
X12706457Y-48489927D01*
X12736526Y-48582470D01*
X12765473Y-48671556D01*
X12776080Y-48689927D01*
X12860958Y-48836941D01*
X12860965Y-48836951D01*
X12988744Y-48978864D01*
X12988747Y-48978866D01*
X13143248Y-49091118D01*
X13317712Y-49168794D01*
X13504513Y-49208500D01*
X13695487Y-49208500D01*
X13882288Y-49168794D01*
X14056752Y-49091118D01*
X14211253Y-48978866D01*
X14211255Y-48978864D01*
X14339034Y-48836951D01*
X14339035Y-48836949D01*
X14339040Y-48836944D01*
X14434527Y-48671556D01*
X14493542Y-48489928D01*
X14513504Y-48300000D01*
X14493542Y-48110072D01*
X14457777Y-48000000D01*
X22886496Y-48000000D01*
X22906457Y-48189927D01*
X22913003Y-48210072D01*
X22965473Y-48371556D01*
X22965476Y-48371561D01*
X23060958Y-48536941D01*
X23060965Y-48536951D01*
X23188744Y-48678864D01*
X23188747Y-48678866D01*
X23343248Y-48791118D01*
X23517712Y-48868794D01*
X23704513Y-48908500D01*
X23895487Y-48908500D01*
X24082288Y-48868794D01*
X24256752Y-48791118D01*
X24411253Y-48678866D01*
X24411255Y-48678864D01*
X24539034Y-48536951D01*
X24539035Y-48536949D01*
X24539040Y-48536944D01*
X24634527Y-48371556D01*
X24693542Y-48189928D01*
X24713504Y-48000000D01*
X40486496Y-48000000D01*
X40506457Y-48189927D01*
X40513003Y-48210072D01*
X40565473Y-48371556D01*
X40565476Y-48371561D01*
X40660958Y-48536941D01*
X40660965Y-48536951D01*
X40788744Y-48678864D01*
X40788747Y-48678866D01*
X40943248Y-48791118D01*
X41117712Y-48868794D01*
X41304513Y-48908500D01*
X41495487Y-48908500D01*
X41682288Y-48868794D01*
X41856752Y-48791118D01*
X42011253Y-48678866D01*
X42011255Y-48678864D01*
X42139034Y-48536951D01*
X42139035Y-48536949D01*
X42139040Y-48536944D01*
X42234527Y-48371556D01*
X42293542Y-48189928D01*
X42313504Y-48000000D01*
X46086496Y-48000000D01*
X46106457Y-48189927D01*
X46113003Y-48210072D01*
X46165473Y-48371556D01*
X46165476Y-48371561D01*
X46260958Y-48536941D01*
X46260965Y-48536951D01*
X46388744Y-48678864D01*
X46388747Y-48678866D01*
X46543248Y-48791118D01*
X46717712Y-48868794D01*
X46904513Y-48908500D01*
X47095487Y-48908500D01*
X47282288Y-48868794D01*
X47456752Y-48791118D01*
X47611253Y-48678866D01*
X47611255Y-48678864D01*
X47739034Y-48536951D01*
X47739035Y-48536949D01*
X47739040Y-48536944D01*
X47760370Y-48500000D01*
X56586496Y-48500000D01*
X56606457Y-48689927D01*
X56632980Y-48771554D01*
X56665473Y-48871556D01*
X56665476Y-48871561D01*
X56760958Y-49036941D01*
X56760965Y-49036951D01*
X56888744Y-49178864D01*
X56949999Y-49223368D01*
X57043248Y-49291118D01*
X57217712Y-49368794D01*
X57404513Y-49408500D01*
X57595487Y-49408500D01*
X57782288Y-49368794D01*
X57956752Y-49291118D01*
X58111253Y-49178866D01*
X58190262Y-49091118D01*
X58239034Y-49036951D01*
X58239035Y-49036949D01*
X58239040Y-49036944D01*
X58334527Y-48871556D01*
X58393542Y-48689928D01*
X58413504Y-48500000D01*
X58393542Y-48310072D01*
X58334527Y-48128444D01*
X58239040Y-47963056D01*
X58239038Y-47963054D01*
X58239034Y-47963048D01*
X58111255Y-47821135D01*
X57956752Y-47708882D01*
X57782288Y-47631206D01*
X57595487Y-47591500D01*
X57404513Y-47591500D01*
X57217711Y-47631206D01*
X57043247Y-47708882D01*
X56888744Y-47821135D01*
X56760965Y-47963048D01*
X56760958Y-47963058D01*
X56665476Y-48128438D01*
X56665473Y-48128445D01*
X56606457Y-48310072D01*
X56586496Y-48500000D01*
X47760370Y-48500000D01*
X47834527Y-48371556D01*
X47893542Y-48189928D01*
X47913504Y-48000000D01*
X47893542Y-47810072D01*
X47834527Y-47628444D01*
X47739040Y-47463056D01*
X47739038Y-47463054D01*
X47739034Y-47463048D01*
X47611255Y-47321135D01*
X47456752Y-47208882D01*
X47282288Y-47131206D01*
X47095487Y-47091500D01*
X46904513Y-47091500D01*
X46717711Y-47131206D01*
X46543247Y-47208882D01*
X46388744Y-47321135D01*
X46260965Y-47463048D01*
X46260958Y-47463058D01*
X46165476Y-47628438D01*
X46165473Y-47628445D01*
X46106457Y-47810072D01*
X46086496Y-48000000D01*
X42313504Y-48000000D01*
X42293542Y-47810072D01*
X42234527Y-47628444D01*
X42139040Y-47463056D01*
X42139038Y-47463054D01*
X42139034Y-47463048D01*
X42011255Y-47321135D01*
X41856752Y-47208882D01*
X41682288Y-47131206D01*
X41495487Y-47091500D01*
X41304513Y-47091500D01*
X41117711Y-47131206D01*
X40943247Y-47208882D01*
X40788744Y-47321135D01*
X40660965Y-47463048D01*
X40660958Y-47463058D01*
X40565476Y-47628438D01*
X40565473Y-47628445D01*
X40506457Y-47810072D01*
X40486496Y-48000000D01*
X24713504Y-48000000D01*
X24693542Y-47810072D01*
X24634527Y-47628444D01*
X24539040Y-47463056D01*
X24539038Y-47463054D01*
X24539034Y-47463048D01*
X24411255Y-47321135D01*
X24256752Y-47208882D01*
X24082288Y-47131206D01*
X23895487Y-47091500D01*
X23704513Y-47091500D01*
X23517711Y-47131206D01*
X23343247Y-47208882D01*
X23188744Y-47321135D01*
X23060965Y-47463048D01*
X23060958Y-47463058D01*
X22965476Y-47628438D01*
X22965473Y-47628445D01*
X22906457Y-47810072D01*
X22886496Y-48000000D01*
X14457777Y-48000000D01*
X14434527Y-47928444D01*
X14339040Y-47763056D01*
X14339038Y-47763054D01*
X14339034Y-47763048D01*
X14211255Y-47621135D01*
X14056752Y-47508882D01*
X13882288Y-47431206D01*
X13695487Y-47391500D01*
X13504513Y-47391500D01*
X13317711Y-47431206D01*
X13143247Y-47508882D01*
X12988744Y-47621135D01*
X12860965Y-47763048D01*
X12860958Y-47763058D01*
X12765476Y-47928438D01*
X12765473Y-47928445D01*
X12706457Y-48110072D01*
X12686496Y-48300000D01*
X9702994Y-48300000D01*
X9693542Y-48210072D01*
X9634527Y-48028444D01*
X9539040Y-47863056D01*
X9539038Y-47863054D01*
X9539034Y-47863048D01*
X9411255Y-47721135D01*
X9256752Y-47608882D01*
X9082288Y-47531206D01*
X8895487Y-47491500D01*
X8704513Y-47491500D01*
X8517711Y-47531206D01*
X8343247Y-47608882D01*
X8188744Y-47721135D01*
X8060965Y-47863048D01*
X8060958Y-47863058D01*
X7965476Y-48028438D01*
X7965473Y-48028445D01*
X7906457Y-48210072D01*
X7886496Y-48400000D01*
X25500Y-48400000D01*
X25500Y-46800000D01*
X77086496Y-46800000D01*
X77106457Y-46989927D01*
X77136526Y-47082470D01*
X77165473Y-47171556D01*
X77165476Y-47171561D01*
X77260958Y-47336941D01*
X77260965Y-47336951D01*
X77388744Y-47478864D01*
X77388747Y-47478866D01*
X77543248Y-47591118D01*
X77717712Y-47668794D01*
X77904513Y-47708500D01*
X78095487Y-47708500D01*
X78282288Y-47668794D01*
X78456752Y-47591118D01*
X78611253Y-47478866D01*
X78625487Y-47463058D01*
X78739034Y-47336951D01*
X78739035Y-47336949D01*
X78739040Y-47336944D01*
X78834527Y-47171556D01*
X78893542Y-46989928D01*
X78913504Y-46800000D01*
X78893542Y-46610072D01*
X78834527Y-46428444D01*
X78739040Y-46263056D01*
X78739038Y-46263054D01*
X78739034Y-46263048D01*
X78611255Y-46121135D01*
X78456752Y-46008882D01*
X78282288Y-45931206D01*
X78095487Y-45891500D01*
X77904513Y-45891500D01*
X77717711Y-45931206D01*
X77543247Y-46008882D01*
X77388744Y-46121135D01*
X77260965Y-46263048D01*
X77260958Y-46263058D01*
X77165476Y-46428438D01*
X77165473Y-46428445D01*
X77106457Y-46610072D01*
X77086496Y-46800000D01*
X25500Y-46800000D01*
X25500Y-44000000D01*
X28486496Y-44000000D01*
X28506457Y-44189927D01*
X28536526Y-44282470D01*
X28565473Y-44371556D01*
X28565476Y-44371561D01*
X28660958Y-44536941D01*
X28660965Y-44536951D01*
X28788744Y-44678864D01*
X28788747Y-44678866D01*
X28943248Y-44791118D01*
X29117712Y-44868794D01*
X29304513Y-44908500D01*
X29495487Y-44908500D01*
X29682288Y-44868794D01*
X29856752Y-44791118D01*
X30011253Y-44678866D01*
X30139040Y-44536944D01*
X30234527Y-44371556D01*
X30293542Y-44189928D01*
X30313504Y-44000000D01*
X30293542Y-43810072D01*
X30234527Y-43628444D01*
X30160370Y-43500000D01*
X52336496Y-43500000D01*
X52356457Y-43689927D01*
X52386526Y-43782470D01*
X52415473Y-43871556D01*
X52415476Y-43871561D01*
X52510958Y-44036941D01*
X52510965Y-44036951D01*
X52638744Y-44178864D01*
X52638747Y-44178866D01*
X52793248Y-44291118D01*
X52967712Y-44368794D01*
X53154513Y-44408500D01*
X53345487Y-44408500D01*
X53532288Y-44368794D01*
X53706752Y-44291118D01*
X53861253Y-44178866D01*
X53989040Y-44036944D01*
X54084527Y-43871556D01*
X54143542Y-43689928D01*
X54163504Y-43500000D01*
X54143542Y-43310072D01*
X54084527Y-43128444D01*
X53989040Y-42963056D01*
X53989038Y-42963054D01*
X53989034Y-42963048D01*
X53861255Y-42821135D01*
X53706752Y-42708882D01*
X53532288Y-42631206D01*
X53345487Y-42591500D01*
X53154513Y-42591500D01*
X52967711Y-42631206D01*
X52793247Y-42708882D01*
X52638744Y-42821135D01*
X52510965Y-42963048D01*
X52510958Y-42963058D01*
X52415476Y-43128438D01*
X52415473Y-43128445D01*
X52356457Y-43310072D01*
X52336496Y-43500000D01*
X30160370Y-43500000D01*
X30139040Y-43463056D01*
X30139038Y-43463054D01*
X30139034Y-43463048D01*
X30011255Y-43321135D01*
X29856752Y-43208882D01*
X29682288Y-43131206D01*
X29495487Y-43091500D01*
X29304513Y-43091500D01*
X29117711Y-43131206D01*
X28943247Y-43208882D01*
X28788744Y-43321135D01*
X28660965Y-43463048D01*
X28660958Y-43463058D01*
X28565476Y-43628438D01*
X28565473Y-43628445D01*
X28506457Y-43810072D01*
X28486496Y-44000000D01*
X25500Y-44000000D01*
X25500Y-41000000D01*
X54586496Y-41000000D01*
X54606457Y-41189927D01*
X54636526Y-41282470D01*
X54665473Y-41371556D01*
X54665476Y-41371561D01*
X54760958Y-41536941D01*
X54760965Y-41536951D01*
X54888744Y-41678864D01*
X54949999Y-41723368D01*
X55043248Y-41791118D01*
X55217712Y-41868794D01*
X55404513Y-41908500D01*
X55595487Y-41908500D01*
X55782288Y-41868794D01*
X55956752Y-41791118D01*
X56111253Y-41678866D01*
X56190262Y-41591118D01*
X56239034Y-41536951D01*
X56239035Y-41536949D01*
X56239040Y-41536944D01*
X56334527Y-41371556D01*
X56393542Y-41189928D01*
X56413504Y-41000000D01*
X56393542Y-40810072D01*
X56334527Y-40628444D01*
X56239040Y-40463056D01*
X56239038Y-40463054D01*
X56239034Y-40463048D01*
X56111255Y-40321135D01*
X55956752Y-40208882D01*
X55782288Y-40131206D01*
X55595487Y-40091500D01*
X55404513Y-40091500D01*
X55217711Y-40131206D01*
X55043247Y-40208882D01*
X54888744Y-40321135D01*
X54760965Y-40463048D01*
X54760958Y-40463058D01*
X54676080Y-40610072D01*
X54665473Y-40628444D01*
X54650999Y-40672986D01*
X54606457Y-40810072D01*
X54586496Y-41000000D01*
X25500Y-41000000D01*
X25500Y-40000000D01*
X22886496Y-40000000D01*
X22906457Y-40189927D01*
X22936526Y-40282470D01*
X22965473Y-40371556D01*
X22965476Y-40371561D01*
X23060958Y-40536941D01*
X23060965Y-40536951D01*
X23188744Y-40678864D01*
X23188747Y-40678866D01*
X23343248Y-40791118D01*
X23517712Y-40868794D01*
X23704513Y-40908500D01*
X23895487Y-40908500D01*
X24082288Y-40868794D01*
X24256752Y-40791118D01*
X24411253Y-40678866D01*
X24411255Y-40678864D01*
X24539034Y-40536951D01*
X24539035Y-40536949D01*
X24539040Y-40536944D01*
X24634527Y-40371556D01*
X24693542Y-40189928D01*
X24713504Y-40000000D01*
X40486496Y-40000000D01*
X40506457Y-40189927D01*
X40536526Y-40282470D01*
X40565473Y-40371556D01*
X40565476Y-40371561D01*
X40660958Y-40536941D01*
X40660965Y-40536951D01*
X40788744Y-40678864D01*
X40788747Y-40678866D01*
X40943248Y-40791118D01*
X41117712Y-40868794D01*
X41304513Y-40908500D01*
X41495487Y-40908500D01*
X41682288Y-40868794D01*
X41856752Y-40791118D01*
X42011253Y-40678866D01*
X42011255Y-40678864D01*
X42139034Y-40536951D01*
X42139035Y-40536949D01*
X42139040Y-40536944D01*
X42234527Y-40371556D01*
X42293542Y-40189928D01*
X42313504Y-40000000D01*
X46086496Y-40000000D01*
X46106457Y-40189927D01*
X46136526Y-40282470D01*
X46165473Y-40371556D01*
X46165476Y-40371561D01*
X46260958Y-40536941D01*
X46260965Y-40536951D01*
X46388744Y-40678864D01*
X46388747Y-40678866D01*
X46543248Y-40791118D01*
X46717712Y-40868794D01*
X46904513Y-40908500D01*
X47095487Y-40908500D01*
X47282288Y-40868794D01*
X47456752Y-40791118D01*
X47611253Y-40678866D01*
X47611255Y-40678864D01*
X47739034Y-40536951D01*
X47739035Y-40536949D01*
X47739040Y-40536944D01*
X47834527Y-40371556D01*
X47893542Y-40189928D01*
X47913504Y-40000000D01*
X47908690Y-39954200D01*
X60656096Y-39954200D01*
X60676057Y-40144127D01*
X60690939Y-40189927D01*
X60735073Y-40325756D01*
X60735076Y-40325761D01*
X60830558Y-40491141D01*
X60830565Y-40491151D01*
X60958344Y-40633064D01*
X60958347Y-40633066D01*
X61112848Y-40745318D01*
X61287312Y-40822994D01*
X61474113Y-40862700D01*
X61665087Y-40862700D01*
X61851888Y-40822994D01*
X61903534Y-40800000D01*
X64886496Y-40800000D01*
X64906457Y-40989927D01*
X64936526Y-41082470D01*
X64965473Y-41171556D01*
X64965476Y-41171561D01*
X65060958Y-41336941D01*
X65060965Y-41336951D01*
X65188744Y-41478864D01*
X65188747Y-41478866D01*
X65343248Y-41591118D01*
X65517712Y-41668794D01*
X65704513Y-41708500D01*
X65895487Y-41708500D01*
X66082288Y-41668794D01*
X66256752Y-41591118D01*
X66411253Y-41478866D01*
X66507871Y-41371561D01*
X66539034Y-41336951D01*
X66539035Y-41336949D01*
X66539040Y-41336944D01*
X66634527Y-41171556D01*
X66693542Y-40989928D01*
X66713504Y-40800000D01*
X66693542Y-40610072D01*
X66634527Y-40428444D01*
X66539040Y-40263056D01*
X66539038Y-40263054D01*
X66539034Y-40263048D01*
X66411255Y-40121135D01*
X66256752Y-40008882D01*
X66082288Y-39931206D01*
X65895487Y-39891500D01*
X65704513Y-39891500D01*
X65517711Y-39931206D01*
X65343247Y-40008882D01*
X65188744Y-40121135D01*
X65060965Y-40263048D01*
X65060958Y-40263058D01*
X64965476Y-40428438D01*
X64965473Y-40428445D01*
X64906457Y-40610072D01*
X64886496Y-40800000D01*
X61903534Y-40800000D01*
X62026352Y-40745318D01*
X62180853Y-40633066D01*
X62201557Y-40610072D01*
X62308634Y-40491151D01*
X62308635Y-40491149D01*
X62308640Y-40491144D01*
X62404127Y-40325756D01*
X62463142Y-40144128D01*
X62483104Y-39954200D01*
X62463142Y-39764272D01*
X62404127Y-39582644D01*
X62308640Y-39417256D01*
X62308638Y-39417254D01*
X62308634Y-39417248D01*
X62180855Y-39275335D01*
X62026352Y-39163082D01*
X61851888Y-39085406D01*
X61665087Y-39045700D01*
X61474113Y-39045700D01*
X61287311Y-39085406D01*
X61112847Y-39163082D01*
X60958344Y-39275335D01*
X60830565Y-39417248D01*
X60830558Y-39417258D01*
X60735076Y-39582638D01*
X60735073Y-39582645D01*
X60676057Y-39764272D01*
X60656096Y-39954200D01*
X47908690Y-39954200D01*
X47893542Y-39810072D01*
X47834527Y-39628444D01*
X47739040Y-39463056D01*
X47739038Y-39463054D01*
X47739034Y-39463048D01*
X47611255Y-39321135D01*
X47456752Y-39208882D01*
X47282288Y-39131206D01*
X47095487Y-39091500D01*
X46904513Y-39091500D01*
X46717711Y-39131206D01*
X46543247Y-39208882D01*
X46388744Y-39321135D01*
X46260965Y-39463048D01*
X46260958Y-39463058D01*
X46165476Y-39628438D01*
X46165473Y-39628445D01*
X46106457Y-39810072D01*
X46086496Y-40000000D01*
X42313504Y-40000000D01*
X42293542Y-39810072D01*
X42234527Y-39628444D01*
X42139040Y-39463056D01*
X42139038Y-39463054D01*
X42139034Y-39463048D01*
X42011255Y-39321135D01*
X41856752Y-39208882D01*
X41682288Y-39131206D01*
X41495487Y-39091500D01*
X41304513Y-39091500D01*
X41117711Y-39131206D01*
X40943247Y-39208882D01*
X40788744Y-39321135D01*
X40660965Y-39463048D01*
X40660958Y-39463058D01*
X40565476Y-39628438D01*
X40565473Y-39628445D01*
X40506457Y-39810072D01*
X40486496Y-40000000D01*
X24713504Y-40000000D01*
X24693542Y-39810072D01*
X24634527Y-39628444D01*
X24539040Y-39463056D01*
X24539038Y-39463054D01*
X24539034Y-39463048D01*
X24411255Y-39321135D01*
X24256752Y-39208882D01*
X24082288Y-39131206D01*
X23895487Y-39091500D01*
X23704513Y-39091500D01*
X23517711Y-39131206D01*
X23343247Y-39208882D01*
X23188744Y-39321135D01*
X23060965Y-39463048D01*
X23060958Y-39463058D01*
X22965476Y-39628438D01*
X22965473Y-39628445D01*
X22906457Y-39810072D01*
X22886496Y-40000000D01*
X25500Y-40000000D01*
X25500Y-38700000D01*
X62986496Y-38700000D01*
X63006457Y-38889927D01*
X63036526Y-38982470D01*
X63065473Y-39071556D01*
X63065476Y-39071561D01*
X63160958Y-39236941D01*
X63160965Y-39236951D01*
X63288744Y-39378864D01*
X63288747Y-39378866D01*
X63443248Y-39491118D01*
X63617712Y-39568794D01*
X63804513Y-39608500D01*
X63995487Y-39608500D01*
X64182288Y-39568794D01*
X64356752Y-39491118D01*
X64511253Y-39378866D01*
X64639040Y-39236944D01*
X64734527Y-39071556D01*
X64793542Y-38889928D01*
X64813504Y-38700000D01*
X64803249Y-38602432D01*
X64816021Y-38532596D01*
X64864523Y-38480750D01*
X64933356Y-38463355D01*
X65000666Y-38485936D01*
X65022195Y-38504953D01*
X65047085Y-38532596D01*
X65088747Y-38578866D01*
X65243248Y-38691118D01*
X65417712Y-38768794D01*
X65604513Y-38808500D01*
X65795487Y-38808500D01*
X65982288Y-38768794D01*
X66156752Y-38691118D01*
X66311253Y-38578866D01*
X66352915Y-38532596D01*
X66439034Y-38436951D01*
X66439035Y-38436949D01*
X66439040Y-38436944D01*
X66534527Y-38271556D01*
X66593542Y-38089928D01*
X66613504Y-37900000D01*
X66603433Y-37804183D01*
X66616205Y-37734347D01*
X66664707Y-37682501D01*
X66733540Y-37665106D01*
X66800850Y-37687687D01*
X66802800Y-37689076D01*
X66943248Y-37791118D01*
X67117712Y-37868794D01*
X67304513Y-37908500D01*
X67495487Y-37908500D01*
X67682288Y-37868794D01*
X67856752Y-37791118D01*
X68011253Y-37678866D01*
X68139040Y-37536944D01*
X68234527Y-37371556D01*
X68293542Y-37189928D01*
X68313504Y-37000000D01*
X68293542Y-36810072D01*
X68234527Y-36628444D01*
X68139040Y-36463056D01*
X68139038Y-36463054D01*
X68139034Y-36463048D01*
X68011255Y-36321135D01*
X67856752Y-36208882D01*
X67682288Y-36131206D01*
X67495487Y-36091500D01*
X67304513Y-36091500D01*
X67117711Y-36131206D01*
X66943247Y-36208882D01*
X66788744Y-36321135D01*
X66660965Y-36463048D01*
X66660958Y-36463058D01*
X66565476Y-36628438D01*
X66565473Y-36628445D01*
X66506457Y-36810072D01*
X66486496Y-37000000D01*
X66496566Y-37095814D01*
X66483793Y-37165653D01*
X66435291Y-37217499D01*
X66366458Y-37234893D01*
X66299149Y-37212311D01*
X66297195Y-37210920D01*
X66156752Y-37108882D01*
X65982288Y-37031206D01*
X65795487Y-36991500D01*
X65604513Y-36991500D01*
X65417711Y-37031206D01*
X65243247Y-37108882D01*
X65088744Y-37221135D01*
X64960965Y-37363048D01*
X64960958Y-37363058D01*
X64865476Y-37528438D01*
X64865473Y-37528445D01*
X64806457Y-37710072D01*
X64786496Y-37900000D01*
X64796750Y-37997565D01*
X64783977Y-38067404D01*
X64735475Y-38119250D01*
X64666642Y-38136644D01*
X64599333Y-38114062D01*
X64577804Y-38095045D01*
X64511255Y-38021135D01*
X64356752Y-37908882D01*
X64182288Y-37831206D01*
X63995487Y-37791500D01*
X63804513Y-37791500D01*
X63617711Y-37831206D01*
X63443247Y-37908882D01*
X63288744Y-38021135D01*
X63160965Y-38163048D01*
X63160958Y-38163058D01*
X63065476Y-38328438D01*
X63065473Y-38328445D01*
X63006457Y-38510072D01*
X62986496Y-38700000D01*
X25500Y-38700000D01*
X25500Y-35600000D01*
X79286496Y-35600000D01*
X79306457Y-35789927D01*
X79336526Y-35882470D01*
X79365473Y-35971556D01*
X79365476Y-35971561D01*
X79460958Y-36136941D01*
X79460965Y-36136951D01*
X79588744Y-36278864D01*
X79588747Y-36278866D01*
X79743248Y-36391118D01*
X79917712Y-36468794D01*
X80104513Y-36508500D01*
X80295487Y-36508500D01*
X80482288Y-36468794D01*
X80656752Y-36391118D01*
X80782165Y-36300000D01*
X81286496Y-36300000D01*
X81306457Y-36489927D01*
X81312492Y-36508500D01*
X81365473Y-36671556D01*
X81365476Y-36671561D01*
X81460958Y-36836941D01*
X81460965Y-36836951D01*
X81588744Y-36978864D01*
X81588747Y-36978866D01*
X81743248Y-37091118D01*
X81917712Y-37168794D01*
X82104513Y-37208500D01*
X82295487Y-37208500D01*
X82482288Y-37168794D01*
X82656752Y-37091118D01*
X82811253Y-36978866D01*
X82939040Y-36836944D01*
X83034527Y-36671556D01*
X83093542Y-36489928D01*
X83113504Y-36300000D01*
X83093542Y-36110072D01*
X83034527Y-35928444D01*
X82939040Y-35763056D01*
X82939038Y-35763054D01*
X82939034Y-35763048D01*
X82811255Y-35621135D01*
X82656752Y-35508882D01*
X82482288Y-35431206D01*
X82295487Y-35391500D01*
X82104513Y-35391500D01*
X81917711Y-35431206D01*
X81743247Y-35508882D01*
X81588744Y-35621135D01*
X81460965Y-35763048D01*
X81460958Y-35763058D01*
X81365476Y-35928438D01*
X81365473Y-35928445D01*
X81306457Y-36110072D01*
X81286496Y-36300000D01*
X80782165Y-36300000D01*
X80811253Y-36278866D01*
X80939040Y-36136944D01*
X81034527Y-35971556D01*
X81093542Y-35789928D01*
X81113504Y-35600000D01*
X81093542Y-35410072D01*
X81034527Y-35228444D01*
X80939040Y-35063056D01*
X80939038Y-35063054D01*
X80939034Y-35063048D01*
X80811255Y-34921135D01*
X80656752Y-34808882D01*
X80482288Y-34731206D01*
X80295487Y-34691500D01*
X80104513Y-34691500D01*
X79917711Y-34731206D01*
X79743247Y-34808882D01*
X79588744Y-34921135D01*
X79460965Y-35063048D01*
X79460958Y-35063058D01*
X79365476Y-35228438D01*
X79365473Y-35228445D01*
X79306457Y-35410072D01*
X79286496Y-35600000D01*
X25500Y-35600000D01*
X25500Y-31200000D01*
X54086496Y-31200000D01*
X54106457Y-31389927D01*
X54136526Y-31482470D01*
X54165473Y-31571556D01*
X54165476Y-31571561D01*
X54260958Y-31736941D01*
X54260965Y-31736951D01*
X54388744Y-31878864D01*
X54388747Y-31878866D01*
X54543248Y-31991118D01*
X54717712Y-32068794D01*
X54904513Y-32108500D01*
X55095487Y-32108500D01*
X55282288Y-32068794D01*
X55456752Y-31991118D01*
X55611253Y-31878866D01*
X55739040Y-31736944D01*
X55834527Y-31571556D01*
X55893542Y-31389928D01*
X55913504Y-31200000D01*
X55893542Y-31010072D01*
X55834527Y-30828444D01*
X55739040Y-30663056D01*
X55739038Y-30663054D01*
X55739034Y-30663048D01*
X55611255Y-30521135D01*
X55456752Y-30408882D01*
X55282288Y-30331206D01*
X55095487Y-30291500D01*
X54904513Y-30291500D01*
X54717711Y-30331206D01*
X54543247Y-30408882D01*
X54388744Y-30521135D01*
X54260965Y-30663048D01*
X54260958Y-30663058D01*
X54165476Y-30828438D01*
X54165473Y-30828445D01*
X54106457Y-31010072D01*
X54086496Y-31200000D01*
X25500Y-31200000D01*
X25500Y-29700000D01*
X63886496Y-29700000D01*
X63906457Y-29889927D01*
X63936526Y-29982470D01*
X63965473Y-30071556D01*
X63965476Y-30071561D01*
X64060958Y-30236941D01*
X64060965Y-30236951D01*
X64188744Y-30378864D01*
X64188747Y-30378866D01*
X64343248Y-30491118D01*
X64517712Y-30568794D01*
X64704513Y-30608500D01*
X64895487Y-30608500D01*
X65082288Y-30568794D01*
X65256752Y-30491118D01*
X65411253Y-30378866D01*
X65539040Y-30236944D01*
X65634527Y-30071556D01*
X65693542Y-29889928D01*
X65713504Y-29700000D01*
X65693542Y-29510072D01*
X65634527Y-29328444D01*
X65539040Y-29163056D01*
X65539038Y-29163054D01*
X65539034Y-29163048D01*
X65411255Y-29021135D01*
X65256752Y-28908882D01*
X65082288Y-28831206D01*
X64895487Y-28791500D01*
X64704513Y-28791500D01*
X64517711Y-28831206D01*
X64343247Y-28908882D01*
X64188744Y-29021135D01*
X64060965Y-29163048D01*
X64060958Y-29163058D01*
X63965476Y-29328438D01*
X63965473Y-29328445D01*
X63906457Y-29510072D01*
X63886496Y-29700000D01*
X25500Y-29700000D01*
X25500Y-26325878D01*
X399500Y-26325878D01*
X399500Y-26674121D01*
X438491Y-27020174D01*
X463204Y-27128445D01*
X515982Y-27359681D01*
X515984Y-27359687D01*
X515983Y-27359687D01*
X630991Y-27688361D01*
X631002Y-27688388D01*
X782091Y-28002128D01*
X782096Y-28002137D01*
X967372Y-28297000D01*
X967375Y-28297004D01*
X1184489Y-28569259D01*
X1430740Y-28815510D01*
X1702995Y-29032624D01*
X1703003Y-29032630D01*
X1997867Y-29217906D01*
X2311621Y-29369002D01*
X2311637Y-29369007D01*
X2311638Y-29369008D01*
X2640312Y-29484016D01*
X2640315Y-29484016D01*
X2640319Y-29484018D01*
X2979829Y-29561509D01*
X3225210Y-29589157D01*
X3325878Y-29600500D01*
X3325880Y-29600500D01*
X3674122Y-29600500D01*
X3762006Y-29590597D01*
X4020171Y-29561509D01*
X4359681Y-29484018D01*
X4688379Y-29369002D01*
X5002133Y-29217906D01*
X5296997Y-29032630D01*
X5502442Y-28868794D01*
X5569259Y-28815510D01*
X5815510Y-28569259D01*
X6032624Y-28297004D01*
X6032630Y-28296997D01*
X6217906Y-28002133D01*
X6369002Y-27688379D01*
X6434918Y-27500000D01*
X47586496Y-27500000D01*
X47606457Y-27689927D01*
X47636526Y-27782470D01*
X47665473Y-27871556D01*
X47665476Y-27871561D01*
X47760958Y-28036941D01*
X47760965Y-28036951D01*
X47888744Y-28178864D01*
X47888747Y-28178866D01*
X48043248Y-28291118D01*
X48217712Y-28368794D01*
X48404513Y-28408500D01*
X48595487Y-28408500D01*
X48782288Y-28368794D01*
X48956752Y-28291118D01*
X49111253Y-28178866D01*
X49239040Y-28036944D01*
X49334527Y-27871556D01*
X49393542Y-27689928D01*
X49413504Y-27500000D01*
X49393542Y-27310072D01*
X49334527Y-27128444D01*
X49239040Y-26963056D01*
X49239038Y-26963054D01*
X49239034Y-26963048D01*
X49111255Y-26821135D01*
X48956752Y-26708882D01*
X48782288Y-26631206D01*
X48595487Y-26591500D01*
X48404513Y-26591500D01*
X48217711Y-26631206D01*
X48043247Y-26708882D01*
X47888744Y-26821135D01*
X47760965Y-26963048D01*
X47760958Y-26963058D01*
X47665476Y-27128438D01*
X47665473Y-27128445D01*
X47606457Y-27310072D01*
X47586496Y-27500000D01*
X6434918Y-27500000D01*
X6484018Y-27359681D01*
X6561509Y-27020171D01*
X6600500Y-26674120D01*
X6600500Y-26325880D01*
X6600500Y-26325878D01*
X58399500Y-26325878D01*
X58399500Y-26674121D01*
X58438491Y-27020174D01*
X58463204Y-27128445D01*
X58515982Y-27359681D01*
X58515984Y-27359687D01*
X58515983Y-27359687D01*
X58630991Y-27688361D01*
X58631002Y-27688388D01*
X58782091Y-28002128D01*
X58782096Y-28002137D01*
X58967372Y-28297000D01*
X58967375Y-28297004D01*
X59184489Y-28569259D01*
X59430740Y-28815510D01*
X59702995Y-29032624D01*
X59703003Y-29032630D01*
X59997867Y-29217906D01*
X60311621Y-29369002D01*
X60311637Y-29369007D01*
X60311638Y-29369008D01*
X60640312Y-29484016D01*
X60640315Y-29484016D01*
X60640319Y-29484018D01*
X60979829Y-29561509D01*
X61225210Y-29589157D01*
X61325878Y-29600500D01*
X61325880Y-29600500D01*
X61674122Y-29600500D01*
X61762006Y-29590597D01*
X62020171Y-29561509D01*
X62359681Y-29484018D01*
X62688379Y-29369002D01*
X63002133Y-29217906D01*
X63296997Y-29032630D01*
X63502442Y-28868794D01*
X63569259Y-28815510D01*
X63815510Y-28569259D01*
X64032624Y-28297004D01*
X64032630Y-28296997D01*
X64217906Y-28002133D01*
X64218933Y-28000000D01*
X65276496Y-28000000D01*
X65296457Y-28189927D01*
X65326526Y-28282470D01*
X65355473Y-28371556D01*
X65355476Y-28371561D01*
X65450958Y-28536941D01*
X65450965Y-28536951D01*
X65578744Y-28678864D01*
X65578747Y-28678866D01*
X65733248Y-28791118D01*
X65907712Y-28868794D01*
X66094513Y-28908500D01*
X66285487Y-28908500D01*
X66472288Y-28868794D01*
X66646752Y-28791118D01*
X66801253Y-28678866D01*
X66899940Y-28569263D01*
X66929034Y-28536951D01*
X66929035Y-28536949D01*
X66929040Y-28536944D01*
X67024527Y-28371556D01*
X67083542Y-28189928D01*
X67103504Y-28000000D01*
X68096497Y-28000000D01*
X68116458Y-28189927D01*
X68146527Y-28282470D01*
X68175474Y-28371556D01*
X68175477Y-28371561D01*
X68270959Y-28536941D01*
X68270966Y-28536951D01*
X68398745Y-28678864D01*
X68398748Y-28678866D01*
X68553249Y-28791118D01*
X68727713Y-28868794D01*
X68914514Y-28908500D01*
X69105488Y-28908500D01*
X69292289Y-28868794D01*
X69466753Y-28791118D01*
X69621254Y-28678866D01*
X69719941Y-28569263D01*
X69749035Y-28536951D01*
X69749036Y-28536949D01*
X69749041Y-28536944D01*
X69844528Y-28371556D01*
X69903543Y-28189928D01*
X69923505Y-28000000D01*
X69903543Y-27810072D01*
X69844528Y-27628444D01*
X69749041Y-27463056D01*
X69749039Y-27463054D01*
X69749035Y-27463048D01*
X69621256Y-27321135D01*
X69466753Y-27208882D01*
X69292289Y-27131206D01*
X69105488Y-27091500D01*
X68914514Y-27091500D01*
X68727712Y-27131206D01*
X68553248Y-27208882D01*
X68398745Y-27321135D01*
X68270966Y-27463048D01*
X68270959Y-27463058D01*
X68175477Y-27628438D01*
X68175474Y-27628445D01*
X68116458Y-27810072D01*
X68096497Y-28000000D01*
X67103504Y-28000000D01*
X67083542Y-27810072D01*
X67024527Y-27628444D01*
X66929040Y-27463056D01*
X66929038Y-27463054D01*
X66929034Y-27463048D01*
X66801255Y-27321135D01*
X66646752Y-27208882D01*
X66472288Y-27131206D01*
X66285487Y-27091500D01*
X66094513Y-27091500D01*
X65907711Y-27131206D01*
X65733247Y-27208882D01*
X65578744Y-27321135D01*
X65450965Y-27463048D01*
X65450958Y-27463058D01*
X65355476Y-27628438D01*
X65355473Y-27628445D01*
X65296457Y-27810072D01*
X65276496Y-28000000D01*
X64218933Y-28000000D01*
X64369002Y-27688379D01*
X64484018Y-27359681D01*
X64561509Y-27020171D01*
X64600500Y-26674120D01*
X64600500Y-26325880D01*
X64561509Y-25979829D01*
X64484018Y-25640319D01*
X64369002Y-25311621D01*
X64217906Y-24997867D01*
X64032630Y-24703003D01*
X64032624Y-24702995D01*
X63815510Y-24430740D01*
X63569259Y-24184489D01*
X63297004Y-23967375D01*
X63297000Y-23967372D01*
X63189779Y-23900000D01*
X79286496Y-23900000D01*
X79306457Y-24089927D01*
X79336526Y-24182470D01*
X79365473Y-24271556D01*
X79365476Y-24271561D01*
X79460958Y-24436941D01*
X79460965Y-24436951D01*
X79588744Y-24578864D01*
X79647511Y-24621561D01*
X79743248Y-24691118D01*
X79917712Y-24768794D01*
X80104513Y-24808500D01*
X80295487Y-24808500D01*
X80482288Y-24768794D01*
X80656752Y-24691118D01*
X80811253Y-24578866D01*
X80890262Y-24491118D01*
X80939034Y-24436951D01*
X80939035Y-24436949D01*
X80939040Y-24436944D01*
X81034527Y-24271556D01*
X81080167Y-24131090D01*
X81120241Y-24072486D01*
X81185638Y-24044849D01*
X81255594Y-24056956D01*
X81307900Y-24104962D01*
X81319832Y-24131089D01*
X81365473Y-24271556D01*
X81365476Y-24271561D01*
X81460958Y-24436941D01*
X81460965Y-24436951D01*
X81588744Y-24578864D01*
X81647511Y-24621561D01*
X81743248Y-24691118D01*
X81917712Y-24768794D01*
X82104513Y-24808500D01*
X82295487Y-24808500D01*
X82482288Y-24768794D01*
X82656752Y-24691118D01*
X82811253Y-24578866D01*
X82890262Y-24491118D01*
X82939034Y-24436951D01*
X82939035Y-24436949D01*
X82939040Y-24436944D01*
X83034527Y-24271556D01*
X83093542Y-24089928D01*
X83113504Y-23900000D01*
X83093542Y-23710072D01*
X83034527Y-23528444D01*
X82939040Y-23363056D01*
X82939038Y-23363054D01*
X82939034Y-23363048D01*
X82811255Y-23221135D01*
X82656752Y-23108882D01*
X82482288Y-23031206D01*
X82295487Y-22991500D01*
X82104513Y-22991500D01*
X81917711Y-23031206D01*
X81743247Y-23108882D01*
X81588744Y-23221135D01*
X81460965Y-23363048D01*
X81460958Y-23363058D01*
X81365476Y-23528438D01*
X81365473Y-23528445D01*
X81319833Y-23668908D01*
X81279759Y-23727513D01*
X81214362Y-23755150D01*
X81144405Y-23743043D01*
X81092100Y-23695036D01*
X81080167Y-23668908D01*
X81067847Y-23630991D01*
X81034527Y-23528444D01*
X80939040Y-23363056D01*
X80939038Y-23363054D01*
X80939034Y-23363048D01*
X80811255Y-23221135D01*
X80656752Y-23108882D01*
X80482288Y-23031206D01*
X80295487Y-22991500D01*
X80104513Y-22991500D01*
X79917711Y-23031206D01*
X79743247Y-23108882D01*
X79588744Y-23221135D01*
X79460965Y-23363048D01*
X79460958Y-23363058D01*
X79365476Y-23528438D01*
X79365473Y-23528445D01*
X79306457Y-23710072D01*
X79286496Y-23900000D01*
X63189779Y-23900000D01*
X63002137Y-23782096D01*
X63002128Y-23782091D01*
X62688388Y-23631002D01*
X62688383Y-23631000D01*
X62688379Y-23630998D01*
X62688373Y-23630995D01*
X62688361Y-23630991D01*
X62359687Y-23515983D01*
X62020174Y-23438491D01*
X61674122Y-23399500D01*
X61674120Y-23399500D01*
X61325880Y-23399500D01*
X61325878Y-23399500D01*
X60979825Y-23438491D01*
X60640312Y-23515983D01*
X60311638Y-23630991D01*
X60311611Y-23631002D01*
X59997871Y-23782091D01*
X59997862Y-23782096D01*
X59702999Y-23967372D01*
X59702995Y-23967375D01*
X59430740Y-24184489D01*
X59184489Y-24430740D01*
X58967375Y-24702995D01*
X58967372Y-24702999D01*
X58782096Y-24997862D01*
X58782091Y-24997871D01*
X58631002Y-25311611D01*
X58630991Y-25311638D01*
X58515983Y-25640312D01*
X58438491Y-25979825D01*
X58399500Y-26325878D01*
X6600500Y-26325878D01*
X6561509Y-25979829D01*
X6484018Y-25640319D01*
X6369002Y-25311621D01*
X6217906Y-24997867D01*
X6032630Y-24703003D01*
X6032624Y-24702995D01*
X5815510Y-24430740D01*
X5634770Y-24250000D01*
X48336496Y-24250000D01*
X48356457Y-24439927D01*
X48386526Y-24532470D01*
X48415473Y-24621556D01*
X48415476Y-24621561D01*
X48510958Y-24786941D01*
X48510965Y-24786951D01*
X48638744Y-24928864D01*
X48638747Y-24928866D01*
X48793248Y-25041118D01*
X48967712Y-25118794D01*
X49154513Y-25158500D01*
X49345487Y-25158500D01*
X49532288Y-25118794D01*
X49706752Y-25041118D01*
X49861253Y-24928866D01*
X49989040Y-24786944D01*
X50084527Y-24621556D01*
X50143542Y-24439928D01*
X50163504Y-24250000D01*
X50143542Y-24060072D01*
X50084527Y-23878444D01*
X49989040Y-23713056D01*
X49989038Y-23713054D01*
X49989034Y-23713048D01*
X49977286Y-23700000D01*
X54086496Y-23700000D01*
X54106457Y-23889927D01*
X54131621Y-23967370D01*
X54165473Y-24071556D01*
X54165476Y-24071561D01*
X54260958Y-24236941D01*
X54260965Y-24236951D01*
X54388744Y-24378864D01*
X54388747Y-24378866D01*
X54543248Y-24491118D01*
X54717712Y-24568794D01*
X54904513Y-24608500D01*
X55095487Y-24608500D01*
X55282288Y-24568794D01*
X55456752Y-24491118D01*
X55611253Y-24378866D01*
X55707871Y-24271561D01*
X55739034Y-24236951D01*
X55739035Y-24236949D01*
X55739040Y-24236944D01*
X55834527Y-24071556D01*
X55893542Y-23889928D01*
X55913504Y-23700000D01*
X55893542Y-23510072D01*
X55834527Y-23328444D01*
X55739040Y-23163056D01*
X55739038Y-23163054D01*
X55739034Y-23163048D01*
X55611255Y-23021135D01*
X55456752Y-22908882D01*
X55282288Y-22831206D01*
X55135476Y-22800000D01*
X71886496Y-22800000D01*
X71906457Y-22989927D01*
X71919870Y-23031206D01*
X71965473Y-23171556D01*
X71965476Y-23171561D01*
X72060958Y-23336941D01*
X72060965Y-23336951D01*
X72188744Y-23478864D01*
X72188747Y-23478866D01*
X72343248Y-23591118D01*
X72517712Y-23668794D01*
X72704513Y-23708500D01*
X72895487Y-23708500D01*
X73082288Y-23668794D01*
X73256752Y-23591118D01*
X73411253Y-23478866D01*
X73456363Y-23428765D01*
X73516809Y-23391526D01*
X73587793Y-23392877D01*
X73643636Y-23428765D01*
X73688747Y-23478866D01*
X73843248Y-23591118D01*
X74017712Y-23668794D01*
X74204513Y-23708500D01*
X74395487Y-23708500D01*
X74582288Y-23668794D01*
X74756752Y-23591118D01*
X74911253Y-23478866D01*
X74956363Y-23428766D01*
X75039034Y-23336951D01*
X75039035Y-23336949D01*
X75039040Y-23336944D01*
X75134527Y-23171556D01*
X75193542Y-22989928D01*
X75213504Y-22800000D01*
X75193542Y-22610072D01*
X75134527Y-22428444D01*
X75122210Y-22407111D01*
X77307879Y-22407111D01*
X77327840Y-22597038D01*
X77357909Y-22689581D01*
X77386856Y-22778667D01*
X77386859Y-22778672D01*
X77482341Y-22944052D01*
X77482348Y-22944062D01*
X77610127Y-23085975D01*
X77610130Y-23085977D01*
X77764631Y-23198229D01*
X77939095Y-23275905D01*
X78125896Y-23315611D01*
X78316870Y-23315611D01*
X78503671Y-23275905D01*
X78678135Y-23198229D01*
X78832636Y-23085977D01*
X78891021Y-23021134D01*
X78960417Y-22944062D01*
X78960418Y-22944060D01*
X78960423Y-22944055D01*
X79055910Y-22778667D01*
X79114925Y-22597039D01*
X79134887Y-22407111D01*
X79114925Y-22217183D01*
X79055910Y-22035555D01*
X78960423Y-21870167D01*
X78960421Y-21870165D01*
X78960417Y-21870159D01*
X78832638Y-21728246D01*
X78678135Y-21615993D01*
X78503671Y-21538317D01*
X78316870Y-21498611D01*
X78125896Y-21498611D01*
X77939094Y-21538317D01*
X77764630Y-21615993D01*
X77610127Y-21728246D01*
X77482348Y-21870159D01*
X77482341Y-21870169D01*
X77386859Y-22035549D01*
X77386856Y-22035556D01*
X77327840Y-22217183D01*
X77307879Y-22407111D01*
X75122210Y-22407111D01*
X75039040Y-22263056D01*
X75039038Y-22263054D01*
X75039034Y-22263048D01*
X74911255Y-22121135D01*
X74756752Y-22008882D01*
X74582288Y-21931206D01*
X74395487Y-21891500D01*
X74204513Y-21891500D01*
X74017711Y-21931206D01*
X73843247Y-22008882D01*
X73688746Y-22121134D01*
X73643636Y-22171234D01*
X73583190Y-22208473D01*
X73512206Y-22207121D01*
X73456364Y-22171234D01*
X73411253Y-22121134D01*
X73256752Y-22008882D01*
X73082288Y-21931206D01*
X72895487Y-21891500D01*
X72704513Y-21891500D01*
X72517711Y-21931206D01*
X72343247Y-22008882D01*
X72188744Y-22121135D01*
X72060965Y-22263048D01*
X72060958Y-22263058D01*
X71965476Y-22428438D01*
X71965473Y-22428445D01*
X71906457Y-22610072D01*
X71886496Y-22800000D01*
X55135476Y-22800000D01*
X55095487Y-22791500D01*
X54904513Y-22791500D01*
X54717711Y-22831206D01*
X54543247Y-22908882D01*
X54388744Y-23021135D01*
X54260965Y-23163048D01*
X54260958Y-23163058D01*
X54165476Y-23328438D01*
X54165473Y-23328445D01*
X54106457Y-23510072D01*
X54086496Y-23700000D01*
X49977286Y-23700000D01*
X49861255Y-23571135D01*
X49706752Y-23458882D01*
X49532288Y-23381206D01*
X49345487Y-23341500D01*
X49154513Y-23341500D01*
X48967711Y-23381206D01*
X48793247Y-23458882D01*
X48638744Y-23571135D01*
X48510965Y-23713048D01*
X48510958Y-23713058D01*
X48415476Y-23878438D01*
X48415473Y-23878445D01*
X48356457Y-24060072D01*
X48336496Y-24250000D01*
X5634770Y-24250000D01*
X5569259Y-24184489D01*
X5297004Y-23967375D01*
X5297000Y-23967372D01*
X5002137Y-23782096D01*
X5002128Y-23782091D01*
X4688388Y-23631002D01*
X4688383Y-23631000D01*
X4688379Y-23630998D01*
X4688373Y-23630995D01*
X4688361Y-23630991D01*
X4359687Y-23515983D01*
X4020174Y-23438491D01*
X3674122Y-23399500D01*
X3674120Y-23399500D01*
X3325880Y-23399500D01*
X3325878Y-23399500D01*
X2979825Y-23438491D01*
X2640312Y-23515983D01*
X2311638Y-23630991D01*
X2311611Y-23631002D01*
X1997871Y-23782091D01*
X1997862Y-23782096D01*
X1702999Y-23967372D01*
X1702995Y-23967375D01*
X1430740Y-24184489D01*
X1184489Y-24430740D01*
X967375Y-24702995D01*
X967372Y-24702999D01*
X782096Y-24997862D01*
X782091Y-24997871D01*
X631002Y-25311611D01*
X630991Y-25311638D01*
X515983Y-25640312D01*
X438491Y-25979825D01*
X399500Y-26325878D01*
X25500Y-26325878D01*
X25500Y-20000000D01*
X35386496Y-20000000D01*
X35406457Y-20189927D01*
X35436526Y-20282470D01*
X35465473Y-20371556D01*
X35465476Y-20371561D01*
X35560958Y-20536941D01*
X35560965Y-20536951D01*
X35688744Y-20678864D01*
X35688747Y-20678866D01*
X35843248Y-20791118D01*
X36017712Y-20868794D01*
X36204513Y-20908500D01*
X36395487Y-20908500D01*
X36582288Y-20868794D01*
X36756752Y-20791118D01*
X36911253Y-20678866D01*
X37039040Y-20536944D01*
X37134527Y-20371556D01*
X37193542Y-20189928D01*
X37213504Y-20000000D01*
X37193542Y-19810072D01*
X37134527Y-19628444D01*
X37039040Y-19463056D01*
X37039038Y-19463054D01*
X37039034Y-19463048D01*
X36911255Y-19321135D01*
X36756752Y-19208882D01*
X36582288Y-19131206D01*
X36395487Y-19091500D01*
X36204513Y-19091500D01*
X36017711Y-19131206D01*
X35843247Y-19208882D01*
X35688744Y-19321135D01*
X35560965Y-19463048D01*
X35560958Y-19463058D01*
X35465476Y-19628438D01*
X35465473Y-19628445D01*
X35406457Y-19810072D01*
X35386496Y-20000000D01*
X25500Y-20000000D01*
X25500Y-19000000D01*
X51586496Y-19000000D01*
X51606457Y-19189927D01*
X51626781Y-19252475D01*
X51665473Y-19371556D01*
X51665476Y-19371561D01*
X51760958Y-19536941D01*
X51760965Y-19536951D01*
X51888744Y-19678864D01*
X51888747Y-19678866D01*
X52043248Y-19791118D01*
X52217712Y-19868794D01*
X52404513Y-19908500D01*
X52595487Y-19908500D01*
X52782288Y-19868794D01*
X52956752Y-19791118D01*
X52964163Y-19785733D01*
X53031028Y-19761875D01*
X53100180Y-19777954D01*
X53149661Y-19828867D01*
X53158056Y-19848731D01*
X53165470Y-19871548D01*
X53165473Y-19871556D01*
X53183022Y-19901951D01*
X53260958Y-20036941D01*
X53260965Y-20036951D01*
X53388744Y-20178864D01*
X53388747Y-20178866D01*
X53543248Y-20291118D01*
X53717712Y-20368794D01*
X53904513Y-20408500D01*
X54095487Y-20408500D01*
X54282288Y-20368794D01*
X54456752Y-20291118D01*
X54611253Y-20178866D01*
X54689918Y-20091500D01*
X54739034Y-20036951D01*
X54739035Y-20036949D01*
X54739040Y-20036944D01*
X54834527Y-19871556D01*
X54893542Y-19689928D01*
X54913504Y-19500000D01*
X54893542Y-19310072D01*
X54834527Y-19128444D01*
X54739040Y-18963056D01*
X54739038Y-18963054D01*
X54739034Y-18963048D01*
X54611255Y-18821135D01*
X54456752Y-18708882D01*
X54282288Y-18631206D01*
X54095487Y-18591500D01*
X53904513Y-18591500D01*
X53717711Y-18631206D01*
X53543246Y-18708882D01*
X53543240Y-18708886D01*
X53535830Y-18714270D01*
X53468961Y-18738125D01*
X53399811Y-18722041D01*
X53350333Y-18671124D01*
X53341942Y-18651266D01*
X53335424Y-18631206D01*
X53334527Y-18628444D01*
X53239040Y-18463056D01*
X53239038Y-18463054D01*
X53239034Y-18463048D01*
X53111255Y-18321135D01*
X52956752Y-18208882D01*
X52782288Y-18131206D01*
X52595487Y-18091500D01*
X52404513Y-18091500D01*
X52217711Y-18131206D01*
X52043247Y-18208882D01*
X51888744Y-18321135D01*
X51760965Y-18463048D01*
X51760958Y-18463058D01*
X51665476Y-18628438D01*
X51665473Y-18628445D01*
X51606457Y-18810072D01*
X51586496Y-19000000D01*
X25500Y-19000000D01*
X25500Y-17400000D01*
X38086496Y-17400000D01*
X38106457Y-17589927D01*
X38118973Y-17628445D01*
X38165473Y-17771556D01*
X38165476Y-17771561D01*
X38260958Y-17936941D01*
X38260965Y-17936951D01*
X38388744Y-18078864D01*
X38406136Y-18091500D01*
X38543248Y-18191118D01*
X38717712Y-18268794D01*
X38904513Y-18308500D01*
X39095487Y-18308500D01*
X39282288Y-18268794D01*
X39456752Y-18191118D01*
X39611253Y-18078866D01*
X39648304Y-18037717D01*
X39739034Y-17936951D01*
X39739035Y-17936949D01*
X39739040Y-17936944D01*
X39834527Y-17771556D01*
X39893542Y-17589928D01*
X39913504Y-17400000D01*
X39897381Y-17246600D01*
X41428296Y-17246600D01*
X41448257Y-17436527D01*
X41478326Y-17529070D01*
X41507273Y-17618156D01*
X41535641Y-17667291D01*
X41602758Y-17783541D01*
X41602765Y-17783551D01*
X41730544Y-17925464D01*
X41771154Y-17954969D01*
X41885048Y-18037718D01*
X42059512Y-18115394D01*
X42246313Y-18155100D01*
X42437287Y-18155100D01*
X42624088Y-18115394D01*
X42798552Y-18037718D01*
X42953053Y-17925466D01*
X42987698Y-17886989D01*
X43080834Y-17783551D01*
X43080835Y-17783549D01*
X43080840Y-17783544D01*
X43176327Y-17618156D01*
X43235342Y-17436528D01*
X43255304Y-17246600D01*
X43235342Y-17056672D01*
X43199774Y-16947208D01*
X43197747Y-16876242D01*
X43234409Y-16815444D01*
X43298121Y-16784119D01*
X43368655Y-16792211D01*
X43370829Y-16793154D01*
X43400315Y-16806282D01*
X43431109Y-16819993D01*
X43431110Y-16819993D01*
X43431112Y-16819994D01*
X43617913Y-16859700D01*
X43808887Y-16859700D01*
X43995688Y-16819994D01*
X44170152Y-16742318D01*
X44324653Y-16630066D01*
X44413667Y-16531206D01*
X44452434Y-16488151D01*
X44452435Y-16488149D01*
X44452440Y-16488144D01*
X44547927Y-16322756D01*
X44606942Y-16141128D01*
X44626904Y-15951200D01*
X44606942Y-15761272D01*
X44586672Y-15698890D01*
X44584645Y-15627923D01*
X44621308Y-15567125D01*
X44685020Y-15535800D01*
X44732704Y-15536708D01*
X44862509Y-15564300D01*
X44862513Y-15564300D01*
X45053487Y-15564300D01*
X45240288Y-15524594D01*
X45414752Y-15446918D01*
X45569253Y-15334666D01*
X45659518Y-15234417D01*
X45697034Y-15192751D01*
X45697035Y-15192749D01*
X45697040Y-15192744D01*
X45792527Y-15027356D01*
X45851542Y-14845728D01*
X45871504Y-14655800D01*
X45851542Y-14465872D01*
X45851542Y-14465870D01*
X45836370Y-14419178D01*
X45834341Y-14348211D01*
X45871002Y-14287412D01*
X45934714Y-14256086D01*
X45982398Y-14256992D01*
X46157913Y-14294300D01*
X46348887Y-14294300D01*
X46535688Y-14254594D01*
X46710152Y-14176918D01*
X46864653Y-14064666D01*
X46913810Y-14010072D01*
X46992434Y-13922751D01*
X46992435Y-13922749D01*
X46992440Y-13922744D01*
X47087927Y-13757356D01*
X47146942Y-13575728D01*
X47166904Y-13385800D01*
X47146942Y-13195872D01*
X47087927Y-13014244D01*
X46992440Y-12848856D01*
X46992438Y-12848854D01*
X46992434Y-12848848D01*
X46864655Y-12706935D01*
X46710152Y-12594682D01*
X46535688Y-12517006D01*
X46348887Y-12477300D01*
X46157913Y-12477300D01*
X45971111Y-12517006D01*
X45796647Y-12594682D01*
X45642144Y-12706935D01*
X45514365Y-12848848D01*
X45514358Y-12848858D01*
X45418876Y-13014238D01*
X45418873Y-13014245D01*
X45359857Y-13195872D01*
X45339896Y-13385800D01*
X45359857Y-13575727D01*
X45375030Y-13622422D01*
X45377058Y-13693390D01*
X45340396Y-13754188D01*
X45276684Y-13785513D01*
X45229000Y-13784606D01*
X45053488Y-13747300D01*
X45053487Y-13747300D01*
X44862513Y-13747300D01*
X44675711Y-13787006D01*
X44501247Y-13864682D01*
X44346744Y-13976935D01*
X44218965Y-14118848D01*
X44218958Y-14118858D01*
X44151271Y-14236096D01*
X44123473Y-14284244D01*
X44117776Y-14301777D01*
X44064457Y-14465872D01*
X44044496Y-14655800D01*
X44064457Y-14845729D01*
X44084726Y-14908109D01*
X44086753Y-14979077D01*
X44050091Y-15039875D01*
X43986378Y-15071200D01*
X43938696Y-15070292D01*
X43808887Y-15042700D01*
X43617913Y-15042700D01*
X43431111Y-15082406D01*
X43256647Y-15160082D01*
X43102144Y-15272335D01*
X42974365Y-15414248D01*
X42974358Y-15414258D01*
X42878876Y-15579638D01*
X42878873Y-15579644D01*
X42871216Y-15603211D01*
X42819857Y-15761272D01*
X42799896Y-15951200D01*
X42819857Y-16141128D01*
X42855424Y-16250590D01*
X42857452Y-16321557D01*
X42820789Y-16382355D01*
X42757077Y-16413681D01*
X42686543Y-16405588D01*
X42684370Y-16404645D01*
X42624088Y-16377806D01*
X42437287Y-16338100D01*
X42246313Y-16338100D01*
X42059511Y-16377806D01*
X41885047Y-16455482D01*
X41730544Y-16567735D01*
X41602765Y-16709648D01*
X41602758Y-16709658D01*
X41507276Y-16875038D01*
X41507273Y-16875045D01*
X41448257Y-17056672D01*
X41428296Y-17246600D01*
X39897381Y-17246600D01*
X39893542Y-17210072D01*
X39834527Y-17028444D01*
X39739040Y-16863056D01*
X39739038Y-16863054D01*
X39739034Y-16863048D01*
X39611255Y-16721135D01*
X39456752Y-16608882D01*
X39282288Y-16531206D01*
X39095487Y-16491500D01*
X38904513Y-16491500D01*
X38717711Y-16531206D01*
X38543247Y-16608882D01*
X38388744Y-16721135D01*
X38260965Y-16863048D01*
X38260958Y-16863058D01*
X38165476Y-17028438D01*
X38165473Y-17028445D01*
X38106457Y-17210072D01*
X38086496Y-17400000D01*
X25500Y-17400000D01*
X25500Y-14200000D01*
X35386496Y-14200000D01*
X35406457Y-14389927D01*
X35425733Y-14449251D01*
X35465473Y-14571556D01*
X35471336Y-14581711D01*
X35560958Y-14736941D01*
X35560965Y-14736951D01*
X35688744Y-14878864D01*
X35688747Y-14878866D01*
X35843248Y-14991118D01*
X36017712Y-15068794D01*
X36204513Y-15108500D01*
X36395487Y-15108500D01*
X36582288Y-15068794D01*
X36756752Y-14991118D01*
X36911253Y-14878866D01*
X36941091Y-14845728D01*
X37039034Y-14736951D01*
X37039035Y-14736949D01*
X37039040Y-14736944D01*
X37134527Y-14571556D01*
X37193542Y-14389928D01*
X37213504Y-14200000D01*
X37193542Y-14010072D01*
X37134527Y-13828444D01*
X37039040Y-13663056D01*
X37039038Y-13663054D01*
X37039034Y-13663048D01*
X36911255Y-13521135D01*
X36756752Y-13408882D01*
X36582288Y-13331206D01*
X36395487Y-13291500D01*
X36204513Y-13291500D01*
X36017711Y-13331206D01*
X35843247Y-13408882D01*
X35688744Y-13521135D01*
X35560965Y-13663048D01*
X35560958Y-13663058D01*
X35465476Y-13828438D01*
X35465473Y-13828444D01*
X35450999Y-13872986D01*
X35406457Y-14010072D01*
X35386496Y-14200000D01*
X25500Y-14200000D01*
X25500Y-3325878D01*
X399500Y-3325878D01*
X399500Y-3674121D01*
X438491Y-4020174D01*
X469106Y-4154306D01*
X515982Y-4359681D01*
X515984Y-4359687D01*
X515983Y-4359687D01*
X630991Y-4688361D01*
X631002Y-4688388D01*
X782091Y-5002128D01*
X782096Y-5002137D01*
X967372Y-5297000D01*
X967375Y-5297004D01*
X1184489Y-5569259D01*
X1430740Y-5815510D01*
X1678267Y-6012904D01*
X1703003Y-6032630D01*
X1997867Y-6217906D01*
X2311621Y-6369002D01*
X2311637Y-6369007D01*
X2311638Y-6369008D01*
X2640312Y-6484016D01*
X2640315Y-6484016D01*
X2640319Y-6484018D01*
X2979829Y-6561509D01*
X3225210Y-6589157D01*
X3325878Y-6600500D01*
X3325880Y-6600500D01*
X3674122Y-6600500D01*
X3762006Y-6590597D01*
X4020171Y-6561509D01*
X4359681Y-6484018D01*
X4377826Y-6477669D01*
X4441855Y-6455264D01*
X4688379Y-6369002D01*
X5002133Y-6217906D01*
X5296997Y-6032630D01*
X5426613Y-5929265D01*
X5569259Y-5815510D01*
X5815510Y-5569259D01*
X5993477Y-5346093D01*
X6032630Y-5296997D01*
X6217906Y-5002133D01*
X6369002Y-4688379D01*
X6484018Y-4359681D01*
X6561509Y-4020171D01*
X6597129Y-3704035D01*
X6600500Y-3674121D01*
X6600500Y-3325878D01*
X6578035Y-3126500D01*
X6561509Y-2979829D01*
X6484018Y-2640319D01*
X6454174Y-2555030D01*
X6369008Y-2311638D01*
X6369007Y-2311637D01*
X6369002Y-2311621D01*
X6344143Y-2260000D01*
X7036844Y-2260000D01*
X7048513Y-2400826D01*
X7055437Y-2484375D01*
X7110702Y-2702612D01*
X7110703Y-2702613D01*
X7110704Y-2702616D01*
X7184907Y-2871783D01*
X7201141Y-2908793D01*
X7324275Y-3097265D01*
X7324279Y-3097270D01*
X7467841Y-3253217D01*
X7499262Y-3316882D01*
X7491276Y-3387428D01*
X7446417Y-3442457D01*
X7419173Y-3456610D01*
X7304039Y-3499553D01*
X7304034Y-3499555D01*
X7187095Y-3587095D01*
X7099555Y-3704034D01*
X7099555Y-3704035D01*
X7048505Y-3840906D01*
X7042000Y-3901402D01*
X7042000Y-4546000D01*
X7946203Y-4546000D01*
X7915437Y-4599288D01*
X7880000Y-4731541D01*
X7880000Y-4868459D01*
X7915437Y-5000712D01*
X7946203Y-5054000D01*
X7042000Y-5054000D01*
X7042000Y-5698597D01*
X7048505Y-5759093D01*
X7099555Y-5895964D01*
X7099555Y-5895965D01*
X7187095Y-6012904D01*
X7304034Y-6100444D01*
X7440906Y-6151494D01*
X7501402Y-6157999D01*
X7501415Y-6158000D01*
X8146000Y-6158000D01*
X8146000Y-5253797D01*
X8199288Y-5284563D01*
X8331541Y-5320000D01*
X8468459Y-5320000D01*
X8600712Y-5284563D01*
X8654000Y-5253797D01*
X8654000Y-6158000D01*
X9298585Y-6158000D01*
X9298597Y-6157999D01*
X9359093Y-6151494D01*
X9495964Y-6100444D01*
X9495965Y-6100444D01*
X9612904Y-6012904D01*
X9700444Y-5895965D01*
X9744618Y-5777530D01*
X9787165Y-5720694D01*
X9853685Y-5695883D01*
X9923059Y-5710974D01*
X9955372Y-5736222D01*
X9975179Y-5757737D01*
X10016762Y-5802908D01*
X10050654Y-5829287D01*
X10194424Y-5941189D01*
X10392426Y-6048342D01*
X10392427Y-6048342D01*
X10392428Y-6048343D01*
X10475723Y-6076938D01*
X10605365Y-6121444D01*
X10827431Y-6158500D01*
X10827435Y-6158500D01*
X11052565Y-6158500D01*
X11052569Y-6158500D01*
X11274635Y-6121444D01*
X11487574Y-6048342D01*
X11685576Y-5941189D01*
X11863240Y-5802906D01*
X12015722Y-5637268D01*
X12015927Y-5636955D01*
X12043730Y-5594399D01*
X12104518Y-5501354D01*
X12158520Y-5455268D01*
X12228868Y-5445692D01*
X12293225Y-5475669D01*
X12315480Y-5501353D01*
X12348607Y-5552058D01*
X12404275Y-5637265D01*
X12404279Y-5637270D01*
X12556762Y-5802908D01*
X12590654Y-5829287D01*
X12734424Y-5941189D01*
X12932426Y-6048342D01*
X12932427Y-6048342D01*
X12932428Y-6048343D01*
X13015723Y-6076938D01*
X13145365Y-6121444D01*
X13367431Y-6158500D01*
X13367435Y-6158500D01*
X13592565Y-6158500D01*
X13592569Y-6158500D01*
X13814635Y-6121444D01*
X14027574Y-6048342D01*
X14225576Y-5941189D01*
X14403240Y-5802906D01*
X14555722Y-5637268D01*
X14555927Y-5636955D01*
X14583730Y-5594399D01*
X14644518Y-5501354D01*
X14698520Y-5455268D01*
X14768868Y-5445692D01*
X14833225Y-5475669D01*
X14855480Y-5501353D01*
X14888607Y-5552058D01*
X14944275Y-5637265D01*
X14944279Y-5637270D01*
X15096762Y-5802908D01*
X15130654Y-5829287D01*
X15274424Y-5941189D01*
X15472426Y-6048342D01*
X15472427Y-6048342D01*
X15472428Y-6048343D01*
X15555723Y-6076938D01*
X15685365Y-6121444D01*
X15907431Y-6158500D01*
X15907435Y-6158500D01*
X16132565Y-6158500D01*
X16132569Y-6158500D01*
X16354635Y-6121444D01*
X16567574Y-6048342D01*
X16765576Y-5941189D01*
X16943240Y-5802906D01*
X17095722Y-5637268D01*
X17095927Y-5636955D01*
X17123730Y-5594399D01*
X17184518Y-5501354D01*
X17238520Y-5455268D01*
X17308868Y-5445692D01*
X17373225Y-5475669D01*
X17395480Y-5501353D01*
X17428607Y-5552058D01*
X17484275Y-5637265D01*
X17484279Y-5637270D01*
X17636762Y-5802908D01*
X17670654Y-5829287D01*
X17814424Y-5941189D01*
X18012426Y-6048342D01*
X18012427Y-6048342D01*
X18012428Y-6048343D01*
X18095723Y-6076938D01*
X18225365Y-6121444D01*
X18447431Y-6158500D01*
X18447435Y-6158500D01*
X18672565Y-6158500D01*
X18672569Y-6158500D01*
X18894635Y-6121444D01*
X19107574Y-6048342D01*
X19305576Y-5941189D01*
X19483240Y-5802906D01*
X19635722Y-5637268D01*
X19635927Y-5636955D01*
X19663730Y-5594399D01*
X19724518Y-5501354D01*
X19778520Y-5455268D01*
X19848868Y-5445692D01*
X19913225Y-5475669D01*
X19935480Y-5501353D01*
X19968607Y-5552058D01*
X20024275Y-5637265D01*
X20024279Y-5637270D01*
X20176762Y-5802908D01*
X20210654Y-5829287D01*
X20354424Y-5941189D01*
X20552426Y-6048342D01*
X20552427Y-6048342D01*
X20552428Y-6048343D01*
X20635723Y-6076938D01*
X20765365Y-6121444D01*
X20987431Y-6158500D01*
X20987435Y-6158500D01*
X21212565Y-6158500D01*
X21212569Y-6158500D01*
X21434635Y-6121444D01*
X21647574Y-6048342D01*
X21845576Y-5941189D01*
X22023240Y-5802906D01*
X22175722Y-5637268D01*
X22175927Y-5636955D01*
X22203730Y-5594399D01*
X22264518Y-5501354D01*
X22318520Y-5455268D01*
X22388868Y-5445692D01*
X22453225Y-5475669D01*
X22475480Y-5501353D01*
X22508607Y-5552058D01*
X22564275Y-5637265D01*
X22564279Y-5637270D01*
X22716762Y-5802908D01*
X22750654Y-5829287D01*
X22894424Y-5941189D01*
X23092426Y-6048342D01*
X23092427Y-6048342D01*
X23092428Y-6048343D01*
X23175723Y-6076938D01*
X23305365Y-6121444D01*
X23527431Y-6158500D01*
X23527435Y-6158500D01*
X23752565Y-6158500D01*
X23752569Y-6158500D01*
X23974635Y-6121444D01*
X24187574Y-6048342D01*
X24385576Y-5941189D01*
X24563240Y-5802906D01*
X24715722Y-5637268D01*
X24715927Y-5636955D01*
X24743730Y-5594399D01*
X24804518Y-5501354D01*
X24858520Y-5455268D01*
X24928868Y-5445692D01*
X24993225Y-5475669D01*
X25015480Y-5501353D01*
X25048607Y-5552058D01*
X25104275Y-5637265D01*
X25104279Y-5637270D01*
X25256762Y-5802908D01*
X25290654Y-5829287D01*
X25434424Y-5941189D01*
X25632426Y-6048342D01*
X25632427Y-6048342D01*
X25632428Y-6048343D01*
X25715723Y-6076938D01*
X25845365Y-6121444D01*
X26067431Y-6158500D01*
X26067435Y-6158500D01*
X26292565Y-6158500D01*
X26292569Y-6158500D01*
X26514635Y-6121444D01*
X26727574Y-6048342D01*
X26925576Y-5941189D01*
X27103240Y-5802906D01*
X27255722Y-5637268D01*
X27255927Y-5636955D01*
X27290568Y-5583932D01*
X27344816Y-5500898D01*
X27398819Y-5454810D01*
X27469167Y-5445235D01*
X27533524Y-5475212D01*
X27555782Y-5500898D01*
X27644674Y-5636958D01*
X27797097Y-5802534D01*
X27974698Y-5940767D01*
X27974699Y-5940768D01*
X28172628Y-6047882D01*
X28172630Y-6047883D01*
X28385483Y-6120955D01*
X28385492Y-6120957D01*
X28466000Y-6134391D01*
X28466000Y-5253797D01*
X28519288Y-5284563D01*
X28651541Y-5320000D01*
X28788459Y-5320000D01*
X28920712Y-5284563D01*
X28974000Y-5253797D01*
X28974000Y-6134390D01*
X29054507Y-6120957D01*
X29054516Y-6120955D01*
X29267369Y-6047883D01*
X29267371Y-6047882D01*
X29465300Y-5940768D01*
X29465301Y-5940767D01*
X29642902Y-5802534D01*
X29795327Y-5636955D01*
X29884217Y-5500899D01*
X29938220Y-5454810D01*
X30008568Y-5445235D01*
X30072925Y-5475212D01*
X30095183Y-5500898D01*
X30184279Y-5637270D01*
X30336762Y-5802908D01*
X30370654Y-5829287D01*
X30514424Y-5941189D01*
X30712426Y-6048342D01*
X30712427Y-6048342D01*
X30712428Y-6048343D01*
X30795723Y-6076938D01*
X30925365Y-6121444D01*
X31147431Y-6158500D01*
X31147435Y-6158500D01*
X31372565Y-6158500D01*
X31372569Y-6158500D01*
X31594635Y-6121444D01*
X31807574Y-6048342D01*
X32005576Y-5941189D01*
X32183240Y-5802906D01*
X32335722Y-5637268D01*
X32335927Y-5636955D01*
X32363730Y-5594399D01*
X32424518Y-5501354D01*
X32478520Y-5455268D01*
X32548868Y-5445692D01*
X32613225Y-5475669D01*
X32635480Y-5501353D01*
X32668607Y-5552058D01*
X32724275Y-5637265D01*
X32724279Y-5637270D01*
X32876762Y-5802908D01*
X32910654Y-5829287D01*
X33054424Y-5941189D01*
X33252426Y-6048342D01*
X33252427Y-6048342D01*
X33252428Y-6048343D01*
X33335723Y-6076938D01*
X33465365Y-6121444D01*
X33687431Y-6158500D01*
X33687435Y-6158500D01*
X33912565Y-6158500D01*
X33912569Y-6158500D01*
X34134635Y-6121444D01*
X34347574Y-6048342D01*
X34545576Y-5941189D01*
X34723240Y-5802906D01*
X34875722Y-5637268D01*
X34875927Y-5636955D01*
X34903730Y-5594399D01*
X34964518Y-5501354D01*
X35018520Y-5455268D01*
X35088868Y-5445692D01*
X35153225Y-5475669D01*
X35175480Y-5501353D01*
X35208607Y-5552058D01*
X35264275Y-5637265D01*
X35264279Y-5637270D01*
X35416762Y-5802908D01*
X35450654Y-5829287D01*
X35594424Y-5941189D01*
X35792426Y-6048342D01*
X35792427Y-6048342D01*
X35792428Y-6048343D01*
X35875723Y-6076938D01*
X36005365Y-6121444D01*
X36227431Y-6158500D01*
X36227435Y-6158500D01*
X36452565Y-6158500D01*
X36452569Y-6158500D01*
X36674635Y-6121444D01*
X36887574Y-6048342D01*
X37085576Y-5941189D01*
X37263240Y-5802906D01*
X37415722Y-5637268D01*
X37415927Y-5636955D01*
X37443730Y-5594399D01*
X37504518Y-5501354D01*
X37558520Y-5455268D01*
X37628868Y-5445692D01*
X37693225Y-5475669D01*
X37715480Y-5501353D01*
X37748607Y-5552058D01*
X37804275Y-5637265D01*
X37804279Y-5637270D01*
X37956762Y-5802908D01*
X37990654Y-5829287D01*
X38134424Y-5941189D01*
X38332426Y-6048342D01*
X38332427Y-6048342D01*
X38332428Y-6048343D01*
X38415723Y-6076938D01*
X38545365Y-6121444D01*
X38767431Y-6158500D01*
X38767435Y-6158500D01*
X38992565Y-6158500D01*
X38992569Y-6158500D01*
X39214635Y-6121444D01*
X39427574Y-6048342D01*
X39625576Y-5941189D01*
X39803240Y-5802906D01*
X39955722Y-5637268D01*
X39955927Y-5636955D01*
X39983730Y-5594399D01*
X40044518Y-5501354D01*
X40098520Y-5455268D01*
X40168868Y-5445692D01*
X40233225Y-5475669D01*
X40255480Y-5501353D01*
X40288607Y-5552058D01*
X40344275Y-5637265D01*
X40344279Y-5637270D01*
X40496762Y-5802908D01*
X40530654Y-5829287D01*
X40674424Y-5941189D01*
X40872426Y-6048342D01*
X40872427Y-6048342D01*
X40872428Y-6048343D01*
X40955723Y-6076938D01*
X41085365Y-6121444D01*
X41307431Y-6158500D01*
X41307435Y-6158500D01*
X41532565Y-6158500D01*
X41532569Y-6158500D01*
X41754635Y-6121444D01*
X41967574Y-6048342D01*
X42165576Y-5941189D01*
X42343240Y-5802906D01*
X42495722Y-5637268D01*
X42495927Y-5636955D01*
X42523730Y-5594399D01*
X42584518Y-5501354D01*
X42638520Y-5455268D01*
X42708868Y-5445692D01*
X42773225Y-5475669D01*
X42795480Y-5501353D01*
X42828607Y-5552058D01*
X42884275Y-5637265D01*
X42884279Y-5637270D01*
X43036762Y-5802908D01*
X43070654Y-5829287D01*
X43214424Y-5941189D01*
X43412426Y-6048342D01*
X43412427Y-6048342D01*
X43412428Y-6048343D01*
X43495723Y-6076938D01*
X43625365Y-6121444D01*
X43847431Y-6158500D01*
X43847435Y-6158500D01*
X44072565Y-6158500D01*
X44072569Y-6158500D01*
X44294635Y-6121444D01*
X44507574Y-6048342D01*
X44705576Y-5941189D01*
X44883240Y-5802906D01*
X45035722Y-5637268D01*
X45035927Y-5636955D01*
X45063730Y-5594399D01*
X45124518Y-5501354D01*
X45178520Y-5455268D01*
X45248868Y-5445692D01*
X45313225Y-5475669D01*
X45335480Y-5501353D01*
X45368607Y-5552058D01*
X45424275Y-5637265D01*
X45424279Y-5637270D01*
X45576762Y-5802908D01*
X45610654Y-5829287D01*
X45754424Y-5941189D01*
X45952426Y-6048342D01*
X45952427Y-6048342D01*
X45952428Y-6048343D01*
X46035723Y-6076938D01*
X46165365Y-6121444D01*
X46387431Y-6158500D01*
X46387435Y-6158500D01*
X46612565Y-6158500D01*
X46612569Y-6158500D01*
X46834635Y-6121444D01*
X47047574Y-6048342D01*
X47245576Y-5941189D01*
X47423240Y-5802906D01*
X47575722Y-5637268D01*
X47575927Y-5636955D01*
X47603730Y-5594399D01*
X47664518Y-5501354D01*
X47718520Y-5455268D01*
X47788868Y-5445692D01*
X47853225Y-5475669D01*
X47875480Y-5501353D01*
X47908607Y-5552058D01*
X47964275Y-5637265D01*
X47964279Y-5637270D01*
X48116762Y-5802908D01*
X48150654Y-5829287D01*
X48294424Y-5941189D01*
X48492426Y-6048342D01*
X48492427Y-6048342D01*
X48492428Y-6048343D01*
X48575723Y-6076938D01*
X48705365Y-6121444D01*
X48927431Y-6158500D01*
X48927435Y-6158500D01*
X49152565Y-6158500D01*
X49152569Y-6158500D01*
X49374635Y-6121444D01*
X49587574Y-6048342D01*
X49785576Y-5941189D01*
X49963240Y-5802906D01*
X50115722Y-5637268D01*
X50115927Y-5636955D01*
X50143730Y-5594399D01*
X50204518Y-5501354D01*
X50258520Y-5455268D01*
X50328868Y-5445692D01*
X50393225Y-5475669D01*
X50415480Y-5501353D01*
X50448607Y-5552058D01*
X50504275Y-5637265D01*
X50504279Y-5637270D01*
X50656762Y-5802908D01*
X50690654Y-5829287D01*
X50834424Y-5941189D01*
X51032426Y-6048342D01*
X51032427Y-6048342D01*
X51032428Y-6048343D01*
X51115723Y-6076938D01*
X51245365Y-6121444D01*
X51467431Y-6158500D01*
X51467435Y-6158500D01*
X51692565Y-6158500D01*
X51692569Y-6158500D01*
X51914635Y-6121444D01*
X52127574Y-6048342D01*
X52325576Y-5941189D01*
X52503240Y-5802906D01*
X52655722Y-5637268D01*
X52655927Y-5636955D01*
X52683730Y-5594399D01*
X52744518Y-5501354D01*
X52798520Y-5455268D01*
X52868868Y-5445692D01*
X52933225Y-5475669D01*
X52955480Y-5501353D01*
X52988607Y-5552058D01*
X53044275Y-5637265D01*
X53044279Y-5637270D01*
X53196762Y-5802908D01*
X53230654Y-5829287D01*
X53374424Y-5941189D01*
X53572426Y-6048342D01*
X53572427Y-6048342D01*
X53572428Y-6048343D01*
X53655723Y-6076938D01*
X53785365Y-6121444D01*
X54007431Y-6158500D01*
X54007435Y-6158500D01*
X54232565Y-6158500D01*
X54232569Y-6158500D01*
X54454635Y-6121444D01*
X54667574Y-6048342D01*
X54865576Y-5941189D01*
X55043240Y-5802906D01*
X55195722Y-5637268D01*
X55195927Y-5636955D01*
X55223730Y-5594399D01*
X55284518Y-5501354D01*
X55338520Y-5455268D01*
X55408868Y-5445692D01*
X55473225Y-5475669D01*
X55495480Y-5501353D01*
X55528607Y-5552058D01*
X55584275Y-5637265D01*
X55584279Y-5637270D01*
X55736762Y-5802908D01*
X55770654Y-5829287D01*
X55914424Y-5941189D01*
X56112426Y-6048342D01*
X56112427Y-6048342D01*
X56112428Y-6048343D01*
X56195723Y-6076938D01*
X56325365Y-6121444D01*
X56547431Y-6158500D01*
X56547435Y-6158500D01*
X56772565Y-6158500D01*
X56772569Y-6158500D01*
X56994635Y-6121444D01*
X57207574Y-6048342D01*
X57405576Y-5941189D01*
X57583240Y-5802906D01*
X57735722Y-5637268D01*
X57735927Y-5636955D01*
X57763730Y-5594399D01*
X57858860Y-5448791D01*
X57949296Y-5242616D01*
X58004564Y-5024368D01*
X58023156Y-4800000D01*
X58004564Y-4575632D01*
X58002125Y-4566002D01*
X57949297Y-4357387D01*
X57949296Y-4357386D01*
X57949296Y-4357384D01*
X57858860Y-4151209D01*
X57841597Y-4124786D01*
X57735724Y-3962734D01*
X57735720Y-3962729D01*
X57606600Y-3822470D01*
X57583240Y-3797094D01*
X57583239Y-3797093D01*
X57583237Y-3797091D01*
X57477492Y-3714786D01*
X57405576Y-3658811D01*
X57372319Y-3640813D01*
X57321929Y-3590802D01*
X57306576Y-3521485D01*
X57331136Y-3454872D01*
X57372320Y-3419186D01*
X57405576Y-3401189D01*
X57502334Y-3325878D01*
X58399500Y-3325878D01*
X58399500Y-3674121D01*
X58438491Y-4020174D01*
X58469106Y-4154306D01*
X58515982Y-4359681D01*
X58515984Y-4359687D01*
X58515983Y-4359687D01*
X58630991Y-4688361D01*
X58631002Y-4688388D01*
X58782091Y-5002128D01*
X58782096Y-5002137D01*
X58967372Y-5297000D01*
X58967375Y-5297004D01*
X59184489Y-5569259D01*
X59430740Y-5815510D01*
X59678267Y-6012904D01*
X59703003Y-6032630D01*
X59997867Y-6217906D01*
X60311621Y-6369002D01*
X60311637Y-6369007D01*
X60311638Y-6369008D01*
X60640312Y-6484016D01*
X60640315Y-6484016D01*
X60640319Y-6484018D01*
X60979829Y-6561509D01*
X61225210Y-6589157D01*
X61325878Y-6600500D01*
X61325880Y-6600500D01*
X61674122Y-6600500D01*
X61762006Y-6590597D01*
X62020171Y-6561509D01*
X62359681Y-6484018D01*
X62377826Y-6477669D01*
X62441855Y-6455264D01*
X62688379Y-6369002D01*
X63002133Y-6217906D01*
X63296997Y-6032630D01*
X63426613Y-5929265D01*
X63569259Y-5815510D01*
X63579769Y-5805000D01*
X66546673Y-5805000D01*
X66563900Y-6012904D01*
X66565950Y-6037633D01*
X66623249Y-6263903D01*
X66623252Y-6263910D01*
X66717015Y-6477668D01*
X66844685Y-6673083D01*
X67002774Y-6844813D01*
X67002785Y-6844823D01*
X67170766Y-6975569D01*
X67212237Y-7033194D01*
X67215970Y-7104092D01*
X67180780Y-7165754D01*
X67170766Y-7174431D01*
X67002785Y-7305176D01*
X67002774Y-7305186D01*
X66844685Y-7476916D01*
X66717015Y-7672331D01*
X66623252Y-7886089D01*
X66623249Y-7886096D01*
X66565950Y-8112366D01*
X66565949Y-8112372D01*
X66565949Y-8112374D01*
X66546673Y-8345000D01*
X66565746Y-8575182D01*
X66565950Y-8577633D01*
X66623249Y-8803903D01*
X66623252Y-8803910D01*
X66717015Y-9017668D01*
X66844685Y-9213083D01*
X67002774Y-9384813D01*
X67002785Y-9384823D01*
X67170766Y-9515569D01*
X67212237Y-9573194D01*
X67215970Y-9644092D01*
X67180780Y-9705754D01*
X67170766Y-9714431D01*
X67002785Y-9845176D01*
X67002774Y-9845186D01*
X66844685Y-10016916D01*
X66717015Y-10212331D01*
X66623252Y-10426089D01*
X66623249Y-10426096D01*
X66565950Y-10652366D01*
X66565949Y-10652372D01*
X66565949Y-10652374D01*
X66546673Y-10885000D01*
X66565746Y-11115182D01*
X66565950Y-11117633D01*
X66623249Y-11343903D01*
X66623252Y-11343910D01*
X66717015Y-11557668D01*
X66844685Y-11753083D01*
X67002774Y-11924813D01*
X67002785Y-11924823D01*
X67170766Y-12055569D01*
X67212237Y-12113194D01*
X67215970Y-12184092D01*
X67180780Y-12245754D01*
X67170766Y-12254431D01*
X67002785Y-12385176D01*
X67002774Y-12385186D01*
X66844685Y-12556916D01*
X66717015Y-12752331D01*
X66623252Y-12966089D01*
X66623249Y-12966096D01*
X66565950Y-13192366D01*
X66565949Y-13192372D01*
X66565949Y-13192374D01*
X66546673Y-13425000D01*
X66565746Y-13655182D01*
X66565950Y-13657633D01*
X66623249Y-13883903D01*
X66623252Y-13883910D01*
X66717015Y-14097668D01*
X66838911Y-14284245D01*
X66844686Y-14293083D01*
X66929842Y-14385587D01*
X66961263Y-14449251D01*
X66953276Y-14519797D01*
X66908417Y-14574826D01*
X66881175Y-14588979D01*
X66813795Y-14614111D01*
X66813792Y-14614112D01*
X66696738Y-14701738D01*
X66609112Y-14818792D01*
X66609110Y-14818797D01*
X66558011Y-14955795D01*
X66558009Y-14955803D01*
X66551500Y-15016350D01*
X66551500Y-16913649D01*
X66558009Y-16974196D01*
X66558011Y-16974204D01*
X66609110Y-17111202D01*
X66609112Y-17111207D01*
X66696738Y-17228261D01*
X66813792Y-17315887D01*
X66813794Y-17315888D01*
X66813796Y-17315889D01*
X66872875Y-17337924D01*
X66950795Y-17366988D01*
X66950803Y-17366990D01*
X67011350Y-17373499D01*
X67011355Y-17373499D01*
X67011362Y-17373500D01*
X68594426Y-17373500D01*
X68662547Y-17393502D01*
X68709040Y-17447158D01*
X68719144Y-17517432D01*
X68703546Y-17562499D01*
X68665474Y-17628441D01*
X68665473Y-17628445D01*
X68606457Y-17810072D01*
X68586496Y-18000000D01*
X68596220Y-18092525D01*
X68583447Y-18162363D01*
X68544971Y-18207630D01*
X68388744Y-18321135D01*
X68260965Y-18463048D01*
X68260958Y-18463058D01*
X68165476Y-18628438D01*
X68165473Y-18628445D01*
X68106457Y-18810072D01*
X68086496Y-19000000D01*
X68106457Y-19189927D01*
X68126781Y-19252475D01*
X68165473Y-19371556D01*
X68165476Y-19371561D01*
X68260958Y-19536941D01*
X68260965Y-19536951D01*
X68388744Y-19678864D01*
X68388747Y-19678866D01*
X68543248Y-19791118D01*
X68717712Y-19868794D01*
X68755156Y-19876753D01*
X68817630Y-19910482D01*
X68851951Y-19972631D01*
X68847223Y-20043470D01*
X68804947Y-20100508D01*
X68755156Y-20123247D01*
X68717711Y-20131206D01*
X68543247Y-20208882D01*
X68388744Y-20321135D01*
X68260965Y-20463048D01*
X68260958Y-20463058D01*
X68165476Y-20628438D01*
X68165473Y-20628445D01*
X68106457Y-20810072D01*
X68086496Y-21000000D01*
X68106457Y-21189927D01*
X68136526Y-21282470D01*
X68165473Y-21371556D01*
X68165476Y-21371561D01*
X68260958Y-21536941D01*
X68260965Y-21536951D01*
X68388744Y-21678864D01*
X68388747Y-21678866D01*
X68543248Y-21791118D01*
X68717712Y-21868794D01*
X68904513Y-21908500D01*
X69095487Y-21908500D01*
X69282288Y-21868794D01*
X69456752Y-21791118D01*
X69611253Y-21678866D01*
X69739040Y-21536944D01*
X69834527Y-21371556D01*
X69893542Y-21189928D01*
X69913504Y-21000000D01*
X69893542Y-20810072D01*
X69834527Y-20628444D01*
X69739040Y-20463056D01*
X69739038Y-20463054D01*
X69739034Y-20463048D01*
X69611255Y-20321135D01*
X69456752Y-20208882D01*
X69282288Y-20131206D01*
X69244842Y-20123246D01*
X69182370Y-20089519D01*
X69148048Y-20027369D01*
X69152776Y-19956530D01*
X69195052Y-19899493D01*
X69244842Y-19876753D01*
X69282288Y-19868794D01*
X69456752Y-19791118D01*
X69611253Y-19678866D01*
X69700474Y-19579776D01*
X69739034Y-19536951D01*
X69739035Y-19536949D01*
X69739040Y-19536944D01*
X69834527Y-19371556D01*
X69893542Y-19189928D01*
X69913504Y-19000000D01*
X69903779Y-18907476D01*
X69916551Y-18837640D01*
X69955028Y-18792371D01*
X70051828Y-18722041D01*
X70111253Y-18678866D01*
X70195584Y-18585205D01*
X70256029Y-18547967D01*
X70327013Y-18549318D01*
X70385998Y-18588832D01*
X70414256Y-18653962D01*
X70415220Y-18669517D01*
X70415220Y-18671274D01*
X70435181Y-18861203D01*
X70450217Y-18907478D01*
X70494197Y-19042832D01*
X70494200Y-19042837D01*
X70589682Y-19208217D01*
X70589689Y-19208227D01*
X70717468Y-19350140D01*
X70778723Y-19394644D01*
X70871972Y-19462394D01*
X71046436Y-19540070D01*
X71233237Y-19579776D01*
X71424211Y-19579776D01*
X71611012Y-19540070D01*
X71785476Y-19462394D01*
X71939977Y-19350142D01*
X72031179Y-19248850D01*
X72091624Y-19211611D01*
X72162607Y-19212962D01*
X72221592Y-19252475D01*
X72227747Y-19260491D01*
X72238343Y-19275502D01*
X72238344Y-19275503D01*
X72412888Y-19462394D01*
X72425889Y-19476314D01*
X72639031Y-19649718D01*
X72871552Y-19791117D01*
X72873802Y-19792485D01*
X72957562Y-19828867D01*
X73125823Y-19901953D01*
X73390404Y-19976085D01*
X73485504Y-19989156D01*
X73662604Y-20013499D01*
X73662615Y-20013500D01*
X73937385Y-20013500D01*
X73937395Y-20013499D01*
X74066945Y-19995692D01*
X74209596Y-19976085D01*
X74474177Y-19901953D01*
X74726200Y-19792484D01*
X74960969Y-19649718D01*
X75174111Y-19476314D01*
X75361657Y-19275502D01*
X75520111Y-19051023D01*
X75646523Y-18807058D01*
X75738538Y-18548153D01*
X75794442Y-18279130D01*
X75802926Y-18155100D01*
X75813193Y-18005004D01*
X75813193Y-18004995D01*
X75794443Y-17730885D01*
X75794442Y-17730870D01*
X75794438Y-17730854D01*
X75793875Y-17726750D01*
X75804408Y-17656539D01*
X75851228Y-17603168D01*
X75919470Y-17583582D01*
X75981700Y-17600461D01*
X76029775Y-17628217D01*
X76029779Y-17628218D01*
X76029788Y-17628224D01*
X76253900Y-17721054D01*
X76488211Y-17783838D01*
X76488215Y-17783838D01*
X76488217Y-17783839D01*
X76550202Y-17791999D01*
X76728712Y-17815500D01*
X76728719Y-17815500D01*
X76971281Y-17815500D01*
X76971288Y-17815500D01*
X77188637Y-17786885D01*
X77211782Y-17783839D01*
X77211782Y-17783838D01*
X77211789Y-17783838D01*
X77446100Y-17721054D01*
X77670212Y-17628224D01*
X77880289Y-17506936D01*
X78072738Y-17359265D01*
X78244265Y-17187738D01*
X78391936Y-16995289D01*
X78513224Y-16785212D01*
X78606054Y-16561100D01*
X78668838Y-16326789D01*
X78700500Y-16086288D01*
X78700500Y-15843712D01*
X78668838Y-15603211D01*
X78606054Y-15368900D01*
X78513224Y-15144788D01*
X78513218Y-15144779D01*
X78513217Y-15144775D01*
X78391938Y-14934714D01*
X78386499Y-14927626D01*
X78244265Y-14742262D01*
X78244259Y-14742256D01*
X78244255Y-14742251D01*
X78072748Y-14570744D01*
X78072742Y-14570739D01*
X78072738Y-14570735D01*
X77880289Y-14423064D01*
X77880288Y-14423063D01*
X77880285Y-14423061D01*
X77745080Y-14345000D01*
X79396835Y-14345000D01*
X79415465Y-14581710D01*
X79470894Y-14812592D01*
X79544842Y-14991118D01*
X79561760Y-15031963D01*
X79665247Y-15200838D01*
X79685825Y-15234417D01*
X79685826Y-15234419D01*
X79840028Y-15414966D01*
X79840031Y-15414969D01*
X79962057Y-15519189D01*
X80000866Y-15578640D01*
X80001372Y-15649634D01*
X79963416Y-15709633D01*
X79962057Y-15710811D01*
X79840028Y-15815033D01*
X79685826Y-15995580D01*
X79685825Y-15995582D01*
X79561759Y-16198038D01*
X79470894Y-16417407D01*
X79415465Y-16648289D01*
X79396835Y-16885000D01*
X79415465Y-17121710D01*
X79470894Y-17352592D01*
X79516650Y-17463056D01*
X79561760Y-17571963D01*
X79684074Y-17771561D01*
X79685825Y-17774417D01*
X79685826Y-17774419D01*
X79840030Y-17954969D01*
X79999888Y-18091500D01*
X80020584Y-18109176D01*
X80223037Y-18233240D01*
X80442406Y-18324105D01*
X80673289Y-18379535D01*
X80910000Y-18398165D01*
X81146711Y-18379535D01*
X81377594Y-18324105D01*
X81596963Y-18233240D01*
X81799416Y-18109176D01*
X81979969Y-17954969D01*
X82134176Y-17774416D01*
X82258240Y-17571963D01*
X82349105Y-17352594D01*
X82404535Y-17121711D01*
X82423165Y-16885000D01*
X82404535Y-16648289D01*
X82349105Y-16417406D01*
X82258240Y-16198037D01*
X82134176Y-15995584D01*
X82128797Y-15989286D01*
X81979969Y-15815030D01*
X81857943Y-15710811D01*
X81819134Y-15651361D01*
X81818626Y-15580366D01*
X81856582Y-15520367D01*
X81857943Y-15519189D01*
X81979969Y-15414969D01*
X82134173Y-15234419D01*
X82134176Y-15234416D01*
X82258240Y-15031963D01*
X82349105Y-14812594D01*
X82404535Y-14581711D01*
X82423165Y-14345000D01*
X82404535Y-14108289D01*
X82349105Y-13877406D01*
X82258240Y-13658037D01*
X82134176Y-13455584D01*
X82074575Y-13385800D01*
X81979969Y-13275030D01*
X81799419Y-13120826D01*
X81799417Y-13120825D01*
X81799416Y-13120824D01*
X81596963Y-12996760D01*
X81522917Y-12966089D01*
X81377592Y-12905894D01*
X81219651Y-12867976D01*
X81146711Y-12850465D01*
X80910000Y-12831835D01*
X80673289Y-12850465D01*
X80442407Y-12905894D01*
X80223038Y-12996759D01*
X80020582Y-13120825D01*
X80020580Y-13120826D01*
X79840030Y-13275030D01*
X79685826Y-13455580D01*
X79685825Y-13455582D01*
X79561759Y-13658038D01*
X79470894Y-13877407D01*
X79415465Y-14108289D01*
X79396835Y-14345000D01*
X77745080Y-14345000D01*
X77670224Y-14301782D01*
X77670216Y-14301778D01*
X77670212Y-14301776D01*
X77446100Y-14208946D01*
X77446097Y-14208945D01*
X77446095Y-14208944D01*
X77211782Y-14146160D01*
X76971290Y-14114500D01*
X76971288Y-14114500D01*
X76728712Y-14114500D01*
X76728709Y-14114500D01*
X76488217Y-14146160D01*
X76253904Y-14208944D01*
X76253900Y-14208946D01*
X76050785Y-14293079D01*
X76029786Y-14301777D01*
X76029775Y-14301782D01*
X75819714Y-14423061D01*
X75627262Y-14570735D01*
X75627251Y-14570744D01*
X75455744Y-14742251D01*
X75455735Y-14742262D01*
X75308061Y-14934714D01*
X75186782Y-15144775D01*
X75186777Y-15144786D01*
X75186776Y-15144788D01*
X75108127Y-15334664D01*
X75093946Y-15368900D01*
X75093944Y-15368904D01*
X75031160Y-15603217D01*
X74999500Y-15843709D01*
X74999500Y-16086292D01*
X75007735Y-16148841D01*
X74996795Y-16218989D01*
X74949667Y-16272088D01*
X74881313Y-16291277D01*
X74817346Y-16272943D01*
X74726200Y-16217516D01*
X74474180Y-16108048D01*
X74474178Y-16108047D01*
X74474177Y-16108047D01*
X74320818Y-16065078D01*
X74209593Y-16033914D01*
X73937395Y-15996500D01*
X73937385Y-15996500D01*
X73662615Y-15996500D01*
X73662604Y-15996500D01*
X73390406Y-16033914D01*
X73125819Y-16108048D01*
X72873802Y-16217514D01*
X72639028Y-16360284D01*
X72425886Y-16533688D01*
X72238343Y-16734498D01*
X72079892Y-16958971D01*
X71953477Y-17202941D01*
X71861462Y-17461845D01*
X71861461Y-17461851D01*
X71807267Y-17722646D01*
X71773823Y-17785272D01*
X71711830Y-17819876D01*
X71640971Y-17815471D01*
X71632654Y-17812117D01*
X71611014Y-17802482D01*
X71424211Y-17762776D01*
X71233237Y-17762776D01*
X71046435Y-17802482D01*
X70871971Y-17880158D01*
X70717468Y-17992411D01*
X70633140Y-18086068D01*
X70572694Y-18123308D01*
X70501711Y-18121956D01*
X70442726Y-18082443D01*
X70414468Y-18017312D01*
X70413504Y-18001758D01*
X70413504Y-18000001D01*
X70393542Y-17810072D01*
X70384921Y-17783541D01*
X70334527Y-17628444D01*
X70239040Y-17463056D01*
X70239038Y-17463054D01*
X70239034Y-17463048D01*
X70111255Y-17321135D01*
X69956752Y-17208882D01*
X69782288Y-17131206D01*
X69595487Y-17091500D01*
X69489651Y-17091500D01*
X69421530Y-17071498D01*
X69375037Y-17017842D01*
X69364373Y-16952033D01*
X69368498Y-16913652D01*
X69368500Y-16913638D01*
X69368500Y-15856908D01*
X69388502Y-15788787D01*
X69442158Y-15742294D01*
X69512432Y-15732190D01*
X69571890Y-15757475D01*
X69726983Y-15878190D01*
X69932273Y-15989287D01*
X70153049Y-16065080D01*
X70383288Y-16103500D01*
X70383292Y-16103500D01*
X70616708Y-16103500D01*
X70616712Y-16103500D01*
X70846951Y-16065080D01*
X71067727Y-15989287D01*
X71273017Y-15878190D01*
X71457220Y-15734818D01*
X71459640Y-15732190D01*
X71615314Y-15563083D01*
X71691208Y-15446918D01*
X71742984Y-15367669D01*
X71836749Y-15153907D01*
X71894051Y-14927626D01*
X71913327Y-14695000D01*
X71894051Y-14462374D01*
X71853384Y-14301782D01*
X71836750Y-14236096D01*
X71836747Y-14236089D01*
X71797300Y-14146160D01*
X71742984Y-14022331D01*
X71734975Y-14010072D01*
X71615314Y-13826916D01*
X71457225Y-13655186D01*
X71457221Y-13655183D01*
X71415130Y-13622422D01*
X71289229Y-13524429D01*
X71247761Y-13466807D01*
X71244027Y-13395909D01*
X71279217Y-13334247D01*
X71289217Y-13325580D01*
X71457220Y-13194818D01*
X71459478Y-13192366D01*
X71615314Y-13023083D01*
X71652550Y-12966089D01*
X71742984Y-12827669D01*
X71836749Y-12613907D01*
X71894051Y-12387626D01*
X71913327Y-12155000D01*
X71894051Y-11922374D01*
X71836749Y-11696093D01*
X71742984Y-11482331D01*
X71615314Y-11286916D01*
X71457225Y-11115186D01*
X71457221Y-11115183D01*
X71457220Y-11115182D01*
X71289229Y-10984429D01*
X71247761Y-10926807D01*
X71244027Y-10855909D01*
X71279217Y-10794247D01*
X71289217Y-10785580D01*
X71457220Y-10654818D01*
X71459478Y-10652366D01*
X71615314Y-10483083D01*
X71652550Y-10426089D01*
X71742984Y-10287669D01*
X71836749Y-10073907D01*
X71894051Y-9847626D01*
X71913327Y-9615000D01*
X71894051Y-9382374D01*
X71836749Y-9156093D01*
X71742984Y-8942331D01*
X71615314Y-8746916D01*
X71457225Y-8575186D01*
X71457221Y-8575182D01*
X71365118Y-8503496D01*
X71273017Y-8431810D01*
X71067727Y-8320713D01*
X71067724Y-8320712D01*
X71067723Y-8320711D01*
X70846955Y-8244921D01*
X70846948Y-8244919D01*
X70748411Y-8228476D01*
X70616712Y-8206500D01*
X70383288Y-8206500D01*
X70268066Y-8225727D01*
X70153051Y-8244919D01*
X70153044Y-8244921D01*
X69932276Y-8320711D01*
X69932273Y-8320713D01*
X69726985Y-8431809D01*
X69726976Y-8431814D01*
X69567936Y-8555600D01*
X69501894Y-8581656D01*
X69432249Y-8567870D01*
X69381112Y-8518620D01*
X69364720Y-8449542D01*
X69364968Y-8445867D01*
X69373327Y-8345000D01*
X69354051Y-8112374D01*
X69296749Y-7886093D01*
X69202984Y-7672331D01*
X69099045Y-7513240D01*
X69075314Y-7476916D01*
X68917225Y-7305186D01*
X68917221Y-7305183D01*
X68917212Y-7305176D01*
X68749229Y-7174429D01*
X68707761Y-7116807D01*
X68704027Y-7045909D01*
X68739217Y-6984247D01*
X68749217Y-6975580D01*
X68917220Y-6844818D01*
X69075314Y-6673083D01*
X69202984Y-6477669D01*
X69296749Y-6263907D01*
X69354051Y-6037626D01*
X69373327Y-5805000D01*
X69364977Y-5704231D01*
X69379284Y-5634697D01*
X69428917Y-5583932D01*
X69498116Y-5568059D01*
X69564912Y-5592117D01*
X69567937Y-5594399D01*
X69726983Y-5718190D01*
X69932273Y-5829287D01*
X70153049Y-5905080D01*
X70383288Y-5943500D01*
X70383292Y-5943500D01*
X70616708Y-5943500D01*
X70616712Y-5943500D01*
X70846951Y-5905080D01*
X71067727Y-5829287D01*
X71273017Y-5718190D01*
X71457220Y-5574818D01*
X71459478Y-5572366D01*
X71615314Y-5403083D01*
X71646589Y-5355213D01*
X71742984Y-5207669D01*
X71836749Y-4993907D01*
X71894051Y-4767626D01*
X71913327Y-4535000D01*
X71894051Y-4302374D01*
X71855770Y-4151206D01*
X71836750Y-4076096D01*
X71836747Y-4076089D01*
X71812220Y-4020174D01*
X71742984Y-3862331D01*
X71686256Y-3775502D01*
X71615314Y-3666916D01*
X71457225Y-3495186D01*
X71457221Y-3495182D01*
X71353000Y-3414064D01*
X71273017Y-3351810D01*
X71067727Y-3240713D01*
X71067724Y-3240712D01*
X71067723Y-3240711D01*
X70846955Y-3164921D01*
X70846948Y-3164919D01*
X70748411Y-3148476D01*
X70616712Y-3126500D01*
X70383288Y-3126500D01*
X70268066Y-3145727D01*
X70153051Y-3164919D01*
X70153044Y-3164921D01*
X69932276Y-3240711D01*
X69932273Y-3240713D01*
X69726985Y-3351809D01*
X69726983Y-3351810D01*
X69542778Y-3495182D01*
X69542774Y-3495186D01*
X69384685Y-3666916D01*
X69257015Y-3862331D01*
X69163252Y-4076089D01*
X69163249Y-4076096D01*
X69105950Y-4302366D01*
X69105949Y-4302372D01*
X69105949Y-4302374D01*
X69086673Y-4535000D01*
X69095022Y-4635764D01*
X69080714Y-4705303D01*
X69031081Y-4756068D01*
X68961882Y-4771940D01*
X68895086Y-4747881D01*
X68892062Y-4745600D01*
X68733017Y-4621810D01*
X68527727Y-4510713D01*
X68527724Y-4510712D01*
X68527723Y-4510711D01*
X68306955Y-4434921D01*
X68306948Y-4434919D01*
X68208411Y-4418476D01*
X68076712Y-4396500D01*
X67843288Y-4396500D01*
X67740172Y-4413707D01*
X67613051Y-4434919D01*
X67613044Y-4434921D01*
X67392276Y-4510711D01*
X67392273Y-4510713D01*
X67186985Y-4621809D01*
X67186983Y-4621810D01*
X67002778Y-4765182D01*
X67002774Y-4765186D01*
X66844685Y-4936916D01*
X66717015Y-5132331D01*
X66623252Y-5346089D01*
X66623249Y-5346096D01*
X66565950Y-5572366D01*
X66565949Y-5572372D01*
X66565949Y-5572374D01*
X66546673Y-5805000D01*
X63579769Y-5805000D01*
X63815510Y-5569259D01*
X63993477Y-5346093D01*
X64032630Y-5296997D01*
X64217906Y-5002133D01*
X64369002Y-4688379D01*
X64484018Y-4359681D01*
X64561509Y-4020171D01*
X64597129Y-3704035D01*
X64600500Y-3674121D01*
X64600500Y-3325878D01*
X64578035Y-3126500D01*
X64561509Y-2979829D01*
X64484018Y-2640319D01*
X64454174Y-2555030D01*
X64436666Y-2504995D01*
X71786807Y-2504995D01*
X71786807Y-2505004D01*
X71805556Y-2779116D01*
X71805557Y-2779122D01*
X71805558Y-2779130D01*
X71833848Y-2915268D01*
X71861460Y-3048146D01*
X71861462Y-3048154D01*
X71934342Y-3253217D01*
X71953477Y-3307058D01*
X72073408Y-3538516D01*
X72079892Y-3551028D01*
X72080337Y-3551658D01*
X72238343Y-3775502D01*
X72315437Y-3858049D01*
X72413496Y-3963045D01*
X72425889Y-3976314D01*
X72639031Y-4149718D01*
X72853271Y-4280000D01*
X72873802Y-4292485D01*
X72918645Y-4311963D01*
X73125823Y-4401953D01*
X73390404Y-4476085D01*
X73485504Y-4489156D01*
X73662604Y-4513499D01*
X73662615Y-4513500D01*
X73937385Y-4513500D01*
X73937395Y-4513499D01*
X74066945Y-4495692D01*
X74209596Y-4476085D01*
X74474177Y-4401953D01*
X74726200Y-4292484D01*
X74815916Y-4237926D01*
X74884510Y-4219622D01*
X74952113Y-4241309D01*
X74997260Y-4296102D01*
X75006304Y-4362028D01*
X74999500Y-4413707D01*
X74999500Y-4656290D01*
X75031160Y-4896782D01*
X75093944Y-5131095D01*
X75093945Y-5131097D01*
X75093946Y-5131100D01*
X75186776Y-5355212D01*
X75186777Y-5355213D01*
X75186782Y-5355224D01*
X75308061Y-5565285D01*
X75308063Y-5565288D01*
X75308064Y-5565289D01*
X75455735Y-5757738D01*
X75455739Y-5757742D01*
X75455744Y-5757748D01*
X75627251Y-5929255D01*
X75627256Y-5929259D01*
X75627262Y-5929265D01*
X75782448Y-6048343D01*
X75819714Y-6076938D01*
X76029775Y-6198217D01*
X76029779Y-6198218D01*
X76029788Y-6198224D01*
X76253900Y-6291054D01*
X76488211Y-6353838D01*
X76488215Y-6353838D01*
X76488217Y-6353839D01*
X76550202Y-6361999D01*
X76728712Y-6385500D01*
X76728719Y-6385500D01*
X76971281Y-6385500D01*
X76971288Y-6385500D01*
X77188637Y-6356885D01*
X77211782Y-6353839D01*
X77211782Y-6353838D01*
X77211789Y-6353838D01*
X77446100Y-6291054D01*
X77670212Y-6198224D01*
X77880289Y-6076936D01*
X78072738Y-5929265D01*
X78244265Y-5757738D01*
X78391936Y-5565289D01*
X78513224Y-5355212D01*
X78606054Y-5131100D01*
X78668838Y-4896789D01*
X78700500Y-4656288D01*
X78700500Y-4413712D01*
X78668838Y-4173211D01*
X78606054Y-3938900D01*
X78513224Y-3714788D01*
X78513218Y-3714779D01*
X78513217Y-3714775D01*
X78461385Y-3625000D01*
X79396835Y-3625000D01*
X79415465Y-3861711D01*
X79424994Y-3901402D01*
X79470894Y-4092592D01*
X79553692Y-4292484D01*
X79561760Y-4311963D01*
X79624116Y-4413719D01*
X79685825Y-4514417D01*
X79685826Y-4514419D01*
X79834410Y-4688388D01*
X79840031Y-4694969D01*
X79962057Y-4799189D01*
X80000866Y-4858640D01*
X80001372Y-4929634D01*
X79963416Y-4989633D01*
X79962069Y-4990799D01*
X79948796Y-5002137D01*
X79840028Y-5095033D01*
X79685826Y-5275580D01*
X79685825Y-5275582D01*
X79561759Y-5478038D01*
X79470894Y-5697407D01*
X79415465Y-5928289D01*
X79396835Y-6165000D01*
X79415465Y-6401710D01*
X79470894Y-6632592D01*
X79558803Y-6844823D01*
X79561760Y-6851963D01*
X79645240Y-6988190D01*
X79685825Y-7054417D01*
X79685826Y-7054419D01*
X79840030Y-7234969D01*
X79922244Y-7305186D01*
X80020584Y-7389176D01*
X80223037Y-7513240D01*
X80442406Y-7604105D01*
X80673289Y-7659535D01*
X80910000Y-7678165D01*
X81146711Y-7659535D01*
X81377594Y-7604105D01*
X81596963Y-7513240D01*
X81799416Y-7389176D01*
X81979969Y-7234969D01*
X82134176Y-7054416D01*
X82258240Y-6851963D01*
X82349105Y-6632594D01*
X82404535Y-6401711D01*
X82423165Y-6165000D01*
X82404535Y-5928289D01*
X82349105Y-5697406D01*
X82258240Y-5478037D01*
X82134176Y-5275584D01*
X82106019Y-5242616D01*
X81979969Y-5095030D01*
X81871204Y-5002137D01*
X81857942Y-4990810D01*
X81819134Y-4931361D01*
X81818626Y-4860366D01*
X81856582Y-4800367D01*
X81857943Y-4799189D01*
X81889848Y-4771940D01*
X81979969Y-4694969D01*
X82134176Y-4514416D01*
X82258240Y-4311963D01*
X82349105Y-4092594D01*
X82404535Y-3861711D01*
X82423165Y-3625000D01*
X82404535Y-3388289D01*
X82349105Y-3157406D01*
X82258240Y-2938037D01*
X82134176Y-2735584D01*
X82117588Y-2716162D01*
X81979969Y-2555030D01*
X81799419Y-2400826D01*
X81799417Y-2400825D01*
X81799416Y-2400824D01*
X81596963Y-2276760D01*
X81486206Y-2230883D01*
X81377592Y-2185894D01*
X81219651Y-2147976D01*
X81146711Y-2130465D01*
X80910000Y-2111835D01*
X80673289Y-2130465D01*
X80442407Y-2185894D01*
X80223038Y-2276759D01*
X80020582Y-2400825D01*
X80020580Y-2400826D01*
X79840030Y-2555030D01*
X79685826Y-2735580D01*
X79685825Y-2735582D01*
X79561759Y-2938038D01*
X79470894Y-3157407D01*
X79430448Y-3325880D01*
X79415465Y-3388289D01*
X79396835Y-3625000D01*
X78461385Y-3625000D01*
X78391938Y-3504714D01*
X78387980Y-3499556D01*
X78244265Y-3312262D01*
X78244259Y-3312256D01*
X78244255Y-3312251D01*
X78072748Y-3140744D01*
X78072742Y-3140739D01*
X78072738Y-3140735D01*
X77880289Y-2993064D01*
X77880288Y-2993063D01*
X77880285Y-2993061D01*
X77670224Y-2871782D01*
X77670216Y-2871778D01*
X77670212Y-2871776D01*
X77446100Y-2778946D01*
X77446097Y-2778945D01*
X77446095Y-2778944D01*
X77211782Y-2716160D01*
X76971290Y-2684500D01*
X76971288Y-2684500D01*
X76728712Y-2684500D01*
X76728709Y-2684500D01*
X76488217Y-2716160D01*
X76253904Y-2778944D01*
X76253900Y-2778946D01*
X76114984Y-2836487D01*
X76029786Y-2871777D01*
X76029773Y-2871783D01*
X75983014Y-2898779D01*
X75914019Y-2915516D01*
X75846927Y-2892294D01*
X75803041Y-2836487D01*
X75794310Y-2781060D01*
X75813193Y-2505003D01*
X75813193Y-2504995D01*
X75794443Y-2230883D01*
X75794442Y-2230877D01*
X75794442Y-2230870D01*
X75738538Y-1961847D01*
X75646523Y-1702942D01*
X75520111Y-1458977D01*
X75361657Y-1234498D01*
X75174111Y-1033686D01*
X74960969Y-860282D01*
X74726200Y-717516D01*
X74726201Y-717516D01*
X74726197Y-717514D01*
X74474180Y-608048D01*
X74474178Y-608047D01*
X74474177Y-608047D01*
X74341886Y-570981D01*
X74209593Y-533914D01*
X73937395Y-496500D01*
X73937385Y-496500D01*
X73662615Y-496500D01*
X73662604Y-496500D01*
X73390406Y-533914D01*
X73125819Y-608048D01*
X72873802Y-717514D01*
X72639028Y-860284D01*
X72425886Y-1033688D01*
X72238343Y-1234498D01*
X72079892Y-1458971D01*
X71953477Y-1702941D01*
X71861462Y-1961845D01*
X71861460Y-1961853D01*
X71846129Y-2035632D01*
X71808676Y-2215868D01*
X71805557Y-2230877D01*
X71805556Y-2230883D01*
X71786807Y-2504995D01*
X64436666Y-2504995D01*
X64369008Y-2311638D01*
X64369007Y-2311637D01*
X64369002Y-2311621D01*
X64217906Y-1997867D01*
X64032630Y-1703003D01*
X64032624Y-1702995D01*
X63815510Y-1430740D01*
X63569259Y-1184489D01*
X63297004Y-967375D01*
X63297000Y-967372D01*
X63002137Y-782096D01*
X63002128Y-782091D01*
X62688388Y-631002D01*
X62688383Y-631000D01*
X62688379Y-630998D01*
X62688373Y-630995D01*
X62688361Y-630991D01*
X62359687Y-515983D01*
X62020174Y-438491D01*
X61674122Y-399500D01*
X61674120Y-399500D01*
X61325880Y-399500D01*
X61325878Y-399500D01*
X60979825Y-438491D01*
X60640312Y-515983D01*
X60311638Y-630991D01*
X60311611Y-631002D01*
X59997871Y-782091D01*
X59997862Y-782096D01*
X59702999Y-967372D01*
X59702995Y-967375D01*
X59430740Y-1184489D01*
X59184489Y-1430740D01*
X58967375Y-1702995D01*
X58967372Y-1702999D01*
X58782096Y-1997862D01*
X58782091Y-1997871D01*
X58631002Y-2311611D01*
X58630991Y-2311638D01*
X58515983Y-2640312D01*
X58438491Y-2979825D01*
X58399500Y-3325878D01*
X57502334Y-3325878D01*
X57583240Y-3262906D01*
X57735722Y-3097268D01*
X57858860Y-2908791D01*
X57949296Y-2702616D01*
X58004564Y-2484368D01*
X58023156Y-2260000D01*
X58004564Y-2035632D01*
X57949296Y-1817384D01*
X57858860Y-1611209D01*
X57852140Y-1600924D01*
X57735724Y-1422734D01*
X57735720Y-1422729D01*
X57583237Y-1257091D01*
X57501382Y-1193381D01*
X57405576Y-1118811D01*
X57207574Y-1011658D01*
X57207572Y-1011657D01*
X57207571Y-1011656D01*
X56994639Y-938557D01*
X56994630Y-938555D01*
X56950476Y-931187D01*
X56772569Y-901500D01*
X56547431Y-901500D01*
X56399211Y-926233D01*
X56325369Y-938555D01*
X56325360Y-938557D01*
X56112428Y-1011656D01*
X56112426Y-1011658D01*
X55914426Y-1118810D01*
X55914424Y-1118811D01*
X55736762Y-1257091D01*
X55584279Y-1422729D01*
X55495483Y-1558643D01*
X55441479Y-1604731D01*
X55371131Y-1614306D01*
X55306774Y-1584329D01*
X55284517Y-1558643D01*
X55195720Y-1422729D01*
X55043237Y-1257091D01*
X54961382Y-1193381D01*
X54865576Y-1118811D01*
X54667574Y-1011658D01*
X54667572Y-1011657D01*
X54667571Y-1011656D01*
X54454639Y-938557D01*
X54454630Y-938555D01*
X54410476Y-931187D01*
X54232569Y-901500D01*
X54007431Y-901500D01*
X53859211Y-926233D01*
X53785369Y-938555D01*
X53785360Y-938557D01*
X53572428Y-1011656D01*
X53572426Y-1011658D01*
X53374426Y-1118810D01*
X53374424Y-1118811D01*
X53196762Y-1257091D01*
X53044279Y-1422729D01*
X52955483Y-1558643D01*
X52901479Y-1604731D01*
X52831131Y-1614306D01*
X52766774Y-1584329D01*
X52744517Y-1558643D01*
X52655720Y-1422729D01*
X52503237Y-1257091D01*
X52421382Y-1193381D01*
X52325576Y-1118811D01*
X52127574Y-1011658D01*
X52127572Y-1011657D01*
X52127571Y-1011656D01*
X51914639Y-938557D01*
X51914630Y-938555D01*
X51870476Y-931187D01*
X51692569Y-901500D01*
X51467431Y-901500D01*
X51319211Y-926233D01*
X51245369Y-938555D01*
X51245360Y-938557D01*
X51032428Y-1011656D01*
X51032426Y-1011658D01*
X50834426Y-1118810D01*
X50834424Y-1118811D01*
X50656762Y-1257091D01*
X50504279Y-1422729D01*
X50415483Y-1558643D01*
X50361479Y-1604731D01*
X50291131Y-1614306D01*
X50226774Y-1584329D01*
X50204517Y-1558643D01*
X50115720Y-1422729D01*
X49963237Y-1257091D01*
X49881382Y-1193381D01*
X49785576Y-1118811D01*
X49587574Y-1011658D01*
X49587572Y-1011657D01*
X49587571Y-1011656D01*
X49374639Y-938557D01*
X49374630Y-938555D01*
X49330476Y-931187D01*
X49152569Y-901500D01*
X48927431Y-901500D01*
X48779211Y-926233D01*
X48705369Y-938555D01*
X48705360Y-938557D01*
X48492428Y-1011656D01*
X48492426Y-1011658D01*
X48294426Y-1118810D01*
X48294424Y-1118811D01*
X48116762Y-1257091D01*
X47964279Y-1422729D01*
X47875483Y-1558643D01*
X47821479Y-1604731D01*
X47751131Y-1614306D01*
X47686774Y-1584329D01*
X47664517Y-1558643D01*
X47575720Y-1422729D01*
X47423237Y-1257091D01*
X47341382Y-1193381D01*
X47245576Y-1118811D01*
X47047574Y-1011658D01*
X47047572Y-1011657D01*
X47047571Y-1011656D01*
X46834639Y-938557D01*
X46834630Y-938555D01*
X46790476Y-931187D01*
X46612569Y-901500D01*
X46387431Y-901500D01*
X46239211Y-926233D01*
X46165369Y-938555D01*
X46165360Y-938557D01*
X45952428Y-1011656D01*
X45952426Y-1011658D01*
X45754426Y-1118810D01*
X45754424Y-1118811D01*
X45576762Y-1257091D01*
X45424279Y-1422729D01*
X45335483Y-1558643D01*
X45281479Y-1604731D01*
X45211131Y-1614306D01*
X45146774Y-1584329D01*
X45124517Y-1558643D01*
X45035720Y-1422729D01*
X44883237Y-1257091D01*
X44801382Y-1193381D01*
X44705576Y-1118811D01*
X44507574Y-1011658D01*
X44507572Y-1011657D01*
X44507571Y-1011656D01*
X44294639Y-938557D01*
X44294630Y-938555D01*
X44250476Y-931187D01*
X44072569Y-901500D01*
X43847431Y-901500D01*
X43699211Y-926233D01*
X43625369Y-938555D01*
X43625360Y-938557D01*
X43412428Y-1011656D01*
X43412426Y-1011658D01*
X43214426Y-1118810D01*
X43214424Y-1118811D01*
X43036762Y-1257091D01*
X42884279Y-1422729D01*
X42795483Y-1558643D01*
X42741479Y-1604731D01*
X42671131Y-1614306D01*
X42606774Y-1584329D01*
X42584517Y-1558643D01*
X42495720Y-1422729D01*
X42343237Y-1257091D01*
X42261382Y-1193381D01*
X42165576Y-1118811D01*
X41967574Y-1011658D01*
X41967572Y-1011657D01*
X41967571Y-1011656D01*
X41754639Y-938557D01*
X41754630Y-938555D01*
X41710476Y-931187D01*
X41532569Y-901500D01*
X41307431Y-901500D01*
X41159211Y-926233D01*
X41085369Y-938555D01*
X41085360Y-938557D01*
X40872428Y-1011656D01*
X40872426Y-1011658D01*
X40674426Y-1118810D01*
X40674424Y-1118811D01*
X40496762Y-1257091D01*
X40344279Y-1422729D01*
X40255483Y-1558643D01*
X40201479Y-1604731D01*
X40131131Y-1614306D01*
X40066774Y-1584329D01*
X40044517Y-1558643D01*
X39955720Y-1422729D01*
X39803237Y-1257091D01*
X39721382Y-1193381D01*
X39625576Y-1118811D01*
X39427574Y-1011658D01*
X39427572Y-1011657D01*
X39427571Y-1011656D01*
X39214639Y-938557D01*
X39214630Y-938555D01*
X39170476Y-931187D01*
X38992569Y-901500D01*
X38767431Y-901500D01*
X38619211Y-926233D01*
X38545369Y-938555D01*
X38545360Y-938557D01*
X38332428Y-1011656D01*
X38332426Y-1011658D01*
X38134426Y-1118810D01*
X38134424Y-1118811D01*
X37956762Y-1257091D01*
X37804279Y-1422729D01*
X37715483Y-1558643D01*
X37661479Y-1604731D01*
X37591131Y-1614306D01*
X37526774Y-1584329D01*
X37504517Y-1558643D01*
X37415720Y-1422729D01*
X37263237Y-1257091D01*
X37181382Y-1193381D01*
X37085576Y-1118811D01*
X36887574Y-1011658D01*
X36887572Y-1011657D01*
X36887571Y-1011656D01*
X36674639Y-938557D01*
X36674630Y-938555D01*
X36630476Y-931187D01*
X36452569Y-901500D01*
X36227431Y-901500D01*
X36079211Y-926233D01*
X36005369Y-938555D01*
X36005360Y-938557D01*
X35792428Y-1011656D01*
X35792426Y-1011658D01*
X35594426Y-1118810D01*
X35594424Y-1118811D01*
X35416762Y-1257091D01*
X35264279Y-1422729D01*
X35175483Y-1558643D01*
X35121479Y-1604731D01*
X35051131Y-1614306D01*
X34986774Y-1584329D01*
X34964517Y-1558643D01*
X34875720Y-1422729D01*
X34723237Y-1257091D01*
X34641382Y-1193381D01*
X34545576Y-1118811D01*
X34347574Y-1011658D01*
X34347572Y-1011657D01*
X34347571Y-1011656D01*
X34134639Y-938557D01*
X34134630Y-938555D01*
X34090476Y-931187D01*
X33912569Y-901500D01*
X33687431Y-901500D01*
X33539211Y-926233D01*
X33465369Y-938555D01*
X33465360Y-938557D01*
X33252428Y-1011656D01*
X33252426Y-1011658D01*
X33054426Y-1118810D01*
X33054424Y-1118811D01*
X32876762Y-1257091D01*
X32724279Y-1422729D01*
X32635483Y-1558643D01*
X32581479Y-1604731D01*
X32511131Y-1614306D01*
X32446774Y-1584329D01*
X32424517Y-1558643D01*
X32335720Y-1422729D01*
X32183237Y-1257091D01*
X32101382Y-1193381D01*
X32005576Y-1118811D01*
X31807574Y-1011658D01*
X31807572Y-1011657D01*
X31807571Y-1011656D01*
X31594639Y-938557D01*
X31594630Y-938555D01*
X31550476Y-931187D01*
X31372569Y-901500D01*
X31147431Y-901500D01*
X30999211Y-926233D01*
X30925369Y-938555D01*
X30925360Y-938557D01*
X30712428Y-1011656D01*
X30712426Y-1011658D01*
X30514426Y-1118810D01*
X30514424Y-1118811D01*
X30336762Y-1257091D01*
X30184279Y-1422729D01*
X30095483Y-1558643D01*
X30041479Y-1604731D01*
X29971131Y-1614306D01*
X29906774Y-1584329D01*
X29884517Y-1558643D01*
X29795720Y-1422729D01*
X29643237Y-1257091D01*
X29561382Y-1193381D01*
X29465576Y-1118811D01*
X29267574Y-1011658D01*
X29267572Y-1011657D01*
X29267571Y-1011656D01*
X29054639Y-938557D01*
X29054630Y-938555D01*
X29010476Y-931187D01*
X28832569Y-901500D01*
X28607431Y-901500D01*
X28459211Y-926233D01*
X28385369Y-938555D01*
X28385360Y-938557D01*
X28172428Y-1011656D01*
X28172426Y-1011658D01*
X27974426Y-1118810D01*
X27974424Y-1118811D01*
X27796762Y-1257091D01*
X27644279Y-1422729D01*
X27555483Y-1558643D01*
X27501479Y-1604731D01*
X27431131Y-1614306D01*
X27366774Y-1584329D01*
X27344517Y-1558643D01*
X27255720Y-1422729D01*
X27103237Y-1257091D01*
X27021382Y-1193381D01*
X26925576Y-1118811D01*
X26727574Y-1011658D01*
X26727572Y-1011657D01*
X26727571Y-1011656D01*
X26514639Y-938557D01*
X26514630Y-938555D01*
X26470476Y-931187D01*
X26292569Y-901500D01*
X26067431Y-901500D01*
X25919211Y-926233D01*
X25845369Y-938555D01*
X25845360Y-938557D01*
X25632428Y-1011656D01*
X25632426Y-1011658D01*
X25434426Y-1118810D01*
X25434424Y-1118811D01*
X25256762Y-1257091D01*
X25104279Y-1422729D01*
X25015483Y-1558643D01*
X24961479Y-1604731D01*
X24891131Y-1614306D01*
X24826774Y-1584329D01*
X24804517Y-1558643D01*
X24715720Y-1422729D01*
X24563237Y-1257091D01*
X24481382Y-1193381D01*
X24385576Y-1118811D01*
X24187574Y-1011658D01*
X24187572Y-1011657D01*
X24187571Y-1011656D01*
X23974639Y-938557D01*
X23974630Y-938555D01*
X23930476Y-931187D01*
X23752569Y-901500D01*
X23527431Y-901500D01*
X23379211Y-926233D01*
X23305369Y-938555D01*
X23305360Y-938557D01*
X23092428Y-1011656D01*
X23092426Y-1011658D01*
X22894426Y-1118810D01*
X22894424Y-1118811D01*
X22716762Y-1257091D01*
X22564279Y-1422729D01*
X22475483Y-1558643D01*
X22421479Y-1604731D01*
X22351131Y-1614306D01*
X22286774Y-1584329D01*
X22264517Y-1558643D01*
X22175720Y-1422729D01*
X22023237Y-1257091D01*
X21941382Y-1193381D01*
X21845576Y-1118811D01*
X21647574Y-1011658D01*
X21647572Y-1011657D01*
X21647571Y-1011656D01*
X21434639Y-938557D01*
X21434630Y-938555D01*
X21390476Y-931187D01*
X21212569Y-901500D01*
X20987431Y-901500D01*
X20839211Y-926233D01*
X20765369Y-938555D01*
X20765360Y-938557D01*
X20552428Y-1011656D01*
X20552426Y-1011658D01*
X20354426Y-1118810D01*
X20354424Y-1118811D01*
X20176762Y-1257091D01*
X20024279Y-1422729D01*
X19935483Y-1558643D01*
X19881479Y-1604731D01*
X19811131Y-1614306D01*
X19746774Y-1584329D01*
X19724517Y-1558643D01*
X19635720Y-1422729D01*
X19483237Y-1257091D01*
X19401382Y-1193381D01*
X19305576Y-1118811D01*
X19107574Y-1011658D01*
X19107572Y-1011657D01*
X19107571Y-1011656D01*
X18894639Y-938557D01*
X18894630Y-938555D01*
X18850476Y-931187D01*
X18672569Y-901500D01*
X18447431Y-901500D01*
X18299211Y-926233D01*
X18225369Y-938555D01*
X18225360Y-938557D01*
X18012428Y-1011656D01*
X18012426Y-1011658D01*
X17814426Y-1118810D01*
X17814424Y-1118811D01*
X17636762Y-1257091D01*
X17484279Y-1422729D01*
X17395483Y-1558643D01*
X17341479Y-1604731D01*
X17271131Y-1614306D01*
X17206774Y-1584329D01*
X17184517Y-1558643D01*
X17095720Y-1422729D01*
X16943237Y-1257091D01*
X16861382Y-1193381D01*
X16765576Y-1118811D01*
X16567574Y-1011658D01*
X16567572Y-1011657D01*
X16567571Y-1011656D01*
X16354639Y-938557D01*
X16354630Y-938555D01*
X16310476Y-931187D01*
X16132569Y-901500D01*
X15907431Y-901500D01*
X15759211Y-926233D01*
X15685369Y-938555D01*
X15685360Y-938557D01*
X15472428Y-1011656D01*
X15472426Y-1011658D01*
X15274426Y-1118810D01*
X15274424Y-1118811D01*
X15096762Y-1257091D01*
X14944279Y-1422729D01*
X14855483Y-1558643D01*
X14801479Y-1604731D01*
X14731131Y-1614306D01*
X14666774Y-1584329D01*
X14644517Y-1558643D01*
X14555720Y-1422729D01*
X14403237Y-1257091D01*
X14321382Y-1193381D01*
X14225576Y-1118811D01*
X14027574Y-1011658D01*
X14027572Y-1011657D01*
X14027571Y-1011656D01*
X13814639Y-938557D01*
X13814630Y-938555D01*
X13770476Y-931187D01*
X13592569Y-901500D01*
X13367431Y-901500D01*
X13219211Y-926233D01*
X13145369Y-938555D01*
X13145360Y-938557D01*
X12932428Y-1011656D01*
X12932426Y-1011658D01*
X12734426Y-1118810D01*
X12734424Y-1118811D01*
X12556762Y-1257091D01*
X12404279Y-1422729D01*
X12315483Y-1558643D01*
X12261479Y-1604731D01*
X12191131Y-1614306D01*
X12126774Y-1584329D01*
X12104517Y-1558643D01*
X12015720Y-1422729D01*
X11863237Y-1257091D01*
X11781382Y-1193381D01*
X11685576Y-1118811D01*
X11487574Y-1011658D01*
X11487572Y-1011657D01*
X11487571Y-1011656D01*
X11274639Y-938557D01*
X11274630Y-938555D01*
X11230476Y-931187D01*
X11052569Y-901500D01*
X10827431Y-901500D01*
X10679211Y-926233D01*
X10605369Y-938555D01*
X10605360Y-938557D01*
X10392428Y-1011656D01*
X10392426Y-1011658D01*
X10194426Y-1118810D01*
X10194424Y-1118811D01*
X10016762Y-1257091D01*
X9864279Y-1422729D01*
X9775483Y-1558643D01*
X9721479Y-1604731D01*
X9651131Y-1614306D01*
X9586774Y-1584329D01*
X9564517Y-1558643D01*
X9475720Y-1422729D01*
X9323237Y-1257091D01*
X9241382Y-1193381D01*
X9145576Y-1118811D01*
X8947574Y-1011658D01*
X8947572Y-1011657D01*
X8947571Y-1011656D01*
X8734639Y-938557D01*
X8734630Y-938555D01*
X8690476Y-931187D01*
X8512569Y-901500D01*
X8287431Y-901500D01*
X8139211Y-926233D01*
X8065369Y-938555D01*
X8065360Y-938557D01*
X7852428Y-1011656D01*
X7852426Y-1011658D01*
X7654426Y-1118810D01*
X7654424Y-1118811D01*
X7476762Y-1257091D01*
X7324279Y-1422729D01*
X7324275Y-1422734D01*
X7201141Y-1611206D01*
X7110703Y-1817386D01*
X7110702Y-1817387D01*
X7055437Y-2035624D01*
X7055436Y-2035630D01*
X7055436Y-2035632D01*
X7036844Y-2260000D01*
X6344143Y-2260000D01*
X6217906Y-1997867D01*
X6032630Y-1703003D01*
X6032624Y-1702995D01*
X5815510Y-1430740D01*
X5569259Y-1184489D01*
X5297004Y-967375D01*
X5297000Y-967372D01*
X5002137Y-782096D01*
X5002128Y-782091D01*
X4688388Y-631002D01*
X4688383Y-631000D01*
X4688379Y-630998D01*
X4688373Y-630995D01*
X4688361Y-630991D01*
X4359687Y-515983D01*
X4020174Y-438491D01*
X3674122Y-399500D01*
X3674120Y-399500D01*
X3325880Y-399500D01*
X3325878Y-399500D01*
X2979825Y-438491D01*
X2640312Y-515983D01*
X2311638Y-630991D01*
X2311611Y-631002D01*
X1997871Y-782091D01*
X1997862Y-782096D01*
X1702999Y-967372D01*
X1702995Y-967375D01*
X1430740Y-1184489D01*
X1184489Y-1430740D01*
X967375Y-1702995D01*
X967372Y-1702999D01*
X782096Y-1997862D01*
X782091Y-1997871D01*
X631002Y-2311611D01*
X630991Y-2311638D01*
X515983Y-2640312D01*
X438491Y-2979825D01*
X399500Y-3325878D01*
X25500Y-3325878D01*
X25500Y-3003293D01*
X25673Y-2996699D01*
X33810Y-2841440D01*
X41449Y-2695678D01*
X42827Y-2682563D01*
X70950Y-2505004D01*
X89467Y-2388084D01*
X92209Y-2375188D01*
X109242Y-2311621D01*
X169376Y-2087195D01*
X173445Y-2074672D01*
X280295Y-1796319D01*
X285656Y-1784280D01*
X291203Y-1773393D01*
X421014Y-1518623D01*
X427596Y-1507222D01*
X589994Y-1257151D01*
X597725Y-1246512D01*
X785369Y-1014790D01*
X794175Y-1005011D01*
X1005011Y-794175D01*
X1014790Y-785369D01*
X1246512Y-597725D01*
X1257151Y-589994D01*
X1507222Y-427596D01*
X1518623Y-421014D01*
X1784280Y-285655D01*
X1796319Y-280295D01*
X2074672Y-173445D01*
X2087195Y-169376D01*
X2375192Y-92208D01*
X2388084Y-89467D01*
X2682566Y-42826D01*
X2695678Y-41449D01*
X2996699Y-25672D01*
X3003293Y-25500D01*
X3008285Y-25500D01*
X81991715Y-25500D01*
X81996707Y-25500D01*
X82003300Y-25672D01*
G37*
G04 #@! TD.AperFunction*
D19*
X62870328Y-26500000D02*
G75*
G02*
X60129672Y-26500000I-1370328J0D01*
G01*
X60129672Y-26500000D02*
G75*
G02*
X62870328Y-26500000I1370328J0D01*
G01*
X82000000Y0D02*
G75*
G02*
X85000000Y-3000000I0J-3000000D01*
G01*
X85000000Y-53000000D02*
G75*
G02*
X82000000Y-56000000I-3000000J0D01*
G01*
X3000000Y-56000000D02*
G75*
G02*
X0Y-53000000I0J3000000D01*
G01*
X0Y-3000000D02*
G75*
G02*
X3000000Y0I3000000J0D01*
G01*
X0Y-53000000D02*
X0Y-3000000D01*
X82000000Y-56000000D02*
X3000000Y-56000000D01*
X85000000Y-3000000D02*
X85000000Y-53000000D01*
X3000000Y0D02*
X82000000Y0D01*
X62870328Y-3500000D02*
G75*
G02*
X60129672Y-3500000I-1370328J0D01*
G01*
X60129672Y-3500000D02*
G75*
G02*
X62870328Y-3500000I1370328J0D01*
G01*
X4870328Y-26500000D02*
G75*
G02*
X2129672Y-26500000I-1370328J0D01*
G01*
X2129672Y-26500000D02*
G75*
G02*
X4870328Y-26500000I1370328J0D01*
G01*
X4870328Y-3500000D02*
G75*
G02*
X2129672Y-3500000I-1370328J0D01*
G01*
X2129672Y-3500000D02*
G75*
G02*
X4870328Y-3500000I1370328J0D01*
G01*
M02*
