G04 #@! TF.GenerationSoftware,KiCad,Pcbnew,8.0.3*
G04 #@! TF.CreationDate,2024-07-26T16:49:24+02:00*
G04 #@! TF.ProjectId,ice4pi,69636534-7069-42e6-9b69-6361645f7063,rev?*
G04 #@! TF.SameCoordinates,PX2faf080PY2ebae40*
G04 #@! TF.FileFunction,Legend,Bot*
G04 #@! TF.FilePolarity,Positive*
%FSLAX46Y46*%
G04 Gerber Fmt 4.6, Leading zero omitted, Abs format (unit mm)*
G04 Created by KiCad (PCBNEW 8.0.3) date 2024-07-26 16:49:24*
%MOMM*%
%LPD*%
G01*
G04 APERTURE LIST*
%ADD10C,0.150000*%
%ADD11C,0.120000*%
G04 #@! TA.AperFunction,Profile*
%ADD12C,0.050000*%
G04 #@! TD*
G04 APERTURE END LIST*
D10*
X5084819Y-3196666D02*
X5799104Y-3196666D01*
X5799104Y-3196666D02*
X5941961Y-3149047D01*
X5941961Y-3149047D02*
X6037200Y-3053809D01*
X6037200Y-3053809D02*
X6084819Y-2910952D01*
X6084819Y-2910952D02*
X6084819Y-2815714D01*
X5180057Y-3625238D02*
X5132438Y-3672857D01*
X5132438Y-3672857D02*
X5084819Y-3768095D01*
X5084819Y-3768095D02*
X5084819Y-4006190D01*
X5084819Y-4006190D02*
X5132438Y-4101428D01*
X5132438Y-4101428D02*
X5180057Y-4149047D01*
X5180057Y-4149047D02*
X5275295Y-4196666D01*
X5275295Y-4196666D02*
X5370533Y-4196666D01*
X5370533Y-4196666D02*
X5513390Y-4149047D01*
X5513390Y-4149047D02*
X6084819Y-3577619D01*
X6084819Y-3577619D02*
X6084819Y-4196666D01*
D11*
X7070000Y-930000D02*
X7070000Y-3530000D01*
X7070000Y-930000D02*
X57990000Y-930000D01*
X7070000Y-3530000D02*
X9670000Y-3530000D01*
X7070000Y-4800000D02*
X7070000Y-6130000D01*
X7070000Y-6130000D02*
X8400000Y-6130000D01*
X9670000Y-3530000D02*
X9670000Y-6130000D01*
X9670000Y-6130000D02*
X57990000Y-6130000D01*
X57990000Y-930000D02*
X57990000Y-6130000D01*
D12*
X62870328Y-26500000D02*
G75*
G02*
X60129672Y-26500000I-1370328J0D01*
G01*
X60129672Y-26500000D02*
G75*
G02*
X62870328Y-26500000I1370328J0D01*
G01*
X82000000Y0D02*
G75*
G02*
X85000000Y-3000000I0J-3000000D01*
G01*
X85000000Y-53000000D02*
G75*
G02*
X82000000Y-56000000I-3000000J0D01*
G01*
X3000000Y-56000000D02*
G75*
G02*
X0Y-53000000I0J3000000D01*
G01*
X0Y-3000000D02*
G75*
G02*
X3000000Y0I3000000J0D01*
G01*
X0Y-53000000D02*
X0Y-3000000D01*
X82000000Y-56000000D02*
X3000000Y-56000000D01*
X85000000Y-3000000D02*
X85000000Y-53000000D01*
X3000000Y0D02*
X82000000Y0D01*
X62870328Y-3500000D02*
G75*
G02*
X60129672Y-3500000I-1370328J0D01*
G01*
X60129672Y-3500000D02*
G75*
G02*
X62870328Y-3500000I1370328J0D01*
G01*
X4870328Y-26500000D02*
G75*
G02*
X2129672Y-26500000I-1370328J0D01*
G01*
X2129672Y-26500000D02*
G75*
G02*
X4870328Y-26500000I1370328J0D01*
G01*
X4870328Y-3500000D02*
G75*
G02*
X2129672Y-3500000I-1370328J0D01*
G01*
X2129672Y-3500000D02*
G75*
G02*
X4870328Y-3500000I1370328J0D01*
G01*
M02*
