M48
; DRILL file {KiCad 8.0.3} date 2024-07-26T16:49:30+0200
; FORMAT={-:-/ absolute / inch / decimal}
; #@! TF.CreationDate,2024-07-26T16:49:30+02:00
; #@! TF.GenerationSoftware,Kicad,Pcbnew,8.0.3
; #@! TF.FileFunction,Plated,1,4,PTH
FMAT,2
INCH
; #@! TA.AperFunction,Plated,PTH,ViaDrill
T1C0.0157
; #@! TA.AperFunction,Plated,PTH,ComponentDrill
T2C0.0236
; #@! TA.AperFunction,Plated,PTH,ComponentDrill
T3C0.0354
; #@! TA.AperFunction,Plated,PTH,ComponentDrill
T4C0.0394
; #@! TA.AperFunction,Plated,PTH,ComponentDrill
T5C0.0409
; #@! TA.AperFunction,Plated,PTH,ComponentDrill
T6C0.0669
%
G90
G05
T1
X0.3465Y-1.9055
X0.5354Y-1.9016
X0.937Y-1.5748
X0.937Y-1.8898
X1.1575Y-1.7323
X1.4291Y-0.5591
X1.4291Y-0.7874
X1.5354Y-0.685
X1.6299Y-1.5748
X1.6299Y-1.8898
X1.667Y-0.679
X1.721Y-0.628
X1.77Y-0.577
X1.821Y-0.527
X1.8504Y-1.5748
X1.8504Y-1.8898
X1.9094Y-1.0827
X1.939Y-0.9547
X2.0669Y-0.748
X2.0669Y-0.748
X2.0965Y-1.7126
X2.126Y-0.7677
X2.1654Y-0.9331
X2.1654Y-1.2283
X2.185Y-1.6142
X2.2638Y-1.9094
X2.424Y-1.573
X2.5157Y-1.5236
X2.5512Y-1.1693
X2.5866Y-1.4921
X2.5906Y-1.6063
X2.6059Y-1.1024
X2.6535Y-1.4567
X2.7165Y-0.748
X2.7165Y-0.8268
X2.7169Y-1.1024
X2.7362Y-0.7087
X2.8082Y-0.7351
X2.8661Y-0.8976
X2.9252Y-0.8976
X2.9331Y-1.374
X2.9331Y-1.4528
X2.9331Y-1.5945
X3.0709Y-1.8425
X3.0796Y-0.8822
X3.0796Y-0.9924
X3.1142Y-1.7087
X3.1575Y-0.9409
X3.1575Y-1.4016
X3.2205Y-1.6102
X3.2362Y-0.9409
X3.2362Y-1.4291
T3
X2.6756Y-0.2285
X2.6756Y-0.3285
X2.6756Y-0.4285
X2.6756Y-0.5285
X2.6756Y-0.6285
X2.7756Y-0.1785
X2.7756Y-0.3785
X2.7756Y-0.4785
X2.7756Y-0.5785
T4
X2.7622Y-2.0169
X2.7622Y-2.1169
X2.8622Y-2.0169
X2.8622Y-2.1169
X2.9622Y-2.0169
X2.9622Y-2.1169
X3.1854Y-0.1427
X3.1854Y-0.2427
X3.1854Y-0.5648
X3.1854Y-0.6648
T5
X0.3307Y-0.089
X0.3307Y-0.189
X0.4307Y-0.089
X0.4307Y-0.189
X0.5307Y-0.089
X0.5307Y-0.189
X0.6307Y-0.089
X0.6307Y-0.189
X0.7307Y-0.089
X0.7307Y-0.189
X0.8307Y-0.089
X0.8307Y-0.189
X0.9307Y-0.089
X0.9307Y-0.189
X1.0307Y-0.089
X1.0307Y-0.189
X1.1307Y-0.089
X1.1307Y-0.189
X1.2307Y-0.089
X1.2307Y-0.189
X1.3307Y-0.089
X1.3307Y-0.189
X1.4307Y-0.089
X1.4307Y-0.189
X1.5307Y-0.089
X1.5307Y-0.189
X1.6307Y-0.089
X1.6307Y-0.189
X1.7307Y-0.089
X1.7307Y-0.189
X1.8307Y-0.089
X1.8307Y-0.189
X1.9307Y-0.089
X1.9307Y-0.189
X2.0307Y-0.089
X2.0307Y-0.189
X2.1307Y-0.089
X2.1307Y-0.189
X2.2307Y-0.089
X2.2307Y-0.189
T6
X2.9055Y-0.0986
X2.9055Y-0.7089
T2
G00X0.2709Y-1.9624
M15
G01X0.2709Y-2.0057
M16
G05
G00X0.2709Y-2.1329
M15
G01X0.2709Y-2.1644
M16
G05
G00X0.611Y-1.9624
M15
G01X0.611Y-2.0057
M16
G05
G00X0.611Y-2.1329
M15
G01X0.611Y-2.1644
M16
G05
M30
